<?xml version="1.0" encoding="utf-8"?>
<!-- Generator: Adobe Illustrator 24.1.2, SVG Export Plug-In . SVG Version: 6.00 Build 0)  -->
<svg version="1.1" xmlns="http://www.w3.org/2000/svg" xmlns:xlink="http://www.w3.org/1999/xlink" x="0px" y="0px"
	 viewBox="0 0 332 337" style="enable-background:new 0 0 332 337;" xml:space="preserve">
<style type="text/css">
	.st0{fill-rule:evenodd;clip-rule:evenodd;fill:#17B1B1;}
	.st1{fill-rule:evenodd;clip-rule:evenodd;fill:#F6BE22;}
	.st2{fill-rule:evenodd;clip-rule:evenodd;fill:#FFFFFF;}
	
		.st3{fill-rule:evenodd;clip-rule:evenodd;fill:#FFFFFF;stroke:#000000;stroke-width:1.33;stroke-linecap:round;stroke-linejoin:round;}
	.st4{fill:none;stroke:#000000;stroke-width:1.33;stroke-linecap:round;stroke-linejoin:round;}
	.st5{fill:#030100;}
	.st6{fill-rule:evenodd;clip-rule:evenodd;fill:#FDD2E1;}
	.st7{fill-rule:evenodd;clip-rule:evenodd;fill:#0A0704;}
	.st8{fill-rule:evenodd;clip-rule:evenodd;fill:#030100;}
	.st9{fill-rule:evenodd;clip-rule:evenodd;fill:#230E04;}
	.st10{fill-rule:evenodd;clip-rule:evenodd;fill:#000047;}
	.st11{fill-rule:evenodd;clip-rule:evenodd;fill:#F51618;}
	.st12{fill-rule:evenodd;clip-rule:evenodd;fill:#919191;}
	
		.st13{fill-rule:evenodd;clip-rule:evenodd;fill:none;stroke:#FFFFFF;stroke-width:1.33;stroke-linecap:round;stroke-linejoin:round;}
	.st14{fill:none;stroke:#FFFFFF;stroke-width:1.33;stroke-linecap:round;stroke-linejoin:round;}
	.st15{fill:#FFFFFF;stroke:#000000;stroke-width:1.33;stroke-linecap:round;stroke-linejoin:round;}
	.st16{fill-rule:evenodd;clip-rule:evenodd;fill:#24160C;}
	.st17{fill:#0A0704;stroke:#0A0704;stroke-miterlimit:10;}
	.st18{fill:#F6BE22;}
	.st19{fill:#17B1B1;}
	.st20{fill-rule:evenodd;clip-rule:evenodd;fill:#FFBE00;}
	.st21{fill-rule:evenodd;clip-rule:evenodd;fill:none;stroke:#000000;stroke-linecap:round;stroke-linejoin:round;}
	.st22{fill:none;stroke:#1A1A1A;stroke-width:1.33;stroke-linecap:round;stroke-linejoin:round;}
	.st23{fill:#0A0704;}
	.st24{fill-rule:evenodd;clip-rule:evenodd;fill:#12847E;}
	.st25{fill:#F51618;}
	.st26{fill:none;stroke:#000000;stroke-miterlimit:10;}
	.st27{fill:#0092FF;}
	.st28{fill:#007994;}
	.st29{fill:none;stroke:#F6BE22;stroke-width:1.33;stroke-linecap:round;stroke-linejoin:round;}
	.st30{fill:#FDD2E1;}
	.st31{fill:#0C9390;}
	
		.st32{fill-rule:evenodd;clip-rule:evenodd;fill:none;stroke:#000000;stroke-width:1.33;stroke-linecap:round;stroke-linejoin:round;}
	.st33{fill:#A9D18F;}
	.st34{stroke:#000000;stroke-linejoin:round;}
	.st35{fill:#C5DFB5;}
	.st36{fill:#FFFA94;}
	.st37{fill-rule:evenodd;clip-rule:evenodd;fill:#0092FF;}
	
		.st38{fill-rule:evenodd;clip-rule:evenodd;fill:#A8A8A8;stroke:#000000;stroke-width:1.33;stroke-linecap:round;stroke-linejoin:round;}
	.st39{fill-rule:evenodd;clip-rule:evenodd;fill:#C5DFB5;}
	.st40{fill-rule:evenodd;clip-rule:evenodd;fill:#A9D18F;}
	.st41{fill:none;stroke:#0066CC;stroke-width:1.33;stroke-linecap:round;stroke-linejoin:round;stroke-miterlimit:10;}
	.st42{fill-rule:evenodd;clip-rule:evenodd;fill:#FFFA94;}
	.st43{fill:#5D5D5D;}
	.st44{clip-path:url(#SVGID_6_);fill:#FFFFFF;}
	.st45{fill-rule:evenodd;clip-rule:evenodd;fill:#00CB99;}
	.st46{fill:none;stroke:#00EDB3;stroke-width:7.42;stroke-linecap:round;stroke-linejoin:round;}
	.st47{fill-rule:evenodd;clip-rule:evenodd;fill:#4971AF;}
	.st48{fill-rule:evenodd;clip-rule:evenodd;fill:#282828;}
	.st49{fill:#FFFBF2;}
	.st50{fill-rule:evenodd;clip-rule:evenodd;fill:#3AE5BB;}
	.st51{fill-rule:evenodd;clip-rule:evenodd;fill:#514A45;}
	.st52{fill-rule:evenodd;clip-rule:evenodd;fill:#F9CB00;}
	.st53{fill-rule:evenodd;clip-rule:evenodd;fill:#05DBED;}
	.st54{fill-rule:evenodd;clip-rule:evenodd;fill:#E9B200;}
	.st55{clip-path:url(#SVGID_8_);}
	.st56{fill:none;stroke:#FFFFFF;stroke-width:3;stroke-linecap:round;stroke-linejoin:round;}
	.st57{fill:none;stroke:#E9B200;stroke-width:5;stroke-miterlimit:10;}
	.st58{fill-rule:evenodd;clip-rule:evenodd;fill:#00DB00;}
	.st59{fill:#00BC00;}
	.st60{fill:#00DB00;}
	.st61{fill:none;}
	.st62{fill:#F4BC23;}
	.st63{fill-rule:evenodd;clip-rule:evenodd;}
	.st64{fill-rule:evenodd;clip-rule:evenodd;fill:#0068AB;}
	.st65{fill:#BEC7C9;}
	.st66{fill:#0068AB;}
	.st67{fill:#005C89;}
	.st68{clip-path:url(#SVGID_10_);fill:none;stroke:#000000;stroke-width:1.33;stroke-linecap:round;stroke-linejoin:round;}
	.st69{fill:#E1A916;}
	.st70{opacity:0.55;}
	.st71{fill:#FDBE43;}
	.st72{fill:#FFFFFF;}
	.st73{fill:#0067A6;}
	.st74{fill:#54D900;}
	.st75{fill:#0068A7;}
	.st76{fill:#0068A5;}
	.st77{fill:#B8B8B8;}
	.st78{fill:#5C5C5C;}
	.st79{fill:#666464;}
	.st80{fill:#5A5959;}
	.st81{fill:#7C7B7B;}
	.st82{fill:#BCBCBC;}
	.st83{fill:#757575;}
	.st84{fill:#D3D0D0;}
	.st85{fill:#0068A4;}
	.st86{fill:#0067A4;}
	.st87{fill:#4AB000;}
	.st88{fill:#7DDF45;}
	.st89{fill:#7FDF47;}
	.st90{fill:#39BB49;}
	.st91{fill:#D5EADA;}
	.st92{fill:#CDE6D3;}
	.st93{fill:#84DA60;}
	.st94{fill:#D3EAD7;}
	.st95{fill:#4AC04D;}
	.st96{fill:#6FD150;}
	.st97{fill-rule:evenodd;clip-rule:evenodd;fill:#BEC7C9;}
	.st98{fill:#D0D1D6;}
	.st99{fill-rule:evenodd;clip-rule:evenodd;fill:#7394E3;}
	
		.st100{fill-rule:evenodd;clip-rule:evenodd;fill:#17B1B1;stroke:#000000;stroke-width:1.33;stroke-linecap:round;stroke-linejoin:round;}
	.st101{fill-rule:evenodd;clip-rule:evenodd;fill:#408E96;}
	.st102{clip-path:url(#SVGID_12_);}
	.st103{fill:#408E96;}
	.st104{clip-path:url(#SVGID_14_);}
	.st105{fill-rule:evenodd;clip-rule:evenodd;fill:#9AF4F1;}
	
		.st106{fill-rule:evenodd;clip-rule:evenodd;fill:#0A0704;stroke:#FFFFFF;stroke-width:1.33;stroke-linecap:round;stroke-linejoin:round;}
	
		.st107{fill-rule:evenodd;clip-rule:evenodd;fill:#F6BE22;stroke:#000000;stroke-width:1.33;stroke-linecap:round;stroke-linejoin:round;}
	.st108{fill-rule:evenodd;clip-rule:evenodd;fill:#FDFDFD;}
	.st109{fill-rule:evenodd;clip-rule:evenodd;stroke:#000000;stroke-width:1.33;stroke-linecap:round;stroke-linejoin:round;}
	.st110{fill-rule:evenodd;clip-rule:evenodd;fill:#F5F5F5;}
	.st111{fill:none;stroke:#F51618;stroke-width:1.33;stroke-linecap:round;stroke-linejoin:round;}
	.st112{clip-path:url(#SVGID_16_);}
	.st113{fill:none;stroke:#F6F6F6;stroke-width:1.33;stroke-linecap:round;stroke-linejoin:round;}
	.st114{fill-rule:evenodd;clip-rule:evenodd;fill:#373737;}
	.st115{fill-rule:evenodd;clip-rule:evenodd;fill:#118484;}
	.st116{fill-rule:evenodd;clip-rule:evenodd;fill:#DCB6C3;}
	.st117{fill-rule:evenodd;clip-rule:evenodd;fill:#262626;}
	.st118{fill-rule:evenodd;clip-rule:evenodd;fill:#D19F14;}
	
		.st119{fill-rule:evenodd;clip-rule:evenodd;fill:#0A0704;stroke:#000000;stroke-width:1.33;stroke-linecap:round;stroke-linejoin:round;}
	.st120{fill-rule:evenodd;clip-rule:evenodd;fill:#D2A21D;}
	.st121{fill:none;stroke:#000000;stroke-width:6.34;stroke-linecap:round;stroke-linejoin:round;}
	.st122{clip-path:url(#SVGID_18_);}
	.st123{fill-rule:evenodd;clip-rule:evenodd;fill:#F6C949;}
	.st124{fill-rule:evenodd;clip-rule:evenodd;fill:#F6F6F6;}
	.st125{fill-rule:evenodd;clip-rule:evenodd;fill:#FDD2E1;stroke:#000000;stroke-width:1.33;stroke-miterlimit:10;}
	.st126{fill-rule:evenodd;clip-rule:evenodd;stroke:#FFFFFF;stroke-width:1.33;stroke-linecap:round;stroke-linejoin:round;}
	
		.st127{fill-rule:evenodd;clip-rule:evenodd;fill:#FFFFFF;stroke:#0A0704;stroke-width:1.33;stroke-linecap:round;stroke-linejoin:round;}
	
		.st128{fill-rule:evenodd;clip-rule:evenodd;fill:#31B767;stroke:#000000;stroke-width:0.75;stroke-linecap:round;stroke-linejoin:round;}
	
		.st129{fill-rule:evenodd;clip-rule:evenodd;fill:#ECB82B;stroke:#000000;stroke-width:0.75;stroke-linecap:round;stroke-linejoin:round;}
	
		.st130{fill-rule:evenodd;clip-rule:evenodd;fill:#E9EBEF;stroke:#000000;stroke-width:0.75;stroke-linecap:round;stroke-linejoin:round;}
	.st131{fill:none;stroke:#000000;stroke-width:0.75;stroke-linecap:round;stroke-linejoin:round;}
	
		.st132{fill-rule:evenodd;clip-rule:evenodd;fill:#E9EBEF;stroke:#000000;stroke-width:1.33;stroke-linecap:round;stroke-linejoin:round;}
	.st133{fill-rule:evenodd;clip-rule:evenodd;fill:#D5CECE;}
	.st134{fill-rule:evenodd;clip-rule:evenodd;fill:#FBF7F7;}
	.st135{fill-rule:evenodd;clip-rule:evenodd;stroke:#000000;stroke-miterlimit:10;}
	.st136{fill-rule:evenodd;clip-rule:evenodd;fill:#FFFFFF;stroke:#000000;stroke-linecap:round;stroke-linejoin:round;}
	.st137{fill:none;stroke:#000000;stroke-linecap:round;stroke-linejoin:round;}
	.st138{fill:#D6AE03;}
	.st139{fill:#F9CB00;}
	.st140{fill-rule:evenodd;clip-rule:evenodd;fill:none;stroke:#000000;stroke-width:7;stroke-linecap:round;stroke-linejoin:round;}
	.st141{fill-rule:evenodd;clip-rule:evenodd;fill:#F7F7F7;}
	.st142{fill:#919191;}
	.st143{clip-path:url(#SVGID_20_);fill:none;stroke:#000000;stroke-width:1.33;stroke-linecap:round;stroke-linejoin:round;}
	.st144{fill:#F6E5DC;}
	.st145{fill:#F4AA1C;}
	.st146{fill:#FBBB1F;}
	.st147{fill:#007CFF;}
	.st148{fill:none;stroke:#000000;stroke-width:1.33;stroke-linecap:round;stroke-linejoin:round;stroke-dasharray:12,15;}
	.st149{fill:#FFBE00;}
	.st150{fill-rule:evenodd;clip-rule:evenodd;fill:#0A0704;stroke:#0A0704;stroke-miterlimit:10;}
	.st151{fill:#F51618;stroke:#000000;stroke-width:1.33;stroke-linecap:round;stroke-linejoin:round;}
	.st152{fill:#5CEAE6;}
	.st153{fill:none;stroke:#000000;stroke-linejoin:round;}
	.st154{fill-rule:evenodd;clip-rule:evenodd;fill:none;}
	.st155{clip-path:url(#SVGID_24_);fill:#FFFFFF;}
	.st156{clip-path:url(#SVGID_26_);fill:none;stroke:#000000;stroke-width:1.33;stroke-linecap:round;stroke-linejoin:round;}
	.st157{clip-path:url(#SVGID_28_);}
</style>
<g id="Guides_For_Artboard">
</g>
<g id="Layer_1">
	<g>
		<g>
			<path class="st8" d="M268.9,118.4c1-0.2,3.2,0.7,3.7,2.2c0.9,2.7-0.4,6.3-1.2,7.6c-1,1.6-2.2,7.8-3.7,8.2c-3,0.9-7.8-7.3-7.6-9.6
				c0.2-2.6,5.5-2.8,7.6-7.1C267.9,119.3,268.2,118.5,268.9,118.4z"/>
			<path class="st3" d="M256.5,146.5c0.1-1,1.9-2.4,4.2-3.7c1.6-0.9,2.7-2.6,2.8-4.5c0.2-3,0.3-6.4,0.2-9.4c1.8,0.3,5.5,1,5.5,1
				l2.7,9.1c3,0,6.5,0.5,6.7,1.8c0.2,0.8-0.9,1.7-3.4,3.4c-0.6,0.4-1.1,0.7-1.6,1.1c0.8,4.3,1.2,12.2-8.1,11.6
				c-0.7,0.6-1.5-2.8-2-5.9c-1.9,0.6-3.4,0.7-4.7-0.1C257.3,150.1,256.3,148.2,256.5,146.5z"/>
			<path class="st3" d="M259,128c0.3-0.5-0.7-1.1-1.4-0.6c-0.7,0.5-0.7,2-0.2,2.4c0.4,0.4,0.8,0.5,1.4,0.5"/>
			<path class="st3" d="M257.9,117.6c0,0-0.4,14,0.8,18.4c1,3.3,8.2,3.6,9.4,0.2c1.2-3.9,0.5-18.1,0.5-18.1L257.9,117.6z"/>
			<path class="st4" d="M261.5,127.5c0,0-1.7,2.6-0.1,2.9"/>
			<g>
				<path class="st9" d="M260.2,126.4c0-0.3-0.2-0.5-0.4-0.4c-0.2,0-0.4,0.2-0.5,0.4c0,0.3,0.2,0.5,0.3,0.5
					C260,126.8,260.2,126.7,260.2,126.4z"/>
				<path class="st9" d="M264.2,126.5c0-0.3-0.2-0.5-0.4-0.4c-0.2,0-0.4,0.2-0.5,0.4c0,0.3,0.2,0.5,0.4,0.4
					C264,127,264.1,126.8,264.2,126.5z"/>
			</g>
			<path class="st3" d="M267.6,126.9c0.7-1.2,1.5-0.4,1.6-0.2c1,1.4-0.5,3.4-1.7,2.3"/>
			<path class="st8" d="M267.7,127.1c0,0-1.8-5.5-2.6-6c-2.2-1.4-4.7,2.3-9.3-0.6c-1.6-1.1-1.8-3.5-0.7-4.7c1.2-1.4,3.2-1.9,4.6-0.7
				c0.2,0.1,8.3-1,10.4,3.2c0.4,1.9-0.1,3.1-0.3,5c-0.1,0.7-0.4,3.2-0.4,3.2L267.7,127.1z"/>
			<path class="st4" d="M262.4,132c0.6,0.1,2.6-1.2,2.3-2.3"/>
			<g>
				<path class="st3" d="M219.5,162.2c0-0.4,0.3-2,0.4-2.3c1.6-2.7,2,4.8,0.1,3.7C219.3,163.2,219.5,162.9,219.5,162.2z"/>
				<path class="st3" d="M221.3,163c0.4,0.8,2.1,1.6,2.5-0.1c0.2-1-3.1-5.3-3.6-2.4C220,161.1,221,162.5,221.3,163z"/>
				<path class="st3" d="M257.4,179.7c-9.8,7.6-31.5-14.5-31.5-14.5s-1.8-1.7-2-2.8c-0.4-2.5-1.1-5.9,1.1-5.8
					c2.2,0.1,7.6,5.6,7.6,5.6s10.9,4.7,14.6,5.8c-0.2,0,1.2-14.6,3.2-18.1c5.1-9.1,7.2-2.1,8.6-0.5l-4.7,5.9
					C254.3,155.2,267.8,171.7,257.4,179.7z"/>
				<path class="st3" d="M224.4,163.7c1.3,0.7,1.5-1.1,0.5-2.2c-0.8-0.9-2-2.1-3.2-2.5C216.7,157.2,223.4,163.3,224.4,163.7z"/>
				<path class="st3" d="M225.9,160.2c-1.1-0.9-2.3-1.6-3.7-1.7c-1.2-0.1-6,0.7-6.7-0.4c-0.5-0.7,3.5-1.3,3.9-1.4
					c2-0.4,5.4-0.6,7.3,0.4"/>
				<path class="st3" d="M226,162.5c-1.1-0.8-6.6-2.7-6.8-3.3c-0.5-1.5,6.7,0,7.3,0.5"/>
			</g>
			<g>
				<defs>
					<path id="XMLID_36_" d="M255.1,151.8l-1.7,10.5l1.5,7.1l-4.8,16.8h42.5c0,0-6.6-39-6.6-40.2c0-1.2,0.4-5.6-5-6.2
						c-1.7-0.2-6.4-1.4-6.4-1.4s-9.7,7.9-10.3,7.9l-4.8-4.1c0,0-6.4,2.5-6.6,3.5C252.4,149.1,255.1,151.8,255.1,151.8z"/>
				</defs>
				<use xlink:href="#XMLID_36_"  style="overflow:visible;fill-rule:evenodd;clip-rule:evenodd;fill:#F51618;"/>
				<clipPath id="XMLID_41_">
					<use xlink:href="#XMLID_36_"  style="overflow:visible;"/>
				</clipPath>
			</g>
			<path class="st3" d="M294.5,153.4c0,0-5.9-13.6-13.5-11.2c-8.5,2.7,0,17.8,0,17.8l5.8,13.5c0,0-13.3,4.2-20.5,5.9
				c-1,0.1-2.8,0-4.5,0.6c-2.2,0.7-11.5,3.5-11.3,4.7c0.2,1.1,8.1-1.5,8.1-1.5c0,0-7.8,2-7.3,3c0.4,0.9,4.3-0.4,7.7-1.2
				c-3.4,1.6-3.7,1.6-3.5,2.4c0.2,0.9,1.6-0.1,5.4-1.2c-2.1,1-3.4,0.9-2.6,1.5c0.7,0.6,0.4,0.4,4.8-1.1c0.6-0.2,31.2,0.5,37.7-2.8
				C305.7,181.2,294.5,153.4,294.5,153.4z"/>
			<path class="st4" d="M255,169.2l-1.3-3.9c-0.6-1.9-0.7-3.9-0.3-5.8l1.6-7.8"/>
			<line class="st4" x1="257.6" y1="143.2" x2="260.6" y2="146.7"/>
			<line class="st4" x1="251.9" y1="180" x2="254.4" y2="171.2"/>
			<path class="st11" d="M282.7,140.3c2.2,0.1,3.6,1,5.1,2c6.3,4.2,11,14.7,11.7,16.8c-7.8,2.2-15.1,1.9-22.8,4.1
				c-0.6-0.9-5.2-8.4-2-16.2C275.9,143.6,281.2,141.5,282.7,140.3z"/>
			<path class="st11" d="M255.2,144.4l-2,1.1c-2.3,1.2-3.9,3.4-4.4,5.9l-1.2,6.2l8.1,3l2.5-9.1L255.2,144.4z"/>
			<polyline class="st4" points="277.3,154.3 280,162.2 281.7,162.2 			"/>
		</g>
		<g>
			<polygon class="st12" points="203.8,186.6 261.4,186.6 253.3,154.6 195.7,154.6 			"/>
			<rect x="226.9" y="182.7" class="st12" width="46.9" height="3.8"/>
			<polyline class="st13" points="250.6,154.6 258.7,186.8 274,186.8 			"/>
			<ellipse class="st13" cx="225.4" cy="169.5" rx="5.1" ry="4.5"/>
		</g>
	</g>
	<g>
		<polygon class="st1" points="110.8,152.9 57.8,152.9 65.8,122.2 118.8,122.2 		"/>
		<polygon class="st0" points="94.6,138.3 66.6,138.3 70.9,122 98.8,122 		"/>
		<path class="st25" d="M105.5,128.5H58c-2.2,0-4-1.8-4-4v-6.8c0-2.2,1.8-4,4-4h47.5c2.2,0,4,1.8,4,4v6.8
			C109.5,126.7,107.7,128.5,105.5,128.5z"/>
		<line class="st4" x1="62.3" y1="121.1" x2="104.9" y2="121.1"/>
		<line class="st4" x1="66.5" y1="144.7" x2="105.3" y2="144.7"/>
		<polyline class="st4" points="68.5,131.2 66.5,139.2 83.1,139.2 		"/>
	</g>
	<g>
		<g>
			<path class="st4" d="M148.6,180c-0.5-1.3-5.9-17.4,4.1-30.4c8.7-11.3,26.3-16.7,40.1-7.9c12.4,7.9,17.1,24.6,10.3,38.5"/>
			<path class="st138" d="M139.9,170.3c-14.2,22.4-6.6,51.5,14.3,63.3c7,3.9,14.9,5.6,22.7,5.3v-68.1
				C164.5,170.7,152.2,170.5,139.9,170.3z"/>
			<path class="st139" d="M210.3,171.3c-11.2-0.1-22.3-0.3-33.5-0.4v68.1c13.4-0.6,26.5-7.2,34.2-18.8
				C220.5,205.9,220.3,186.6,210.3,171.3z"/>
			<path class="st4" d="M170.3,218.9l12.9,0c0,0-3.1-18.4-2.5-18.9c1.9-1.3,3.1-3.4,3.1-5.8c0-3.9-3.1-7-7-7c-3.9,0-7,3.1-7,7
				c0,2.4,1.2,4.4,3,5.7C173.5,200.4,170.3,218.9,170.3,218.9z"/>
		</g>
	</g>
	
		<image style="overflow:visible;" width="535" height="54" xlink:href="54AF0D61.jpg"  transform="matrix(0.6168 0 0 0.6168 1 297.6916)">
	</image>
	<path class="st4" d="M113.1,193.7c-0.6-16.2,5-30.3,13.5-43.8"/>
	<path class="st4" d="M214.2,243.1C193,259,163,260,141.4,245.5"/>
	<path class="st4" d="M228.4,155.6c10.4,16,14,36.2,8.8,54.6c-1.5,5.2-3.6,10.2-6.4,14.8"/>
	<path class="st4" d="M99.5,107.5V71.7c0-5.1,4.1-9.2,9.2-9.2h18.8"/>
	<g>
		<g>
			<path class="st15" d="M112.2,62.3c5.2-18.2,26-26,39-15.6c2.6-39,76.4-43.9,72.5,7.2c8.1-7.2,28.9-12.4,39.3,5.8
				c9.3,16.3,0,33.8-6.2,33.8H120.7C114.8,93.5,108.3,75.9,112.2,62.3z"/>
		</g>
		<g>
			<g>
				<path d="M164.2,85.2l0.1-1.1h1v21.9h-1.2V85.2z"/>
			</g>
			<g>
				<path d="M173.4,110.2l0.1-1.1h1v21.9h-1.2V110.2z"/>
			</g>
			<g>
				<path d="M144.8,136.8l0.1-0.8h1v15.3h-1.2V136.8z"/>
			</g>
			<g>
				<path d="M144.8,154.1l0.1-0.3h1v6h-1.2V154.1z"/>
			</g>
			<g>
				<path d="M177.1,101.4c0,3-1.1,4.7-3.1,4.7c-1.7,0-2.9-1.6-2.9-4.6c0-3,1.3-4.6,3.1-4.6C176,96.8,177.1,98.5,177.1,101.4z
					 M172.2,101.5c0,2.3,0.7,3.6,1.8,3.6c1.2,0,1.8-1.4,1.8-3.7c0-2.2-0.6-3.6-1.8-3.6C173,97.8,172.2,99.1,172.2,101.5z"/>
			</g>
			<g>
				<path d="M159,101.4c0,3-1.1,4.7-3.1,4.7c-1.7,0-2.9-1.6-2.9-4.6c0-3,1.3-4.6,3.1-4.6C157.9,96.8,159,98.5,159,101.4z
					 M154.1,101.5c0,2.3,0.7,3.6,1.8,3.6c1.2,0,1.8-1.4,1.8-3.7c0-2.2-0.6-3.6-1.8-3.6C154.9,97.8,154.1,99.1,154.1,101.5z"/>
			</g>
			<g>
				<path d="M147.1,100.9c0,3-1.1,4.7-3.1,4.7c-1.7,0-2.9-1.6-2.9-4.6c0-3,1.3-4.6,3.1-4.6C146,96.4,147.1,98,147.1,100.9z"/>
			</g>
			<g>
				<path d="M186.8,101.4c0,3-1.1,4.7-3.1,4.7c-1.7,0-2.9-1.6-2.9-4.6c0-3,1.3-4.6,3.1-4.6C185.7,96.8,186.8,98.5,186.8,101.4z
					 M181.9,101.5c0,2.3,0.7,3.6,1.8,3.6c1.2,0,1.8-1.4,1.8-3.7c0-2.2-0.6-3.6-1.8-3.6C182.7,97.8,181.9,99.1,181.9,101.5z"/>
			</g>
			<path d="M164.2,111.1L164.2,111.1l-1.6,0.8l-0.2-0.9l1.9-1h1v8.9h-1.2V111.1z"/>
			<path d="M133.8,97.5L133.8,97.5l-1.6,0.8l-0.2-0.9l1.9-1h1v8.9h-1.2V97.5z"/>
			<path d="M159,114.3c0,3-1.1,4.7-3.1,4.7c-1.7,0-2.9-1.6-2.9-4.6c0-3,1.3-4.6,3.1-4.6C157.9,109.8,159,111.5,159,114.3z
				 M154.1,114.4c0,2.3,0.7,3.6,1.8,3.6c1.2,0,1.8-1.4,1.8-3.7c0-2.2-0.6-3.6-1.8-3.6C154.9,110.7,154.1,112,154.1,114.4z"/>
			<path d="M148.1,114.3c0,3-1.1,4.7-3.1,4.7c-1.7,0-2.9-1.6-2.9-4.6c0-3,1.3-4.6,3.1-4.6C147,109.8,148.1,111.5,148.1,114.3z
				 M143.2,114.4c0,2.3,0.7,3.6,1.8,3.6c1.2,0,1.8-1.4,1.8-3.7c0-2.2-0.6-3.6-1.8-3.6C144,110.7,143.2,112,143.2,114.4z"/>
			<path d="M186.8,114.3c0,3-1.1,4.7-3.1,4.7c-1.7,0-2.9-1.6-2.9-4.6c0-3,1.3-4.6,3.1-4.6C185.7,109.8,186.8,111.5,186.8,114.3z
				 M181.9,114.4c0,2.3,0.7,3.6,1.8,3.6c1.2,0,1.8-1.4,1.8-3.7c0-2.2-0.6-3.6-1.8-3.6C182.7,110.7,181.9,112,181.9,114.4z"/>
			<path d="M197.6,114.3c0,3-1.1,4.7-3.1,4.7c-1.7,0-2.9-1.6-2.9-4.6c0-3,1.3-4.6,3.1-4.6C196.6,109.8,197.6,111.5,197.6,114.3z
				 M192.8,114.4c0,2.3,0.7,3.6,1.8,3.6c1.2,0,1.8-1.4,1.8-3.7c0-2.2-0.6-3.6-1.8-3.6C193.6,110.7,192.8,112,192.8,114.4z"/>
			<path d="M183.5,124L183.5,124l-1.6,0.8l-0.2-0.9l1.9-1h1v8.9h-1.2V124z"/>
			<path d="M167.4,127.3c0,3-1.1,4.7-3.1,4.7c-1.7,0-2.9-1.6-2.9-4.6c0-3,1.3-4.6,3.1-4.6C166.3,122.7,167.4,124.4,167.4,127.3z"/>
			<path d="M159,127.3c0,3-1.1,4.7-3.1,4.7c-1.7,0-2.9-1.6-2.9-4.6c0-3,1.3-4.6,3.1-4.6C157.9,122.7,159,124.4,159,127.3z
				 M154.1,127.4c0,2.3,0.7,3.6,1.8,3.6c1.2,0,1.8-1.4,1.8-3.7c0-2.2-0.6-3.6-1.8-3.6C154.9,123.7,154.1,125,154.1,127.4z"/>
			<path d="M148.1,127.3c0,3-1.1,4.7-3.1,4.7c-1.7,0-2.9-1.6-2.9-4.6c0-3,1.3-4.6,3.1-4.6C147,122.7,148.1,124.4,148.1,127.3z
				 M143.2,127.4c0,2.3,0.7,3.6,1.8,3.6c1.2,0,1.8-1.4,1.8-3.7c0-2.2-0.6-3.6-1.8-3.6C144,123.7,143.2,125,143.2,127.4z"/>
			<path d="M197.6,127.3c0,3-1.1,4.7-3.1,4.7c-1.7,0-2.9-1.6-2.9-4.6c0-3,1.3-4.6,3.1-4.6C196.6,122.7,197.6,124.4,197.6,127.3z
				 M192.8,127.4c0,2.3,0.7,3.6,1.8,3.6c1.2,0,1.8-1.4,1.8-3.7c0-2.2-0.6-3.6-1.8-3.6C193.6,123.7,192.8,125,192.8,127.4z"/>
			<path d="M177.1,140.2c0,3-1.1,4.7-3.1,4.7c-1.7,0-2.9-1.6-2.9-4.6c0-3,1.3-4.6,3.1-4.6C176,135.7,177.1,137.4,177.1,140.2z
				 M172.2,140.3c0,2.3,0.7,3.6,1.8,3.6c1.2,0,1.8-1.4,1.8-3.7c0-2.2-0.6-3.6-1.8-3.6C173,136.6,172.2,137.9,172.2,140.3z"/>
			<path d="M167.4,140.2c0,3-1.1,4.7-3.1,4.7c-1.7,0-2.9-1.6-2.9-4.6c0-3,1.3-4.6,3.1-4.6C166.3,135.7,167.4,137.4,167.4,140.2z
				 M162.6,140.3c0,2.3,0.7,3.6,1.8,3.6c1.2,0,1.8-1.4,1.8-3.7c0-2.2-0.6-3.6-1.8-3.6C163.3,136.6,162.6,137.9,162.6,140.3z"/>
			<path d="M167.4,153.5c0,3-1.1,4.7-3.1,4.7c-1.7,0-2.9-1.6-2.9-4.6c0-3,1.3-4.6,3.1-4.6C166.3,149,167.4,150.7,167.4,153.5z
				 M162.6,153.6c0,2.3,0.7,3.6,1.8,3.6c1.2,0,1.8-1.4,1.8-3.7c0-2.2-0.6-3.6-1.8-3.6C163.3,149.9,162.6,151.2,162.6,153.6z"/>
			<path d="M159,140.2c0,3-1.1,4.7-3.1,4.7c-1.7,0-2.9-1.6-2.9-4.6c0-3,1.3-4.6,3.1-4.6C157.9,135.7,159,137.4,159,140.2z
				 M154.1,140.3c0,2.3,0.7,3.6,1.8,3.6c1.2,0,1.8-1.4,1.8-3.7c0-2.2-0.6-3.6-1.8-3.6C154.9,136.6,154.1,137.9,154.1,140.3z"/>
			<path d="M159,153.5c0,3-1.1,4.7-3.1,4.7c-1.7,0-2.9-1.6-2.9-4.6c0-3,1.3-4.6,3.1-4.6C157.9,149,159,150.7,159,153.5z"/>
			<path d="M186.8,140.2c0,3-1.1,4.7-3.1,4.7c-1.7,0-2.9-1.6-2.9-4.6c0-3,1.3-4.6,3.1-4.6C185.7,135.7,186.8,137.4,186.8,140.2z
				 M181.9,140.3c0,2.3,0.7,3.6,1.8,3.6c1.2,0,1.8-1.4,1.8-3.7c0-2.2-0.6-3.6-1.8-3.6C182.7,136.6,181.9,137.9,181.9,140.3z"/>
			<path d="M197.1,140.2c0,3-1.1,4.7-3.1,4.7c-1.7,0-2.9-1.6-2.9-4.6c0-3,1.3-4.6,3.1-4.6C196,135.7,197.1,137.4,197.1,140.2z
				 M192.2,140.3c0,2.3,0.7,3.6,1.8,3.6c1.2,0,1.8-1.4,1.8-3.7c0-2.2-0.6-3.6-1.8-3.6C193,136.6,192.2,137.9,192.2,140.3z"/>
			<path d="M206.8,140.2c0,3-1.1,4.7-3.1,4.7c-1.7,0-2.9-1.6-2.9-4.6c0-3,1.3-4.6,3.1-4.6C205.7,135.7,206.8,137.4,206.8,140.2z
				 M201.9,140.3c0,2.3,0.7,3.6,1.8,3.6c1.2,0,1.8-1.4,1.8-3.7c0-2.2-0.6-3.6-1.8-3.6C202.7,136.6,201.9,137.9,201.9,140.3z"/>
			<path d="M183.2,149.9L183.2,149.9l-1.6,0.8l-0.2-0.9l1.9-1h1v8.9h-1.2V149.9z"/>
			<path d="M177.1,153.2c0,3-1.1,4.7-3.1,4.7c-1.7,0-2.9-1.6-2.9-4.6c0-3,1.3-4.6,3.1-4.6C176,148.6,177.1,150.3,177.1,153.2z
				 M172.2,153.3c0,2.3,0.7,3.6,1.8,3.6c1.2,0,1.8-1.4,1.8-3.7c0-2.2-0.6-3.6-1.8-3.6C173,149.6,172.2,150.9,172.2,153.3z"/>
			<path d="M205.4,153.5c0,3-1.1,4.7-3.1,4.7c-1.7,0-2.9-1.6-2.9-4.6c0-3,1.3-4.6,3.1-4.6C204.3,149,205.4,150.7,205.4,153.5z
				 M200.6,153.6c0,2.3,0.7,3.6,1.8,3.6c1.2,0,1.8-1.4,1.8-3.7c0-2.2-0.6-3.6-1.8-3.6C201.3,149.9,200.6,151.2,200.6,153.6z"/>
			<path d="M197,153.5c0,3-1.1,4.7-3.1,4.7c-1.7,0-2.9-1.6-2.9-4.6c0-3,1.3-4.6,3.1-4.6C195.9,149,197,150.7,197,153.5z"/>
			<path d="M221.2,149.9L221.2,149.9l-1.6,0.8l-0.2-0.9l1.9-1h1v8.9h-1.2V149.9z"/>
			<path d="M215.1,153.2c0,3-1.1,4.7-3.1,4.7c-1.7,0-2.9-1.6-2.9-4.6c0-3,1.3-4.6,3.1-4.6C214,148.6,215.1,150.3,215.1,153.2z
				 M210.2,153.3c0,2.3,0.7,3.6,1.8,3.6c1.2,0,1.8-1.4,1.8-3.7c0-2.2-0.6-3.6-1.8-3.6C211,149.6,210.2,150.9,210.2,153.3z"/>
		</g>
	</g>
	<rect x="209" y="186" class="st23" width="49" height="11"/>
	<rect x="209" y="190" class="st23" width="7" height="16"/>
	<rect x="224" y="190" class="st23" width="7" height="12"/>
	<g>
		<path class="st23" d="M249,173v34h34v-34H249z M274,198h-16v-16h16V198z"/>
		<rect x="258" y="182" class="st72" width="16" height="16"/>
	</g>
	<g>
		<circle class="st0" cx="131.5" cy="221.5" r="18.5"/>
		<polyline class="st4" points="123.5,221.5 129.5,228.5 139.5,214.5 		"/>
		<line class="st4" x1="131.5" y1="239.5" x2="112.5" y2="239.5"/>
		<line class="st4" x1="120.5" y1="243.5" x2="134.5" y2="243.5"/>
	</g>
</g>
</svg>
