<?xml version="1.0" encoding="utf-8"?>
<!-- Generator: Adobe Illustrator 24.1.2, SVG Export Plug-In . SVG Version: 6.00 Build 0)  -->
<svg version="1.1" xmlns="http://www.w3.org/2000/svg" xmlns:xlink="http://www.w3.org/1999/xlink" x="0px" y="0px"
	 viewBox="0 0 536 391" style="enable-background:new 0 0 536 391;" xml:space="preserve">
<style type="text/css">
	.st0{fill-rule:evenodd;clip-rule:evenodd;fill:#17B1B1;}
	.st1{fill-rule:evenodd;clip-rule:evenodd;fill:#F6BE22;}
	.st2{fill-rule:evenodd;clip-rule:evenodd;fill:#FFFFFF;}
	
		.st3{fill-rule:evenodd;clip-rule:evenodd;fill:#FFFFFF;stroke:#000000;stroke-width:1.33;stroke-linecap:round;stroke-linejoin:round;}
	.st4{fill:none;stroke:#000000;stroke-width:1.33;stroke-linecap:round;stroke-linejoin:round;}
	.st5{fill:#030100;}
	.st6{fill-rule:evenodd;clip-rule:evenodd;fill:#FDD2E1;}
	.st7{fill-rule:evenodd;clip-rule:evenodd;fill:#0A0704;}
	.st8{fill-rule:evenodd;clip-rule:evenodd;fill:#030100;}
	.st9{fill-rule:evenodd;clip-rule:evenodd;fill:#230E04;}
	.st10{fill-rule:evenodd;clip-rule:evenodd;fill:#000047;}
	.st11{fill-rule:evenodd;clip-rule:evenodd;fill:#F51618;}
	.st12{fill-rule:evenodd;clip-rule:evenodd;fill:#919191;}
	
		.st13{fill-rule:evenodd;clip-rule:evenodd;fill:none;stroke:#FFFFFF;stroke-width:1.33;stroke-linecap:round;stroke-linejoin:round;}
	.st14{fill:none;stroke:#FFFFFF;stroke-width:1.33;stroke-linecap:round;stroke-linejoin:round;}
	.st15{fill:#FFFFFF;stroke:#000000;stroke-width:1.33;stroke-linecap:round;stroke-linejoin:round;}
	.st16{fill-rule:evenodd;clip-rule:evenodd;fill:#24160C;}
	.st17{fill:#0A0704;stroke:#0A0704;stroke-miterlimit:10;}
	.st18{fill:#F6BE22;}
	.st19{fill:#17B1B1;}
	.st20{fill-rule:evenodd;clip-rule:evenodd;fill:#FFBE00;}
	.st21{fill-rule:evenodd;clip-rule:evenodd;fill:none;stroke:#000000;stroke-linecap:round;stroke-linejoin:round;}
	.st22{fill:none;stroke:#1A1A1A;stroke-width:1.33;stroke-linecap:round;stroke-linejoin:round;}
	.st23{fill:#0A0704;}
	.st24{fill-rule:evenodd;clip-rule:evenodd;fill:#12847E;}
	.st25{fill:#F51618;}
	.st26{fill:none;stroke:#000000;stroke-miterlimit:10;}
	.st27{fill:#0092FF;}
	.st28{fill:#007994;}
	.st29{fill:none;stroke:#F6BE22;stroke-width:1.33;stroke-linecap:round;stroke-linejoin:round;}
	.st30{fill:#FDD2E1;}
	.st31{fill:#0C9390;}
	
		.st32{fill-rule:evenodd;clip-rule:evenodd;fill:none;stroke:#000000;stroke-width:1.33;stroke-linecap:round;stroke-linejoin:round;}
	.st33{fill:#A9D18F;}
	.st34{stroke:#000000;stroke-linejoin:round;}
	.st35{fill:#C5DFB5;}
	.st36{fill:#FFFA94;}
	.st37{fill-rule:evenodd;clip-rule:evenodd;fill:#0092FF;}
	
		.st38{fill-rule:evenodd;clip-rule:evenodd;fill:#A8A8A8;stroke:#000000;stroke-width:1.33;stroke-linecap:round;stroke-linejoin:round;}
	.st39{fill-rule:evenodd;clip-rule:evenodd;fill:#C5DFB5;}
	.st40{fill-rule:evenodd;clip-rule:evenodd;fill:#A9D18F;}
	.st41{fill:none;stroke:#0066CC;stroke-width:1.33;stroke-linecap:round;stroke-linejoin:round;stroke-miterlimit:10;}
	.st42{fill-rule:evenodd;clip-rule:evenodd;fill:#FFFA94;}
	.st43{fill:#5D5D5D;}
	.st44{clip-path:url(#SVGID_6_);fill:#FFFFFF;}
	.st45{fill-rule:evenodd;clip-rule:evenodd;fill:#00CB99;}
	.st46{fill:none;stroke:#00EDB3;stroke-width:7.42;stroke-linecap:round;stroke-linejoin:round;}
	.st47{fill-rule:evenodd;clip-rule:evenodd;fill:#4971AF;}
	.st48{fill-rule:evenodd;clip-rule:evenodd;fill:#282828;}
	.st49{fill:#FFFBF2;}
	.st50{fill-rule:evenodd;clip-rule:evenodd;fill:#3AE5BB;}
	.st51{fill-rule:evenodd;clip-rule:evenodd;fill:#514A45;}
	.st52{fill-rule:evenodd;clip-rule:evenodd;fill:#F9CB00;}
	.st53{fill-rule:evenodd;clip-rule:evenodd;fill:#05DBED;}
	.st54{fill-rule:evenodd;clip-rule:evenodd;fill:#E9B200;}
	.st55{clip-path:url(#SVGID_8_);}
	.st56{fill:none;stroke:#FFFFFF;stroke-width:3;stroke-linecap:round;stroke-linejoin:round;}
	.st57{fill:none;stroke:#E9B200;stroke-width:5;stroke-miterlimit:10;}
	.st58{fill-rule:evenodd;clip-rule:evenodd;fill:#00DB00;}
	.st59{fill:#00BC00;}
	.st60{fill:#00DB00;}
	.st61{fill:none;}
	.st62{fill:#F4BC23;}
	.st63{fill-rule:evenodd;clip-rule:evenodd;}
	.st64{fill-rule:evenodd;clip-rule:evenodd;fill:#0068AB;}
	.st65{fill:#BEC7C9;}
	.st66{fill:#0068AB;}
	.st67{fill:#005C89;}
	.st68{clip-path:url(#SVGID_10_);fill:none;stroke:#000000;stroke-width:1.33;stroke-linecap:round;stroke-linejoin:round;}
	.st69{fill:#E1A916;}
	.st70{opacity:0.55;}
	.st71{fill:#FDBE43;}
	.st72{fill:#FFFFFF;}
	.st73{fill:#0067A6;}
	.st74{fill:#54D900;}
	.st75{fill:#0068A7;}
	.st76{fill:#0068A5;}
	.st77{fill:#B8B8B8;}
	.st78{fill:#5C5C5C;}
	.st79{fill:#666464;}
	.st80{fill:#5A5959;}
	.st81{fill:#7C7B7B;}
	.st82{fill:#BCBCBC;}
	.st83{fill:#757575;}
	.st84{fill:#D3D0D0;}
	.st85{fill:#0068A4;}
	.st86{fill:#0067A4;}
	.st87{fill:#4AB000;}
	.st88{fill:#7DDF45;}
	.st89{fill:#7FDF47;}
	.st90{fill:#39BB49;}
	.st91{fill:#D5EADA;}
	.st92{fill:#CDE6D3;}
	.st93{fill:#84DA60;}
	.st94{fill:#D3EAD7;}
	.st95{fill:#4AC04D;}
	.st96{fill:#6FD150;}
	.st97{fill-rule:evenodd;clip-rule:evenodd;fill:#BEC7C9;}
	.st98{fill:#D0D1D6;}
	.st99{fill-rule:evenodd;clip-rule:evenodd;fill:#7394E3;}
	
		.st100{fill-rule:evenodd;clip-rule:evenodd;fill:#17B1B1;stroke:#000000;stroke-width:1.33;stroke-linecap:round;stroke-linejoin:round;}
	.st101{fill-rule:evenodd;clip-rule:evenodd;fill:#408E96;}
	.st102{clip-path:url(#SVGID_12_);}
	.st103{fill:#408E96;}
	.st104{clip-path:url(#SVGID_14_);}
	.st105{fill-rule:evenodd;clip-rule:evenodd;fill:#9AF4F1;}
	
		.st106{fill-rule:evenodd;clip-rule:evenodd;fill:#0A0704;stroke:#FFFFFF;stroke-width:1.33;stroke-linecap:round;stroke-linejoin:round;}
	
		.st107{fill-rule:evenodd;clip-rule:evenodd;fill:#F6BE22;stroke:#000000;stroke-width:1.33;stroke-linecap:round;stroke-linejoin:round;}
	.st108{fill-rule:evenodd;clip-rule:evenodd;fill:#FDFDFD;}
	.st109{fill-rule:evenodd;clip-rule:evenodd;stroke:#000000;stroke-width:1.33;stroke-linecap:round;stroke-linejoin:round;}
	.st110{fill-rule:evenodd;clip-rule:evenodd;fill:#F5F5F5;}
	.st111{fill:none;stroke:#F51618;stroke-width:1.33;stroke-linecap:round;stroke-linejoin:round;}
	.st112{clip-path:url(#SVGID_16_);}
	.st113{fill:none;stroke:#F6F6F6;stroke-width:1.33;stroke-linecap:round;stroke-linejoin:round;}
	.st114{fill-rule:evenodd;clip-rule:evenodd;fill:#373737;}
	.st115{fill-rule:evenodd;clip-rule:evenodd;fill:#118484;}
	.st116{fill-rule:evenodd;clip-rule:evenodd;fill:#DCB6C3;}
	.st117{fill-rule:evenodd;clip-rule:evenodd;fill:#262626;}
	.st118{fill-rule:evenodd;clip-rule:evenodd;fill:#D19F14;}
	
		.st119{fill-rule:evenodd;clip-rule:evenodd;fill:#0A0704;stroke:#000000;stroke-width:1.33;stroke-linecap:round;stroke-linejoin:round;}
	.st120{fill-rule:evenodd;clip-rule:evenodd;fill:#D2A21D;}
	.st121{fill:none;stroke:#000000;stroke-width:6.34;stroke-linecap:round;stroke-linejoin:round;}
	.st122{clip-path:url(#SVGID_18_);}
	.st123{fill-rule:evenodd;clip-rule:evenodd;fill:#F6C949;}
	.st124{fill-rule:evenodd;clip-rule:evenodd;fill:#F6F6F6;}
	.st125{fill-rule:evenodd;clip-rule:evenodd;fill:#FDD2E1;stroke:#000000;stroke-width:1.33;stroke-miterlimit:10;}
	.st126{fill-rule:evenodd;clip-rule:evenodd;stroke:#FFFFFF;stroke-width:1.33;stroke-linecap:round;stroke-linejoin:round;}
	
		.st127{fill-rule:evenodd;clip-rule:evenodd;fill:#FFFFFF;stroke:#0A0704;stroke-width:1.33;stroke-linecap:round;stroke-linejoin:round;}
	
		.st128{fill-rule:evenodd;clip-rule:evenodd;fill:#31B767;stroke:#000000;stroke-width:0.75;stroke-linecap:round;stroke-linejoin:round;}
	
		.st129{fill-rule:evenodd;clip-rule:evenodd;fill:#ECB82B;stroke:#000000;stroke-width:0.75;stroke-linecap:round;stroke-linejoin:round;}
	
		.st130{fill-rule:evenodd;clip-rule:evenodd;fill:#E9EBEF;stroke:#000000;stroke-width:0.75;stroke-linecap:round;stroke-linejoin:round;}
	.st131{fill:none;stroke:#000000;stroke-width:0.75;stroke-linecap:round;stroke-linejoin:round;}
	
		.st132{fill-rule:evenodd;clip-rule:evenodd;fill:#E9EBEF;stroke:#000000;stroke-width:1.33;stroke-linecap:round;stroke-linejoin:round;}
	.st133{fill-rule:evenodd;clip-rule:evenodd;fill:#D5CECE;}
	.st134{fill-rule:evenodd;clip-rule:evenodd;fill:#FBF7F7;}
	.st135{fill-rule:evenodd;clip-rule:evenodd;stroke:#000000;stroke-miterlimit:10;}
	.st136{fill-rule:evenodd;clip-rule:evenodd;fill:#FFFFFF;stroke:#000000;stroke-linecap:round;stroke-linejoin:round;}
	.st137{fill:none;stroke:#000000;stroke-linecap:round;stroke-linejoin:round;}
	.st138{fill:#D6AE03;}
	.st139{fill:#F9CB00;}
	.st140{fill-rule:evenodd;clip-rule:evenodd;fill:none;stroke:#000000;stroke-width:7;stroke-linecap:round;stroke-linejoin:round;}
	.st141{fill-rule:evenodd;clip-rule:evenodd;fill:#F7F7F7;}
	.st142{fill:#919191;}
	.st143{clip-path:url(#SVGID_20_);fill:none;stroke:#000000;stroke-width:1.33;stroke-linecap:round;stroke-linejoin:round;}
	.st144{fill:#F6E5DC;}
	.st145{fill:#F4AA1C;}
	.st146{fill:#FBBB1F;}
	.st147{fill:#007CFF;}
	.st148{fill:none;stroke:#000000;stroke-width:1.33;stroke-linecap:round;stroke-linejoin:round;stroke-dasharray:12,15;}
	.st149{fill:#FFBE00;}
	.st150{fill-rule:evenodd;clip-rule:evenodd;fill:#0A0704;stroke:#0A0704;stroke-miterlimit:10;}
	.st151{fill:#F51618;stroke:#000000;stroke-width:1.33;stroke-linecap:round;stroke-linejoin:round;}
	.st152{fill:#5CEAE6;}
	.st153{fill:none;stroke:#000000;stroke-linejoin:round;}
	.st154{fill-rule:evenodd;clip-rule:evenodd;fill:none;}
	.st155{clip-path:url(#SVGID_24_);fill:#FFFFFF;}
	.st156{clip-path:url(#SVGID_26_);fill:none;stroke:#000000;stroke-width:1.33;stroke-linecap:round;stroke-linejoin:round;}
	.st157{clip-path:url(#SVGID_28_);}
</style>
<g id="Guides_For_Artboard">
</g>
<g id="Layer_1">
	<polygon class="st1" points="275.7,167.7 247.1,167.7 251.4,151.1 280,151.1 	"/>
	<g>
		<g>
			<path id="XMLID_40_" class="st25" d="M422.9,41.7c0,0-1.2,0.1-2,1c-0.8,1-1.4,3.1-1.4,4.7c0,1.6,0.5,3.8,1.2,4.8
				c0.7,1,1.9,1.1,1.9,1.1c0.4,0.1,0.8,0.1,1.2,0l0.3-11.7C423.8,41.7,423.4,41.6,422.9,41.7z"/>
			<path id="XMLID_39_" class="st27" d="M424.1,41.8l-0.3,11.7c0.9-0.2,1.5-1.1,1.5-2.3l0.2-7.1C425.6,42.9,425,42.1,424.1,41.8z"/>
		</g>
		<g>
			<path class="st3" d="M444.8,65.4c-7.4-11.6-6.1-11.5-9.3-21.7c-2.3,1.3-6.9,4-6.9,4s-0.3,6.7-0.4,13c0,2.9,0.1,5-0.9,8.9
				c-0.1,0.5-1.5,3.2-3.1,6.3c9.3-1,21.3-3.1,31.4-2.5C451.2,69.3,445.3,66.2,444.8,65.4z"/>
			<path class="st1" d="M433,44.7c4.7,2-7.5,18.8-1,19.1c5.8,0.3,9.4-4.8,9.4-4.8c13-11.2,14.5-39.9-3.8-37.1c-4-0.4-18.1,6.4-9.8,7
				"/>
			<path class="st11" d="M424.3,75.8c-2.1,4.1-4.7,8.9-5.5,9.7c10.4,2,44.1,11.1,52.3,5.4c0-1.1-6.8-14.9-18.8-21.7
				C442.2,68.6,433.6,74.8,424.3,75.8z"/>
			<path class="st3" d="M430.8,65.9c3.4,0.1,7.8-2,8.3-7.3c0.6-6.1,1-19.5,0.4-21.9c-0.5-2.4-2.5-5.2-5.5-7.1
				c-4-2.6-10.4,0-10.8,3.6c-1.3,11.8-1.3,22.2-0.8,25.7C423.1,64.1,427.6,65.9,430.8,65.9z"/>
			<path class="st3" d="M438.7,49.4c0.5-0.2,1.1-0.2,1.6,0.2c1.9,1.3,0,4.8-2.2,3.4"/>
			<path class="st1" d="M440.3,26.6c-3-2.1-4.5-0.5-7.4-0.1c-4.9,0.7-10.3-1.7-13.1,1.1c-4.3,10.6,6.9,11.2,14.9,11.2
				c4.7,0,8.5,5.7,10.2,2.8C446.9,38.2,443.6,28.9,440.3,26.6z"/>
			<g>
				<path class="st4" d="M427.3,53.2c-4.7,1-0.5-4.3-0.5-4.3"/>
				<path class="st7" d="M430.2,48.9c0.4,0,0.7-0.3,0.7-0.7c0-0.4-0.3-0.8-0.7-0.8c-0.4,0-0.7,0.3-0.7,0.7
					C429.6,48.6,429.9,48.9,430.2,48.9z"/>
				<path class="st7" d="M423.6,48.5c0.4,0,0.7-0.3,0.7-0.7c0-0.4-0.3-0.8-0.7-0.8c-0.4,0-0.7,0.3-0.7,0.7
					C422.9,48.2,423.2,48.5,423.6,48.5z"/>
				<path class="st4" d="M429.4,57c0.6,0.1,1.1,0,1.7-0.1c1.9-0.5,2.5-2.7,2.5-2.7"/>
			</g>
		</g>
		<g id="XMLID_32_">
			<path class="st4" d="M432.5,61.5h1.6c2.8,0,5-2.1,5.3-4.9l0.5-6.8"/>
			<path class="st25" d="M442.4,44.5c-0.7-1-1.9-1.1-1.9-1.1c-0.4-0.1-0.8-0.1-1.2,0c-0.9,0.2-1.5,1.1-1.6,2.2l-0.2,7.1
				c0,1.2,0.5,2,1.4,2.3c0.4,0.1,0.8,0.1,1.2,0c0,0,1.2,0,2-1c0.8-1,1.4-3.1,1.5-4.7C443.6,47.7,443.1,45.6,442.4,44.5z"/>
			<g>
				<path class="st28" d="M433.8,59.1C433.8,59,433.8,59,433.8,59.1C433.8,59,433.8,59.1,433.8,59.1
					C433.8,59.1,433.8,59.1,433.8,59.1z"/>
			</g>
			<path class="st25" d="M434.4,61.5c0,1-1,1.9-2.3,1.9c-1.3,0-2.3-0.8-2.3-1.9s1-1.9,2.3-1.9C433.3,59.6,434.4,60.5,434.4,61.5z"/>
		</g>
		<path class="st4" d="M427.4,25.7c0,0,5.4-0.8,9.3,3.7c5.6,6.5,3.7,14.9,3.7,14.9"/>
		<path class="st1" d="M461.8,25.1c0,3.9-3.1,7-7,7c-3.9,0-7-3.1-7-7s3.1-7,7-7C458.6,18.1,461.8,21.2,461.8,25.1z"/>
		<path class="st29" d="M448.3,26.9c-8.9-14.1,16.4-17.6,9.1-2"/>
	</g>
	<g>
		<path class="st15" d="M289.9,95.5c7.3-12.9,19.3-16.2,40-9.1c-4.2-9.4,8.3-28,28.3-8.3c-6-31.6,41.4-35.3,39.1-4.7
			c11.9-14.8,43.2-6.4,31,11.3c18.3-4.5,25.7-0.3,37.7,10.9H289.9z"/>
	</g>
	<g>
		<path class="st30" d="M258.8,79.2h-10.5c-4.8,0-9.1,3.3-10.2,8.1l-1,4.2l-11.7,50.1h19.1h79.6c8.4,0,15.6-5.8,17.5-13.9l8.8-37.4
			l2.6-11.1H258.8z"/>
		<g>
			<polygon class="st4" points="233.2,86.5 221.5,136.6 240.6,136.6 252.1,86.3 			"/>
			<path class="st4" d="M244.4,74.3c-4.8,0-9.1,3.3-10.2,8.1l-1,4.2l18.9-0.2l94.4-1l2.6-11.1"/>
			<path class="st4" d="M252.1,86.3l-11.5,50.3h79.6c8.4,0,15.6-5.8,17.5-13.9l8.8-37.4L252.1,86.3z"/>
		</g>
		<polygon class="st0" points="286.3,120.6 260,120.6 266.8,94.3 293.1,94.3 		"/>
		<polygon class="st7" points="333.7,146.7 317.1,146.7 321.4,130.1 338,130.1 		"/>
		<polygon class="st11" points="332.1,109.8 305.8,109.8 309.7,94.3 336,94.3 		"/>
	</g>
	<g>
		<polygon class="st1" points="106.2,235.7 214.5,235.7 213.4,230.5 105.1,230.5 		"/>
		<line class="st4" x1="243.1" y1="319.5" x2="214" y2="236.2"/>
		<line class="st4" x1="168" y1="236.2" x2="168" y2="319.5"/>
		<line class="st4" x1="106.7" y1="236.2" x2="92.1" y2="319.5"/>
	</g>
	<g>
		<g>
			<path id="XMLID_34_" class="st30" d="M175.4,75.3c0,0,1.3,0.1,2.1,1.1c0.8,1.1,1.5,3.3,1.6,5.1c0,1.7-0.6,4-1.3,5.1
				c-0.8,1.1-2.1,1.2-2.1,1.2c-0.5,0.1-0.9,0.1-1.3,0l-0.3-12.5C174.5,75.2,174.9,75.2,175.4,75.3z"/>
			<path id="XMLID_33_" class="st27" d="M174.1,75.3l0.3,12.5c-0.9-0.3-1.6-1.2-1.6-2.4l-0.2-7.6C172.5,76.5,173.2,75.6,174.1,75.3z
				"/>
		</g>
		<path class="st3" d="M231.4,209.4c-19.4-0.3-35.1,71.5-35.1,71.5l24.5,37.3l-2.5-23.5l20.3-46.5
			C238.5,248.3,241.9,209.6,231.4,209.4z"/>
		<path class="st3" d="M220.5,239.1c-12.4,15,34,72.1,34,72.1l41.3,1.6L278,300.7l-22.7-42.9C255.4,257.8,227.2,231,220.5,239.1z"/>
		<g>
			<path class="st7" d="M164.6,78.4c-5,2.2,8,20.2,1.1,20.6c-6.2,0.3-34.7,4.5-33-5c1.7-9.5,7.4-43,27-40c4.3-0.4,19.4,6.9,10.5,7.5
				"/>
			<path class="st3" d="M184.4,119l-22.6,38.3c0,0-35.2-23-28.1-47.9c0.3-1.1,16-5.4,18.1-8.8c8-12.5,6.6-12.4,10-23.3
				c2.5,1.4,7.4,4.3,7.4,4.3s0.3,7.2,0.4,13.9c0,3.1-0.1,5.4,1,9.6C171.8,109.3,184.4,119,184.4,119z"/>
			<path class="st3" d="M163.4,62.3c-3.2,2.1-5.3,5-5.9,7.6c-0.5,2.6-0.1,17,0.5,23.6c0.5,5.7,5.2,7.9,8.9,7.8c3.5-0.1,8.3-2,9-7.5
				c0.5-3.8,0.5-14.9-0.9-27.6C174.6,62.3,167.7,59.5,163.4,62.3z"/>
			<path class="st4" d="M170.3,86.8c4.7,1,0.5-4.3,0.5-4.3"/>
			<path class="st7" d="M167.4,82.5c-0.4,0-0.7-0.3-0.7-0.7c0-0.4,0.3-0.8,0.7-0.8c0.4,0,0.7,0.3,0.7,0.7
				C168,82.2,167.8,82.5,167.4,82.5z"/>
			<path class="st7" d="M174,82.1c-0.4,0-0.7-0.3-0.7-0.7c0-0.4,0.3-0.8,0.7-0.8c0.4,0,0.7,0.3,0.7,0.7
				C174.7,81.8,174.4,82.1,174,82.1z"/>
			<path class="st3" d="M158.5,83.5c-0.5-0.2-1.2-0.2-1.7,0.2c-2,1.4,0,5.1,2.4,3.6"/>
			<path class="st7" d="M156.8,59c3.2-2.2,6.2,1.2,9.3,1.6c5.3,0.7,9.7-3.6,12.7-0.6c4.6,11.4-7.4,12-16,12c-5,0-9.1,6.2-11,3
				C149.6,71.5,153.2,61.5,156.8,59z"/>
			<path class="st4" d="M168.2,90.6c-0.6,0.1-1.1,0-1.7-0.1c-1.9-0.5-2.5-2.7-2.5-2.7"/>
		</g>
		<g>
			<path class="st3" d="M236.5,125.1c-0.4-0.7-2.3-2.7-2.8-3c-5-2.5,1.5,9.1,3.4,5.6C237.6,126.4,237.1,126.2,236.5,125.1z"/>
			<path class="st3" d="M234.6,128c0.1,1.5-1.7,4.4-3.8,2.2c-1.3-1.3-0.3-10.9,3.2-7.1C234.6,123.9,234.5,127,234.6,128z"/>
			<path class="st3" d="M196.1,187.1c21.9,2.1,33.5-51.5,33.5-51.5s1-4.3,0.3-6.1c-1.7-4.2-3.9-9.9-7.1-7.8
				c-3.2,2.2-6.2,15.5-6.2,15.5s-11.8,17.3-16.4,22.4c0.3-0.3-3.7-21.1-5.5-28.1c-1.4-5.5-6.2-13-6.2-13c-11.6-11.6-9.7,1-10.3,4.8
				l-0.7,23.9C177.6,147.4,173,184.9,196.1,187.1z"/>
			<path class="st3" d="M230.6,132c-1.4,2.3-3.3-0.3-2.9-2.8c0.4-2.1,1-5.1,2.4-6.7C236,114.9,231.6,130.4,230.6,132z"/>
			<path class="st3" d="M225,128.1c0.8-2.4,1.9-4.6,3.9-6.1c1.7-1.3,9.6-4.6,9.6-7c0.1-1.6-6.5,1.4-7.2,1.6
				c-3.3,1.3-8.7,4.2-10.5,7.5"/>
			<path class="st3" d="M227.1,131.6c0.9-2.2,7.3-10.3,7.1-11.3c-0.7-2.6-10.1,6.3-10.5,7.7"/>
		</g>
		<g>
			<defs>
				<path id="XMLID_31_" d="M182.4,126.2l2.9,18.6l-2.6,12.5l8.6,29.8H116c0,0,11.6-69.1,11.6-71.2c0-2.1-0.6-9.9,8.9-10.9
					c3.1-0.3,11.3-2.4,11.3-2.4s3.1,10.2,12,12c12,2.4,14.7-5.1,14.7-5.1s11.3,4.4,11.6,6.2C187.3,121.3,182.4,126.2,182.4,126.2z"
					/>
			</defs>
			<use xlink:href="#XMLID_31_"  style="overflow:visible;fill-rule:evenodd;clip-rule:evenodd;fill:#FDD2E1;"/>
			<clipPath id="XMLID_41_">
				<use xlink:href="#XMLID_31_"  style="overflow:visible;"/>
			</clipPath>
		</g>
		<path class="st3" d="M112.6,128.9c0,0,10.4-24.2,23.9-19.8c15.1,4.8,0,31.5,0,31.5l-10.3,23.9c0,0,23.5,7.5,36.3,10.5
			c1.7,0.2,5,0,8,1c3.9,1.3,20.4,6.2,20,8.3c-0.3,1.9-14.4-2.6-14.4-2.6c0,0,13.7,3.6,13,5.3c-0.7,1.6-7.6-0.8-13.6-2.1
			c6.1,2.9,6.5,2.9,6.2,4.2c-0.4,1.6-2.8-0.2-9.5-2.1c3.7,1.8,6,1.6,4.7,2.7c-1.2,1-0.7,0.7-8.5-1.9c-1-0.4-55.3,0.8-66.8-5
			C92.8,178.2,112.6,128.9,112.6,128.9z"/>
		<path class="st0" d="M228.2,258.2H184l27.2-36.4l-28.3-15.4l26.1-16l54.9-0.2c0,0,8.1,0,8.1,13c0,13-19.4,55.1-19.4,55.1H228.2z"
			/>
		<path class="st0" d="M162.2,190.5c0,0,55.1-3.2,64.8,0c9.7,3.2,45.3,81,45.3,81h-60.7l-8.9-41.3c0,0-50.6,0.3-65.6,0.3
			c-17.8-5.7-22.7-40-22.7-40H162.2z"/>
		<path class="st4" d="M167.8,122.1c-2.9,1.3-3.2-2.9-3.5-4.8c0.6,2.4-1.9,6.8-4.5,5.3C157.6,115.7,167.9,114.7,167.8,122.1z"/>
		<path class="st4" d="M259,243.5c0,0-23-52.1-31.9-52.9"/>
		<line class="st4" x1="200.3" y1="220.5" x2="208.7" y2="258.2"/>
		<path class="st4" d="M249.5,271.5c0,0-27.4-55.1-32.2-59.9c-4.9-4.9-68.8-2.4-68.8-2.4"/>
		<path class="st4" d="M158,133.5l-0.1,5.6c0,2.6-2.2,4.7-4.8,4.7l-5.3-0.1c-2.9-0.1-5-2.6-4.6-5.5l0.9-5.8L158,133.5z"/>
		<line class="st4" x1="156.4" y1="135.8" x2="143.7" y2="134.7"/>
		<line class="st4" x1="243.2" y1="201.9" x2="238.3" y2="203.5"/>
		<path class="st4" d="M171.6,157h11l2.3-7c1.1-3.3,1.3-6.8,0.6-10.2l-2.9-13.8"/>
		<line class="st4" x1="178" y1="110.9" x2="172.6" y2="117"/>
		<g id="XMLID_4_">
			<path class="st29" d="M165.1,96.5h-1.8c-3,0-5.4-2.3-5.7-5.2l-0.6-7.3"/>
			<g id="XMLID_5_">
				<path id="XMLID_30_" class="st30" d="M154.5,78.3c0.8-1.1,2.1-1.2,2.1-1.2c0.5-0.1,0.9-0.1,1.3,0l0.4,12.5
					c-0.4,0.1-0.8,0.2-1.3,0c0,0-1.3-0.1-2.1-1.1c-0.8-1-1.6-3.3-1.6-5.1C153.2,81.7,153.7,79.4,154.5,78.3z"/>
				<path id="XMLID_29_" class="st18" d="M159.5,79.4l0.2,7.6c0,1.3-0.6,2.2-1.5,2.5L157.9,77C158.8,77.3,159.5,78.1,159.5,79.4z"/>
			</g>
			<g>
				<path class="st28" d="M163.7,93.9C163.7,93.9,163.7,93.8,163.7,93.9C163.7,93.9,163.7,93.9,163.7,93.9
					C163.7,93.9,163.7,93.9,163.7,93.9z"/>
			</g>
			<ellipse class="st18" cx="165.6" cy="96.5" rx="2.5" ry="2"/>
		</g>
		<path class="st29" d="M170.6,58c0,0-5.8-0.9-10,4c-6,7-4,16-4,16"/>
		<g>
			<path class="st125" d="M291.4,303.2l-21.6,4l-17.1,0.1l-0.5,10.8l37.7,0.2l19.3,0.1c0,0,2.7-7.3-1.7-11.1
				C302.9,303.5,291.4,303.2,291.4,303.2z"/>
			<path class="st11" d="M273.4,297.8L270,308l7.1,0.6l-3.7,9.5l9.2,0l3.7-8.2l6.2,0.8c0,0,3.7,0.1,5.3-2.5c1-1.6,1.9-4.4,1.9-4.4
				L273.4,297.8z"/>
			<path class="st3" d="M251.6,315.6h18.5l4.4,1.9l34.9-0.3l0.1,3.1h-57.9V315.6z"/>
			<path class="st32" d="M286.5,301.1l-0.2,4.4"/>
			<path class="st32" d="M290.5,301.5l-0.9,4.6"/>
			<path class="st32" d="M294.5,302.5l-1.3,4.3"/>
			<path class="st4" d="M269.2,294.1c-1.4-3.5,0-7.3,3.2-8.7c3.2-1.3,7,0.4,8.4,3.9c1.4,3.5,0,7.3-3.2,8.7
				C274.4,299.3,270.6,297.6,269.2,294.1z"/>
			<path class="st4" d="M273.9,294.2c-1.4-3.5,0-7.3,3.2-8.7c3.2-1.3,7,0.4,8.4,3.9c1.4,3.5,0,7.3-3.2,8.7
				C279.1,299.4,275.4,297.6,273.9,294.2z"/>
			<path class="st4" d="M273.9,294.2c-1.4-3.5,0-7.3,3.2-8.7c3.2-1.3,7,0.4,8.4,3.9c1.4,3.5,0,7.3-3.2,8.7
				C279.1,299.4,275.4,297.6,273.9,294.2z"/>
			<path class="st4" d="M280.1,302.7l-2.9-3.4l-2.8,2.9"/>
		</g>
		<g>
			<path class="st125" d="M224.4,299.6l-15.8-15.3l-10-13.9l-9.1,5.8l21.7,30.8l11.1,15.8c0,0,7.5-2.1,8.1-7.9
				C230.9,309.2,224.4,299.6,224.4,299.6z"/>
			<path class="st11" d="M218.4,281.8l-10.3,3.2l3.6,6.1l-9.8,2.5l5.4,7.5l8.8-1.7l2.9,5.5c0,0,2.1,3.1,5.1,2.8c1.9-0.2,4.7-1,4.7-1
				L218.4,281.8z"/>
			<path class="st3" d="M191.3,274.4l10.7,15.1l1,4.7l20.5,28.3l-2.4,1.9l-33.6-47.2L191.3,274.4z"/>
			<path class="st32" d="M223.4,294.5l-3.7,2.4"/>
			<path class="st32" d="M225.3,297.9l-4.3,2"/>
			<path class="st32" d="M226.8,301.8l-4.2,1.4"/>
			<path class="st4" d="M219,276.3c2-3.2,6-4.2,8.9-2.4c3,1.9,3.7,5.9,1.8,9.1c-2,3.2-6,4.2-8.9,2.4
				C217.8,283.5,217,279.5,219,276.3z"/>
			<path class="st4" d="M221.7,280.2c2-3.2,6-4.2,8.9-2.4c2.9,1.8,3.7,5.9,1.7,9.1c-2,3.2-6,4.2-8.9,2.4
				C220.5,287.4,219.7,283.4,221.7,280.2z"/>
			<path class="st4" d="M221.7,280.2c2-3.2,6-4.2,8.9-2.4c2.9,1.8,3.7,5.9,1.7,9.1c-2,3.2-6,4.2-8.9,2.4
				C220.5,287.4,219.7,283.4,221.7,280.2z"/>
			<path class="st4" d="M218.3,290.1l1.1-4.3l-4-0.7"/>
		</g>
		<line class="st4" x1="188.1" y1="176" x2="183.7" y2="160.5"/>
	</g>
	<g>
		<polyline class="st15" points="138.8,212.5 127.1,320 121.3,320 121.3,212.5 		"/>
		<polyline class="st15" points="347,212.5 374.6,320 367.4,320 328.1,212.5 		"/>
		<polygon class="st1" points="349.9,187.5 107.1,187.5 112.4,213.2 355.3,213.2 		"/>
		<polyline class="st4" points="276.5,212.2 272.6,194 108.5,194 		"/>
	</g>
	
		<image style="overflow:visible;" width="523" height="62" xlink:href="C8CBB5F3.jpg"  transform="matrix(0.631 0 0 0.631 201 343)">
	</image>
	<path class="st15" d="M380,122.5H264c3.6-10.7,24.6-19.5,50.7-12.1c7.6-14.2,20-11.6,31.5,4.2C361.5,105,377.9,119,380,122.5z"/>
	<path class="st25" d="M267,164.5h-22c-2.2,0-4-1.8-4-4l0,0c0-2.2,1.8-4,4-4h22c2.2,0,4,1.8,4,4l0,0
		C271,162.7,269.2,164.5,267,164.5z"/>
	<line class="st4" x1="245.5" y1="160.5" x2="268.5" y2="160.5"/>
	<g>
		<path class="st4" d="M259.7,43.5c5.6,0,11.2,0,16.8,0"/>
		<path class="st4" d="M225.5,43.5c8.3,0,16.7,0,25,0"/>
		<path class="st4" d="M247.7,49.5c9.6,0,19.2,0,28.8,0"/>
		<path class="st4" d="M225.5,49.5c3.5,0,7,0,10.5,0"/>
		<path class="st4" d="M265.7,55.5c3.6,0,7.2,0,10.8,0"/>
		<path class="st4" d="M225.5,55.5c9,0,18,0,27.1,0"/>
		<path class="st4" d="M248.4,61.5c9.4,0,18.7,0,28.1,0"/>
		<path class="st4" d="M225.5,61.5c4,0,8,0,12,0"/>
	</g>
	<polygon class="st4" points="206.5,74.5 220.5,37.5 290.5,37.5 280.5,66.5 216.5,66.5 	"/>
	<g>
		<line class="st4" x1="334.5" y1="132.5" x2="341.5" y2="132.5"/>
		<line class="st4" x1="334.5" y1="136.5" x2="341.5" y2="136.5"/>
		<line class="st4" x1="332.5" y1="140.5" x2="341.5" y2="140.5"/>
		<line class="st4" x1="331.5" y1="144.5" x2="341.5" y2="144.5"/>
	</g>
</g>
</svg>
