<?xml version="1.0" encoding="utf-8"?>
<!-- Generator: Adobe Illustrator 24.1.2, SVG Export Plug-In . SVG Version: 6.00 Build 0)  -->
<svg version="1.1" xmlns="http://www.w3.org/2000/svg" xmlns:xlink="http://www.w3.org/1999/xlink" x="0px" y="0px"
	 viewBox="0 0 465 323" style="enable-background:new 0 0 465 323;" xml:space="preserve">
<style type="text/css">
	.st0{fill-rule:evenodd;clip-rule:evenodd;fill:#17B1B1;}
	.st1{fill-rule:evenodd;clip-rule:evenodd;fill:#F6BE22;}
	.st2{fill-rule:evenodd;clip-rule:evenodd;fill:#FFFFFF;}
	
		.st3{fill-rule:evenodd;clip-rule:evenodd;fill:#FFFFFF;stroke:#000000;stroke-width:1.33;stroke-linecap:round;stroke-linejoin:round;}
	.st4{fill:none;stroke:#000000;stroke-width:1.33;stroke-linecap:round;stroke-linejoin:round;}
	.st5{fill:#030100;}
	.st6{fill-rule:evenodd;clip-rule:evenodd;fill:#FDD2E1;}
	.st7{fill-rule:evenodd;clip-rule:evenodd;fill:#0A0704;}
	.st8{fill-rule:evenodd;clip-rule:evenodd;fill:#030100;}
	.st9{fill-rule:evenodd;clip-rule:evenodd;fill:#230E04;}
	.st10{fill-rule:evenodd;clip-rule:evenodd;fill:#000047;}
	.st11{fill-rule:evenodd;clip-rule:evenodd;fill:#F51618;}
	.st12{fill-rule:evenodd;clip-rule:evenodd;fill:#919191;}
	
		.st13{fill-rule:evenodd;clip-rule:evenodd;fill:none;stroke:#FFFFFF;stroke-width:1.33;stroke-linecap:round;stroke-linejoin:round;}
	.st14{fill:none;stroke:#FFFFFF;stroke-width:1.33;stroke-linecap:round;stroke-linejoin:round;}
	.st15{fill:#FFFFFF;stroke:#000000;stroke-width:1.33;stroke-linecap:round;stroke-linejoin:round;}
	.st16{fill-rule:evenodd;clip-rule:evenodd;fill:#24160C;}
	.st17{fill:#0A0704;stroke:#0A0704;stroke-miterlimit:10;}
	.st18{fill:#F6BE22;}
	.st19{fill:#17B1B1;}
	.st20{fill-rule:evenodd;clip-rule:evenodd;fill:#FFBE00;}
	.st21{fill-rule:evenodd;clip-rule:evenodd;fill:none;stroke:#000000;stroke-linecap:round;stroke-linejoin:round;}
	.st22{fill:none;stroke:#1A1A1A;stroke-width:1.33;stroke-linecap:round;stroke-linejoin:round;}
	.st23{fill:#0A0704;}
	.st24{fill-rule:evenodd;clip-rule:evenodd;fill:#12847E;}
	.st25{fill:#F51618;}
	.st26{fill:none;stroke:#000000;stroke-miterlimit:10;}
	.st27{fill:#0092FF;}
	.st28{fill:#007994;}
	.st29{fill:none;stroke:#F6BE22;stroke-width:1.33;stroke-linecap:round;stroke-linejoin:round;}
	.st30{fill:#FDD2E1;}
	.st31{fill:#0C9390;}
	
		.st32{fill-rule:evenodd;clip-rule:evenodd;fill:none;stroke:#000000;stroke-width:1.33;stroke-linecap:round;stroke-linejoin:round;}
	.st33{fill:#A9D18F;}
	.st34{stroke:#000000;stroke-linejoin:round;}
	.st35{fill:#C5DFB5;}
	.st36{fill:#FFFA94;}
	.st37{fill-rule:evenodd;clip-rule:evenodd;fill:#0092FF;}
	
		.st38{fill-rule:evenodd;clip-rule:evenodd;fill:#A8A8A8;stroke:#000000;stroke-width:1.33;stroke-linecap:round;stroke-linejoin:round;}
	.st39{fill-rule:evenodd;clip-rule:evenodd;fill:#C5DFB5;}
	.st40{fill-rule:evenodd;clip-rule:evenodd;fill:#A9D18F;}
	.st41{fill:none;stroke:#0066CC;stroke-width:1.33;stroke-linecap:round;stroke-linejoin:round;stroke-miterlimit:10;}
	.st42{fill-rule:evenodd;clip-rule:evenodd;fill:#FFFA94;}
	.st43{fill:#5D5D5D;}
	.st44{clip-path:url(#SVGID_6_);fill:#FFFFFF;}
	.st45{fill-rule:evenodd;clip-rule:evenodd;fill:#00CB99;}
	.st46{fill:none;stroke:#00EDB3;stroke-width:7.42;stroke-linecap:round;stroke-linejoin:round;}
	.st47{fill-rule:evenodd;clip-rule:evenodd;fill:#4971AF;}
	.st48{fill-rule:evenodd;clip-rule:evenodd;fill:#282828;}
	.st49{fill:#FFFBF2;}
	.st50{fill-rule:evenodd;clip-rule:evenodd;fill:#3AE5BB;}
	.st51{fill-rule:evenodd;clip-rule:evenodd;fill:#514A45;}
	.st52{fill-rule:evenodd;clip-rule:evenodd;fill:#F9CB00;}
	.st53{fill-rule:evenodd;clip-rule:evenodd;fill:#05DBED;}
	.st54{fill-rule:evenodd;clip-rule:evenodd;fill:#E9B200;}
	.st55{clip-path:url(#SVGID_8_);}
	.st56{fill:none;stroke:#FFFFFF;stroke-width:3;stroke-linecap:round;stroke-linejoin:round;}
	.st57{fill:none;stroke:#E9B200;stroke-width:5;stroke-miterlimit:10;}
	.st58{fill-rule:evenodd;clip-rule:evenodd;fill:#00DB00;}
	.st59{fill:#00BC00;}
	.st60{fill:#00DB00;}
	.st61{fill:none;}
	.st62{fill:#F4BC23;}
	.st63{fill-rule:evenodd;clip-rule:evenodd;}
	.st64{fill-rule:evenodd;clip-rule:evenodd;fill:#0068AB;}
	.st65{fill:#BEC7C9;}
	.st66{fill:#0068AB;}
	.st67{fill:#005C89;}
	.st68{clip-path:url(#SVGID_10_);fill:none;stroke:#000000;stroke-width:1.33;stroke-linecap:round;stroke-linejoin:round;}
	.st69{fill:#E1A916;}
	.st70{opacity:0.55;}
	.st71{fill:#FDBE43;}
	.st72{fill:#FFFFFF;}
	.st73{fill:#0067A6;}
	.st74{fill:#54D900;}
	.st75{fill:#0068A7;}
	.st76{fill:#0068A5;}
	.st77{fill:#B8B8B8;}
	.st78{fill:#5C5C5C;}
	.st79{fill:#666464;}
	.st80{fill:#5A5959;}
	.st81{fill:#7C7B7B;}
	.st82{fill:#BCBCBC;}
	.st83{fill:#757575;}
	.st84{fill:#D3D0D0;}
	.st85{fill:#0068A4;}
	.st86{fill:#0067A4;}
	.st87{fill:#4AB000;}
	.st88{fill:#7DDF45;}
	.st89{fill:#7FDF47;}
	.st90{fill:#39BB49;}
	.st91{fill:#D5EADA;}
	.st92{fill:#CDE6D3;}
	.st93{fill:#84DA60;}
	.st94{fill:#D3EAD7;}
	.st95{fill:#4AC04D;}
	.st96{fill:#6FD150;}
	.st97{fill-rule:evenodd;clip-rule:evenodd;fill:#BEC7C9;}
	.st98{fill:#D0D1D6;}
	.st99{fill-rule:evenodd;clip-rule:evenodd;fill:#7394E3;}
	
		.st100{fill-rule:evenodd;clip-rule:evenodd;fill:#17B1B1;stroke:#000000;stroke-width:1.33;stroke-linecap:round;stroke-linejoin:round;}
	.st101{fill-rule:evenodd;clip-rule:evenodd;fill:#408E96;}
	.st102{clip-path:url(#SVGID_12_);}
	.st103{fill:#408E96;}
	.st104{clip-path:url(#SVGID_14_);}
	.st105{fill-rule:evenodd;clip-rule:evenodd;fill:#9AF4F1;}
	
		.st106{fill-rule:evenodd;clip-rule:evenodd;fill:#0A0704;stroke:#FFFFFF;stroke-width:1.33;stroke-linecap:round;stroke-linejoin:round;}
	
		.st107{fill-rule:evenodd;clip-rule:evenodd;fill:#F6BE22;stroke:#000000;stroke-width:1.33;stroke-linecap:round;stroke-linejoin:round;}
	.st108{fill-rule:evenodd;clip-rule:evenodd;fill:#FDFDFD;}
	.st109{fill-rule:evenodd;clip-rule:evenodd;stroke:#000000;stroke-width:1.33;stroke-linecap:round;stroke-linejoin:round;}
	.st110{fill-rule:evenodd;clip-rule:evenodd;fill:#F5F5F5;}
	.st111{fill:none;stroke:#F51618;stroke-width:1.33;stroke-linecap:round;stroke-linejoin:round;}
	.st112{clip-path:url(#SVGID_16_);}
	.st113{fill:none;stroke:#F6F6F6;stroke-width:1.33;stroke-linecap:round;stroke-linejoin:round;}
	.st114{fill-rule:evenodd;clip-rule:evenodd;fill:#373737;}
	.st115{fill-rule:evenodd;clip-rule:evenodd;fill:#118484;}
	.st116{fill-rule:evenodd;clip-rule:evenodd;fill:#DCB6C3;}
	.st117{fill-rule:evenodd;clip-rule:evenodd;fill:#262626;}
	.st118{fill-rule:evenodd;clip-rule:evenodd;fill:#D19F14;}
	
		.st119{fill-rule:evenodd;clip-rule:evenodd;fill:#0A0704;stroke:#000000;stroke-width:1.33;stroke-linecap:round;stroke-linejoin:round;}
	.st120{fill-rule:evenodd;clip-rule:evenodd;fill:#D2A21D;}
	.st121{fill:none;stroke:#000000;stroke-width:6.34;stroke-linecap:round;stroke-linejoin:round;}
	.st122{clip-path:url(#SVGID_18_);}
	.st123{fill-rule:evenodd;clip-rule:evenodd;fill:#F6C949;}
	.st124{fill-rule:evenodd;clip-rule:evenodd;fill:#F6F6F6;}
	.st125{fill-rule:evenodd;clip-rule:evenodd;fill:#FDD2E1;stroke:#000000;stroke-width:1.33;stroke-miterlimit:10;}
	.st126{fill-rule:evenodd;clip-rule:evenodd;stroke:#FFFFFF;stroke-width:1.33;stroke-linecap:round;stroke-linejoin:round;}
	
		.st127{fill-rule:evenodd;clip-rule:evenodd;fill:#FFFFFF;stroke:#0A0704;stroke-width:1.33;stroke-linecap:round;stroke-linejoin:round;}
	
		.st128{fill-rule:evenodd;clip-rule:evenodd;fill:#31B767;stroke:#000000;stroke-width:0.75;stroke-linecap:round;stroke-linejoin:round;}
	
		.st129{fill-rule:evenodd;clip-rule:evenodd;fill:#ECB82B;stroke:#000000;stroke-width:0.75;stroke-linecap:round;stroke-linejoin:round;}
	
		.st130{fill-rule:evenodd;clip-rule:evenodd;fill:#E9EBEF;stroke:#000000;stroke-width:0.75;stroke-linecap:round;stroke-linejoin:round;}
	.st131{fill:none;stroke:#000000;stroke-width:0.75;stroke-linecap:round;stroke-linejoin:round;}
	
		.st132{fill-rule:evenodd;clip-rule:evenodd;fill:#E9EBEF;stroke:#000000;stroke-width:1.33;stroke-linecap:round;stroke-linejoin:round;}
	.st133{fill-rule:evenodd;clip-rule:evenodd;fill:#D5CECE;}
	.st134{fill-rule:evenodd;clip-rule:evenodd;fill:#FBF7F7;}
	.st135{fill-rule:evenodd;clip-rule:evenodd;stroke:#000000;stroke-miterlimit:10;}
	.st136{fill-rule:evenodd;clip-rule:evenodd;fill:#FFFFFF;stroke:#000000;stroke-linecap:round;stroke-linejoin:round;}
	.st137{fill:none;stroke:#000000;stroke-linecap:round;stroke-linejoin:round;}
	.st138{fill:#D6AE03;}
	.st139{fill:#F9CB00;}
	.st140{fill-rule:evenodd;clip-rule:evenodd;fill:none;stroke:#000000;stroke-width:7;stroke-linecap:round;stroke-linejoin:round;}
	.st141{fill-rule:evenodd;clip-rule:evenodd;fill:#F7F7F7;}
	.st142{fill:#919191;}
	.st143{clip-path:url(#SVGID_20_);fill:none;stroke:#000000;stroke-width:1.33;stroke-linecap:round;stroke-linejoin:round;}
	.st144{fill:#F6E5DC;}
	.st145{fill:#F4AA1C;}
	.st146{fill:#FBBB1F;}
	.st147{fill:#007CFF;}
	.st148{fill:none;stroke:#000000;stroke-width:1.33;stroke-linecap:round;stroke-linejoin:round;stroke-dasharray:12,15;}
	.st149{fill:#FFBE00;}
	.st150{fill-rule:evenodd;clip-rule:evenodd;fill:#0A0704;stroke:#0A0704;stroke-miterlimit:10;}
	.st151{fill:#F51618;stroke:#000000;stroke-width:1.33;stroke-linecap:round;stroke-linejoin:round;}
	.st152{fill:#5CEAE6;}
	.st153{fill:none;stroke:#000000;stroke-linejoin:round;}
	.st154{fill-rule:evenodd;clip-rule:evenodd;fill:none;}
	.st155{clip-path:url(#SVGID_24_);fill:#FFFFFF;}
	.st156{clip-path:url(#SVGID_26_);fill:none;stroke:#000000;stroke-width:1.33;stroke-linecap:round;stroke-linejoin:round;}
	.st157{clip-path:url(#SVGID_28_);}
</style>
<g id="Guides_For_Artboard">
</g>
<g id="Layer_1">
	<g>
		<path class="st3" d="M181.6,87c-3-6.1-3.4-9.7-4.4-14.4c-2.1-10.3-4.7-21.2-4.7-21.2s-8.5-2.9-12.8-4.3
			c-2.1,17.9,0.1,17.2-8.5,38.8c-2.4,5.8-30.8,11.3-30.8,11.3s-3,16.3-3.2,18c-3.7,40.2,66.3,54.5,66.3,54.5l15.8-52.3
			C199.3,117.3,184.5,93.1,181.6,87z"/>
		<path class="st7" d="M146.7,37.1c-5.1,7.4,1.6,28.8,5.5,34.7c4.2,6.3,12.2-0.7,21.1-2.8c9-2.1,14.4-2.7,15.3-11.8
			c3.6-34.7-8.1-25.8-16.8-27.6C165.1,28.2,151.7,30,146.7,37.1z"/>
		<path class="st3" d="M182.6,30.1c4.1,18,5.9,34,5.7,39.5c-0.2,7.9-6.8,11.5-11.9,12.2c-5.3,0.7-12.5-1.7-14.2-9.7
			c-1.9-9.3-4.8-30-4.4-33.8s3-8.4,7.3-11.9C170.9,21.8,181.3,24.7,182.6,30.1z"/>
		<path class="st4" d="M178.1,53c2.3,5.5,5.7,11.2-1.2,10.6"/>
		<path class="st7" d="M174,57.7c-0.1-0.6-0.6-1-1.1-0.9c-0.5,0.1-0.9,0.6-0.8,1.2c0.1,0.6,0.6,1,1.1,0.9
			C173.8,58.8,174.1,58.3,174,57.7z"/>
		<path class="st7" d="M185.5,56c-0.1-0.6-0.6-1-1.1-0.9c-0.5,0.1-0.9,0.6-0.8,1.2c0.1,0.6,0.6,1,1.1,0.9
			C185.2,57.1,185.6,56.6,185.5,56z"/>
		<path class="st3" d="M162.8,63.1c-3.2,2.6-6.7-2.4-4-4.8c0.7-0.6,1.7-0.8,2.4-0.6"/>
		<path class="st7" d="M193.7,37.8c-0.4,2.6-8.7,6.7-25.1,6.7c-9.1,0-6.1,12.7-8,12.9c-4.7,0.6-15.3-9.2-13.4-20.9
			C150.4,17.3,196.6,18.9,193.7,37.8z"/>
		<path class="st4" d="M171.5,65.2c0.3,1.6,1.7,2.9,3.3,3.2"/>
		<g>
			<path class="st15" d="M201.5,203.5l26,21c0,0,7-1,12-15s4-28,4-28l-38,2L201.5,203.5z"/>
			<path class="st0" d="M181.8,88.2l-12.1,7.9c-4.8,3.1-11.1,2.2-14.9-2.1l-7.4-8.5c-11.3,2-37.7,5.1-37.5,6.9l53.4,141l34.4-137.9
				L181.8,88.2z"/>
			<path class="st0" d="M210.6,243.6c-6-18.8-12.6-37.9-12.6-37.9s-18.4,15.1-50.1,18.1c-8.9,0.8-42.8,0.4-42.8,0.4l-3.5,19.9
				C137.8,245.1,174.3,243.8,210.6,243.6z"/>
			<g>
				<path class="st15" d="M217.6,243.6l-7.1-64.1l0,0l-4.5-22.1l4.5,22.1l19.2-8l-8.5-58.3c-3.3-8.5-10.5-15.3-19.7-18.4l-13.1-4.5
					l-12.9,16c-9,11.1-14.1,24.9-14.5,39.1c-0.1,3-0.2,6.3-0.3,9.8l-0.4-18.1c-0.2-8.6-3.3-16.9-8.8-23.5L132.6,87
					c0,0-33.5,2.8-43.8,15.3c-6.1,7.4-11.5,40.3-11.5,40.3c-12.5,54.3-3.8,96.6,8.8,96.6c0.4,0,0.8,0,1.2-0.1
					c-0.5-0.1-1.3,1.6-2.1,4.2C129.1,245.7,173.5,243.6,217.6,243.6z"/>
			</g>
			<g>
				<path class="st23" d="M189.3,121.3c2.1-5.8,3.3-11.8,3.5-17.9l0-0.2c0.1-3.3,0-8.3-2.2-12.9c-2.3-4.9-5.3-7.9-9.5-9.3
					c-0.1-0.1-0.3-0.1-0.5-0.1c-0.1,0-0.2,0-0.4,0l-0.2,4c0.4,0.2,0.7,0.3,0.7,0.3c2.6,1.3,4.4,3.3,5.9,6.4c1.4,3,2.1,6.6,1.9,11.3
					l0,0.2c-0.2,5.6-1.3,11.2-3.2,16.6c-0.2,0-0.4,0-0.6,0c-4.2-0.2-7.7,2.6-7.8,6.2c-0.1,3.6,3.2,6.6,7.4,6.8
					c4.2,0.2,7.7-2.6,7.8-6.2C192.1,124.4,191,122.5,189.3,121.3z M184.1,129.2c-1.9-0.1-3.5-1.5-3.4-3.1c0.1-1.6,1.7-2.9,3.6-2.9
					c0.1,0.4,0.4,0.7,0.9,0.8l1.3,0.5c0.1,0.1,0.3,0.1,0.5,0.1c0.1,0,0.2,0,0.2,0c0.4,0.5,0.7,1.1,0.6,1.8
					C187.7,127.9,186,129.3,184.1,129.2z"/>
				<path class="st23" d="M125.7,116.3c2.3-5.1,7.5-8.2,11.6-9c0-4.6,0.7-9.1,2-13.4l0.1-0.2c0.8-2.6,2.2-6.3,5.2-9.2
					c2.4-2.4,5.4-5.1,8.4-5.6l-1.1,4.8c-1.6,0.5-3.1,1.4-4.5,2.9c-1.9,1.9-3.3,4.5-4.5,8.2l-0.1,0.2c-1.2,4-1.9,8.2-1.9,12.4
					c3.8,0.6,8.7,3,11.5,6.9c3.3,4.6,5.4,10.9,6.1,17.7l0.1,0.9l-2.1-0.1c0.1,1.6,0.5,3.1,0.9,4.2l0.5,1.5c0.5,1.6,1.1,3.5,1.4,5.4
					c0.3,2.1,0.3,5.2-1.5,7.8c-1.9,2.8-5,3.9-8.1,4.8c-0.5,0.4-1.1,0.6-1.8,0.7c-1,0.1-1.5-0.3-1.8-0.7c-0.3-0.5-0.4-1-0.4-1.5
					c0-0.4-0.1-1.1,0.3-1.7c0.4-0.5,1-0.6,1.5-0.7c0.4,0,0.8,0,1.2,0.1c0.1,0,0.2,0.1,0.3,0.1c0.2,0.1,0.3,0.1,0.5,0.2
					c2.1-0.6,4.4-1.5,5.6-3.3c0.9-1.3,1.2-3.3,0.9-5.5c-0.2-1.6-0.8-3.3-1.3-4.8c-0.2-0.5-0.3-1-0.5-1.6c-0.4-1.4-0.9-3.2-1-5.2
					l-0.1-0.6c-0.6-6.2-2.5-11.8-5.4-15.9c-2.7-3.8-5.8-5.7-8.9-5.4c-3,0.3-5.8,2.8-7.7,7c-2.1,4.6-2.9,10.5-2.3,16.7l0.1,0.7
					c0.3,1.9,0.1,3.8,0,5.2c-0.1,0.5-0.1,1.1-0.2,1.6c-0.2,1.6-0.4,3.4-0.3,5c0.1,2.2,0.8,4.1,2,5.2c1.5,1.5,3.9,1.9,6.2,2.1
					c0.5-0.4,1.1-0.7,1.8-0.8c0.4,0,1.1,0,1.6,0.4c0.5,0.4,0.6,1.1,0.6,1.6c0.1,0.6,0.2,2.4-1.8,2.6c-0.2,0-0.3,0-0.5,0
					c-0.5,0-1-0.2-1.4-0.4c-3.2-0.2-6.5-0.8-8.9-3.1c-2.2-2.2-2.8-5.2-2.9-7.4c-0.1-1.9,0.1-3.8,0.4-5.6l0.2-1.6
					c0.1-1.1,0.2-2.7,0-4.3l-2.2-0.1l-0.1-0.9C122.4,128,123.3,121.4,125.7,116.3z"/>
			</g>
			<path class="st15" d="M187.5,233.7c0,0,7.6-11.9,14.7-19c7.2-7.2,15.6-9,15.6-9l8.2,11.5l-13.6,17L187.5,233.7z"/>
			<path class="st4" d="M111.7,95.9c0,0,5.3,13.8,5.3,27.8s-0.4,33.6-0.4,33.6"/>
			<path class="st4" d="M197.7,95.4c0,0-2.2,16.2,1.1,26.6c3.2,10.3,7.3,35.4,7.3,35.4"/>
			<g>
				<g>
					<path class="st18" d="M200.7,114l5.6-21.6c0.9-3.5,3.1-6.6,6.2-8.5l0,0c2.7-1.7,6-2.5,9.2-2.1l49.9,5.8
						c8.3,1,15.6,5.9,19.6,13.2l2.4,4.3l-14.5-1l-7.5,22.3L200.7,114z"/>
					<polyline class="st4" points="278,105.3 227.1,100.6 219.1,81.7 					"/>
				</g>
				<path class="st142" d="M283.2,203.9l-106.3-6.7c-5.5-0.3-9.7-5.1-9.3-10.6l4.3-67.2c0.3-5.5,5.1-9.7,10.6-9.3l106.3,6.7
					c5.5,0.3,9.7,5.1,9.3,10.6l-4.3,67.2C293.4,200.1,288.7,204.3,283.2,203.9z"/>
				<path class="st72" d="M237.5,154.3l-11.1-1.3c-1.8-0.2-3.1-1.9-2.9-3.7l1.3-11.1c0.2-1.8,1.9-3.1,3.7-2.9l11.1,1.3
					c1.8,0.2,3.1,1.9,2.9,3.7l-1.3,11.1C240.9,153.2,239.3,154.5,237.5,154.3z"/>
			</g>
			<line class="st4" x1="151.3" y1="196.9" x2="158.3" y2="223.7"/>
			<path class="st4" d="M178.4,242.4l0.2,1.6c11.8-0.2,23.6-0.3,35.4-0.4l-0.1-1.2H178.4z"/>
			<polygon class="st4" points="145.2,233.8 110,233.7 108.5,241.7 144.2,241.7 			"/>
			<path class="st4" d="M108.5,241.7l-0.4,2.5c11.9,0.3,23.8,0.3,35.7,0.2l0.4-2.7H108.5z"/>
			<path class="st4" d="M106.5,191.7l5.1-7.9l13.3-4l11.2,26.5c0,0-17.5,17.4-34.9,27.9"/>
			<line class="st4" x1="161.6" y1="126.4" x2="161.3" y2="101.5"/>
			<polygon class="st4" points="213.9,242.4 212.3,234.2 177.4,234.2 178.4,242.4 			"/>
		</g>
		<polyline class="st4" points="213.9,202 222.1,201.7 229.7,210.3 		"/>
		<line class="st4" x1="194.6" y1="234.2" x2="202.2" y2="225.1"/>
		<line class="st4" x1="202.2" y1="234.2" x2="206" y2="229.4"/>
		<line class="st4" x1="207.4" y1="233.7" x2="211.5" y2="229.4"/>
		<path class="st15" d="M188.6,164.7c0.7-1.1,0.2-2.7-1.1-3.1c-0.4-0.1-2.9,0.8-3.1,0.9c0.3-1-0.7-2.7-1-3.1
			c-1.5-1.5-9.8,4.9-9.8,4.9c-7.1,2.9-15.5,4.2-15.6,4.3c0.1-1.3,6.8-13.3-0.2-13.8c0,0-5.8,8.4-11.1,12c-4.6,4.4-8.1,8.3-8.9,8.7
			c-1.1,0.9-6.1,4.1-11.4,7.4c3.4,7.8,6.8,15.5,9.9,23.5c5.3-4.2,9.6-7.6,11.9-9c12-5.2,24.9-11.9,36.9-17.1c1.6-1,2.6-2.7,2.5-4.5
			c-0.1-1.5-1.4-5.7-1.8-6.1C186.3,168.3,187.6,166.3,188.6,164.7z"/>
		<line class="st4" x1="166.9" y1="179.7" x2="185.3" y2="169.8"/>
		<polyline class="st4" points="162.8,175.5 177.6,168.7 184.5,162.5 		"/>
		<line class="st4" x1="150.7" y1="171.4" x2="158" y2="168.6"/>
		<line class="st4" x1="168.8" y1="183.8" x2="186.5" y2="175.1"/>
		<circle class="st4" cx="170.5" cy="55.4" r="6.4"/>
		<circle class="st4" cx="186.9" cy="53.5" r="6.4"/>
		<g>
			<path class="st1" d="M142.6,202.5l8.1-3.6l-10.8-24.4l-7.7,4.5L142.6,202.5z"/>
			<path class="st1" d="M139.9,186.1c-3.8,1.8-7.5,1.5-9.3-2.2c-1.5-2.9,0.6-6.8,4.3-8.5c3.8-1.8,7.9-0.8,9.3,2.2
				C145.6,180.5,143.7,184.3,139.9,186.1z"/>
			<path class="st4" d="M138.1,194.2l3.2-5.3l5.9,0.9"/>
			<path class="st4" d="M130.4,182.8c0.7,1.9,3.1,3.4,5.7,3c2.6-0.4,4.9-1.6,6.6-3.7c2-2.4,1.1-5.1,1.1-5.1"/>
			<path class="st4" d="M132.7,182l4.2-2.3l1.8,1.5"/>
			<path class="st4" d="M130.7,181.2c0,0,0.1-2.2,2.4-4c1.8-1.4,3.1-1.9,4.9-2.2c2.2-0.3,3.9,0.7,3.9,0.7"/>
		</g>
	</g>
	<g>
		<circle class="st0" cx="300.8" cy="52.2" r="33.7"/>
		<polyline class="st4" points="288.1,54 299,66.8 317.3,41.3 		"/>
		<line class="st4" x1="337.3" y1="85.1" x2="302.7" y2="85.1"/>
		<line class="st4" x1="322.7" y1="92.4" x2="348.3" y2="92.4"/>
	</g>
	<g>
		<path class="st0" d="M239.9,122.4l4.4-0.4c4.9-0.5,9.8,0,14.6,1.3l5.2,1.5c1.5,0.4,2.5,1.9,2.3,3.5L265,142
			c-0.1,1-0.6,1.9-1.5,2.4l-8.3,5.5c-4,2.6-9.2,2-12.5-1.4l-6.4-6.7c-0.7-0.7-1-1.6-0.9-2.6l1.4-13.9
			C237.1,123.8,238.4,122.5,239.9,122.4z"/>
		<line class="st4" x1="251.4" y1="129.3" x2="249.3" y2="151.2"/>
	</g>
	
		<image style="overflow:visible;" width="420" height="42" xlink:href="3A239CCB.jpg"  transform="matrix(0.6571 0 0 0.6571 0 287)">
	</image>
	<g>
		<polygon class="st6" points="54.5,211.8 406.4,212 397,247 45.1,246.8 		"/>
		<polyline class="st4" points="149.3,245.6 153.5,220.9 405.5,220.9 		"/>
	</g>
	<path class="st15" d="M106.5,191.7l5.1-7.9l13.3-4l11.2,26.5c0,0-35.6,22.1-50.6,16.1c0,0-16-3-14-26"/>
	<g>
		<path class="st25" d="M310.5,96L310.5,96c-3,0-5.5-2.5-5.5-5.5v-17c0-3,2.5-5.5,5.5-5.5l0,0c3,0,5.5,2.5,5.5,5.5v17
			C316,93.5,313.5,96,310.5,96z"/>
		<path class="st25" d="M324.5,82L324.5,82c0,3-2.5,5.5-5.5,5.5h-17c-3,0-5.5-2.5-5.5-5.5v0c0-3,2.5-5.5,5.5-5.5h17
			C322,76.5,324.5,79,324.5,82z"/>
	</g>
</g>
</svg>
