<?xml version="1.0" encoding="utf-8"?>
<!-- Generator: Adobe Illustrator 24.1.2, SVG Export Plug-In . SVG Version: 6.00 Build 0)  -->
<svg version="1.1" xmlns="http://www.w3.org/2000/svg" xmlns:xlink="http://www.w3.org/1999/xlink" x="0px" y="0px"
	 viewBox="0 0 439 370" style="enable-background:new 0 0 439 370;" xml:space="preserve">
<style type="text/css">
	.st0{fill-rule:evenodd;clip-rule:evenodd;fill:#17B1B1;}
	.st1{fill-rule:evenodd;clip-rule:evenodd;fill:#F6BE22;}
	.st2{fill-rule:evenodd;clip-rule:evenodd;fill:#FFFFFF;}
	
		.st3{fill-rule:evenodd;clip-rule:evenodd;fill:#FFFFFF;stroke:#000000;stroke-width:1.33;stroke-linecap:round;stroke-linejoin:round;}
	.st4{fill:none;stroke:#000000;stroke-width:1.33;stroke-linecap:round;stroke-linejoin:round;}
	.st5{fill:#030100;}
	.st6{fill-rule:evenodd;clip-rule:evenodd;fill:#FDD2E1;}
	.st7{fill-rule:evenodd;clip-rule:evenodd;fill:#0A0704;}
	.st8{fill-rule:evenodd;clip-rule:evenodd;fill:#030100;}
	.st9{fill-rule:evenodd;clip-rule:evenodd;fill:#230E04;}
	.st10{fill-rule:evenodd;clip-rule:evenodd;fill:#000047;}
	.st11{fill-rule:evenodd;clip-rule:evenodd;fill:#F51618;}
	.st12{fill-rule:evenodd;clip-rule:evenodd;fill:#919191;}
	
		.st13{fill-rule:evenodd;clip-rule:evenodd;fill:none;stroke:#FFFFFF;stroke-width:1.33;stroke-linecap:round;stroke-linejoin:round;}
	.st14{fill:none;stroke:#FFFFFF;stroke-width:1.33;stroke-linecap:round;stroke-linejoin:round;}
	.st15{fill:#FFFFFF;stroke:#000000;stroke-width:1.33;stroke-linecap:round;stroke-linejoin:round;}
	.st16{fill-rule:evenodd;clip-rule:evenodd;fill:#24160C;}
	.st17{fill:#0A0704;stroke:#0A0704;stroke-miterlimit:10;}
	.st18{fill:#F6BE22;}
	.st19{fill:#17B1B1;}
	.st20{fill-rule:evenodd;clip-rule:evenodd;fill:#FFBE00;}
	.st21{fill-rule:evenodd;clip-rule:evenodd;fill:none;stroke:#000000;stroke-linecap:round;stroke-linejoin:round;}
	.st22{fill:none;stroke:#1A1A1A;stroke-width:1.33;stroke-linecap:round;stroke-linejoin:round;}
	.st23{fill:#0A0704;}
	.st24{fill-rule:evenodd;clip-rule:evenodd;fill:#12847E;}
	.st25{fill:#F51618;}
	.st26{fill:none;stroke:#000000;stroke-miterlimit:10;}
	.st27{fill:#0092FF;}
	.st28{fill:#007994;}
	.st29{fill:none;stroke:#F6BE22;stroke-width:1.33;stroke-linecap:round;stroke-linejoin:round;}
	.st30{fill:#FDD2E1;}
	.st31{fill:#0C9390;}
	
		.st32{fill-rule:evenodd;clip-rule:evenodd;fill:none;stroke:#000000;stroke-width:1.33;stroke-linecap:round;stroke-linejoin:round;}
	.st33{fill:#A9D18F;}
	.st34{stroke:#000000;stroke-linejoin:round;}
	.st35{fill:#C5DFB5;}
	.st36{fill:#FFFA94;}
	.st37{fill-rule:evenodd;clip-rule:evenodd;fill:#0092FF;}
	
		.st38{fill-rule:evenodd;clip-rule:evenodd;fill:#A8A8A8;stroke:#000000;stroke-width:1.33;stroke-linecap:round;stroke-linejoin:round;}
	.st39{fill-rule:evenodd;clip-rule:evenodd;fill:#C5DFB5;}
	.st40{fill-rule:evenodd;clip-rule:evenodd;fill:#A9D18F;}
	.st41{fill:none;stroke:#0066CC;stroke-width:1.33;stroke-linecap:round;stroke-linejoin:round;stroke-miterlimit:10;}
	.st42{fill-rule:evenodd;clip-rule:evenodd;fill:#FFFA94;}
	.st43{fill:#5D5D5D;}
	.st44{clip-path:url(#SVGID_6_);fill:#FFFFFF;}
	.st45{fill-rule:evenodd;clip-rule:evenodd;fill:#00CB99;}
	.st46{fill:none;stroke:#00EDB3;stroke-width:7.42;stroke-linecap:round;stroke-linejoin:round;}
	.st47{fill-rule:evenodd;clip-rule:evenodd;fill:#4971AF;}
	.st48{fill-rule:evenodd;clip-rule:evenodd;fill:#282828;}
	.st49{fill:#FFFBF2;}
	.st50{fill-rule:evenodd;clip-rule:evenodd;fill:#3AE5BB;}
	.st51{fill-rule:evenodd;clip-rule:evenodd;fill:#514A45;}
	.st52{fill-rule:evenodd;clip-rule:evenodd;fill:#F9CB00;}
	.st53{fill-rule:evenodd;clip-rule:evenodd;fill:#05DBED;}
	.st54{fill-rule:evenodd;clip-rule:evenodd;fill:#E9B200;}
	.st55{clip-path:url(#SVGID_8_);}
	.st56{fill:none;stroke:#FFFFFF;stroke-width:3;stroke-linecap:round;stroke-linejoin:round;}
	.st57{fill:none;stroke:#E9B200;stroke-width:5;stroke-miterlimit:10;}
	.st58{fill-rule:evenodd;clip-rule:evenodd;fill:#00DB00;}
	.st59{fill:#00BC00;}
	.st60{fill:#00DB00;}
	.st61{fill:none;}
	.st62{fill:#F4BC23;}
	.st63{fill-rule:evenodd;clip-rule:evenodd;}
	.st64{fill-rule:evenodd;clip-rule:evenodd;fill:#0068AB;}
	.st65{fill:#BEC7C9;}
	.st66{fill:#0068AB;}
	.st67{fill:#005C89;}
	.st68{clip-path:url(#SVGID_10_);fill:none;stroke:#000000;stroke-width:1.33;stroke-linecap:round;stroke-linejoin:round;}
	.st69{fill:#E1A916;}
	.st70{opacity:0.55;}
	.st71{fill:#FDBE43;}
	.st72{fill:#FFFFFF;}
	.st73{fill:#0067A6;}
	.st74{fill:#54D900;}
	.st75{fill:#0068A7;}
	.st76{fill:#0068A5;}
	.st77{fill:#B8B8B8;}
	.st78{fill:#5C5C5C;}
	.st79{fill:#666464;}
	.st80{fill:#5A5959;}
	.st81{fill:#7C7B7B;}
	.st82{fill:#BCBCBC;}
	.st83{fill:#757575;}
	.st84{fill:#D3D0D0;}
	.st85{fill:#0068A4;}
	.st86{fill:#0067A4;}
	.st87{fill:#4AB000;}
	.st88{fill:#7DDF45;}
	.st89{fill:#7FDF47;}
	.st90{fill:#39BB49;}
	.st91{fill:#D5EADA;}
	.st92{fill:#CDE6D3;}
	.st93{fill:#84DA60;}
	.st94{fill:#D3EAD7;}
	.st95{fill:#4AC04D;}
	.st96{fill:#6FD150;}
	.st97{fill-rule:evenodd;clip-rule:evenodd;fill:#BEC7C9;}
	.st98{fill:#D0D1D6;}
	.st99{fill-rule:evenodd;clip-rule:evenodd;fill:#7394E3;}
	
		.st100{fill-rule:evenodd;clip-rule:evenodd;fill:#17B1B1;stroke:#000000;stroke-width:1.33;stroke-linecap:round;stroke-linejoin:round;}
	.st101{fill-rule:evenodd;clip-rule:evenodd;fill:#408E96;}
	.st102{clip-path:url(#SVGID_12_);}
	.st103{fill:#408E96;}
	.st104{clip-path:url(#SVGID_14_);}
	.st105{fill-rule:evenodd;clip-rule:evenodd;fill:#9AF4F1;}
	
		.st106{fill-rule:evenodd;clip-rule:evenodd;fill:#0A0704;stroke:#FFFFFF;stroke-width:1.33;stroke-linecap:round;stroke-linejoin:round;}
	
		.st107{fill-rule:evenodd;clip-rule:evenodd;fill:#F6BE22;stroke:#000000;stroke-width:1.33;stroke-linecap:round;stroke-linejoin:round;}
	.st108{fill-rule:evenodd;clip-rule:evenodd;fill:#FDFDFD;}
	.st109{fill-rule:evenodd;clip-rule:evenodd;stroke:#000000;stroke-width:1.33;stroke-linecap:round;stroke-linejoin:round;}
	.st110{fill-rule:evenodd;clip-rule:evenodd;fill:#F5F5F5;}
	.st111{fill:none;stroke:#F51618;stroke-width:1.33;stroke-linecap:round;stroke-linejoin:round;}
	.st112{clip-path:url(#SVGID_16_);}
	.st113{fill:none;stroke:#F6F6F6;stroke-width:1.33;stroke-linecap:round;stroke-linejoin:round;}
	.st114{fill-rule:evenodd;clip-rule:evenodd;fill:#373737;}
	.st115{fill-rule:evenodd;clip-rule:evenodd;fill:#118484;}
	.st116{fill-rule:evenodd;clip-rule:evenodd;fill:#DCB6C3;}
	.st117{fill-rule:evenodd;clip-rule:evenodd;fill:#262626;}
	.st118{fill-rule:evenodd;clip-rule:evenodd;fill:#D19F14;}
	
		.st119{fill-rule:evenodd;clip-rule:evenodd;fill:#0A0704;stroke:#000000;stroke-width:1.33;stroke-linecap:round;stroke-linejoin:round;}
	.st120{fill-rule:evenodd;clip-rule:evenodd;fill:#D2A21D;}
	.st121{fill:none;stroke:#000000;stroke-width:6.34;stroke-linecap:round;stroke-linejoin:round;}
	.st122{clip-path:url(#SVGID_18_);}
	.st123{fill-rule:evenodd;clip-rule:evenodd;fill:#F6C949;}
	.st124{fill-rule:evenodd;clip-rule:evenodd;fill:#F6F6F6;}
	.st125{fill-rule:evenodd;clip-rule:evenodd;fill:#FDD2E1;stroke:#000000;stroke-width:1.33;stroke-miterlimit:10;}
	.st126{fill-rule:evenodd;clip-rule:evenodd;stroke:#FFFFFF;stroke-width:1.33;stroke-linecap:round;stroke-linejoin:round;}
	
		.st127{fill-rule:evenodd;clip-rule:evenodd;fill:#FFFFFF;stroke:#0A0704;stroke-width:1.33;stroke-linecap:round;stroke-linejoin:round;}
	
		.st128{fill-rule:evenodd;clip-rule:evenodd;fill:#31B767;stroke:#000000;stroke-width:0.75;stroke-linecap:round;stroke-linejoin:round;}
	
		.st129{fill-rule:evenodd;clip-rule:evenodd;fill:#ECB82B;stroke:#000000;stroke-width:0.75;stroke-linecap:round;stroke-linejoin:round;}
	
		.st130{fill-rule:evenodd;clip-rule:evenodd;fill:#E9EBEF;stroke:#000000;stroke-width:0.75;stroke-linecap:round;stroke-linejoin:round;}
	.st131{fill:none;stroke:#000000;stroke-width:0.75;stroke-linecap:round;stroke-linejoin:round;}
	
		.st132{fill-rule:evenodd;clip-rule:evenodd;fill:#E9EBEF;stroke:#000000;stroke-width:1.33;stroke-linecap:round;stroke-linejoin:round;}
	.st133{fill-rule:evenodd;clip-rule:evenodd;fill:#D5CECE;}
	.st134{fill-rule:evenodd;clip-rule:evenodd;fill:#FBF7F7;}
	.st135{fill-rule:evenodd;clip-rule:evenodd;stroke:#000000;stroke-miterlimit:10;}
	.st136{fill-rule:evenodd;clip-rule:evenodd;fill:#FFFFFF;stroke:#000000;stroke-linecap:round;stroke-linejoin:round;}
	.st137{fill:none;stroke:#000000;stroke-linecap:round;stroke-linejoin:round;}
	.st138{fill:#D6AE03;}
	.st139{fill:#F9CB00;}
	.st140{fill-rule:evenodd;clip-rule:evenodd;fill:none;stroke:#000000;stroke-width:7;stroke-linecap:round;stroke-linejoin:round;}
	.st141{fill-rule:evenodd;clip-rule:evenodd;fill:#F7F7F7;}
	.st142{fill:#919191;}
	.st143{clip-path:url(#SVGID_20_);fill:none;stroke:#000000;stroke-width:1.33;stroke-linecap:round;stroke-linejoin:round;}
	.st144{fill:#F6E5DC;}
	.st145{fill:#F4AA1C;}
	.st146{fill:#FBBB1F;}
	.st147{fill:#007CFF;}
	.st148{fill:none;stroke:#000000;stroke-width:1.33;stroke-linecap:round;stroke-linejoin:round;stroke-dasharray:12,15;}
	.st149{fill:#FFBE00;}
	.st150{fill-rule:evenodd;clip-rule:evenodd;fill:#0A0704;stroke:#0A0704;stroke-miterlimit:10;}
	.st151{fill:#F51618;stroke:#000000;stroke-width:1.33;stroke-linecap:round;stroke-linejoin:round;}
	.st152{fill:#5CEAE6;}
	.st153{fill:none;stroke:#000000;stroke-linejoin:round;}
	.st154{fill-rule:evenodd;clip-rule:evenodd;fill:none;}
	.st155{clip-path:url(#SVGID_24_);fill:#FFFFFF;}
	.st156{clip-path:url(#SVGID_26_);fill:none;stroke:#000000;stroke-width:1.33;stroke-linecap:round;stroke-linejoin:round;}
	.st157{clip-path:url(#SVGID_28_);}
</style>
<g id="Guides_For_Artboard">
</g>
<g id="Layer_1">
	<g>
		<g>
			<g>
				<path class="st15" d="M223.5,240.2c0-1.4,1.3-4,1.3-4C222.4,237.8,223.5,240.2,223.5,240.2z"/>
				<path class="st5" d="M224.6,241.2L224.6,241.2c-0.4-0.4-0.7-0.7-0.7-0.7s-6.5-5.9-10.9-1.2c-3.5,3.8-0.3,7.9-0.6,10.3
					c-0.4,2.9-1.8,4.3-2.4,5.3c-0.2,0.3-0.7,1.2-0.7,1.2c0,0,0.9-0.6,1.1-0.7c1-0.7,2.2-2.2,5.1-2.7c2.3-0.5,6.7,2.5,10.2-1.3
					c3.2-3.5,0.5-7.8-1.1-9.7l0,0c0,0,1.4-0.5,2-0.5c0.5-0.1,0.5,0.9,1.6,1.1c1.1,0.2,3.9-2.4,4-2.9c0.1-0.5-0.3-0.3-0.3-0.3
					L224.6,241.2z"/>
			</g>
			<path class="st19" d="M238.4,225.8c-1.3,0.2-2,3-3.5,3.2c-1.5,0.2-0.8-1.7-3.6,0c-2.8,1.6-1.5,6.2-2.4,8
				c-0.9,1.9-4.6,3.9-4.6,3.9l0.4,0.3c0,0,3.2-1.8,4.9-3.1c1.1-0.8,4.8,0.9,5.9,0.1c1-0.7,0.4-1.6,0.9-2.3c1.1-1.3,3.1-0.4,4.7-1.4
				c1.2-0.8-0.1-2.3,0.6-3.1c0.8-0.8,4.5-2,3.7-4c-0.8-2-3.4,0-4.3,0.1S239.7,225.7,238.4,225.8z"/>
			<path class="st19" d="M234.1,221.2c-1.1,0.8-2.6-0.1-3.8,1c-1.2,1.1-0.9,3-1.9,3.9c-1,0.8-2.7,0-4.3,2.6
				c-1.5,2.6,2.1,7.1,1.8,7.9c-0.3,0.7-2.4,3.6-2.4,3.6l0.6,0.5l0.2,0.2l0.1-0.2c0.5-0.6,2.5-3.1,4.3-3.9c2-0.9,5.7,0.4,7.4-2.7
				c0.7-1.3-0.7-1.9-0.4-2.9c0.2-1,2.4-2.3,2.8-3.5c0.4-1.3-0.6-1.7-0.7-2.8c-0.2-1.1,2.8-4.6,0.7-5.8
				C236.3,217.8,235.1,220.4,234.1,221.2z M236.3,222c-4.5,8.3-10.7,16.7-12,18.4l-0.3-0.4c3.9-5.6,11.9-18.3,11.9-18.3L236.3,222z"
				/>
			<path class="st15" d="M235.9,221.7l0.3,0.3c-4.5,8.3-10.7,16.7-12,18.4l-0.3-0.4C227.9,234.4,235.9,221.7,235.9,221.7z"/>
		</g>
		<g>
			<g>
				<path class="st15" d="M234.3,259.3c0,0.1,0.1,0.2,0.2,0.2l0.2,0c-0.5-1.6-0.1-2.6,0.2-3c0.1-0.2,0.3-0.2,0.4,0
					c0.2,0.4,0.6,1,1,1.5c0.1,0.1,0.2,0.1,0.3,0l0,0c0.1-0.1,0.1-0.2,0-0.3c-0.2-0.2-0.6-0.7-1-1.4c-0.1-0.2,0-0.4,0.2-0.4
					c1,0,1.9,0.2,2.3,0.2c0.1,0,0.3-0.1,0.3-0.2l0,0c0-0.1-0.1-0.2-0.2-0.2c-1-0.2-2.4-0.2-2.9-0.2c-0.1,0-0.2-0.1-0.2-0.1
					c-0.2-0.5-0.4-1.1-0.6-1.7c0-0.2,0.1-0.3,0.3-0.3c1.1,0.2,2.1,0.5,3,0.8c0.1,0,0.3,0,0.3-0.1l0,0c0-0.1,0-0.3-0.2-0.3
					c-1.2-0.3-6.6-1.7-11.8-1.5c-0.1,0-0.2,0.1-0.2,0.2l0,0.2c0,0,4.1-0.1,7.9,0.5c0.1,0,0.2,0.1,0.2,0.2c0.1,0.5,0.6,1.8,0.9,2.3
					c0,0.1,0,0.2,0,0.3c-0.3,0.4-0.5,0.9-0.6,1.3l0-0.1l-1.1,0.6c-0.1,0.1-0.2,0.2-0.1,0.3l0.1,0.2l1.1-0.5l0,0
					C234.1,258.3,234.2,259,234.3,259.3z"/>
				<path class="st15" d="M247.7,251.9c1.2,2,3.1,3.7,3.9,4.4c0.2,0.2,0.4,0.1,0.6-0.1l0.1-0.1c0.1-0.2,0.1-0.4-0.1-0.5
					c-0.4-0.3-0.8-0.6-1.2-1c-0.3-0.2-0.1-0.7,0.3-0.7c0.7,0,1.3,0,1.8,0.1c0.3,0,0.5-0.3,0.4-0.5l-0.1-0.3
					c-0.1-0.1-0.2-0.2-0.3-0.2c-1.1,0-2.5,0.2-3,0.4c-0.1,0-0.3,0-0.4-0.1c-0.2-0.3-0.5-0.5-0.6-0.7c-0.2-0.3,0-0.7,0.3-0.6
					c1.1,0.1,1.9,0.1,2.3,0.1c0.2,0,0.4-0.2,0.4-0.4l0-0.1c0-0.2-0.2-0.4-0.4-0.4c-0.9-0.1-1.8-0.2-2.8-0.2c-0.3,0-0.4-0.3-0.3-0.6
					c0.2-0.4,0.4-0.8,0.7-1.3c0.1-0.1,0.3-0.2,0.4-0.2c0.5,0.2,1.8,0.5,2.9,0.4c0.3,0,0.4-0.3,0.3-0.6l-0.1-0.2
					c-0.1-0.2-0.3-0.2-0.4-0.2c-0.4,0.1-1.1,0.2-1.8,0.2c-0.3,0-0.4-0.4-0.3-0.6c0.3-0.4,0.6-0.7,1-1c0.2-0.1,0.2-0.3,0.1-0.5
					l-0.2-0.3c-0.1-0.2-0.4-0.3-0.6-0.1c-0.2,0.2-0.6,0.6-1,1c-0.2,0.2-0.6,0.2-0.7-0.1c-0.2-0.6-0.4-1.3-0.4-1.6
					c0-0.2-0.2-0.3-0.4-0.3l-0.1,0c-0.3,0-0.4,0.2-0.4,0.5c0.2,1.2,0.7,2,1,2.5c0.1,0.1,0.1,0.3,0,0.4c-0.5,0.8-1,1.7-1.2,2.7l0,0
					c-8.7-0.5-16.5,0.2-18.2,0.3c-0.2,0-0.4,0.2-0.4,0.4l0,0c0,0.2,0.2,0.4,0.4,0.4c5.3-0.5,13.1-0.3,18.1-0.1
					C247.5,251.7,247.6,251.8,247.7,251.9z"/>
				<path class="st15" d="M240.4,241.8c-0.4,0.3-0.9,0.7-1.4,1.1c-0.3,0.2-0.7,0-0.6-0.4c0.1-0.5,0.2-1,0.3-1.5
					c0-0.1,0.2-0.3,0.3-0.3c1.8-0.3,3.3-1,3.9-1.3c0.2-0.1,0.3-0.3,0.2-0.5l0,0c-0.1-0.3-0.4-0.4-0.6-0.2c-0.8,0.5-2,0.9-2.8,1.2
					c-0.3,0.1-0.6-0.2-0.5-0.5c0.2-0.4,0.3-0.8,0.5-1.1c0.1-0.2,0-0.4-0.2-0.5l-0.3-0.2c-0.2-0.1-0.5-0.1-0.6,0.1
					c-1,1.7-1.3,4.6-1.4,5.9c0,0.1-0.1,0.3-0.2,0.3c-3.4,2-7.6,3.8-7.6,3.8l0.2,0.6c4.6-1.5,9.9-4.6,11.5-5.6c0.2-0.1,0.3-0.5,0-0.7
					l-0.3-0.3C240.8,241.6,240.6,241.6,240.4,241.8z"/>
				<line class="st15" x1="251.8" y1="251.5" x2="229.1" y2="251.1"/>
				<line class="st15" x1="241.2" y1="242" x2="229.2" y2="248.3"/>
			</g>
			<path class="st25" d="M230.1,249.6c-0.5-2.7-3-6.6-5.2-5.8c-2.3,0.9-37.9,10.7-37.6,12c0.1,0.4,2.7,2.4,7.5,2.4
				c8.6,0,9.4-2.7,14.5-2.4c5.8,0.3,17.3,1.1,18.1,1.1C229.8,256.8,230.6,252.3,230.1,249.6z"/>
			<line class="st15" x1="220.7" y1="246.3" x2="221.3" y2="249.6"/>
			<line class="st15" x1="218.5" y1="252.4" x2="218.6" y2="255.2"/>
			<line class="st15" x1="213.5" y1="248.6" x2="213.9" y2="251.3"/>
			<line class="st15" x1="226.2" y1="252.2" x2="225.9" y2="254.7"/>
		</g>
		<g>
			<g>
				<path class="st15" d="M175.6,246.6c-1.4,0.2-4.2-0.5-4.2-0.5C173.5,248.1,175.6,246.6,175.6,246.6z"/>
				<path class="st5" d="M176.4,245.4L176.4,245.4c-0.4,0.5-0.6,0.8-0.6,0.8s-4.6,7.5,0.7,10.9c4.3,2.8,7.9-1.2,10.2-1.3
					c3-0.2,4.5,1,5.6,1.4c0.3,0.1,1.3,0.4,1.3,0.4c0,0-0.7-0.8-0.9-1c-0.8-0.8-2.5-1.8-3.6-4.5c-0.9-2.2,1.2-7.1-3.1-9.8
					c-4-2.6-7.8,0.9-9.4,2.8l0,0c0,0-0.7-1.3-0.9-1.8c-0.2-0.5,0.8-0.6,0.8-1.7c0-1.1-3.1-3.5-3.5-3.4c-0.5,0-0.3,0.4-0.3,0.4
					L176.4,245.4z"/>
			</g>
			<path class="st19" d="M158.8,234.5c0.4,1.3,3.3,1.5,3.8,2.9c0.5,1.4-1.5,1.1,0.6,3.5c2.1,2.5,6.4,0.4,8.3,0.9
				c2,0.6,4.6,3.9,4.6,3.9l0.2-0.4c0,0-2.3-2.8-3.9-4.3c-1-0.9,0-4.8-1-5.8c-0.9-0.9-1.7-0.1-2.4-0.5c-1.5-0.9-0.9-3-2.2-4.4
				c-1-1.1-2.2,0.6-3.2,0c-0.9-0.6-2.7-4.1-4.6-2.9c-1.8,1.2,0.6,3.3,0.8,4.2C160.2,232.5,158.4,233.2,158.8,234.5z"/>
			<path class="st19" d="M155,239.6c1,0.9,0.4,2.5,1.7,3.5c1.3,1,3.1,0.4,4.1,1.2c1,0.8,0.5,2.7,3.3,3.7c2.8,1,6.7-3.3,7.4-3.2
				c0.8,0.1,4,1.7,4,1.7l0.4-0.7l0.1-0.2l-0.2-0.1c-0.7-0.4-3.5-1.9-4.6-3.6c-1.3-1.9-0.6-5.6-3.9-6.8c-1.4-0.5-1.7,1-2.7,1
				c-1,0-2.6-1.9-4-2.1c-1.3-0.2-1.6,0.9-2.6,1.2c-1,0.4-5-2-5.9,0.3C151.3,238,154.1,238.7,155,239.6z M155.4,237.3
				c9,3,18.4,7.5,20.2,8.5l-0.4,0.4c-6.2-2.8-20.1-8.5-20.1-8.5L155.4,237.3z"/>
			<path class="st15" d="M155.2,237.7l0.2-0.4c9,3,18.4,7.5,20.2,8.5l-0.4,0.4C169.1,243.3,155.2,237.7,155.2,237.7z"/>
		</g>
		<g>
			<path class="st3" d="M371.8,264.4c1.2,2.9,17.4,25.2,17.4,25.2l-7.8,13.9c-1.9,3.4-2.1,7.4-0.7,11l0.1,0.2l13.6-11.7l11.2-17.6
				l-22.9-35.7C377.6,254.5,375.1,258.2,371.8,264.4z"/>
			<path class="st8" d="M323,138l0.9,89c0,3.2,1.4,6.2,3.8,8.3l48.8,42.9l19.7-17c0,0-8.8-25.7-16-32.4
				c-4.6-4.2-16.3-18.9-16.3-18.9L350,140L323,138z"/>
			<g>
				<path class="st1" d="M384.5,286.8l5.9-0.8l12-9.7l5,8.3l-7.2,7.5l-5.3,10.3l-10.5,9l-5.3-5.5c0,0,2-2.4,3.4-7.2
					C383.8,294,384.5,286.8,384.5,286.8z"/>
				<path class="st3" d="M407.3,284.5l-7.2,6.5l4.4,4.9l7.2-6.5L407.3,284.5z"/>
				<path class="st3" d="M394.8,302.5l-14.2,12.8l1,1.2l14.6-12.7l5.2-11.1l-1.3-1.6L394.8,302.5z"/>
				<path class="st125" d="M400,291.2l-9.1-5l-6.1,0.6L384,292l4.5-0.3l1,3.1l7.2,3.6L400,291.2z"/>
			</g>
			<path class="st8" d="M333.6,29.1c-0.7,0.3-1.8,1.6-2.2,6.8c-0.2,2.5,1,4.8,1.4,5.3c1.2,1.8,4.9,1.8,7-1.3c1.7-2.5,0.5-6-1.2-7.9
				C337.4,30.8,335.2,28.4,333.6,29.1z"/>
			<path class="st3" d="M331.8,77.3l-15.2,10.4l-8.6,24.1c0,0-6.1,9.6-10.5,16.5c-5.9,9.3-11.6,13.9-20,17.5
				c-0.3,0.1-0.5,0.3-0.6,0.5c-0.6,1.5,3.4,0.6,3.4,0.6s-11,7-10.1,8.3c0.6,0.8,5.8-3.9,7.3-3.7c0.5,0.1-6.8,4.7-5.9,5.8
				c0.4,0.5,6-3.8,7.3-3.7c0.7,0-6.2,5.2-5.8,5.8c0.5,0.8,7-4.3,7.4-3.8c0.4,0.4-6,5.4-5.6,5.8c0.6,0.7,9.4-5.2,15.1-9.2
				c3.2-2.2,6.2-4.6,9-7.3l24.5-21.6l3.7-24.8l24,11.7L331.8,77.3z"/>
			<path class="st3" d="M344.5,270.5c-1,3-3.3,30.4-3.3,30.4l-15,5.5c-3.6,1.3-6.5,4.2-7.7,7.9l-0.1,0.2h18l20-6l6-42
				C355.3,266.8,351,267.9,344.5,270.5z"/>
			<path class="st11" d="M314.5,75.2L318,104c1.3,5.9,4.9,13.1,4.6,19.1l-1.2,25.3l60-2.9L382,133c-3-16-9.7-17.6-7-30l5.9-31
				c0-6.7-5.7-12-12.4-11.6c-8.2,0.5-19.1,1.2-27.5,1.8C325.4,63.3,314.5,75.2,314.5,75.2z"/>
			<path class="st8" d="M340,148l1.9,76.3L339,284h26c0,0,10.1-25.3,9-35c-0.7-6.2,0-25,0-25l8-79L340,148z"/>
			<path class="st11" d="M314.5,75.2l-5.2,24.1l28,1.7l-3.6-23.9L314.5,75.2z"/>
			<path class="st4" d="M327.8,142l53.2-3.4"/>
			<path class="st11" d="M386.2,86c0,7.7-2,15.3-6,22.1l-1.2,2.1l-8.9-5.9l-16.2-10.7l-2.5-1.7l14.5-31.2c4.6,1.7,7.2,1.5,9.7,2.9
				C378,65,380.5,68,385,76C385.8,79.3,386.2,82.7,386.2,86z"/>
			<path class="st4" d="M317.5,88.5l0,11"/>
			<path class="st3" d="M339.3,41c-1.9,4.2,1.5,6.2,2.2,17c-0.6,3.3-8.8,13.1-8.8,13.1l12.4,18.2l17.2-21.6c0,0-8.8-6.9-13.2-12.7
				c-1.4-3.6-2.3-21.7-2.3-21.7S341.1,36.8,339.3,41z"/>
			<path class="st3" d="M334.1,30c-1.6,10-2.3,20.3-2,23.4c0.4,4.3,4,6.1,6.8,6.2c2.9,0.2,6.7-1.4,7.3-5.8
				c0.8-5.2,1.6-16.5,1.3-18.6c-0.3-2-1.4-5.3-4.3-6.2C340.3,28.2,334.5,27,334.1,30z"/>
			<path class="st22" d="M337.9,43.2c-0.8,0.7-3,3.8-0.2,3.2"/>
			<g>
				<path class="st9" d="M340.1,42.5c0.1-0.4,0.3-0.6,0.6-0.5c0.3,0,0.5,0.3,0.5,0.6c-0.1,0.4-0.3,0.6-0.6,0.5
					C340.4,43,340.2,42.7,340.1,42.5z"/>
				<path class="st9" d="M335,41.8c0.1-0.4,0.3-0.6,0.6-0.5c0.3,0.1,0.5,0.3,0.4,0.6c-0.1,0.3-0.3,0.6-0.6,0.5
					C335.1,42.4,334.9,42.1,335,41.8z"/>
			</g>
			<path class="st3" d="M346.3,48.7c2.1,0.9,3.1-2.3,1.3-3.2c-0.5-0.2-0.9-0.1-1.3,0.1"/>
			<path class="st8" d="M345.5,42.4L345,39c0,0-8.7-0.2-11-1l-1-2c-2.2-0.2-1.2-6.2,0.5-7.6c1.4-1.1,3-2.1,4.7-2.3
				c1-0.1,10.8-0.2,12.4,5.6c1.3,4.5-1.7,13.9-1.7,13.9l-0.3-0.1C347.2,45,346.1,43.8,345.5,42.4z"/>
			<path class="st11" d="M371.1,70.5l-10.8-5.4l-16,16L331,68.8l-2,13.1l11.2,17.4L371.1,70.5z"/>
			<path class="st4" d="M360.2,73.8c0,0-9.1,18.2-9.6,18.1l13.8,10.6"/>
			<g>
				<path class="st1" d="M339.5,295.7l5,3.2l15.4,0.5l-1.7,9.5l-10.3,1l-10.8,4.4l-13.8,0l-0.4-7.6c0,0,3.1-0.5,7.3-3.2
					C334.3,300.7,339.5,295.7,339.5,295.7z"/>
				<path class="st3" d="M358.3,308.9l-9.7,0.2l0.1,6.5l9.7-0.2L358.3,308.9z"/>
				<path class="st3" d="M337,314.3l-19.1,0.4l0,1.6l19.3-0.2l11.2-5l0.1-2.1L337,314.3z"/>
				<path class="st125" d="M348.3,309.2l-3.6-9.8l-5-3.5l-4,3.4l3.6,2.7l-1.3,3l3.1,7.4L348.3,309.2z"/>
			</g>
			<polyline class="st14" points="343.5,156.5 340.5,216.5 340.5,248.5 			"/>
			<path class="st14" d="M372.5,229.5c0,0-1,19-2,30"/>
			<line class="st4" x1="320.2" y1="109.5" x2="327.5" y2="108.5"/>
			<path class="st22" d="M338.5,48.7c0.9-0.2,1.6-0.7,2-1.5"/>
		</g>
		<circle class="st8" cx="351" cy="28" r="6"/>
		<g>
			<g>
				<g>
					<g>
						<path class="st19" d="M267,286.5c0.4,0.8,0.3,1.7-0.2,2.5c-0.5,0.7-1.3,1.2-2.2,1.2c0,0,0,0,0,0c-4.1,0-9.9,0-16.8,0
							c-66.1-0.1-100.2-0.1-101.3,0.1l0.4,3.4c0,0,0,0,0,0c1.6-0.1,38.4-0.1,100.9,0c6.9,0,12.7,0,16.8,0c0,0,0,0,0,0
							c2,0,3.9-1,5-2.7c1.1-1.7,1.3-3.8,0.5-5.7L258.6,258l15.2-99.2l28.5-12.9l-1.4-3.1l-30.1,13.6l-2.5,16.1l-139.7,20.3l15,67
							h112.2L267,286.5z M267.8,176.1l-12.4,80.4H146.3l-13.6-60.8L267.8,176.1z"/>
					</g>
				</g>
				<g>
					<g>
						<path class="st19" d="M141.1,202.5v13.6h-3.9l0.6,2.5h3.3v13.6h-0.3l2.8,12.4v-9.9h13.6v13.6h-12.8l0.6,2.5h12.2v5.7h2.5v-5.7
							h13.6v5.7h2.5v-5.7h13.6v5.7h2.5v-5.7h13.6v5.7h2.5v-5.7h13.6v5.7h2.5v-5.7h13.6v5.7h2.5v-5.7h13.6v5.7h1.6l0.8-5.5v-0.2h0
							l0.4-2.5h-0.4v-13.6h2.5l0.4-2.5h-2.9v-13.6h5l0.4-2.5h-5.4v-13.6h7.5l0.4-2.5h-7.8v-13.6h9.9l0.4-2.5h-10.3v-6.2l-2.5,0.4
							v5.9h-13.6v-3.9l-2.5,0.4v3.5h-13.6v-1.5l-2.5,0.4v1.2h-8.1l-17.1,2.5h9.1V200h-13.6v-13l-2.5,0.4V200h-13.6v-10.6l-2.5,0.4
							V200h-13.6v-8.3l-2.5,0.4v7.9h-13.6v-5.9l-2.5,0.4v5.6h-7.5l0.6,2.5H141.1z M240.2,234.7h13.6v13.6h-13.6V234.7z M240.2,218.6
							h13.6v13.6h-13.6V218.6z M240.2,202.5h13.6v13.6h-13.6V202.5z M240.2,186.4h13.6V200h-13.6V186.4z M224.1,234.7h13.6v13.6
							h-13.6V234.7z M224.1,218.6h13.6v13.6h-13.6V218.6z M224.1,202.5h13.6v13.6h-13.6V202.5z M224.1,186.4h13.6V200h-13.6V186.4z
							 M208,234.7h13.6v13.6H208V234.7z M208,218.6h13.6v13.6H208V218.6z M208,202.5h13.6v13.6H208V202.5z M208,186.4h13.6V200H208
							V186.4z M191.9,234.7h13.6v13.6h-13.6V234.7z M191.9,218.6h13.6v13.6h-13.6V218.6z M191.9,202.5h13.6v13.6h-13.6V202.5z
							 M175.8,234.7h13.6v13.6h-13.6V234.7z M175.8,218.6h13.6v13.6h-13.6V218.6z M175.8,202.5h13.6v13.6h-13.6V202.5z M159.7,234.7
							h13.6v13.6h-13.6V234.7z M159.7,218.6h13.6v13.6h-13.6V218.6z M159.7,202.5h13.6v13.6h-13.6V202.5z M143.6,218.6h13.6v13.6
							h-13.6V218.6z M143.6,202.5h13.6v13.6h-13.6V202.5z"/>
					</g>
				</g>
				<g>
					<g>
						<circle class="st5" cx="244.1" cy="309.6" r="7.5"/>
					</g>
				</g>
				<g>
					<g>
						<circle class="st19" cx="244.1" cy="309.6" r="4"/>
					</g>
				</g>
				<g>
					<g>
						<path class="st5" d="M253.6,298c0,0,0.3,3.8-3.7,5.8c-4,2-4,4-4,4s0.4,3-1.8,3.1s-2.3-2.8-2.1-5.1c0.2-2.3,1.9-4.7,2.3-5.3
							c0.4-0.6,0.1-2.5,0.1-2.5H253.6z"/>
					</g>
				</g>
				<g>
					<g>
						
							<rect x="243.6" y="296.2" transform="matrix(-1 -4.512625e-11 4.512625e-11 -1 498.641 594.9953)" class="st19" width="11.5" height="2.7"/>
					</g>
				</g>
				<g>
					<g>
						
							<rect x="248.6" y="290.1" transform="matrix(-1 -4.477719e-11 4.477719e-11 -1 498.9873 586.314)" class="st19" width="1.8" height="6"/>
					</g>
				</g>
				<g>
					<g>
						<circle class="st5" cx="151.2" cy="309.6" r="7.5"/>
					</g>
				</g>
				<g>
					<g>
						<circle class="st19" cx="151.2" cy="309.6" r="4"/>
					</g>
				</g>
				<g>
					<g>
						<path class="st5" d="M160.7,298c0,0,0.3,3.8-3.7,5.8c-4,2-4,4-4,4s0.4,3-1.8,3.1s-2.3-2.8-2.1-5.1c0.2-2.3,1.9-4.7,2.3-5.3
							c0.4-0.6,0.1-2.5,0.1-2.5H160.7z"/>
					</g>
				</g>
				<g>
					<g>
						
							<rect x="150.6" y="296.2" transform="matrix(-1 -4.433710e-11 4.433710e-11 -1 312.8142 594.9953)" class="st19" width="11.5" height="2.7"/>
					</g>
				</g>
				<g>
					<g>
						
							<rect x="155.7" y="290.1" transform="matrix(-1 -4.477808e-11 4.477808e-11 -1 313.1605 586.314)" class="st19" width="1.8" height="6"/>
					</g>
				</g>
				<ellipse class="st5" cx="301.8" cy="144.6" rx="5.2" ry="4.7"/>
			</g>
			<path class="st3" d="M368.5,106.5l-20.1,21l-32.9,17c0,0-3.6,4.4-8.1,7.6c-4.5,3.2-5.9,2-5.9,2l-7.6,1.3c0,0-0.6-0.6-0.8-1.2
				c-0.1-0.6,0.7-1.4,0.7-1.4l-3.9-0.6c0,0-0.1-0.7,0.3-1.7c0.3-1,1.5-1.1,1.5-1.1l-1.6-0.8c0,0,0.6-1.7,1.5-1.8
				c1.5-0.2,6.2-0.7,6.2-0.7l4.9-4.6c0,0-3.9-0.2-6.2-0.9c-0.9,0.1-2.6-1.7-2.6-1.7s4.4-0.2,8.9-2.8c4.5-2.6,7.2-3.3,7.2-3.3
				l26.3-18.4l15.1-19.9L368.5,106.5z"/>
			<path class="st3" d="M291.4,149.3l5.7,0.2l3.8-1.8"/>
			<path class="st3" d="M303.3,149.3l-5,3l-4.6,0.5"/>
		</g>
		<line class="st4" x1="146.5" y1="256.5" x2="258.5" y2="256.5"/>
		<line class="st4" x1="128.5" y1="196.5" x2="267.5" y2="176.5"/>
	</g>
	
		<image style="overflow:visible;" width="449" height="40" xlink:href="AE40455D.jpg"  transform="matrix(0.7394 0 0 0.7394 54 332)">
	</image>
	<g>
		<g>
			<rect x="143.2" y="35.7" class="st15" width="5.4" height="26.3"/>
			<rect x="124" y="20.6" class="st15" width="40.8" height="18.2"/>
			<path class="st19" d="M137.4,24.1c-0.8,0.9-0.3,0.8-0.8,1.4c-0.5,0.6-1.8-2.2-2.3-1.5c-0.5,0.7-0.3,1.2-0.4,1.6
				c-0.2,0.3-0.9,0.1-1.5-0.5s-1.6-0.8-1.7-0.1s0.7,0.7,0.5,1.3c-0.1,0.7-1.7,0-2.5-0.3c-0.8-0.3-1.8-0.6-2,0.9
				c-0.3,1.5,1.3,1.6,1.7,1.6c0.4,0,2.2-0.6,2.3,0c0.1,0.6-1.1,1.6-1,2.3c0.1,0.7,1.1,0.3,1.4-0.1c0.3-0.4,1.7-1.6,1.9-1.1
				c0.2,0.6-0.9,1.6-0.7,2.3c0.2,0.7,1,0.6,1.5,0.2c0.5-0.4,2.1-2.1,2.4-1.4c0.3,0.7-0.6,1.4-0.3,2.4c0.2,1,1.3,0.6,1.7,0.2
				c0.5-0.4,2.6-2.9,3.2-3c0.5-0.1,3.7,0.4,3.7,0.4l0.1-0.9c0,0-3.3-0.7-3.8-1.6C140.1,27.4,138.2,23.2,137.4,24.1z"/>
			<line class="st15" x1="148.3" y1="28.2" x2="160.1" y2="28.2"/>
			<line class="st15" x1="148.3" y1="31.2" x2="160.1" y2="31.2"/>
		</g>
		<g>
			<g>
				<path class="st15" d="M145.8,74.6c1.8,0.9,4.4,4.2,4.4,4.2C149.5,74.7,145.8,74.6,145.8,74.6z"/>
				<path class="st5" d="M143.8,75.3L143.8,75.3c0.8-0.2,1.4-0.4,1.4-0.4s11.7-4.8,8.4-13.3c-2.7-6.9-10.1-5.3-13-7.1
					c-3.6-2.3-4.5-5-5.4-6.3c-0.2-0.4-1.1-1.6-1.1-1.6c0,0,0.2,1.5,0.3,2c0.3,1.6,1.5,4.2,0.4,8.3c-0.9,3.3-7.4,7.2-4.6,14.1
					c2.5,6.4,9.8,5.4,13.3,4.6l0,0c0,0-0.3,2.1-0.5,2.9c-0.2,0.8-1.5,0.1-2.4,1.4c-0.9,1.3,0.7,6.6,1.2,7c0.5,0.4,0.6-0.2,0.6-0.2
					L143.8,75.3z"/>
			</g>
			<path class="st15" d="M155.1,102.8c0.6-1.8-2.7-4.5-2-6.6c0.7-2.1,2.7,0,2.3-4.6c-0.4-4.6-7.1-5.8-8.9-8.1
				c-1.8-2.3-2.1-8.4-2.1-8.4l-0.6,0.3c0,0,0.3,5.2,1,8.3c0.4,1.9-4.1,5.6-3.7,7.5c0.3,1.8,1.9,1.5,2.4,2.6c1,2.3-1.5,4.3-1.2,7
				c0.2,2.1,3.1,1.2,3.7,2.7c0.6,1.5-0.3,7.1,2.9,7.2c3.1,0.2,2.1-4.4,2.6-5.6C151.8,103.9,154.5,104.6,155.1,102.8z"/>
			<path class="st15" d="M163.9,100.1c-0.3-1.9,1.7-3.3,1-5.5c-0.7-2.3-3.3-3.1-3.8-4.9c-0.4-1.8,1.7-3.6-0.8-7.1
				c-2.4-3.6-10.5-1.8-11.3-2.6c-0.8-0.8-3.2-5.3-3.2-5.3l-1,0.4l-0.3,0.1l0.1,0.3c0.5,1.1,2.5,5.2,2.4,8c-0.1,3.2-4,7.1-1.1,11.2
				c1.2,1.7,2.9,0.3,4,1.2c1.1,0.9,1.4,4.5,2.8,5.8c1.4,1.3,2.6,0.3,4.1,0.8c1.5,0.5,4.2,6.5,7.1,4.6
				C166.9,105.1,164.2,101.9,163.9,100.1z M161.5,102.4c-7.9-11-15-24.2-16.4-26.9l0.7-0.1c4.8,8.5,16.2,26.8,16.2,26.8L161.5,102.4
				z"/>
			<path class="st15" d="M162,102.2l-0.6,0.2c-7.9-11-15-24.2-16.4-26.9l0.7-0.1C150.6,83.9,162,102.2,162,102.2z"/>
		</g>
		<g>
			<g>
				<path class="st15" d="M168.1,79.7c1.2,1.7,2.1,5.7,2.1,5.7C171.4,81.4,168.1,79.7,168.1,79.7z"/>
				<path class="st5" d="M166,79.5L166,79.5c0.8,0.2,1.4,0.2,1.4,0.2s12.6,0.9,13.4-8.2c0.7-7.4-6.7-9.3-8.4-12.2
					c-2.2-3.6-1.8-6.4-2-8.1c-0.1-0.4-0.3-1.9-0.3-1.9c0,0-0.5,1.4-0.6,1.9c-0.5,1.6-0.6,4.4-3.4,7.6c-2.3,2.6-9.8,3.1-10.5,10.5
					c-0.6,6.8,6.3,9.3,9.8,10.1l0,0c0,0-1.2,1.8-1.7,2.3c-0.5,0.6-1.4-0.6-2.7,0.2c-1.4,0.8-2.4,6.2-2,6.8c0.3,0.6,0.7,0.1,0.7,0.1
					L166,79.5z"/>
			</g>
			<path class="st15" d="M164.2,101.2c1-1-0.2-3.9,1-5c1.1-1.2,1.7,0.9,3.1-2.4c1.4-3.2-2.6-6.1-3-8.3c-0.4-2.1,1.5-6.3,1.5-6.3
				l-0.5,0c0,0-1.6,3.6-2.2,5.9c-0.4,1.4-4.6,2.5-5,3.8c-0.4,1.3,0.7,1.6,0.6,2.5c-0.2,1.8-2.4,2.4-3.2,4.3c-0.6,1.5,1.6,1.8,1.5,3
				c-0.1,1.2-2.6,4.6-0.6,5.7c2,1.1,2.9-2.2,3.6-2.9C161.6,100.8,163.1,102.2,164.2,101.2z"/>
			<path class="st15" d="M170.8,102.1c0.4-1.4,2.2-1.6,2.6-3.4c0.3-1.7-1.1-3.1-0.8-4.5c0.3-1.4,2.3-1.9,2-5
				c-0.3-3.2-6.3-4.5-6.5-5.3c-0.2-0.8-0.2-4.6-0.2-4.6l-0.8-0.1l-0.2,0l0,0.2c0,0.9-0.2,4.3-1.2,6.1c-1.2,2.1-5.1,3.5-4.6,7.1
				c0.2,1.5,1.8,1.1,2.2,2.1c0.4,1-0.6,3.5-0.2,4.8c0.5,1.3,1.6,1,2.4,1.8c0.8,0.8,0.5,5.7,3.1,5.3
				C171.1,106.4,170.4,103.5,170.8,102.1z M168.4,102.9C167,93,167,82,167,79.7l0.5,0.2c0.2,7.2,1.4,23,1.4,23L168.4,102.9z"/>
			<path class="st15" d="M168.9,103l-0.5,0C167,93,167,82,167,79.7l0.5,0.2C167.7,87.1,168.9,103,168.9,103z"/>
		</g>
		<g>
			<g>
				<path class="st15" d="M193.1,72.8c0.6,0.8,1,2.8,1,2.8C194.7,73.7,193.1,72.8,193.1,72.8z"/>
				<path class="st19" d="M192.1,72.7L192.1,72.7c0.4,0.1,0.7,0.1,0.7,0.1s6.2,0.5,6.6-4c0.3-3.6-3.3-4.6-4.2-6
					c-1.1-1.8-0.9-3.2-1-4c0-0.2-0.2-1-0.2-1c0,0-0.3,0.7-0.3,0.9c-0.2,0.8-0.3,2.2-1.7,3.7c-1.1,1.3-4.8,1.5-5.1,5.2
					c-0.3,3.4,3.1,4.6,4.8,4.9l0,0c0,0-0.6,0.9-0.9,1.1s-0.7-0.3-1.4,0.1c-0.7,0.4-1.2,3.1-1,3.3c0.2,0.3,0.3,0,0.3,0L192.1,72.7z"
					/>
			</g>
			<path class="st15" d="M191,87.3c0.7-0.7-0.2-2.6,0.6-3.3c0.7-0.8,1.2,0.6,2-1.5c0.9-2.1-1.8-4.1-2.1-5.5
				c-0.3-1.4,0.9-4.2,0.9-4.2l-0.3,0c0,0-1,2.4-1.4,3.9c-0.3,0.9-3,1.6-3.3,2.5c-0.3,0.8,0.5,1.1,0.5,1.7c-0.1,1.2-1.6,1.6-2.1,2.8
				c-0.4,1,1.1,1.2,1,2c-0.1,0.8-1.7,3.1-0.3,3.8c1.3,0.8,1.9-1.5,2.4-1.9C189.3,87,190.4,87.9,191,87.3z"/>
			<path class="st15" d="M195.5,88c0.3-0.9,1.5-1.1,1.7-2.2c0.2-1.1-0.8-2.1-0.6-3c0.2-0.9,1.5-1.2,1.2-3.3
				c-0.3-2.1-4.2-3.1-4.4-3.6c-0.2-0.5-0.2-3-0.2-3l-0.5,0l-0.2,0l0,0.1c0,0.6-0.1,2.9-0.7,4.1c-0.7,1.4-3.3,2.2-3,4.7
				c0.2,1,1.2,0.8,1.5,1.4c0.3,0.6-0.4,2.3,0,3.2c0.3,0.9,1.1,0.7,1.6,1.2c0.6,0.5,0.4,3.8,2.1,3.6C195.7,90.9,195.2,88.9,195.5,88z
				 M193.9,88.5c-1.1-6.6-1.3-14-1.3-15.5l0.3,0.1c0.2,4.8,1.2,15.4,1.2,15.4L193.9,88.5z"/>
			<path class="st15" d="M194.2,88.5l-0.3,0c-1.1-6.6-1.3-14-1.3-15.5l0.3,0.1C193.2,78,194.2,88.5,194.2,88.5z"/>
		</g>
		<g>
			<g>
				<path class="st15" d="M127.6,41.1c1.5-1.8,2.7-4.1,3.1-5c0.1-0.2,0-0.5-0.2-0.5l-0.1,0c-0.2-0.1-0.4,0-0.5,0.2
					c-0.2,0.5-0.4,0.9-0.6,1.4c-0.2,0.3-0.6,0.3-0.7-0.1c-0.2-0.7-0.3-1.3-0.4-1.8c-0.1-0.3-0.4-0.4-0.6-0.2l-0.2,0.2
					c-0.1,0.1-0.2,0.2-0.1,0.4c0.3,1,0.9,2.3,1.2,2.8c0.1,0.1,0.1,0.3,0,0.4c-0.2,0.3-0.4,0.6-0.5,0.8c-0.2,0.3-0.6,0.2-0.7-0.1
					c-0.3-1-0.4-1.8-0.6-2.3c-0.1-0.2-0.3-0.3-0.5-0.3l-0.1,0c-0.2,0.1-0.3,0.3-0.3,0.5c0.2,0.9,0.4,1.8,0.6,2.7
					c0.1,0.3-0.2,0.5-0.4,0.5c-0.4-0.1-0.9-0.2-1.5-0.3c-0.2,0-0.3-0.2-0.3-0.4c0-0.6-0.1-1.8-0.5-2.8c-0.1-0.3-0.4-0.3-0.6-0.1
					l-0.2,0.2c-0.1,0.1-0.2,0.3-0.1,0.5c0.2,0.3,0.5,1,0.7,1.7c0.1,0.3-0.3,0.5-0.5,0.4c-0.4-0.2-0.9-0.4-1.3-0.7
					c-0.2-0.1-0.4-0.1-0.5,0.1l-0.2,0.3c-0.2,0.2-0.1,0.5,0.1,0.6c0.3,0.2,0.7,0.4,1.2,0.6c0.3,0.1,0.3,0.5,0.1,0.7
					c-0.5,0.4-1.1,0.7-1.4,0.9c-0.2,0.1-0.3,0.3-0.2,0.5l0,0.1c0.1,0.2,0.3,0.4,0.6,0.2c1.1-0.6,1.7-1.2,2.1-1.6
					c0.1-0.1,0.3-0.2,0.4-0.1c0.9,0.3,1.9,0.4,2.9,0.4l0,0c2,8.5,4.9,15.7,5.5,17.3c0.1,0.2,0.3,0.3,0.5,0.2l0,0
					c0.2-0.1,0.3-0.3,0.2-0.5c-2-4.9-4-12.5-5.2-17.3C127.5,41.3,127.5,41.2,127.6,41.1z"/>
				<line class="st15" x1="126" y1="37.3" x2="132.1" y2="59.2"/>
				<line class="st15" x1="120" y1="50.1" x2="129.4" y2="59.9"/>
			</g>
			<path class="st25" d="M130.3,58.6c-2.4,1.3-5.5,4.7-4,6.7c1.5,1.9,21.1,33.2,22.3,32.6c0.4-0.2,1.6-3.3,0.2-7.9
				c-2.5-8.2-5.3-8.2-6.5-13.2c-1.3-5.6-3.9-16.9-4.2-17.7C137.4,56.8,132.8,57.3,130.3,58.6z"/>
			<line class="st15" x1="135.5" y1="61.9" x2="137.5" y2="61.2"/>
			<line class="st15" x1="129.7" y1="66.6" x2="132.1" y2="65.6"/>
			<line class="st15" x1="138.8" y1="70.3" x2="140.2" y2="69.6"/>
			<line class="st15" x1="130.1" y1="71" x2="131.1" y2="70.3"/>
		</g>
		<g>
			<g>
				<path class="st15" d="M164.8,57.5c0.1,0,0.2-0.1,0.2-0.2l0.1-0.2c-1.6,0-2.5-0.6-2.8-1c-0.1-0.1-0.1-0.3,0.1-0.4
					c0.4-0.1,1.1-0.3,1.7-0.5c0.1,0,0.2-0.2,0.1-0.3l0,0c-0.1-0.1-0.2-0.2-0.3-0.1c-0.3,0.1-0.9,0.4-1.6,0.6c-0.2,0-0.3-0.1-0.3-0.3
					c0.3-1,0.7-1.7,0.9-2.1c0.1-0.1,0-0.3-0.1-0.3l0,0c-0.1,0-0.2,0-0.3,0.1c-0.5,0.9-0.9,2.3-1.1,2.7c0,0.1-0.1,0.1-0.2,0.2
					c-0.5,0.1-1.1,0.1-1.8,0.1c-0.2,0-0.3-0.2-0.2-0.3c0.5-1,1.1-1.9,1.6-2.6c0.1-0.1,0.1-0.3,0-0.3l0,0c-0.1-0.1-0.3,0-0.3,0.1
					c-0.6,1-3.5,5.8-4.8,10.8c0,0.1,0,0.2,0.1,0.3l0.2,0.1c0,0,1.1-3.9,2.8-7.4c0-0.1,0.1-0.1,0.2-0.1c0.5,0,1.9-0.1,2.5-0.2
					c0.1,0,0.2,0,0.2,0.1c0.3,0.4,0.7,0.7,1.1,0.9l0,0l0.2,1.3c0,0.1,0.1,0.2,0.2,0.2l0.2,0l-0.2-1.2l0,0
					C163.9,57.5,164.5,57.5,164.8,57.5z"/>
				<path class="st15" d="M161.7,42.6c2.3-0.6,4.5-1.9,5.3-2.5c0.2-0.1,0.2-0.4,0.1-0.6l-0.1-0.1c-0.1-0.2-0.4-0.2-0.5-0.1
					c-0.4,0.3-0.8,0.6-1.3,0.8c-0.3,0.2-0.7-0.1-0.6-0.5c0.2-0.7,0.4-1.3,0.6-1.7c0.1-0.3-0.1-0.6-0.4-0.5l-0.3,0
					c-0.1,0-0.3,0.1-0.3,0.3c-0.3,1-0.5,2.4-0.5,3c0,0.1-0.1,0.3-0.2,0.3c-0.3,0.2-0.6,0.3-0.9,0.4c-0.3,0.1-0.6-0.2-0.5-0.5
					c0.4-1,0.6-1.8,0.8-2.2c0.1-0.2,0-0.4-0.2-0.5l-0.1,0c-0.2-0.1-0.4,0-0.5,0.2c-0.4,0.9-0.7,1.7-1,2.6c-0.1,0.3-0.4,0.3-0.6,0.1
					c-0.3-0.3-0.7-0.6-1-1.1c-0.1-0.1-0.1-0.3,0-0.5c0.3-0.5,1-1.6,1.2-2.6c0.1-0.3-0.2-0.5-0.5-0.4l-0.3,0.1
					c-0.2,0-0.3,0.2-0.3,0.4c0,0.4-0.1,1.1-0.4,1.8c-0.1,0.3-0.5,0.3-0.7,0.1c-0.3-0.4-0.5-0.8-0.7-1.3c-0.1-0.2-0.3-0.3-0.5-0.2
					l-0.3,0.1c-0.2,0.1-0.4,0.3-0.3,0.5c0.1,0.3,0.4,0.7,0.7,1.2c0.2,0.3,0,0.6-0.3,0.6c-0.7,0-1.3,0-1.7-0.1
					c-0.2,0-0.4,0.1-0.4,0.3l0,0.1c-0.1,0.2,0.1,0.5,0.3,0.5c1.2,0.1,2.1,0,2.7-0.2c0.1,0,0.3,0,0.4,0.1c0.6,0.7,1.3,1.4,2.2,1.9
					l0,0c-3,8.2-4.6,15.8-5,17.5c0,0.2,0.1,0.4,0.3,0.5l0,0c0.2,0.1,0.4-0.1,0.5-0.3c1.1-5.2,3.5-12.6,5.2-17.3
					C161.4,42.7,161.5,42.6,161.7,42.6z"/>
				<path class="st15" d="M149.8,46.6c0.2,0.5,0.4,1,0.6,1.7c0.1,0.3-0.2,0.6-0.6,0.5c-0.5-0.2-0.9-0.5-1.3-0.7
					c-0.1-0.1-0.2-0.2-0.2-0.4c0.2-1.8,0-3.5-0.1-4.1c0-0.2-0.2-0.3-0.4-0.3l0,0c-0.3,0-0.5,0.3-0.4,0.5c0.3,0.9,0.3,2.2,0.3,3
					c0,0.3-0.4,0.5-0.7,0.3c-0.4-0.3-0.7-0.6-0.9-0.7c-0.2-0.1-0.4-0.1-0.5,0l-0.2,0.2c-0.2,0.2-0.2,0.4,0,0.6c1.3,1.4,4,2.6,5.2,3
					c0.1,0,0.2,0.2,0.2,0.3c0.9,3.8,1.4,8.4,1.4,8.4l0.6,0c-0.1-4.8-1.6-10.8-2-12.6c-0.1-0.3-0.4-0.4-0.6-0.2l-0.4,0.2
					C149.8,46.2,149.7,46.4,149.8,46.6z"/>
				<line class="st15" x1="162.5" y1="38.5" x2="155.5" y2="60.2"/>
				<line class="st15" x1="150.3" y1="45.9" x2="152.8" y2="59.2"/>
			</g>
			<path class="st25" d="M154.3,58.7c-2.7-0.3-7.2,0.9-7,3.3c0.2,2.4-0.7,39.3,0.6,39.5c0.4,0,3.1-1.9,4.5-6.5
				c2.5-8.2,0.1-9.8,1.9-14.6c2-5.4,6-16.2,6.3-17C161.2,61.1,157.1,59,154.3,58.7z"/>
			<line class="st15" x1="148.4" y1="66.8" x2="151.8" y2="67.1"/>
			<line class="st15" x1="153.7" y1="70.7" x2="156.4" y2="71.3"/>
			<line class="st15" x1="148.6" y1="74.4" x2="151.3" y2="74.7"/>
			<line class="st15" x1="155.7" y1="63.2" x2="158.1" y2="64.2"/>
		</g>
		<g>
			<g>
				<path class="st15" d="M206.6,56.3c0.2,0,0.3-0.2,0.3-0.3l0-0.1c0-0.2-0.2-0.3-0.3-0.2c-0.4,0.1-0.8,0.1-1.2,0.1
					c-0.3,0-0.4-0.3-0.2-0.5c0.4-0.4,0.7-0.7,1-0.9c0.2-0.1,0.1-0.4-0.1-0.5l-0.2-0.1c-0.1,0-0.2,0-0.3,0.1
					c-0.6,0.6-1.2,1.5-1.4,1.8c-0.1,0.1-0.2,0.1-0.3,0.1c-0.3,0-0.5,0-0.7,0c-0.3,0-0.4-0.3-0.2-0.5c0.6-0.6,1.1-1,1.3-1.2
					c0.1-0.1,0.1-0.3,0-0.4l-0.1-0.1c-0.1-0.1-0.3-0.1-0.4,0c-0.5,0.5-1.1,0.9-1.6,1.4c-0.2,0.1-0.4,0.1-0.5-0.1
					c-0.1-0.3-0.2-0.7-0.3-1.1c0-0.1,0-0.3,0.1-0.3c0.4-0.2,1.2-0.7,1.7-1.4c0.1-0.2,0-0.4-0.2-0.5l-0.2-0.1c-0.1,0-0.3,0-0.3,0.1
					c-0.2,0.3-0.5,0.7-0.9,1.1c-0.2,0.1-0.5,0-0.5-0.2c0-0.4-0.1-0.7,0-1.1c0-0.1-0.1-0.3-0.2-0.3l-0.3-0.1c-0.2,0-0.4,0.1-0.4,0.3
					c0,0.3,0,0.6,0,1.1c0,0.2-0.2,0.4-0.4,0.3c-0.5-0.2-0.9-0.5-1.1-0.6c-0.1-0.1-0.3-0.1-0.4,0l-0.1,0.1"/>
				<path class="st15" d="M192.7,51.6L192.7,51.6c-0.2-0.1-0.4,0-0.4,0.2c-0.1,0.7-0.5,1.6-0.8,2.2c-0.1,0.2-0.4,0.2-0.6,0
					c-0.1-0.3-0.3-0.6-0.3-0.8c-0.1-0.1-0.2-0.2-0.4-0.2L190,53c-0.2,0-0.3,0.2-0.2,0.4c0.4,1.4,1.8,3.1,2.5,3.9
					c0.1,0.1,0.1,0.2,0.1,0.3c-0.7,2.9-2,6.1-2,6.1"/>
				<path class="st15" d="M193.4,54.3l-0.3,0c-0.2,0-0.3,0.1-0.3,0.3c0,0.4-0.1,0.9-0.2,1.3"/>
				<line class="st15" x1="204.2" y1="53.6" x2="191.9" y2="65.8"/>
				<line class="st15" x1="193.4" y1="54.3" x2="190.4" y2="64.2"/>
			</g>
			<path class="st25" d="M191.6,64.4c-1.7-1.1-5.2-1.9-5.9-0.2c-0.7,1.7-14.2,26.3-13.4,26.9c0.3,0.2,2.7-0.2,5.3-2.8
				c4.5-4.7,3.5-6.6,6.4-9.2c3.2-3,9.7-8.8,10.2-9.3C195.4,68.4,193.4,65.5,191.6,64.4z"/>
		</g>
		<g>
			<g>
				<path class="st15" d="M176.8,70c-0.8-1.2-1.1-4.1-1.1-4.1C174.6,68.6,176.8,70,176.8,70z"/>
				<path class="st15" d="M178.2,70.3L178.2,70.3c-0.6-0.2-1-0.2-1-0.2s-8.7-1.4-9.8,4.9c-0.9,5.1,4.1,6.8,5.1,9
					c1.3,2.7,0.8,4.6,0.9,5.7c0,0.3,0.1,1.4,0.1,1.4c0,0,0.4-1,0.6-1.3c0.4-1.1,0.7-3,2.8-5.1c1.7-1.7,7-1.6,7.9-6.7
					c0.8-4.7-3.9-6.8-6.2-7.6l0,0c0,0,0.9-1.1,1.3-1.5c0.4-0.4,0.9,0.5,1.9,0c1-0.5,2-4.2,1.8-4.6c-0.2-0.4-0.5-0.1-0.5-0.1
					L178.2,70.3z"/>
			</g>
			<path class="st19" d="M181.5,49.9c-1,0.9-0.1,3.7-1.2,4.6c-1.1,1-1.6-1-3,1.9c-1.5,2.9,2.1,6,2.3,8.1c0.3,2.1-1.8,5.8-1.8,5.8
				l0.4,0c0,0,1.7-3.2,2.4-5.3c0.5-1.3,4.5-1.9,5-3.1c0.5-1.2-0.6-1.6-0.5-2.4c0.3-1.7,2.4-2,3.2-3.7c0.6-1.3-1.4-1.9-1.2-3
				c0.2-1.1,2.7-4.1,0.9-5.3c-1.8-1.2-2.9,1.8-3.6,2.4C183.9,50.4,182.5,49,181.5,49.9z"/>
			<path class="st19" d="M175.3,48.3c-0.5,1.2-2.2,1.3-2.6,2.9c-0.4,1.6,0.9,3,0.5,4.3c-0.4,1.2-2.3,1.5-2.1,4.5
				c0.1,3,5.6,4.9,5.8,5.6c0.2,0.8-0.1,4.3-0.1,4.3l0.8,0.1l0.2,0l0-0.2c0.1-0.8,0.4-4,1.5-5.7c1.2-1.9,5-2.8,4.8-6.3
				c-0.1-1.5-1.6-1.2-1.9-2.2c-0.4-0.9,0.8-3.2,0.4-4.5c-0.3-1.3-1.4-1.1-2.2-2c-0.7-0.8-0.1-5.4-2.6-5.3
				C175.3,44.3,175.8,47.1,175.3,48.3z M177.6,47.8c0.7,9.4,0.1,19.8,0,21.9l-0.5-0.2c0.2-6.8,0.1-21.8,0.1-21.8L177.6,47.8z"/>
			<path class="st15" d="M177.2,47.7l0.4,0.1c0.7,9.4,0.1,19.8,0,21.9l-0.5-0.2C177.3,62.7,177.2,47.7,177.2,47.7z"/>
		</g>
		<g>
			<rect x="120.5" y="71.2" class="st18" width="63.1" height="33.7"/>
			<rect x="143.4" y="71.2" class="st18" width="63.1" height="33.7"/>
			<line class="st15" x1="176.6" y1="71.5" x2="176.8" y2="104.5"/>
			<line class="st15" x1="120.5" y1="81.3" x2="176.4" y2="81.3"/>
			<line class="st15" x1="120.5" y1="95.1" x2="176.4" y2="95.1"/>
			<path class="st15" d="M156.5,71.2c0,0.1,0.1,0.2,0.1,0.3c0,1.5-3.4,2.7-7.6,2.7s-7.6-1.2-7.6-2.7c0-0.1,0-0.2,0.1-0.3"/>
			<path class="st15" d="M201,71.2c0,0.1,0,0.2,0,0.3c0,1.5-2.7,2.7-6.1,2.7c-3.4,0-6.1-1.2-6.1-2.7c0-0.1,0-0.2,0-0.3"/>
		</g>
		<line class="st15" x1="161.8" y1="20.7" x2="161.8" y2="38.6"/>
		<polyline class="st15" points="221.1,111 113.7,111 113.7,104.9 233.1,104.9 		"/>
	</g>
	<g>
		<g>
			<g>
				<path class="st15" d="M93.9,145.5c1.8,0.9,4.4,4.2,4.4,4.2C97.6,145.6,93.9,145.5,93.9,145.5z"/>
				<path class="st5" d="M91.9,146.2L91.9,146.2c0.8-0.2,1.4-0.4,1.4-0.4s11.7-4.8,8.4-13.3c-2.7-6.9-10.1-5.3-13-7.1
					c-3.6-2.3-4.5-5-5.4-6.3c-0.2-0.4-1.1-1.6-1.1-1.6c0,0,0.2,1.5,0.3,2c0.3,1.6,1.5,4.2,0.4,8.3c-0.9,3.3-7.4,7.2-4.6,14.1
					c2.5,6.4,9.8,5.4,13.3,4.6l0,0c0,0-0.3,2.1-0.5,2.9c-0.2,0.8-1.5,0.1-2.4,1.4c-0.9,1.3,0.7,6.6,1.2,7c0.5,0.4,0.6-0.2,0.6-0.2
					L91.9,146.2z"/>
			</g>
		</g>
		<g>
			<g>
				<path class="st15" d="M103.2,138.6c1.2,1.7,2.1,5.7,2.1,5.7C106.4,140.3,103.2,138.6,103.2,138.6z"/>
				<path class="st5" d="M101,138.4L101,138.4c0.8,0.2,1.4,0.2,1.4,0.2s12.6,0.9,13.4-8.2c0.7-7.4-6.7-9.3-8.4-12.2
					c-2.2-3.6-1.8-6.4-2-8.1c-0.1-0.4-0.3-1.9-0.3-1.9c0,0-0.5,1.4-0.6,1.9c-0.5,1.6-0.6,4.4-3.4,7.6c-2.3,2.6-9.8,3.1-10.5,10.5
					c-0.6,6.8,6.3,9.3,9.8,10.1l0,0c0,0-1.2,1.8-1.7,2.3s-1.4-0.6-2.7,0.2c-1.4,0.8-2.4,6.2-2,6.8c0.3,0.6,0.7,0.1,0.7,0.1
					L101,138.4z"/>
			</g>
			<path class="st15" d="M99.2,160c1-1-0.2-3.9,1-5c1.1-1.2,1.7,0.9,3.1-2.4c1.4-3.2-2.6-6.1-3-8.3c-0.4-2.1,1.5-6.3,1.5-6.3l-0.5,0
				c0,0-1.6,3.6-2.2,5.9c-0.4,1.4-4.6,2.5-5,3.8c-0.4,1.3,0.7,1.6,0.6,2.5c-0.2,1.8-2.4,2.4-3.2,4.3c-0.6,1.5,1.6,1.8,1.5,3
				c-0.1,1.2-2.6,4.6-0.6,5.7c2,1.1,2.9-2.2,3.6-2.9S98.2,161.1,99.2,160z"/>
			<path class="st15" d="M105.9,161c0.4-1.4,2.2-1.6,2.6-3.4c0.3-1.7-1.1-3.1-0.8-4.5c0.3-1.4,2.3-1.9,2-5c-0.3-3.2-6.3-4.5-6.5-5.3
				c-0.2-0.8-0.2-4.6-0.2-4.6l-0.8-0.1l-0.2,0l0,0.2c0,0.9-0.2,4.3-1.2,6.1c-1.2,2.1-5.1,3.5-4.6,7.1c0.2,1.5,1.8,1.1,2.2,2.1
				c0.4,1-0.6,3.5-0.2,4.8c0.5,1.3,1.6,1,2.4,1.8c0.8,0.8,0.5,5.7,3.1,5.3C106.1,165.3,105.4,162.4,105.9,161z M103.5,161.8
				c-1.4-9.9-1.5-21-1.5-23.2l0.5,0.2c0.2,7.2,1.4,23,1.4,23L103.5,161.8z"/>
			<path class="st15" d="M103.9,161.8l-0.5,0c-1.4-9.9-1.5-21-1.5-23.2l0.5,0.2C102.7,146,103.9,161.8,103.9,161.8z"/>
		</g>
		<g>
			<g>
				<path class="st15" d="M134.5,133c0.6,0.8,1,2.8,1,2.8C136.1,133.8,134.5,133,134.5,133z"/>
				<path class="st5" d="M133.4,132.9L133.4,132.9c0.4,0.1,0.7,0.1,0.7,0.1s6.2,0.5,6.6-4c0.3-3.6-3.3-4.6-4.2-6
					c-1.1-1.8-0.9-3.2-1-4c0-0.2-0.2-1-0.2-1c0,0-0.3,0.7-0.3,0.9c-0.2,0.8-0.3,2.2-1.7,3.7c-1.1,1.3-4.8,1.5-5.1,5.2
					c-0.3,3.4,3.1,4.6,4.8,4.9l0,0c0,0-0.6,0.9-0.9,1.1s-0.7-0.3-1.4,0.1c-0.7,0.4-1.2,3.1-1,3.3c0.2,0.3,0.3,0,0.3,0L133.4,132.9z"
					/>
			</g>
			<path class="st15" d="M132.3,147.4c0.7-0.7-0.2-2.6,0.6-3.3c0.7-0.8,1.2,0.6,2-1.5c0.9-2.1-1.8-4.1-2.1-5.5
				c-0.3-1.4,0.9-4.2,0.9-4.2l-0.3,0c0,0-1,2.4-1.4,3.9c-0.3,0.9-3,1.6-3.3,2.5c-0.3,0.8,0.5,1.1,0.5,1.7c-0.1,1.2-1.6,1.6-2.1,2.8
				c-0.4,1,1.1,1.2,1,2c-0.1,0.8-1.7,3.1-0.3,3.8c1.3,0.8,1.9-1.5,2.4-1.9C130.6,147.2,131.7,148.1,132.3,147.4z"/>
			<path class="st15" d="M136.8,148.2c0.3-0.9,1.5-1.1,1.7-2.2c0.2-1.1-0.8-2.1-0.6-3c0.2-0.9,1.5-1.2,1.2-3.3
				c-0.3-2.1-4.2-3.1-4.4-3.6c-0.2-0.5-0.2-3-0.2-3l-0.5,0l-0.2,0l0,0.1c0,0.6-0.1,2.9-0.7,4.1c-0.7,1.4-3.3,2.2-3,4.7
				c0.2,1,1.2,0.8,1.5,1.4c0.3,0.6-0.4,2.3,0,3.2c0.3,0.9,1.1,0.7,1.6,1.2c0.6,0.5,0.4,3.8,2.1,3.6C137,151,136.5,149.1,136.8,148.2
				z M135.2,148.7c-1.1-6.6-1.3-14-1.3-15.5l0.3,0.1c0.2,4.8,1.2,15.4,1.2,15.4L135.2,148.7z"/>
			<path class="st15" d="M135.5,148.7l-0.3,0c-1.1-6.6-1.3-14-1.3-15.5l0.3,0.1C134.5,138.1,135.5,148.7,135.5,148.7z"/>
		</g>
		<g>
			<g>
				<path class="st15" d="M114,126.8c-0.8-1.2-1.1-4.1-1.1-4.1C111.8,125.5,114,126.8,114,126.8z"/>
				<path class="st15" d="M115.4,127.1L115.4,127.1c-0.6-0.2-1-0.2-1-0.2s-8.7-1.4-9.8,4.9c-0.9,5.1,4.1,6.8,5.1,9
					c1.3,2.7,0.8,4.6,0.9,5.7c0,0.3,0.1,1.4,0.1,1.4c0,0,0.4-1,0.6-1.3c0.4-1.1,0.7-3,2.8-5.1c1.7-1.7,7-1.6,7.9-6.7
					c0.8-4.7-3.9-6.8-6.2-7.6l0,0c0,0,0.9-1.1,1.3-1.5s0.9,0.5,1.9,0c1-0.5,2-4.2,1.8-4.6c-0.2-0.4-0.5-0.1-0.5-0.1L115.4,127.1z"/>
			</g>
			<path class="st19" d="M118.7,106.7c-1,0.9-0.1,3.7-1.2,4.6c-1.1,1-1.6-1-3,1.9c-1.5,2.9,2.1,6,2.3,8.1c0.3,2.1-1.8,5.8-1.8,5.8
				l0.4,0c0,0,1.7-3.2,2.4-5.3c0.5-1.3,4.5-1.9,5-3.1c0.5-1.2-0.6-1.6-0.5-2.4c0.3-1.7,2.4-2,3.2-3.7c0.6-1.3-1.4-1.9-1.2-3
				c0.2-1.1,2.7-4.1,0.9-5.3c-1.8-1.2-2.9,1.8-3.6,2.4C121.1,107.3,119.7,105.9,118.7,106.7z"/>
			<path class="st19" d="M112.5,105.2c-0.5,1.2-2.2,1.3-2.6,2.9c-0.4,1.6,0.9,3,0.5,4.3c-0.4,1.2-2.3,1.5-2.1,4.5
				c0.1,3,5.6,4.9,5.8,5.6c0.2,0.8-0.1,4.3-0.1,4.3l0.8,0.1l0.2,0l0-0.2c0.1-0.8,0.4-4,1.5-5.7c1.2-1.9,5-2.8,4.8-6.3
				c-0.1-1.5-1.6-1.2-1.9-2.2c-0.4-0.9,0.8-3.2,0.4-4.5c-0.3-1.3-1.4-1.1-2.2-2c-0.7-0.8-0.1-5.4-2.6-5.3
				C112.5,101.1,113,103.9,112.5,105.2z M114.8,104.6c0.7,9.4,0.1,19.8,0,21.9l-0.5-0.2c0.2-6.8,0.1-21.8,0.1-21.8L114.8,104.6z"/>
			<path class="st15" d="M114.4,104.6l0.4,0.1c0.7,9.4,0.1,19.8,0,21.9l-0.5-0.2C114.5,119.6,114.4,104.6,114.4,104.6z"/>
		</g>
		<g>
			<g>
				<path class="st15" d="M70.4,121.8c-1.5-0.6-3.9-2.9-3.9-2.9C67.5,122.1,70.4,121.8,70.4,121.8z"/>
				<path class="st15" d="M72,121.1L72,121.1c-0.6,0.2-1,0.5-1,0.5s-8.9,4.8-5.5,11.3c2.7,5.2,8.5,3.3,10.9,4.5c3,1.5,4,3.5,4.8,4.6
					c0.2,0.3,1,1.2,1,1.2c0,0-0.3-1.2-0.4-1.5c-0.3-1.3-1.5-3.2-1-6.6c0.4-2.7,5.2-6.3,2.5-11.6c-2.6-4.8-8.3-3.5-10.9-2.5l0,0
					c0,0,0-1.7,0.2-2.3c0.1-0.6,1.2-0.2,1.8-1.3c0.6-1.1-1.1-5.2-1.6-5.4c-0.5-0.3-0.5,0.3-0.5,0.3L72,121.1z"/>
			</g>
			<path class="st19" d="M60.6,100.3c-0.3,1.5,2.5,3.4,2.2,5c-0.3,1.7-2.1,0.2-1.4,3.9c0.7,3.6,6.1,4,7.8,5.7
				c1.7,1.7,2.4,6.5,2.4,6.5l0.4-0.3c0,0-0.7-4.1-1.5-6.5c-0.5-1.5,2.7-4.8,2.3-6.3c-0.4-1.4-1.6-1-2.1-1.9c-1-1.7,0.8-3.5,0.3-5.6
				c-0.4-1.6-2.6-0.7-3.1-1.9c-0.6-1.1-0.4-5.6-2.9-5.5c-2.5,0.1-1.3,3.6-1.6,4.7S60.9,98.8,60.6,100.3z"/>
			<path class="st19" d="M53.9,103.2c0.4,1.4-1.1,2.7-0.3,4.5c0.7,1.7,2.9,2.1,3.4,3.5c0.5,1.4-1,3,1.2,5.6c2.2,2.6,8.5,0.5,9.2,1.1
				c0.7,0.6,3,4,3,4l0.8-0.4l0.2-0.1l-0.1-0.2c-0.5-0.8-2.4-3.9-2.6-6.2c-0.2-2.6,2.6-6-0.1-9c-1.1-1.3-2.3,0-3.3-0.6
				c-1-0.6-1.5-3.4-2.7-4.4c-1.2-0.9-2.1,0-3.3-0.3c-1.2-0.2-3.9-4.8-6-3C51.1,99.5,53.5,101.8,53.9,103.2z M55.6,101.2
				c7.2,8.1,14,17.9,15.3,19.9l-0.6,0.1c-4.6-6.3-15.2-19.8-15.2-19.8L55.6,101.2z"/>
			<path class="st15" d="M55.2,101.4l0.4-0.2c7.2,8.1,14,17.9,15.3,19.9l-0.6,0.1C65.8,114.9,55.2,101.4,55.2,101.4z"/>
		</g>
		<g>
			<rect x="56.5" y="127" class="st18" width="63.1" height="33.7"/>
			<rect x="79.5" y="127" class="st18" width="63.1" height="33.7"/>
			<line class="st15" x1="112.6" y1="127.4" x2="112.8" y2="160.4"/>
			<line class="st15" x1="56.5" y1="137.2" x2="112.5" y2="137.2"/>
			<line class="st15" x1="56.5" y1="151" x2="112.5" y2="151"/>
			<path class="st15" d="M92.5,127c0,0.1,0.1,0.2,0.1,0.3c0,1.5-3.4,2.7-7.6,2.7s-7.6-1.2-7.6-2.7c0-0.1,0-0.2,0.1-0.3"/>
			<path class="st15" d="M137.1,127c0,0.1,0,0.2,0,0.3c0,1.5-2.7,2.7-6.1,2.7c-3.4,0-6.1-1.2-6.1-2.7c0-0.1,0-0.2,0-0.3"/>
		</g>
		<polyline class="st15" points="139.2,166.8 49.8,166.8 49.8,160.8 151.2,160.8 		"/>
	</g>
	<line class="st15" x1="132.5" y1="317.5" x2="401.5" y2="317.5"/>
</g>
</svg>
