<?xml version="1.0" encoding="utf-8"?>
<!-- Generator: Adobe Illustrator 24.1.2, SVG Export Plug-In . SVG Version: 6.00 Build 0)  -->
<svg version="1.1" xmlns="http://www.w3.org/2000/svg" xmlns:xlink="http://www.w3.org/1999/xlink" x="0px" y="0px"
	 viewBox="0 0 645 558" style="enable-background:new 0 0 645 558;" xml:space="preserve">
<style type="text/css">
	.st0{fill-rule:evenodd;clip-rule:evenodd;fill:#17B1B1;}
	.st1{fill-rule:evenodd;clip-rule:evenodd;fill:#F6BE22;}
	.st2{fill-rule:evenodd;clip-rule:evenodd;fill:#FFFFFF;}
	
		.st3{fill-rule:evenodd;clip-rule:evenodd;fill:#FFFFFF;stroke:#000000;stroke-width:1.33;stroke-linecap:round;stroke-linejoin:round;}
	.st4{fill:none;stroke:#000000;stroke-width:1.33;stroke-linecap:round;stroke-linejoin:round;}
	.st5{fill:#030100;}
	.st6{fill-rule:evenodd;clip-rule:evenodd;fill:#FDD2E1;}
	.st7{fill-rule:evenodd;clip-rule:evenodd;fill:#0A0704;}
	.st8{fill-rule:evenodd;clip-rule:evenodd;fill:#030100;}
	.st9{fill-rule:evenodd;clip-rule:evenodd;fill:#230E04;}
	.st10{fill-rule:evenodd;clip-rule:evenodd;fill:#000047;}
	.st11{fill-rule:evenodd;clip-rule:evenodd;fill:#F51618;}
	.st12{fill-rule:evenodd;clip-rule:evenodd;fill:#919191;}
	
		.st13{fill-rule:evenodd;clip-rule:evenodd;fill:none;stroke:#FFFFFF;stroke-width:1.33;stroke-linecap:round;stroke-linejoin:round;}
	.st14{fill:none;stroke:#FFFFFF;stroke-width:1.33;stroke-linecap:round;stroke-linejoin:round;}
	.st15{fill:#FFFFFF;stroke:#000000;stroke-width:1.33;stroke-linecap:round;stroke-linejoin:round;}
	.st16{fill-rule:evenodd;clip-rule:evenodd;fill:#24160C;}
	.st17{fill:#0A0704;stroke:#0A0704;stroke-miterlimit:10;}
	.st18{fill:#F6BE22;}
	.st19{fill:#17B1B1;}
	.st20{fill-rule:evenodd;clip-rule:evenodd;fill:#FFBE00;}
	.st21{fill-rule:evenodd;clip-rule:evenodd;fill:none;stroke:#000000;stroke-linecap:round;stroke-linejoin:round;}
	.st22{fill:none;stroke:#1A1A1A;stroke-width:1.33;stroke-linecap:round;stroke-linejoin:round;}
	.st23{fill:#0A0704;}
	.st24{fill-rule:evenodd;clip-rule:evenodd;fill:#12847E;}
	.st25{fill:#F51618;}
	.st26{fill:none;stroke:#000000;stroke-miterlimit:10;}
	.st27{fill:#0092FF;}
	.st28{fill:#007994;}
	.st29{fill:none;stroke:#F6BE22;stroke-width:1.33;stroke-linecap:round;stroke-linejoin:round;}
	.st30{fill:#FDD2E1;}
	.st31{fill:#0C9390;}
	
		.st32{fill-rule:evenodd;clip-rule:evenodd;fill:none;stroke:#000000;stroke-width:1.33;stroke-linecap:round;stroke-linejoin:round;}
	.st33{fill:#A9D18F;}
	.st34{stroke:#000000;stroke-linejoin:round;}
	.st35{fill:#C5DFB5;}
	.st36{fill:#FFFA94;}
	.st37{fill-rule:evenodd;clip-rule:evenodd;fill:#0092FF;}
	
		.st38{fill-rule:evenodd;clip-rule:evenodd;fill:#A8A8A8;stroke:#000000;stroke-width:1.33;stroke-linecap:round;stroke-linejoin:round;}
	.st39{fill-rule:evenodd;clip-rule:evenodd;fill:#C5DFB5;}
	.st40{fill-rule:evenodd;clip-rule:evenodd;fill:#A9D18F;}
	.st41{fill:none;stroke:#0066CC;stroke-width:1.33;stroke-linecap:round;stroke-linejoin:round;stroke-miterlimit:10;}
	.st42{fill-rule:evenodd;clip-rule:evenodd;fill:#FFFA94;}
	.st43{fill:#5D5D5D;}
	.st44{clip-path:url(#SVGID_6_);fill:#FFFFFF;}
	.st45{fill-rule:evenodd;clip-rule:evenodd;fill:#00CB99;}
	.st46{fill:none;stroke:#00EDB3;stroke-width:7.42;stroke-linecap:round;stroke-linejoin:round;}
	.st47{fill-rule:evenodd;clip-rule:evenodd;fill:#4971AF;}
	.st48{fill-rule:evenodd;clip-rule:evenodd;fill:#282828;}
	.st49{fill:#FFFBF2;}
	.st50{fill-rule:evenodd;clip-rule:evenodd;fill:#3AE5BB;}
	.st51{fill-rule:evenodd;clip-rule:evenodd;fill:#514A45;}
	.st52{fill-rule:evenodd;clip-rule:evenodd;fill:#F9CB00;}
	.st53{fill-rule:evenodd;clip-rule:evenodd;fill:#05DBED;}
	.st54{fill-rule:evenodd;clip-rule:evenodd;fill:#E9B200;}
	.st55{clip-path:url(#SVGID_8_);}
	.st56{fill:none;stroke:#FFFFFF;stroke-width:3;stroke-linecap:round;stroke-linejoin:round;}
	.st57{fill:none;stroke:#E9B200;stroke-width:5;stroke-miterlimit:10;}
	.st58{fill-rule:evenodd;clip-rule:evenodd;fill:#00DB00;}
	.st59{fill:#00BC00;}
	.st60{fill:#00DB00;}
	.st61{fill:none;}
	.st62{fill:#F4BC23;}
	.st63{fill-rule:evenodd;clip-rule:evenodd;}
	.st64{fill-rule:evenodd;clip-rule:evenodd;fill:#0068AB;}
	.st65{fill:#BEC7C9;}
	.st66{fill:#0068AB;}
	.st67{fill:#005C89;}
	.st68{clip-path:url(#SVGID_10_);fill:none;stroke:#000000;stroke-width:1.33;stroke-linecap:round;stroke-linejoin:round;}
	.st69{fill:#E1A916;}
	.st70{opacity:0.55;}
	.st71{fill:#FDBE43;}
	.st72{fill:#FFFFFF;}
	.st73{fill:#0067A6;}
	.st74{fill:#54D900;}
	.st75{fill:#0068A7;}
	.st76{fill:#0068A5;}
	.st77{fill:#B8B8B8;}
	.st78{fill:#5C5C5C;}
	.st79{fill:#666464;}
	.st80{fill:#5A5959;}
	.st81{fill:#7C7B7B;}
	.st82{fill:#BCBCBC;}
	.st83{fill:#757575;}
	.st84{fill:#D3D0D0;}
	.st85{fill:#0068A4;}
	.st86{fill:#0067A4;}
	.st87{fill:#4AB000;}
	.st88{fill:#7DDF45;}
	.st89{fill:#7FDF47;}
	.st90{fill:#39BB49;}
	.st91{fill:#D5EADA;}
	.st92{fill:#CDE6D3;}
	.st93{fill:#84DA60;}
	.st94{fill:#D3EAD7;}
	.st95{fill:#4AC04D;}
	.st96{fill:#6FD150;}
	.st97{fill-rule:evenodd;clip-rule:evenodd;fill:#BEC7C9;}
	.st98{fill:#D0D1D6;}
	.st99{fill-rule:evenodd;clip-rule:evenodd;fill:#7394E3;}
	
		.st100{fill-rule:evenodd;clip-rule:evenodd;fill:#17B1B1;stroke:#000000;stroke-width:1.33;stroke-linecap:round;stroke-linejoin:round;}
	.st101{fill-rule:evenodd;clip-rule:evenodd;fill:#408E96;}
	.st102{clip-path:url(#SVGID_12_);}
	.st103{fill:#408E96;}
	.st104{clip-path:url(#SVGID_14_);}
	.st105{fill-rule:evenodd;clip-rule:evenodd;fill:#9AF4F1;}
	
		.st106{fill-rule:evenodd;clip-rule:evenodd;fill:#0A0704;stroke:#FFFFFF;stroke-width:1.33;stroke-linecap:round;stroke-linejoin:round;}
	
		.st107{fill-rule:evenodd;clip-rule:evenodd;fill:#F6BE22;stroke:#000000;stroke-width:1.33;stroke-linecap:round;stroke-linejoin:round;}
	.st108{fill-rule:evenodd;clip-rule:evenodd;fill:#FDFDFD;}
	.st109{fill-rule:evenodd;clip-rule:evenodd;stroke:#000000;stroke-width:1.33;stroke-linecap:round;stroke-linejoin:round;}
	.st110{fill-rule:evenodd;clip-rule:evenodd;fill:#F5F5F5;}
	.st111{fill:none;stroke:#F51618;stroke-width:1.33;stroke-linecap:round;stroke-linejoin:round;}
	.st112{clip-path:url(#SVGID_16_);}
	.st113{fill:none;stroke:#F6F6F6;stroke-width:1.33;stroke-linecap:round;stroke-linejoin:round;}
	.st114{fill-rule:evenodd;clip-rule:evenodd;fill:#373737;}
	.st115{fill-rule:evenodd;clip-rule:evenodd;fill:#118484;}
	.st116{fill-rule:evenodd;clip-rule:evenodd;fill:#DCB6C3;}
	.st117{fill-rule:evenodd;clip-rule:evenodd;fill:#262626;}
	.st118{fill-rule:evenodd;clip-rule:evenodd;fill:#D19F14;}
	
		.st119{fill-rule:evenodd;clip-rule:evenodd;fill:#0A0704;stroke:#000000;stroke-width:1.33;stroke-linecap:round;stroke-linejoin:round;}
	.st120{fill-rule:evenodd;clip-rule:evenodd;fill:#D2A21D;}
	.st121{fill:none;stroke:#000000;stroke-width:6.34;stroke-linecap:round;stroke-linejoin:round;}
	.st122{clip-path:url(#SVGID_18_);}
	.st123{fill-rule:evenodd;clip-rule:evenodd;fill:#F6C949;}
	.st124{fill-rule:evenodd;clip-rule:evenodd;fill:#F6F6F6;}
	.st125{fill-rule:evenodd;clip-rule:evenodd;fill:#FDD2E1;stroke:#000000;stroke-width:1.33;stroke-miterlimit:10;}
	.st126{fill-rule:evenodd;clip-rule:evenodd;stroke:#FFFFFF;stroke-width:1.33;stroke-linecap:round;stroke-linejoin:round;}
	
		.st127{fill-rule:evenodd;clip-rule:evenodd;fill:#FFFFFF;stroke:#0A0704;stroke-width:1.33;stroke-linecap:round;stroke-linejoin:round;}
	
		.st128{fill-rule:evenodd;clip-rule:evenodd;fill:#31B767;stroke:#000000;stroke-width:0.75;stroke-linecap:round;stroke-linejoin:round;}
	
		.st129{fill-rule:evenodd;clip-rule:evenodd;fill:#ECB82B;stroke:#000000;stroke-width:0.75;stroke-linecap:round;stroke-linejoin:round;}
	
		.st130{fill-rule:evenodd;clip-rule:evenodd;fill:#E9EBEF;stroke:#000000;stroke-width:0.75;stroke-linecap:round;stroke-linejoin:round;}
	.st131{fill:none;stroke:#000000;stroke-width:0.75;stroke-linecap:round;stroke-linejoin:round;}
	
		.st132{fill-rule:evenodd;clip-rule:evenodd;fill:#E9EBEF;stroke:#000000;stroke-width:1.33;stroke-linecap:round;stroke-linejoin:round;}
	.st133{fill-rule:evenodd;clip-rule:evenodd;fill:#D5CECE;}
	.st134{fill-rule:evenodd;clip-rule:evenodd;fill:#FBF7F7;}
	.st135{fill-rule:evenodd;clip-rule:evenodd;stroke:#000000;stroke-miterlimit:10;}
	.st136{fill-rule:evenodd;clip-rule:evenodd;fill:#FFFFFF;stroke:#000000;stroke-linecap:round;stroke-linejoin:round;}
	.st137{fill:none;stroke:#000000;stroke-linecap:round;stroke-linejoin:round;}
	.st138{fill:#D6AE03;}
	.st139{fill:#F9CB00;}
	.st140{fill-rule:evenodd;clip-rule:evenodd;fill:none;stroke:#000000;stroke-width:7;stroke-linecap:round;stroke-linejoin:round;}
	.st141{fill-rule:evenodd;clip-rule:evenodd;fill:#F7F7F7;}
	.st142{fill:#919191;}
	.st143{clip-path:url(#SVGID_20_);fill:none;stroke:#000000;stroke-width:1.33;stroke-linecap:round;stroke-linejoin:round;}
	.st144{fill:#F6E5DC;}
	.st145{fill:#F4AA1C;}
	.st146{fill:#FBBB1F;}
	.st147{fill:#007CFF;}
	.st148{fill:none;stroke:#000000;stroke-width:1.33;stroke-linecap:round;stroke-linejoin:round;stroke-dasharray:12,15;}
	.st149{fill:#FFBE00;}
	.st150{fill-rule:evenodd;clip-rule:evenodd;fill:#0A0704;stroke:#0A0704;stroke-miterlimit:10;}
	.st151{fill:#F51618;stroke:#000000;stroke-width:1.33;stroke-linecap:round;stroke-linejoin:round;}
	.st152{fill:#5CEAE6;}
	.st153{fill:none;stroke:#000000;stroke-linejoin:round;}
	.st154{fill-rule:evenodd;clip-rule:evenodd;fill:none;}
	.st155{clip-path:url(#SVGID_24_);fill:#FFFFFF;}
	.st156{clip-path:url(#SVGID_26_);fill:none;stroke:#000000;stroke-width:1.33;stroke-linecap:round;stroke-linejoin:round;}
	.st157{clip-path:url(#SVGID_28_);}
</style>
<g id="Guides_For_Artboard">
</g>
<g id="Layer_1">
	<g>
		<rect x="202.1" y="257.7" class="st15" width="54.7" height="31.4"/>
		<g>
			<rect x="113.8" y="145.1" class="st18" width="98.2" height="144.1"/>
		</g>
		<g>
			<polygon class="st18" points="187.8,289.2 77.1,289.2 106.4,145.1 187.8,145.1 			"/>
		</g>
		<g>
			<polygon class="st15" points="212,163.6 170,163.6 169.9,163.6 161.3,163.6 161.3,163.6 116.3,163.6 116.3,163.6 110.4,163.6 
				109.8,166.2 212,166.2 			"/>
		</g>
		<g>
			<polygon class="st15" points="114.7,163.6 149.1,163.6 149.1,163.6 114.7,163.6 			"/>
		</g>
		<g>
			<polygon class="st15" points="155.8,163.6 187.8,163.6 187.8,163.6 155.7,163.6 			"/>
		</g>
		<g>
			<polygon class="st15" points="198.9,186.6 159.2,186.6 159.1,186.5 151,186.5 151,186.6 109,186.6 109,186.5 106.1,186.5 
				105.5,189.2 198.9,189.2 			"/>
		</g>
		<g>
			<rect x="108.6" y="186.5" class="st15" width="37.1" height="0"/>
		</g>
		<g>
			<polygon class="st15" points="152.8,186.6 187.8,186.6 187.8,186.5 152.8,186.5 			"/>
		</g>
		<g>
			<polygon class="st15" points="198.9,211.6 157.7,211.6 157.6,211.6 149.1,211.6 149.1,211.6 105.2,211.6 105.2,211.6 
				101.4,211.6 100.9,214.2 198.9,214.2 			"/>
		</g>
		<g>
			<rect x="104.7" y="211.6" class="st15" width="39" height="0"/>
		</g>
		<g>
			<polygon class="st15" points="151.3,211.6 187.8,211.6 187.8,211.6 151.2,211.6 			"/>
		</g>
		<g>
			<polygon class="st15" points="198.9,237.7 154.7,237.7 154.6,237.7 145.6,237.7 145.6,237.7 98.8,237.7 98.8,237.7 96.6,237.7 
				96,240.3 198.9,240.3 			"/>
		</g>
		<g>
			<polygon class="st15" points="98.5,237.7 140.3,237.7 140.3,237.7 98.5,237.7 			"/>
		</g>
		<g>
			<polygon class="st15" points="148.4,237.7 187.8,237.7 187.8,237.7 148.3,237.7 			"/>
		</g>
		<g>
			<polygon class="st15" points="198.7,263.8 150.4,263.9 150.3,263.8 140.5,263.8 140.5,263.8 91.7,263.8 91.2,266.4 198.7,266.4 
							"/>
		</g>
		<g>
			<rect x="91.7" y="263.8" class="st15" width="43.8" height="0"/>
		</g>
		<g>
			<polygon class="st15" points="196.3,151 188,151 188,151 188,163.6 212,163.6 212,156.8 212,151 			"/>
			<polygon class="st15" points="188,174 188,174 188,186.5 212,186.5 212,179.8 212,174 196.3,174 			"/>
			<polygon class="st15" points="187.8,199.1 187.5,199.1 187.4,199.1 137.6,199.1 137.6,199.1 103.7,199.1 103.7,199.1 
				103.7,199.1 103.5,200.2 102.3,206.6 101.4,211.6 104.7,211.6 104.7,211.6 143.7,211.6 143.7,211.6 151.2,211.6 151.3,211.6 
				187.8,211.6 187.8,211.6 198.9,211.6 198.9,204.8 198.9,199.1 191.4,199.1 			"/>
			<polygon class="st15" points="187.8,225.2 187.5,225.2 187.4,225.2 133.8,225.2 133.8,225.2 98.8,225.2 98.8,225.2 98.8,225.2 
				98.6,226.6 97,234.8 96.5,237.7 98.5,237.7 98.5,237.7 140.3,237.7 140.3,237.7 148.3,237.7 148.4,237.7 187.8,237.7 
				187.8,237.7 198.9,237.7 198.9,230.9 198.9,225.2 191.4,225.2 			"/>
			<polygon class="st15" points="187.8,251.3 187.5,251.3 187.4,251.3 128.4,251.3 128.4,251.3 94,251.3 94,251.3 94,251.3 
				93.6,253.5 91.7,263.8 91.7,263.8 135.5,263.8 135.5,263.8 144.2,263.8 144.4,263.9 187.8,263.8 187.8,263.8 198.9,263.8 
				198.9,257 198.9,251.3 191.4,251.3 			"/>
			<polygon class="st15" points="114.7,163.6 149.1,163.6 155.7,163.6 155.8,163.6 187.8,163.6 187.8,163.6 187.8,163.1 
				187.8,157.2 187.8,151 187.8,151 143.8,151 143.7,151 112.6,151 112.6,151 112.4,151.8 111.6,156.2 110.2,163.6 114.7,163.6 			
				"/>
			<polygon class="st15" points="108.6,186.6 145.6,186.6 145.6,186.5 152.8,186.5 152.8,186.6 187.8,186.6 187.8,186.5 
				187.8,186.2 187.8,180.3 187.8,174 187.8,174 139.9,174 139.9,174 108.3,174 108.3,174 108.3,174 108.1,175.3 106.7,182.5 
				106,186.5 108.6,186.5 			"/>
		</g>
		<g>
			<polygon class="st15" points="144.4,263.9 187.8,263.8 187.8,263.8 144.2,263.8 			"/>
		</g>
		<rect x="285.9" y="188.8" class="st15" width="29.6" height="101"/>
		<polygon class="st15" points="253.4,188.9 202.2,188.9 173.2,188.9 173.2,289.4 202.2,289.4 202.2,289.2 253.4,289.2 253.4,289.4 
			282.4,289.4 282.4,188.9 		"/>
		<rect x="171.9" y="238.1" class="st15" width="143.4" height="1.9"/>
		<rect x="173.6" y="238" class="st15" width="141.6" height="0.9"/>
		<rect x="171.9" y="251.3" class="st15" width="143.4" height="1.9"/>
		<rect x="173.6" y="251.2" class="st15" width="141.6" height="0.9"/>
		<rect x="169" y="182.8" class="st19" width="148.3" height="6"/>
		<rect x="169" y="185.8" class="st18" width="148.3" height="3"/>
		<rect x="171.9" y="197" class="st15" width="143.5" height="1.9"/>
		<rect x="171.9" y="210.2" class="st15" width="143.5" height="1.9"/>
		<rect x="173.6" y="197" class="st15" width="141.7" height="0.9"/>
		<rect x="173.6" y="210.1" class="st15" width="141.7" height="0.9"/>
		<rect x="171.9" y="224.1" class="st15" width="143.5" height="1.9"/>
		<rect x="173.6" y="224.1" class="st15" width="141.7" height="0.9"/>
		<polygon class="st5" points="173.7,289.4 168.9,289.4 168.9,189 173.7,189 173.7,272.1 		"/>
		<g>
			<g>
				<polygon class="st19" points="313.8,283.1 293.4,283.1 293.4,280.8 279.3,280.8 279.3,283.6 264.5,283.6 264.5,280.1 
					243.4,280.1 243.4,282.5 233.8,282.5 233.8,281 219.7,281 219.7,283.7 205,283.7 205,280.2 183.8,280.2 183.8,282.6 
					173.8,282.6 173.8,289.4 313.8,289.5 				"/>
			</g>
		</g>
		<g>
			<g>
				<g>
					<rect x="179.8" y="262.5" class="st15" width="0.9" height="27"/>
				</g>
				<g>
					<rect x="190.9" y="262.5" class="st15" width="0.9" height="27"/>
				</g>
				<g>
					<rect x="202.9" y="262.5" class="st15" width="0.9" height="27"/>
				</g>
				<g>
					<rect x="214.1" y="262.5" class="st15" width="0.9" height="27"/>
				</g>
				<g>
					<rect x="226.1" y="262.5" class="st15" width="0.9" height="27"/>
				</g>
				<g>
					<rect x="237.2" y="262.5" class="st15" width="0.9" height="27"/>
				</g>
				<g>
					<rect x="249.2" y="262.5" class="st15" width="0.9" height="27"/>
				</g>
				<g>
					<rect x="260.3" y="262.5" class="st15" width="0.9" height="27"/>
				</g>
				<g>
					<rect x="272.3" y="262.5" class="st15" width="0.9" height="27"/>
				</g>
				<g>
					<rect x="283.5" y="262.5" class="st15" width="0.9" height="27"/>
				</g>
				<g>
					<rect x="295.5" y="262.5" class="st15" width="0.9" height="27"/>
				</g>
				<g>
					<rect x="306.6" y="262.5" class="st15" width="0.9" height="27"/>
				</g>
			</g>
			<g>
				<rect x="173.8" y="266.1" class="st15" width="139.9" height="0.8"/>
			</g>
		</g>
		<rect x="282.3" y="188.8" class="st5" width="4" height="100.6"/>
		<rect x="313.1" y="188.8" class="st5" width="4.1" height="100.6"/>
		<g>
			<rect x="130.6" y="262.4" class="st5" width="6.9" height="27.3"/>
			<rect x="134.2" y="262.4" class="st5" width="3.4" height="27.3"/>
			<rect x="130.3" y="250.1" class="st19" width="205.9" height="16"/>
			<rect x="330.3" y="262.3" class="st5" width="5.8" height="27.3"/>
			<rect x="333.2" y="262.3" class="st5" width="2.8" height="27.3"/>
			<rect x="281.6" y="262.3" class="st5" width="5.8" height="27.3"/>
			<rect x="284.6" y="262.3" class="st5" width="2.8" height="27.3"/>
			<rect x="281.6" y="250.1" class="st19" width="54.5" height="16"/>
		</g>
		<g>
			<rect x="91.6" y="288.2" class="st15" width="269.7" height="2.6"/>
		</g>
		<g>
			<rect x="49.4" y="288.2" class="st5" width="274.4" height="2.6"/>
		</g>
		<line class="st4" x1="130.3" y1="259.4" x2="250.8" y2="259.4"/>
		<polyline class="st4" points="214.5,182.5 168.5,182.5 168.5,188.5 		"/>
	</g>
	<g>
		<g>
			<path class="st7" d="M437.3,114.5c3.8,1.6-9.7,20.1-4.5,20.3c4.7,0.2,33.9,2.7,32.6-4.4c-1.3-7.1-5.1-28.7-19.8-26.4
				c-3.2-0.3-15.1,1.5-8.4,1.9"/>
			<path class="st3" d="M429.5,147.7l17,28.9c0,0,26.5-17.3,21.2-36.1c-0.2-0.8-12-4.1-13.7-6.6c-6-9.4-4.9-9.3-7.5-17.6
				c-1.9,1.1-5.6,3.2-5.6,3.2s-0.2,5.4-0.3,10.5c0,2.3,0.1,4.1-0.7,7.2C439,140.4,429.5,147.7,429.5,147.7z"/>
			<path class="st3" d="M445.3,105c2.4,1.6,4,3.8,4.4,5.7c0.4,1.9,0.1,12.8-0.4,17.7c-0.4,4.3-3.9,5.9-6.7,5.9
				c-2.6-0.1-6.2-1.5-6.8-5.6c-0.4-2.9-0.4-11.2,0.7-20.8C436.9,105,442.1,102.9,445.3,105z"/>
			<path class="st4" d="M440.2,123.4c-3.5,0.7-0.4-3.2-0.4-3.2"/>
			<path class="st7" d="M442.3,120.2c0.3,0,0.5-0.2,0.5-0.6c0-0.3-0.2-0.6-0.5-0.6c-0.3,0-0.5,0.2-0.5,0.6
				C441.9,120,442.1,120.2,442.3,120.2z"/>
			<path class="st7" d="M437.3,119.9c0.3,0,0.5-0.2,0.5-0.6c0-0.3-0.2-0.6-0.5-0.6c-0.3,0-0.5,0.2-0.5,0.6
				C436.8,119.7,437.1,119.9,437.3,119.9z"/>
			<path class="st3" d="M449,120.9c0.4-0.1,0.9-0.1,1.3,0.2c1.5,1.1,0,3.9-1.8,2.7"/>
			<path class="st7" d="M453.9,107.7c-2.4-1.7-2.3-3.8-7.5-4.5c-3-0.4-10.3-2.2-12.6,0.1c-3.5,8.6,3.8,10.5,10.3,10.5
				c3.8,0,8.6,3.2,10,0.8C455.7,111.9,456.6,109.6,453.9,107.7z"/>
			<path class="st4" d="M441.7,126.3c0.4,0.1,0.9,0,1.3-0.1c1.4-0.4,1.9-2.1,1.9-2.1"/>
		</g>
		<g>
			<path class="st15" d="M369.6,329.3l-9.1,16.7l22.5,6l9.8-15.5L369.6,329.3z"/>
			<path class="st15" d="M506.2,308.3l14.9,11.8l9.6-21.2l-13.6-12.2L506.2,308.3z"/>
			<path class="st3" d="M504.2,129.8l-6.4-39.4c0,0-10-5.7-8.9-8.6c1-2.9,1.5-3.4,1.5-3.4s1.6,0.6,1.7,1.7c0.1,1.1-0.4,2.3-0.4,2.3
				l3.7,1.1l-3-5.5l-3.1-7c0,0,1-1.3,2.3,0.4c0.4,0.6,2.9,5.1,2.9,5.1l3,4l-4.1-11.4c0,0,1.4-0.3,1.9,0.7c0.9,1.8,4.7,9.3,4.7,9.3
				L496.9,69c0,0,1.6-1.3,2.4,0.7c0.3,0.7,3.6,9,3.6,9l-1.9-9.5c0,0,1.4-1,2.1,0.7c0.7,1.7,6.6,19.1,6.6,19.1s23.4,52.6,9.9,56.9
				c-13.1,4.2-28.5,3.7-28.5,3.7l-24-13.6L504.2,129.8z"/>
			<g>
				<g>
					<path id="Mask_1_" class="st1" d="M434.9,210c0,0-35.1,46.2-37,51.3c-3.3,8.6-38.5,73.5-38.5,73.5l34.3,6.7
						c0,0,20.9-7.3,16.6-20.9c-2.9-9.3,10.7-17.9,11.3-24.4c0.7-6.5,12.3-26.4,12.3-26.4s52.1-31.6,58.1-45.5
						c6-13.9-20.9-37.8-20.9-37.8L434.9,210z"/>
				</g>
			</g>
			<path class="st1" d="M433,193.7c0,0-21,64.6-11.3,75.4c9.7,10.9,85.5,47.8,85.5,47.8l22.1-31.8c0,0-11.7-5.6-20.3-9.2
				c-8.6-3.5-12.2-9.6-23.4-17.2c-11.2-7.5-26.4-10.4-26.4-10.4l7.4-59.6L433,193.7z"/>
			<path class="st0" d="M386.5,351.2l-7.3,16.9L324,352.8c0,0,2.1-4.5,8.9-4.5c8.3,0,15.7,0.9,17.4,0c0.5-0.3,8.6-4.5,8.6-4.5
				L386.5,351.2z"/>
			<path class="st0" d="M530.6,295.2l15.4,10l-24.3,51.9c0,0-4.1-2.8-3-9.6c1.4-8.2,3.5-15.3,2.9-17.2c-0.2-0.6-3-9.3-3-9.3
				L530.6,295.2z"/>
			<path class="st4" d="M326.5,350.1l54.2,15.1"/>
			<path class="st4" d="M519.4,354.2l24-50.9"/>
			<path class="st4" d="M452.1,253l13.2-2.8"/>
			<g>
				<g>
					<path id="Mask_2_1_" class="st8" d="M491.5,135.5l-2,15.3l-12.1,6.9l-13.1,41.6l-48.7-4.7l2.7-19.1L401,163.2
						c0,0-1.5-2,13.1-12.2c12.9-9,23.3-9.9,23.3-9.9l10.8,6.4l10.5-11.1L491.5,135.5z"/>
				</g>
			</g>
			<path class="st11" d="M489.7,133c-0.4,2.3-7.8,24-7.4,24.1l5.3,45.9l-33.3,17.3l-41.8-9.6l4.1-24.6c0,0-6-29.3-1.1-35.9
				c4.9-6.6,18.5-9.2,18.5-9.2s2.7,2.9,2.7,14.4c0,4.6-2.5,32.5-2,32.6c10.9,2.6,24.1,6.6,24,6.1c-0.4-1.9-0.1-5.1,0.1-8.6
				c0.2-3.9,0.5-24.7,0.4-29.9c-0.2-8.7,1.9-19.5,1.9-19.5S468.1,130.1,489.7,133z"/>
			<path class="st3" d="M410.6,169.8c0,0-25.8,11.1-22.3,17c3.6,5.9,47.9,9.9,47.9,9.9l5.1,14.4c0,0,1.8,2.8,2.8,1.1
				c1-1.7,0.6-3.1,0.6-3.1s0.2,3.1,2.2,2.9c2-0.2,1.3-2.7,1.3-2.7s2.1,4.3,3,2.8c0.9-1.5,0.5-2.9,0.5-2.9l3.6,8.2
				c0,0,1.9,0.7,2.4-1.9c0.3-1.3-2.2-7.7-2.2-7.7l-1.7-8.4c0,0,2.6,1.8,4.6,1.6c2-0.2,2.7-2,2.7-2s-8.8-6.8-12.7-9.7
				c-3.9-3-38.3-12.4-38.3-12.4L410.6,169.8z"/>
			<path class="st3" d="M443.3,204l1.6,5.3"/>
			<path class="st3" d="M446.4,201.8l2.1,8"/>
			<path class="st3" d="M450.1,201.8l1.4,6.8"/>
			<path class="st11" d="M507,159.7c12.4-2,20.2-8.4,21.3-13.4c1.1-5-3.6-10.9-3.6-10.9s5.2-12.6-0.9-12.2
				c-6.1,0.3-32.7,4.5-32.7,4.5l-8.8,8.4c0,0-11.2,31.3-10,33.9C477.4,170.7,494.6,161.7,507,159.7z"/>
			<path class="st11" d="M425.7,145.3c0,0-20.7,7.4-28.8,14.5c-8.1,7.1-28.8,18.1-18.4,23.8c10.4,5.6,8.9,3.7,8.9,3.7s-1,4,2.5,5.8
				c3.5,1.8,30.9-18.2,30.9-18.2L425.7,145.3z"/>
			<path class="st4" d="M483,146.8c5,9.4-1.1,9-1.5,12"/>
			<path class="st4" d="M412.8,180.5c0,0,14.5-7.2,8.5-12.8c-2.7-2.9-9,3.1-9,3.1l3.1-6.3"/>
			<path class="st4" d="M398.6,180.3c-1,0.6-11.5,7.2-11.5,7.2"/>
			<path class="st4" d="M526.7,134.9l-34.6,4"/>
			<path class="st4" d="M435.4,207.6l0.1,8.2c0,0-21.5-4.2-23.1-5.2"/>
			<path class="st4" d="M421.3,241.5c0,0-15.8,17.7-4.8,25.3 M431.9,277.2l-15.4-10.4"/>
			<path class="st4" d="M487.9,203.1c0,0-12.7,4.5-19,8.1c-6.3,3.6-10.9,4.5-10.9,4.5V204"/>
		</g>
	</g>
	<g>
		<g>
			<path class="st3" d="M423.4,142.7l1.9-22.8c0,0-6.7,0.3-9.1,2.9c-2.3,2.6-4.8,13.8-4.5,20.5c0.2,3.3,1.3,16.2,3,28.9l16.6,0.4
				L423.4,142.7z"/>
			<path class="st4" d="M422.2,131.7c0.7-3.8,1.2-7.7,1-11.6"/>
			<path class="st4" d="M419.4,131.6c0.2-3.2,0.9-6.4,0.8-9.7"/>
			<path class="st4" d="M416.7,131.5c0.3-2.7,1-6.1,0.8-8.8"/>
		</g>
		<g>
			<path class="st3" d="M482.2,203.5c-5.6,0.6-11,2-16.6,2.8c-0.3-7.2,0.8-21.6,0.8-21.6l7.2-2C473.7,182.7,476.6,191.8,482.2,203.5
				z"/>
			<path class="st3" d="M460.5,166.9c0,4.5,0.2,8.7,0.5,12.3c0.1,1.1-1.7,3.3-1.6,4.3c0.1,0.6,2.2,1.6,2.2,1.6s0.4,2.4,0.6,3.3
				c1.1,4.1,4.9,5.2,7.6,5c2.9-0.3,6.3-2.4,6.2-6.8c-0.1-5.1-1.1-16.3-1.8-18.3c-0.7-1.9-2.5-4.1-5.2-5.4
				C465.5,161.1,460.5,163.9,460.5,166.9z"/>
			<path class="st16" d="M462.8,177.8c0-0.3,0.2-0.6,0.5-0.6c0.3,0,0.5,0.2,0.6,0.5s-0.2,0.6-0.5,0.6
				C463.1,178.4,462.8,178.1,462.8,177.8z"/>
			<path class="st3" d="M468.1,182.9c2,0.9,3.2-2.1,1.5-3c-0.4-0.2-1-0.2-1.3,0"/>
			<path class="st1" d="M474.5,184.1c3.9,0.3,10.4-9.1,8.4-16.2c-2-7.1-8.9-9.8-16.2-7.9c-6.9,1.8-9.7-2.1-12,0.7
				c-2.3,2.7,4.8,11.7,4.8,11.7s3-1.7,6.7,1.6C469.7,177,470.6,183.7,474.5,184.1z"/>
			<path class="st15" d="M507.5,396.4l10,27.7l19,1l-12-46.2L507.5,396.4z"/>
			<path class="st19" d="M460.1,253.4c0,0,9.6,84.9,14.6,94.3c12.6,23.9,31.3,59.2,31.3,59.2l29.9-15.7l-25.8-56.4
				c0,0-9.4-58.9-10.2-59.7c1.6-24.1-17.5-30.9-17.5-30.9L460.1,253.4z"/>
			<path class="st15" d="M472.2,389.4l11.7,8.5l19.6-6.5c-5.9-14-16.8-22.7-23-27C475.9,361.2,472.2,389.4,472.2,389.4z"/>
			<path class="st19" d="M449.9,246.8l-8.5,34.5c0,0-35.9,50.8-32.2,61.6c4.5,12.8,61,53.1,61,53.1l23.9-21.3c0,0-0.6-5-11.9-13.9
				c-4-3.1-28.2-27-28.2-27s17.1-25,26-45.2c8.9-20.2,2.9-39.1,2.9-39.1L449.9,246.8z"/>
			<path class="st5" d="M512.1,266.4c5.8-3.5,17.5-13.7,14.9-23c-1.6-6-18.9-41.2-36.1-45.4c-11.1-2.7-31-2-31-2s-19.4,2.8-20.1-2.4
				c-0.7-5.2-9.9-40.6-9.9-40.6l-20,1c0,0,4.2,38.7,8.4,52.2c0,6.3,26,27.4,26,27.4l-3.1,26.9c-0.2,2.7-0.6,8.3,2.1,8.3
				c4.6,0,15.4-3,19.8-2.1c9.1,2,18.5,2.8,26.4,2.4c14-0.6,12.4-3.2,12.4-3.2S506.4,269.9,512.1,266.4z"/>
			<path class="st14" d="M503.4,256.6l-4.5-29.3"/>
			<g>
				<path class="st11" d="M503.4,418.9l20.1,2.7l15.8-0.9l1.1,10.2l-34.7,2.2l-17.8,1.1c0,0-2.9-6.8,1-10.6
					C492.8,419.7,503.4,418.9,503.4,418.9z"/>
				<path class="st1" d="M519.7,412.8l3.6,9.5l-6.5,0.9l3.9,8.7l-8.5,0.4l-3.8-7.5l-5.7,1.1c0,0-3.4,0.3-5-2.1c-1-1.5-2-4-2-4
					L519.7,412.8z"/>
				<path class="st8" d="M540.7,428.5l-17.1,1l-3.9,2l-32.2,1.6l0.1,2.9l53.4-3.1L540.7,428.5z"/>
				<path class="st32" d="M507.8,416.6l0.4,4.1"/>
				<path class="st32" d="M504.1,417.2l1,4.3"/>
				<path class="st32" d="M500.5,418.4l1.4,4"/>
				<path class="st4" d="M523.4,409.1c1.1-3.4-0.4-7-3.4-8c-3-1.1-6.4,0.7-7.6,4.1c-1.1,3.3,0.4,6.9,3.4,8
					C518.9,414.3,522.2,412.5,523.4,409.1z"/>
				<path class="st4" d="M519,409.4c1.1-3.4-0.4-6.9-3.4-8c-3-1.1-6.4,0.7-7.6,4.1c-1.1,3.3,0.4,6.9,3.4,8
					C514.5,414.6,517.9,412.8,519,409.4z"/>
				<path class="st4" d="M519,409.4c1.1-3.4-0.4-6.9-3.4-8c-3-1.1-6.4,0.7-7.6,4.1c-1.1,3.3,0.4,6.9,3.4,8
					C514.5,414.6,517.9,412.8,519,409.4z"/>
				<path class="st4" d="M513.8,417.8l2.5-3.4l2.8,2.5"/>
			</g>
			<g>
				<path class="st11" d="M467,396.6l20.5-5.8l14.9-7.4l5.1,9.4l-32.6,16.5l-16.7,8.5c0,0-5.5-5.4-3.2-10.7
					C457.1,401.9,467,396.6,467,396.6z"/>
				<path class="st1" d="M480.3,383.9l7.3,7.7l-5.9,3.6l7.2,6.8l-8,4l-6.7-5.7l-5,3.4c0,0-3.2,1.7-5.6,0c-1.5-1-3.5-3.1-3.5-3.1
					L480.3,383.9z"/>
				<path class="st8" d="M506.8,390.4l-16.1,8.1l-3,3.6l-30.4,14.9l1.2,2.8l50.3-25.2L506.8,390.4z"/>
				<path class="st32" d="M470.3,392.6l2,3.8"/>
				<path class="st32" d="M467,394.7l2.7,3.8"/>
				<path class="st32" d="M464,397.3l2.9,3.2"/>
				<path class="st4" d="M482.4,378.9c-0.2-3.7-3.1-6.5-6.5-6.3c-3.4,0.2-5.9,3.4-5.7,7.1c0.2,3.7,3.1,6.5,6.5,6.3
					C480.1,385.7,482.6,382.6,482.4,378.9z"/>
				<path class="st4" d="M478.3,381c-0.2-3.7-3.1-6.5-6.5-6.3c-3.4,0.2-5.9,3.4-5.7,7.1c0.2,3.7,3.1,6.5,6.5,6.3
					C476,387.9,478.6,384.7,478.3,381z"/>
				<path class="st4" d="M478.3,381c-0.2-3.7-3.1-6.5-6.5-6.3c-3.4,0.2-5.9,3.4-5.7,7.1c0.2,3.7,3.1,6.5,6.5,6.3
					C476,387.9,478.6,384.7,478.3,381z"/>
				<path class="st4" d="M476.6,391.2l1-4.3l3.7,1.3"/>
			</g>
			<path class="st4" d="M484.7,281.8c0,0,1,10.7-6.3,18.2c-2.7,2.7-12.1,13.9-12.1,13.9"/>
			<line class="st4" x1="440.8" y1="280.8" x2="450.2" y2="281.9"/>
			<polyline class="st4" points="519.5,393.3 533.5,386.1 518.2,352.8 510.7,335.4 503.5,294.8 			"/>
			<line class="st4" x1="454.4" y1="333.2" x2="445" y2="335.4"/>
			<path class="st4" d="M471.3,268.6c0,0-3.4-1.4-9.6-1.4c-7.3,0-16.2,1.4-16.2,1.4"/>
			<polyline class="st4" points="479.4,357.8 497.2,371.8 485,382.4 			"/>
			<line class="st4" x1="504.5" y1="335.5" x2="510.5" y2="333.5"/>
			<line class="st4" x1="484.5" y1="373.5" x2="491.5" y2="367.5"/>
			<polyline class="st4" points="487.5,391.5 481.5,395.5 489.7,402 			"/>
		</g>
		<polyline class="st4" points="523.2,421.9 517,422.7 520.4,431.3 		"/>
	</g>
	<g>
		<g>
			<g>
				<path class="st3" d="M309.3,379.2c-1.1,2.8-16.5,23.9-16.5,23.9l7.4,13.2c1.8,3.2,2,7,0.6,10.4l-0.1,0.2l-12.9-11.1l-10.7-16.7
					l21.7-33.9C303.8,369.9,306.2,373.3,309.3,379.2z"/>
				<path class="st8" d="M355.6,259.3l-0.9,89.2l-49.8,43.9l-18.7-16.1c0,0,8.4-24.4,15.2-30.7c4.4-4,15.5-18,15.5-18l13.1-66.4
					L355.6,259.3z"/>
				<path class="st3" d="M369.4,207.6l-8.6-21.1l17.9-16.5l18.8-32.7c0-1.9-0.9-9.5-0.5-9.5c0.9,0,2.2,5,2.2,5s2.1-14.1,3.5-13.8
					c0.9,0.2-1.2,8.4-0.5,9.7c0.3,0.4,1.6-9.6,2.9-9.2c0.5,0.2-1.1,8.6-0.5,9.7c0.3,0.6,2.2-9.2,2.9-9.2c0.9,0.1-1.1,9.6-0.6,9.8
					c0.5,0.2,2.5-9.1,3-9c0.8,0.2-1.1,12-2.4,18.5c-0.7,3.6-9.6,30.5-9.6,30.5c-2.1,6.2-5.4,12-9.8,16.9L369.4,207.6z"/>
				<path class="st3" d="M335.2,385c0.9,2.8,3.1,28.9,3.1,28.9l14.2,5.2c3.4,1.3,6.1,4,7.3,7.5l0.1,0.2h-17.1l-19-5.7l-5.7-39.9
					C324.9,381.5,329,382.5,335.2,385z"/>
				<path class="st6" d="M363.7,199.7l-3.4,27.4c-1.2,5.6-4.6,12.4-4.3,18.2l1.1,24l-57-2.7l-0.6-11.9c3.8-22.8,9.2-17.6,6.6-29.4
					l-5.6-28.4c0-6.4,5.4-11.4,11.8-11c7.8,0.5,18.1,1.2,26.1,1.7C353.4,188.4,363.7,199.7,363.7,199.7z"/>
				<path class="st8" d="M339.5,268.8l-1.8,72.4l2.7,56.7h-24.7c0,0-9.6-24-8.5-33.2c0.7-5.9,0-23.7,0-23.7l-7.6-75L339.5,268.8z"/>
				<path class="st6" d="M365.1,179.6l10.4,25.6L355.6,227l-9.2-37.8L365.1,179.6z"/>
				<path class="st4" d="M351,263l-50.5-3.2"/>
				<path class="st4" d="M360.9,212.3l0,10.4"/>
				<path class="st3" d="M340.2,167.2c1.8,4-1.4,5.8-2.1,16.2c0,7.1,8.3,12.5,8.3,12.5l-11.8,17.2l-16.3-20.5c0,0,8.3-6.5,12.6-12
					c1.4-3.4,2.2-20.6,2.2-20.6S338.4,163.3,340.2,167.2z"/>
				<path class="st3" d="M345.1,156.8c1.5,9.5,2.1,19.3,1.9,22.2c-0.3,4.1-3.8,5.8-6.5,5.9c-2.8,0.2-6.3-1.3-7-5.5
					c-0.7-4.9-1.6-15.6-1.2-17.6c0.3-1.9,1.4-5,4.1-5.9C339.2,155,344.7,154,345.1,156.8z"/>
				<path class="st22" d="M341.5,169.3c0.7,0.7,2.9,3.6,0.2,3"/>
				<g>
					<path class="st9" d="M339.4,168.6c-0.1-0.4-0.3-0.6-0.6-0.5c-0.3,0-0.5,0.3-0.5,0.6c0.1,0.4,0.3,0.6,0.6,0.5
						C339.1,169.1,339.3,168.9,339.4,168.6z"/>
					<path class="st9" d="M344.3,168c-0.1-0.4-0.3-0.6-0.6-0.5c-0.3,0.1-0.5,0.3-0.4,0.6c0.1,0.3,0.3,0.6,0.6,0.5
						C344.1,168.6,344.3,168.2,344.3,168z"/>
				</g>
				<path class="st3" d="M333.6,174.4c-2,1-3-2.2-1.4-3.2c0.4-0.3,0.9-0.2,1.2,0"/>
				<path class="st6" d="M310,195.3l10.3-5.1l13.1,10.1c2.9,2.3,7.1,1.9,9.6-0.9l5.1-7.4l1.9,14.1l-10.6,16.5L310,195.3z"/>
				<polyline class="st14" points="336.2,276.8 339,333.8 339,364.1 				"/>
				<path class="st14" d="M308.6,346.1c0,0,0.9,18,1.9,28.5"/>
				<line class="st4" x1="356.1" y1="245.5" x2="355.1" y2="237"/>
				<path class="st1" d="M348.4,156c-0.8-1.8-2.9-4.8-4.8-5.7c-7.7-3.5-16.7,1.2-16.7,9.7c0,1.3,0.5,9.7,3.5,9.2
					c2.9-0.5,7.8-6.2,9.8-10.8c3,5,8.7,10.2,9.5,2C349.9,158.8,349.1,157.5,348.4,156z"/>
				<path class="st1" d="M327.7,158.2c-18.8,2.8-46.3-18.4-39.1-39c4.3-12.2,17.2-8.5,23-1c3.1,4,6.4,8.9,8.9,13
					c4.6,7.3,8.6,14.4,11.9,22.3"/>
				<path class="st29" d="M327.2,153.7c-5.1,5.6-13.2-4.3-17.3-8.7c-6-6.6-18.6-29.8-8.5-36.9c5.5-3.9,12,2.4,14.7,6.7
					C321.2,123,333.5,146.8,327.2,153.7z"/>
				<path class="st29" d="M324.3,153.6c-5.4-7.7-9.8-16.5-15.8-24.2c-5.2-6.6-9-11.4-17.5-13.3c-14.6-3.2-13.3,14.2-7.4,22.1
					c5.3,7.1,18.5,10.6,26.4,13.2c6.6,2.2,13.7,3,20.6,3"/>
			</g>
		</g>
		<path class="st3" d="M306.5,257.9c4.8,9.1,12.7,14.5,12.3,16.6c-0.4,1.6-5.5-2.5-5.5-2.5s8.1,16.8,6.5,17.3
			c-2.4,0.8-8.2-12.1-8.2-12.1s3.5,9.2,1,9.8c-2.1,0.5-1.1-1.5-4.5-8.5c1.8,8.4,1.9,9.2,1.1,9.4c-2.8,0.6-0.7-0.5-4.1-8.7
			c1.1,5.1,2.8,9.3,0.6,9.6c-2.2,0.4-3.1-6.4-5.6-15.4c-0.7-2.7-3.9-8-4.2-10.3c-0.1-0.8-13.9-23.4-16.2-36.6
			c1.7-3.9,19-35.1,19-35.1c11.1-2.6,14,6,15.1,6.4c3.1,1-15.5,30.9-14.5,30.4C300.3,227.7,305.2,258.4,306.5,257.9z"/>
		<path class="st6" d="M284.5,211.9l7.3,3.8l13.4,6l5.9,1.3l11.1-30.4c-4.1-1.8-5.6-5-6.9-5.5c-7.6-2.9-16.1-0.9-23.7,12.3
			C289.5,203.3,284.5,211.9,284.5,211.9z"/>
		<path class="st4" d="M314.8,202.6c0,0-9.4,19.4-9.5,19.7l-14.6-6.8"/>
		<g>
			<path class="st0" d="M366.4,427.9l-16.6,0.4l-31.8-0.4l3.1-15.7l14.2-0.4c0,0-0.5-3.6,3.2-3.4c2.8,0.1,11.2,8.4,19,10.7
				C368,422.3,366.4,427.9,366.4,427.9z"/>
			<path class="st63" d="M366.2,425.9l-36-0.2c-1,0-1.9,0.7-1.9,1.6l0,0.6c0,0.9,0.8,1.6,1.9,1.6l36,0.2c1,0,1.9-0.7,1.9-1.6l0-0.6
				C368.1,426.6,367.2,425.9,366.2,425.9z"/>
			<path class="st63" d="M333.2,429.6l-17-0.2l1-8.6c0,0,8.6-0.5,11.6,2.2C331.8,425.7,333.2,429.6,333.2,429.6z"/>
			<path class="st63" d="M359,419.6l-20-11.7c0,0-3.2,0.5-4,1.7c-0.8,1.2,0.6,3.2,0.6,3.2s11.4,7.3,16.3,8.8
				C355.3,422.6,359,419.6,359,419.6z"/>
			<path class="st4" d="M334.1,427.4l6.9-12.4l17.9,4.8c0,0,3.2,0,5.4,3.2c2,3,1.1,4.3,1.1,4.3"/>
		</g>
		<g>
			<path class="st0" d="M305.7,429.9l-13.1-10.3l-24.3-20.6l12.4-10.1l11.2,8.8c0,0,1.9-3.1,4.7-0.6c2.1,1.9,3.3,13.6,7.8,20.3
				C310.5,426.5,305.7,429.9,305.7,429.9z"/>
			<path class="st63" d="M306.8,428.2l-27.6-23.1c-0.8-0.7-1.9-0.7-2.5,0l-0.4,0.4c-0.6,0.7-0.4,1.8,0.4,2.4l27.6,23.1
				c0.8,0.7,1.9,0.7,2.5,0l0.4-0.4C307.8,430,307.6,428.9,306.8,428.2z"/>
			<path class="st63" d="M279.1,410l-13-11l6.3-5.9c0,0,7,5.1,7.5,9.1C280.5,406.1,279.1,410,279.1,410z"/>
			<path class="st63" d="M305.3,418.8l-7.9-21.8c0,0-2.7-1.6-4.2-1.2c-1.4,0.4-1.5,2.9-1.5,2.9s4.1,12.9,6.9,17.1
				C300.5,418.8,305.3,418.8,305.3,418.8z"/>
			<path class="st4" d="M281.1,408.9l13.2-5.1l10.7,15.1c0,0,2.5,2.1,2.1,5.9c-0.4,3.6-1.9,4-1.9,4"/>
		</g>
	</g>
	<path class="st4" d="M383.1,72.1c3.3,8.1,6.7,16.2,10,24.3"/>
	<line class="st4" x1="399.5" y1="80.2" x2="402.1" y2="97.4"/>
	<line class="st4" x1="422.3" y1="40.8" x2="416.7" y2="78.7"/>
	<line class="st4" x1="428.9" y1="80.2" x2="424.3" y2="97.4"/>
	<line class="st4" x1="447" y1="61.5" x2="437.4" y2="85.8"/>
	<path class="st4" d="M572.3,252.5c2.7,17.7-60.5,42.3-141.3,54.8s-148.5,8.3-151.2-9.5"/>
	<path class="st4" d="M586.5,406c1.2,17.9-43,35.4-98.7,39.1s-101.8-7.8-103-25.7"/>
	<path class="st4" d="M579.9,437.1c-17.9,8.9-46.6,15.8-79.2,18"/>
	<path class="st4" d="M528.9,444.7c21.9-0.4,37.6,2.4,38.2,7.5c0.7,6.9-26,15.3-59.8,18.9s-61.7,0.9-62.4-6
		c-0.5-4.5,10.7-9.6,27.8-13.6"/>
	<ellipse class="st19" cx="561.5" cy="177.5" rx="10.5" ry="11.5"/>
	<path class="st1" d="M564.8,103.3c-2-1.1-3.6-4.3-4-8.5l-0.2-1.8l-0.2,1.8c-0.3,4.1-1.8,7.5-3.8,8.7l-1.8,1.1l1.1,0.5
		c2.3,1.1,4,5.1,4.2,9.9l0,0.4l0.5-3.1c0.5-3.4,1.8-6.1,3.4-7.3l1.8-1.3L564.8,103.3z"/>
	<path class="st1" d="M547.2,252.6c-1.3-0.7-2.3-2.8-2.6-5.4l-0.1-1.1l-0.1,1.1c-0.2,2.6-1.2,4.8-2.4,5.6l-1.1,0.7l0.7,0.3
		c1.5,0.7,2.6,3.3,2.7,6.3l0,0.3l0.3-2c0.3-2.2,1.1-3.9,2.2-4.6l1.2-0.8L547.2,252.6z"/>
	<path class="st1" d="M280.8,336.3c-2-1.1-3.6-4.3-4-8.5l-0.2-1.8l-0.2,1.8c-0.3,4.1-1.8,7.5-3.8,8.7l-1.8,1.1l1.1,0.5
		c2.3,1.1,4,5.1,4.2,9.9l0,0.4l0.5-3.1c0.5-3.4,1.8-6.1,3.4-7.3l1.8-1.3L280.8,336.3z"/>
	<path class="st4" d="M580.7,181.7c-0.7,3.2-9.4,4-19.4,1.7c-10-2.3-17.4-6.8-16.7-10"/>
	
		<image style="overflow:visible;" width="578" height="68" xlink:href="A963F13.jpg"  transform="matrix(0.7967 0 0 0.7967 183 498)">
	</image>
	<path class="st4" d="M166.6,297.6c36.3,7.3,34.2,53.1,77.4,57"/>
	<path class="st4" d="M143.2,297.3c37.9,8.6,46.6,59.4,84,67"/>
</g>
</svg>
