<?xml version="1.0" encoding="utf-8"?>
<!-- Generator: Adobe Illustrator 24.1.2, SVG Export Plug-In . SVG Version: 6.00 Build 0)  -->
<svg version="1.1" xmlns="http://www.w3.org/2000/svg" xmlns:xlink="http://www.w3.org/1999/xlink" x="0px" y="0px"
	 viewBox="0 0 644 391" style="enable-background:new 0 0 644 391;" xml:space="preserve">
<style type="text/css">
	.st0{fill-rule:evenodd;clip-rule:evenodd;fill:#17B1B1;}
	.st1{fill-rule:evenodd;clip-rule:evenodd;fill:#F6BE22;}
	.st2{fill-rule:evenodd;clip-rule:evenodd;fill:#FFFFFF;}
	
		.st3{fill-rule:evenodd;clip-rule:evenodd;fill:#FFFFFF;stroke:#000000;stroke-width:1.33;stroke-linecap:round;stroke-linejoin:round;}
	.st4{fill:none;stroke:#000000;stroke-width:1.33;stroke-linecap:round;stroke-linejoin:round;}
	.st5{fill:#030100;}
	.st6{fill-rule:evenodd;clip-rule:evenodd;fill:#FDD2E1;}
	.st7{fill-rule:evenodd;clip-rule:evenodd;fill:#0A0704;}
	.st8{fill-rule:evenodd;clip-rule:evenodd;fill:#030100;}
	.st9{fill-rule:evenodd;clip-rule:evenodd;fill:#230E04;}
	.st10{fill-rule:evenodd;clip-rule:evenodd;fill:#000047;}
	.st11{fill-rule:evenodd;clip-rule:evenodd;fill:#F51618;}
	.st12{fill-rule:evenodd;clip-rule:evenodd;fill:#919191;}
	
		.st13{fill-rule:evenodd;clip-rule:evenodd;fill:none;stroke:#FFFFFF;stroke-width:1.33;stroke-linecap:round;stroke-linejoin:round;}
	.st14{fill:none;stroke:#FFFFFF;stroke-width:1.33;stroke-linecap:round;stroke-linejoin:round;}
	.st15{fill:#FFFFFF;stroke:#000000;stroke-width:1.33;stroke-linecap:round;stroke-linejoin:round;}
	.st16{fill-rule:evenodd;clip-rule:evenodd;fill:#24160C;}
	.st17{fill:#0A0704;stroke:#0A0704;stroke-miterlimit:10;}
	.st18{fill:#F6BE22;}
	.st19{fill:#17B1B1;}
	.st20{fill-rule:evenodd;clip-rule:evenodd;fill:#FFBE00;}
	.st21{fill-rule:evenodd;clip-rule:evenodd;fill:none;stroke:#000000;stroke-linecap:round;stroke-linejoin:round;}
	.st22{fill:none;stroke:#1A1A1A;stroke-width:1.33;stroke-linecap:round;stroke-linejoin:round;}
	.st23{fill:#0A0704;}
	.st24{fill-rule:evenodd;clip-rule:evenodd;fill:#12847E;}
	.st25{fill:#F51618;}
	.st26{fill:none;stroke:#000000;stroke-miterlimit:10;}
	.st27{fill:#0092FF;}
	.st28{fill:#007994;}
	.st29{fill:none;stroke:#F6BE22;stroke-width:1.33;stroke-linecap:round;stroke-linejoin:round;}
	.st30{fill:#FDD2E1;}
	.st31{fill:#0C9390;}
	
		.st32{fill-rule:evenodd;clip-rule:evenodd;fill:none;stroke:#000000;stroke-width:1.33;stroke-linecap:round;stroke-linejoin:round;}
	.st33{fill:#A9D18F;}
	.st34{stroke:#000000;stroke-linejoin:round;}
	.st35{fill:#C5DFB5;}
	.st36{fill:#FFFA94;}
	.st37{fill-rule:evenodd;clip-rule:evenodd;fill:#0092FF;}
	
		.st38{fill-rule:evenodd;clip-rule:evenodd;fill:#A8A8A8;stroke:#000000;stroke-width:1.33;stroke-linecap:round;stroke-linejoin:round;}
	.st39{fill-rule:evenodd;clip-rule:evenodd;fill:#C5DFB5;}
	.st40{fill-rule:evenodd;clip-rule:evenodd;fill:#A9D18F;}
	.st41{fill:none;stroke:#0066CC;stroke-width:1.33;stroke-linecap:round;stroke-linejoin:round;stroke-miterlimit:10;}
	.st42{fill-rule:evenodd;clip-rule:evenodd;fill:#FFFA94;}
	.st43{fill:#5D5D5D;}
	.st44{clip-path:url(#SVGID_6_);fill:#FFFFFF;}
	.st45{fill-rule:evenodd;clip-rule:evenodd;fill:#00CB99;}
	.st46{fill:none;stroke:#00EDB3;stroke-width:7.42;stroke-linecap:round;stroke-linejoin:round;}
	.st47{fill-rule:evenodd;clip-rule:evenodd;fill:#4971AF;}
	.st48{fill-rule:evenodd;clip-rule:evenodd;fill:#282828;}
	.st49{fill:#FFFBF2;}
	.st50{fill-rule:evenodd;clip-rule:evenodd;fill:#3AE5BB;}
	.st51{fill-rule:evenodd;clip-rule:evenodd;fill:#514A45;}
	.st52{fill-rule:evenodd;clip-rule:evenodd;fill:#F9CB00;}
	.st53{fill-rule:evenodd;clip-rule:evenodd;fill:#05DBED;}
	.st54{fill-rule:evenodd;clip-rule:evenodd;fill:#E9B200;}
	.st55{clip-path:url(#SVGID_8_);}
	.st56{fill:none;stroke:#FFFFFF;stroke-width:3;stroke-linecap:round;stroke-linejoin:round;}
	.st57{fill:none;stroke:#E9B200;stroke-width:5;stroke-miterlimit:10;}
	.st58{fill-rule:evenodd;clip-rule:evenodd;fill:#00DB00;}
	.st59{fill:#00BC00;}
	.st60{fill:#00DB00;}
	.st61{fill:none;}
	.st62{fill:#F4BC23;}
	.st63{fill-rule:evenodd;clip-rule:evenodd;}
	.st64{fill-rule:evenodd;clip-rule:evenodd;fill:#0068AB;}
	.st65{fill:#BEC7C9;}
	.st66{fill:#0068AB;}
	.st67{fill:#005C89;}
	.st68{clip-path:url(#SVGID_10_);fill:none;stroke:#000000;stroke-width:1.33;stroke-linecap:round;stroke-linejoin:round;}
	.st69{fill:#E1A916;}
	.st70{opacity:0.55;}
	.st71{fill:#FDBE43;}
	.st72{fill:#FFFFFF;}
	.st73{fill:#0067A6;}
	.st74{fill:#54D900;}
	.st75{fill:#0068A7;}
	.st76{fill:#0068A5;}
	.st77{fill:#B8B8B8;}
	.st78{fill:#5C5C5C;}
	.st79{fill:#666464;}
	.st80{fill:#5A5959;}
	.st81{fill:#7C7B7B;}
	.st82{fill:#BCBCBC;}
	.st83{fill:#757575;}
	.st84{fill:#D3D0D0;}
	.st85{fill:#0068A4;}
	.st86{fill:#0067A4;}
	.st87{fill:#4AB000;}
	.st88{fill:#7DDF45;}
	.st89{fill:#7FDF47;}
	.st90{fill:#39BB49;}
	.st91{fill:#D5EADA;}
	.st92{fill:#CDE6D3;}
	.st93{fill:#84DA60;}
	.st94{fill:#D3EAD7;}
	.st95{fill:#4AC04D;}
	.st96{fill:#6FD150;}
	.st97{fill-rule:evenodd;clip-rule:evenodd;fill:#BEC7C9;}
	.st98{fill:#D0D1D6;}
	.st99{fill-rule:evenodd;clip-rule:evenodd;fill:#7394E3;}
	
		.st100{fill-rule:evenodd;clip-rule:evenodd;fill:#17B1B1;stroke:#000000;stroke-width:1.33;stroke-linecap:round;stroke-linejoin:round;}
	.st101{fill-rule:evenodd;clip-rule:evenodd;fill:#408E96;}
	.st102{clip-path:url(#SVGID_12_);}
	.st103{fill:#408E96;}
	.st104{clip-path:url(#SVGID_14_);}
	.st105{fill-rule:evenodd;clip-rule:evenodd;fill:#9AF4F1;}
	
		.st106{fill-rule:evenodd;clip-rule:evenodd;fill:#0A0704;stroke:#FFFFFF;stroke-width:1.33;stroke-linecap:round;stroke-linejoin:round;}
	
		.st107{fill-rule:evenodd;clip-rule:evenodd;fill:#F6BE22;stroke:#000000;stroke-width:1.33;stroke-linecap:round;stroke-linejoin:round;}
	.st108{fill-rule:evenodd;clip-rule:evenodd;fill:#FDFDFD;}
	.st109{fill-rule:evenodd;clip-rule:evenodd;stroke:#000000;stroke-width:1.33;stroke-linecap:round;stroke-linejoin:round;}
	.st110{fill-rule:evenodd;clip-rule:evenodd;fill:#F5F5F5;}
	.st111{fill:none;stroke:#F51618;stroke-width:1.33;stroke-linecap:round;stroke-linejoin:round;}
	.st112{clip-path:url(#SVGID_16_);}
	.st113{fill:none;stroke:#F6F6F6;stroke-width:1.33;stroke-linecap:round;stroke-linejoin:round;}
	.st114{fill-rule:evenodd;clip-rule:evenodd;fill:#373737;}
	.st115{fill-rule:evenodd;clip-rule:evenodd;fill:#118484;}
	.st116{fill-rule:evenodd;clip-rule:evenodd;fill:#DCB6C3;}
	.st117{fill-rule:evenodd;clip-rule:evenodd;fill:#262626;}
	.st118{fill-rule:evenodd;clip-rule:evenodd;fill:#D19F14;}
	
		.st119{fill-rule:evenodd;clip-rule:evenodd;fill:#0A0704;stroke:#000000;stroke-width:1.33;stroke-linecap:round;stroke-linejoin:round;}
	.st120{fill-rule:evenodd;clip-rule:evenodd;fill:#D2A21D;}
	.st121{fill:none;stroke:#000000;stroke-width:6.34;stroke-linecap:round;stroke-linejoin:round;}
	.st122{clip-path:url(#SVGID_18_);}
	.st123{fill-rule:evenodd;clip-rule:evenodd;fill:#F6C949;}
	.st124{fill-rule:evenodd;clip-rule:evenodd;fill:#F6F6F6;}
	.st125{fill-rule:evenodd;clip-rule:evenodd;fill:#FDD2E1;stroke:#000000;stroke-width:1.33;stroke-miterlimit:10;}
	.st126{fill-rule:evenodd;clip-rule:evenodd;stroke:#FFFFFF;stroke-width:1.33;stroke-linecap:round;stroke-linejoin:round;}
	
		.st127{fill-rule:evenodd;clip-rule:evenodd;fill:#FFFFFF;stroke:#0A0704;stroke-width:1.33;stroke-linecap:round;stroke-linejoin:round;}
	
		.st128{fill-rule:evenodd;clip-rule:evenodd;fill:#31B767;stroke:#000000;stroke-width:0.75;stroke-linecap:round;stroke-linejoin:round;}
	
		.st129{fill-rule:evenodd;clip-rule:evenodd;fill:#ECB82B;stroke:#000000;stroke-width:0.75;stroke-linecap:round;stroke-linejoin:round;}
	
		.st130{fill-rule:evenodd;clip-rule:evenodd;fill:#E9EBEF;stroke:#000000;stroke-width:0.75;stroke-linecap:round;stroke-linejoin:round;}
	.st131{fill:none;stroke:#000000;stroke-width:0.75;stroke-linecap:round;stroke-linejoin:round;}
	
		.st132{fill-rule:evenodd;clip-rule:evenodd;fill:#E9EBEF;stroke:#000000;stroke-width:1.33;stroke-linecap:round;stroke-linejoin:round;}
	.st133{fill-rule:evenodd;clip-rule:evenodd;fill:#D5CECE;}
	.st134{fill-rule:evenodd;clip-rule:evenodd;fill:#FBF7F7;}
	.st135{fill-rule:evenodd;clip-rule:evenodd;stroke:#000000;stroke-miterlimit:10;}
	.st136{fill-rule:evenodd;clip-rule:evenodd;fill:#FFFFFF;stroke:#000000;stroke-linecap:round;stroke-linejoin:round;}
	.st137{fill:none;stroke:#000000;stroke-linecap:round;stroke-linejoin:round;}
	.st138{fill:#D6AE03;}
	.st139{fill:#F9CB00;}
	.st140{fill-rule:evenodd;clip-rule:evenodd;fill:none;stroke:#000000;stroke-width:7;stroke-linecap:round;stroke-linejoin:round;}
	.st141{fill-rule:evenodd;clip-rule:evenodd;fill:#F7F7F7;}
	.st142{fill:#919191;}
	.st143{clip-path:url(#SVGID_20_);fill:none;stroke:#000000;stroke-width:1.33;stroke-linecap:round;stroke-linejoin:round;}
	.st144{fill:#F6E5DC;}
	.st145{fill:#F4AA1C;}
	.st146{fill:#FBBB1F;}
	.st147{fill:#007CFF;}
	.st148{fill:none;stroke:#000000;stroke-width:1.33;stroke-linecap:round;stroke-linejoin:round;stroke-dasharray:12,15;}
	.st149{fill:#FFBE00;}
	.st150{fill-rule:evenodd;clip-rule:evenodd;fill:#0A0704;stroke:#0A0704;stroke-miterlimit:10;}
	.st151{fill:#F51618;stroke:#000000;stroke-width:1.33;stroke-linecap:round;stroke-linejoin:round;}
	.st152{font-family:'Montserrat-LightItalic';}
	.st153{font-size:18.4072px;}
	.st154{font-family:'Montserrat-Regular';}
	.st155{font-size:33.6394px;}
	.st156{fill:#5CEAE6;}
	.st157{fill:none;stroke:#000000;stroke-linejoin:round;}
	.st158{fill-rule:evenodd;clip-rule:evenodd;fill:none;}
	.st159{clip-path:url(#SVGID_24_);fill:#FFFFFF;}
	.st160{clip-path:url(#SVGID_26_);fill:none;stroke:#000000;stroke-width:1.33;stroke-linecap:round;stroke-linejoin:round;}
	.st161{clip-path:url(#SVGID_28_);}
</style>
<g id="Guides_For_Artboard">
</g>
<g id="Layer_1">
	<g>
		<path class="st8" d="M165,159c-2,0.2-5.8,2.9-6,6c-0.4,5.5,3.8,11.8,6,14c2.7,2.7,7.9,13.9,11,14c6.1,0.2,11.4-17.7,10-22
			c-1.5-4.8-11.9-2.8-18-10C167.4,160.3,166.3,158.9,165,159z"/>
		<path class="st3" d="M198.5,212.2c-0.2-2-3.7-4.7-8.2-7.4c-3.2-1.8-5.3-5.2-5.5-8.9c-0.3-5.9-0.6-12.6-0.4-18.4
			c-3.6,0.6-10.8,2-10.8,2l-5.3,18c-6-0.1-12.7,0.9-13.3,3.5c-0.3,1.6,1.7,3.4,6.7,6.7c1.1,0.7,2.2,1.4,3.2,2.1
			c-1.6,8.4-2.3,24,15.9,22.9c1.5,1.3,2.9-5.4,3.9-11.6c3.7,1.3,6.7,1.4,9.2-0.2C197,219.3,198.8,215.5,198.5,212.2z"/>
		<path class="st3" d="M188.4,172.7c-0.7-0.8,0.9-2.5,2.3-1.8c1.6,0.6,2.2,3.4,1.5,4.6c-0.5,1-1.3,1.4-2.4,1.6"/>
		<path class="st3" d="M185.6,152.3c0,0,7.4,26.6,7.1,35.5c-0.3,6.8-14,10.9-17.9,4.8c-4.2-6.9-9.6-34.3-9.6-34.3L185.6,152.3z"/>
		<path class="st4" d="M183.4,172.9c0,0,4.6,4.1,1.6,5.6"/>
		<g>
			<path class="st9" d="M185.5,170.2c-0.1-0.5,0.1-0.9,0.5-1c0.4-0.1,0.8,0.1,1.1,0.6c0.1,0.5-0.1,0.9-0.4,1.1
				C186.1,170.9,185.7,170.7,185.5,170.2z"/>
			<path class="st9" d="M178,172.3c-0.1-0.5,0.1-0.9,0.5-1c0.4-0.1,0.8,0.1,1.1,0.6c0.1,0.5-0.1,0.9-0.5,1
				C178.5,173.1,178.1,172.9,178,172.3z"/>
		</g>
		<path class="st3" d="M171.5,174.8c-2-1.9-3,0-3.1,0.4c-1.2,3.2,2.5,6.3,4.3,3.6"/>
		<path class="st8" d="M171.5,175.1c0,0,0.7-11.3,2.1-12.7c3.5-3.6,10.1,2.2,17.5-5.6c2.5-2.8,1.7-7.4-1-9.3
			c-2.9-2.2-6.9-2.1-9.2,0.8c-0.3,0.3-0.3,1.1-0.5,1.3c-0.1,0.1-1.6-0.9-1.9-1c-1.2-0.2-2.7-0.2-3.7,0.1c-1.6,0.4-3.6,1.9-4,3.6
			c0,0.5,0.2,1.4,0,1.8c-0.2,0.2-0.8-0.4-1.1-0.4c-0.7-0.2-1.7-0.1-2.4,0c-2.6,0.2-4.6,3.1-4.6,5.6c0.1,3.9,1.6,5.9,3,9.3
			c0.6,1.3,2.2,5.8,2.2,5.8L171.5,175.1z"/>
		<path class="st4" d="M183.9,181.9c-1,0.4-5.6-1.1-5.6-3.3"/>
		<g>
			<path class="st3" d="M271.4,243c0.1-0.8-0.5-3.9-0.9-4.5c-3.2-5.4-4,9.4-0.1,7.2C271.7,245,271.3,244.4,271.4,243z"/>
			<path class="st3" d="M267.9,244.7c-0.8,1.5-4.1,3.1-4.9-0.2c-0.4-2,6.2-10.5,7.2-4.8C270.4,240.8,268.4,243.7,267.9,244.7z"/>
			<path class="st3" d="M196.7,277.5c19.4,14.9,62-28.6,62-28.6s3.5-3.4,3.9-5.6c0.9-4.9,2.2-11.6-2.1-11.5c-4.3,0.1-15,11-15,11
				s-21.4,9.3-28.7,11.4c0.4-0.1-2.4-28.7-6.2-35.7c-10-18-14.2-4.2-17-1l9.3,11.7C202.8,229.2,176.2,261.8,196.7,277.5z"/>
			<path class="st3" d="M261.8,246.1c-2.6,1.4-2.9-2.2-1.1-4.3c1.6-1.8,4-4.1,6.2-5C276.9,233.2,263.6,245.1,261.8,246.1z"/>
			<path class="st3" d="M258.8,239.1c2.1-1.8,4.5-3.2,7.3-3.4c2.3-0.2,11.7,1.3,13.2-0.9c1-1.5-7-2.6-7.8-2.8
				c-3.9-0.8-10.7-1.2-14.3,0.8"/>
			<path class="st3" d="M258.6,243.6c2.1-1.6,13-5.4,13.3-6.5c0.9-2.9-13.3-0.1-14.4,1"/>
		</g>
		<g>
			<defs>
				<path id="XMLID_35_" d="M201.2,222.7l3.3,20.7l-2.9,13.9l9.5,33.1h-83.7c0,0,12.9-76.8,12.9-79.1c0-2.3-0.7-11,9.9-12.2
					c3.4-0.4,12.6-2.7,12.6-2.7S182,212,183,212l9.5-8c0,0,12.6,4.9,12.9,6.8C206.7,217.2,201.2,222.7,201.2,222.7z"/>
			</defs>
			<use xlink:href="#XMLID_35_"  style="overflow:visible;fill-rule:evenodd;clip-rule:evenodd;fill:#F51618;"/>
			<clipPath id="XMLID_41_">
				<use xlink:href="#XMLID_35_"  style="overflow:visible;"/>
			</clipPath>
		</g>
		<path class="st3" d="M123.6,225.7c0,0,11.5-26.9,26.6-22.1c16.7,5.3,0,35,0,35l-11.4,26.6c0,0,26.1,8.3,40.4,11.7
			c1.9,0.2,5.6,0,8.9,1.1c4.3,1.4,22.7,6.9,22.2,9.3c-0.4,2.2-16-2.9-16-2.9c0,0,15.3,4,14.4,5.9c-0.8,1.8-8.5-0.8-15.2-2.3
			c6.7,3.2,7.2,3.2,6.9,4.7c-0.4,1.8-3.2-0.3-10.6-2.3c4.1,2,6.7,1.8,5.2,3c-1.4,1.1-0.8,0.8-9.4-2.1c-1.1-0.4-61.5,0.9-74.3-5.5
			C101.6,280.5,123.6,225.7,123.6,225.7z"/>
		<path class="st4" d="M201.5,256.9l2.6-7.7c1.2-3.7,1.4-7.6,0.7-11.4l-3.2-15.3"/>
		<line class="st4" x1="196.4" y1="205.6" x2="190.3" y2="212.5"/>
		<line class="st4" x1="207.6" y1="278" x2="202.6" y2="260.8"/>
		<path class="st11" d="M147,200c-4.2,0.2-7,2-10,4c-12.4,8.2-21.6,28.9-23,33c15.3,4.3,29.7,3.7,45,8c1.1-1.7,10.3-16.5,4-32
			C160.3,206.4,149.8,202.2,147,200z"/>
		<path class="st11" d="M201,208l4,2.2c4.5,2.4,7.6,6.7,8.6,11.7L216,234l-16,6l-5-18L201,208z"/>
		<polyline class="st4" points="157.5,227.5 152.2,243.1 148.9,243.1 		"/>
	</g>
	<g>
		<g>
			<path class="st140" d="M501.5,228.5l31.8,1c7.8,0,14.2,4.8,14.2,10.6v11c0,5.9-6.4,10.6-14.2,10.6h-56.6
				c-7.8,0-14.2,4.8-14.2,10.6v0.6"/>
			<path class="st25" d="M466.1,278h-7.1c-1.9,0-3.5-1.6-3.5-3.5v-2c0-1.9,1.6-3.5,3.5-3.5h7.1c1.9,0,3.5,1.6,3.5,3.5v2
				C469.6,276.4,468,278,466.1,278z"/>
			<path class="st140" d="M451.5,284.5L451.5,284.5c0-3.9,3.1-7,7-7h8c3.9,0,7,3.1,7,7l0,0"/>
		</g>
		<g>
			<path class="st25" d="M502,271h5c6.6,0,12-5.4,12-12v-19c0-6.6-5.4-12-12-12h-5c-6.6,0-12,5.4-12,12v19
				C490,265.6,495.4,271,502,271z"/>
			<line class="st32" x1="468.5" y1="155.5" x2="476.5" y2="155.5"/>
			<rect x="423" y="186" transform="matrix(-1 -4.448276e-11 4.448276e-11 -1 868 414)" class="st8" width="22" height="42"/>
			<path class="st0" d="M423.1,138h21.8c1.7,0,3.1-1.4,3.1-3.1v-13.8c0-1.7-1.4-3.1-3.1-3.1h-21.8c-1.7,0-3.1,1.4-3.1,3.1v13.8
				C420,136.6,421.4,138,423.1,138z"/>
			<path class="st0" d="M417.1,138h21.8c1.7,0,3.1-1.4,3.1-3.1v-13.8c0-1.7-1.4-3.1-3.1-3.1h-21.8c-1.7,0-3.1,1.4-3.1,3.1v13.8
				C414,136.6,415.4,138,417.1,138z"/>
			<path class="st32" d="M423.1,118c-1.7,0-3.1,1.4-3.1,3.1v13.8c0,1.7,1.4,3.1,3.1,3.1h21.8"/>
			<path class="st0" d="M400,207h60c6.6,0,12-5.4,12-12v-52c0-6.6-5.4-12-12-12h-60c-6.6,0-12,5.4-12,12v52
				C388,201.6,393.4,207,400,207z"/>
			<path class="st32" d="M411,131c-6.6,0-12,5.4-12,12v52c0,6.6,5.4,12,12,12"/>
			<path class="st72" d="M420.6,180h35.9c4.2,0,7.6-3.4,7.6-7.6v-23.9c0-4.2-3.4-7.6-7.6-7.6h-35.9c-4.2,0-7.6,3.4-7.6,7.6v23.9
				C413,176.6,416.4,180,420.6,180z"/>
			<path class="st0" d="M363,292h135c6.6,0,12-5.4,12-12v-48c0-6.6-5.4-12-12-12H363c-6.6,0-12,5.4-12,12v48
				C351,286.6,356.4,292,363,292z"/>
			<path class="st32" d="M400,220c-6.6,0-12,5.4-12,12v48c0,6.6,5.4,12,12,12h98"/>
			<g>
				<circle class="st32" cx="432.5" cy="107" r="5.5"/>
				<line class="st32" x1="432.5" y1="112.5" x2="432.5" y2="119.5"/>
			</g>
			<g>
				<g>
					<path d="M431.1,158.9c-2.3-0.3-3.8-3.5-2.6-5.4c0.8-1.2,2.6-1.9,4.1-1.3c1.9,0.7,2.8,3,1.9,4.8
						C433.9,158.3,432.4,159.1,431.1,158.9z"/>
				</g>
				<g>
					<path d="M447.7,160.6c-2.3-0.3-3.8-3.5-2.6-5.4c0.8-1.2,2.6-1.9,4.1-1.3c1.9,0.7,2.8,3,1.9,4.8
						C450.5,160,449,160.8,447.7,160.6z"/>
				</g>
				<path class="st4" d="M426,162.9c2.4,2.7,6.1,4.1,9.7,3.7"/>
			</g>
			<path class="st25" d="M414,220h42c0.5,0,1-0.4,1-1l0,0c0-0.6-0.5-1-1-1h-42c-0.5,0-1,0.4-1,1l0,0C413,219.6,413.5,220,414,220z"
				/>
			<path class="st25" d="M422,209h24c0.5,0,1-0.4,1-1l0,0c0-0.6-0.5-1-1-1h-24c-0.5,0-1,0.4-1,1l0,0C421,208.5,421.5,209,422,209z"
				/>
			<path class="st4" d="M464,148.6c0-4.2-3.4-7.6-7.6-7.6"/>
			<line class="st4" x1="464" y1="172.4" x2="464" y2="148.6"/>
			<path class="st4" d="M456.4,180c4.2,0,7.6-3.4,7.6-7.6"/>
			<path class="st25" d="M360,263h5c6.6,0,12-5.4,12-12v-19c0-6.6-5.4-12-12-12h-5c-6.6,0-12,5.4-12,12v19
				C348,257.6,353.4,263,360,263z"/>
			<path class="st32" d="M429,117.5h7c0.8,0,1.5-0.7,1.5-1.5l0,0c0-0.8-0.7-1.5-1.5-1.5h-7c-0.8,0-1.5,0.7-1.5,1.5l0,0
				C427.5,116.8,428.2,117.5,429,117.5z"/>
			<line class="st32" x1="395.5" y1="155.5" x2="384.5" y2="155.5"/>
			<path class="st32" d="M383,160.5L383,160.5c0.8,0,1.5-0.7,1.5-1.5v-7c0-0.8-0.7-1.5-1.5-1.5l0,0c-0.8,0-1.5,0.7-1.5,1.5v7
				C381.5,159.8,382.2,160.5,383,160.5z"/>
			<path class="st32" d="M478,160.5L478,160.5c0.8,0,1.5-0.7,1.5-1.5v-7c0-0.8-0.7-1.5-1.5-1.5l0,0c-0.8,0-1.5,0.7-1.5,1.5v7
				C476.5,159.8,477.2,160.5,478,160.5z"/>
			<path class="st2" d="M431.5,246h62c3.6,0,6.5-2.9,6.5-6.5v0c0-3.6-2.9-6.5-6.5-6.5h-62c-3.6,0-6.5,2.9-6.5,6.5v0
				C425,243.1,427.9,246,431.5,246z"/>
			<path class="st29" d="M488.6,239.6l-2.4,0.5c-3.1,0.7-6.2,0.3-9.1-1l-0.1-0.1c-1.2-0.5-2.4-0.9-3.6-1.1l-1.1-0.2
				c-2.4-0.4-4.8-0.2-7.1,0.6l-3.3,1.1l-3,0.9c-3,0.9-6.1,0.9-9.1-0.1v0c-1.5-0.5-3.1-0.8-4.7-0.8h-3.5"/>
			<circle class="st25" cx="409.5" cy="239.5" r="5.5"/>
			<line class="st32" x1="498.5" y1="260.5" x2="476.5" y2="260.5"/>
			<line class="st32" x1="432.5" y1="260.5" x2="404.5" y2="260.5"/>
			<g>
				<line class="st4" x1="429.5" y1="187" x2="429.5" y2="197.5"/>
				<line class="st4" x1="435.5" y1="187" x2="435.5" y2="197.5"/>
				<line class="st4" x1="441.5" y1="187" x2="441.5" y2="197.5"/>
				<line class="st4" x1="447.5" y1="187" x2="447.5" y2="197.5"/>
			</g>
		</g>
		<g>
			<path class="st140" d="M362.5,229.5h-19.8c-7.8,0-14.2,4.8-14.2,10.6v11c0,5.9,6.4,10.6,14.2,10.6h56.6c7.8,0,14.2,4.8,14.2,10.6
				v0.6"/>
			<path class="st25" d="M409.9,278h7.1c1.9,0,3.5-1.6,3.5-3.5v-2c0-1.9-1.6-3.5-3.5-3.5h-7.1c-1.9,0-3.5,1.6-3.5,3.5v2
				C406.4,276.4,408,278,409.9,278z"/>
			<path class="st140" d="M424.5,284.5L424.5,284.5c0-3.9-3.1-7-7-7h-8c-3.9,0-7,3.1-7,7l0,0"/>
		</g>
		<g>
			<polygon class="st8" points="527.2,291.1 413.9,291.1 429.8,228.1 543.1,228.1 			"/>
			
				<rect x="389.4" y="283.5" transform="matrix(-1 -4.493795e-11 4.493795e-11 -1 871.1698 574.6063)" class="st8" width="92.3" height="7.6"/>
			<polyline class="st13" points="435.2,228.1 419.2,291.5 389,291.5 			"/>
			<ellipse class="st13" cx="484.7" cy="257.5" rx="10.1" ry="8.8"/>
		</g>
	</g>
	<g>
		<polygon class="st12" points="302.2,291.1 188.9,291.1 204.8,228.1 318.1,228.1 		"/>
		
			<rect x="164.4" y="283.5" transform="matrix(-1 -4.493795e-11 4.493795e-11 -1 421.1698 574.6063)" class="st12" width="92.3" height="7.6"/>
		<polyline class="st13" points="210.2,228.1 194.2,291.5 164,291.5 		"/>
		<ellipse class="st13" cx="259.7" cy="257.5" rx="10.1" ry="8.8"/>
	</g>
	<g>
		<polygon class="st1" points="88.9,291.1 550.7,291.4 537.9,326.2 76.1,326 		"/>
		<polyline class="st4" points="144.8,324.8 154.1,300.2 547.4,300.2 		"/>
	</g>
	<g>
		<polygon class="st3" points="303,144 225,144 239,71 317,71 		"/>
		<path class="st32" d="M295.5,107.3c0,13.4-10.9,24.3-24.3,24.3"/>
		<path class="st32" d="M271.3,83c13.4,0,24.3,10.9,24.3,24.3"/>
		<path class="st32" d="M247,107.3c0-13.4,10.9-24.3,24.3-24.3"/>
		<path class="st0" d="M257,107.4c0.1,7.6,6.1,13.7,13.6,14.1v-14.1H257z"/>
		<path class="st11" d="M270.6,93c-7.5,0.4-13.6,6.6-13.6,14.2c0,0.1,0,0.1,0,0.2h13.6V93z"/>
		<path class="st8" d="M285.5,107.3c0-7.9-6.4-14.3-14.3-14.3c-0.2,0-0.5,0-0.7,0v14.4h14.9C285.5,107.4,285.5,107.3,285.5,107.3z"
			/>
		<path class="st6" d="M270.6,107.4v14.1c0.2,0,0.5,0,0.7,0c7.8,0,14.2-6.3,14.2-14.1H270.6z"/>
		<path class="st25" d="M285,129L285,129c-1.1,0-2-0.9-2-2l0,0c0-1.1,0.9-2,2-2l0,0c1.1,0,2,0.9,2,2l0,0
			C287,128.1,286.1,129,285,129z"/>
		<path class="st25" d="M327,129h-32c-1.1,0-2-0.9-2-2l0,0c0-1.1,0.9-2,2-2h32c1.1,0,2,0.9,2,2l0,0C329,128.1,328.1,129,327,129z"/>
		<path class="st25" d="M308,135h-13c-1.1,0-2-0.9-2-2l0,0c0-1.1,0.9-2,2-2h13c1.1,0,2,0.9,2,2l0,0C310,134.1,309.1,135,308,135z"/>
	</g>
	<path class="st32" d="M260.3,165.3c9.8,6.8,22.9,2.5,31-4.9"/>
	<path class="st32" d="M348.4,106.2c5-1,9.3-4.1,13-7.5s7-7.4,10.9-10.6c3.9-3.2,8.6-5.8,13.7-6c5.1-0.1,10.4,2.8,12,7.6
		c1.5,4.8-2.1,10.9-7.2,10.9c-5.3-0.1-8.7-7.1-6.4-11.8c2.4-4.8,8.7-6.7,13.8-5.3c5.1,1.5,9.1,5.6,11.8,10.2"/>
	<image style="overflow:visible;" width="624" height="59" xlink:href="B26767F2.jpg"  transform="matrix(1 0 0 1 7 332)">
	</image>
	<g>
		<g>
			<g>
				<circle class="st32" cx="506" cy="84.9" r="5.6"/>
				<circle class="st32" cx="506" cy="84.9" r="22.2"/>
				<circle class="st32" cx="506" cy="84.9" r="26"/>
				<line class="st32" x1="505.6" y1="52.9" x2="505.6" y2="58.9"/>
				<line class="st32" x1="501.8" y1="52.1" x2="509.4" y2="52.1"/>
				<line class="st32" x1="511.6" y1="82.3" x2="518.4" y2="78.5"/>
				<line class="st32" x1="529" y1="72.4" x2="532.7" y2="70.2"/>
				<circle class="st32" cx="535.4" cy="69.1" r="2.6"/>
			</g>
			<rect x="471" y="73" class="st72" width="22" height="22"/>
			<line class="st32" x1="475.5" y1="77.5" x2="486.5" y2="77.5"/>
			<line class="st32" x1="479.5" y1="84.5" x2="490.5" y2="84.5"/>
			<line class="st32" x1="472.5" y1="89.5" x2="483.5" y2="89.5"/>
		</g>
		<g>
			<text transform="matrix(1 0 0 1 535.5061 106.2723)" class="st152 st153">50x</text>
		</g>
		<g>
			<text transform="matrix(1 0 0 1 490.5059 145.2188)" class="st154 st155">100%</text>
		</g>
	</g>
</g>
</svg>
