<?xml version="1.0" encoding="utf-8"?>
<!-- Generator: Adobe Illustrator 24.1.2, SVG Export Plug-In . SVG Version: 6.00 Build 0)  -->
<svg version="1.1" xmlns="http://www.w3.org/2000/svg" xmlns:xlink="http://www.w3.org/1999/xlink" x="0px" y="0px"
	 viewBox="0 0 388 328" style="enable-background:new 0 0 388 328;" xml:space="preserve">
<style type="text/css">
	.st0{fill-rule:evenodd;clip-rule:evenodd;fill:#17B1B1;}
	.st1{fill-rule:evenodd;clip-rule:evenodd;fill:#F6BE22;}
	.st2{fill-rule:evenodd;clip-rule:evenodd;fill:#FFFFFF;}
	
		.st3{fill-rule:evenodd;clip-rule:evenodd;fill:#FFFFFF;stroke:#000000;stroke-width:1.33;stroke-linecap:round;stroke-linejoin:round;}
	.st4{fill:none;stroke:#000000;stroke-width:1.33;stroke-linecap:round;stroke-linejoin:round;}
	.st5{fill:#030100;}
	.st6{fill-rule:evenodd;clip-rule:evenodd;fill:#FDD2E1;}
	.st7{fill-rule:evenodd;clip-rule:evenodd;fill:#0A0704;}
	.st8{fill-rule:evenodd;clip-rule:evenodd;fill:#030100;}
	.st9{fill-rule:evenodd;clip-rule:evenodd;fill:#230E04;}
	.st10{fill-rule:evenodd;clip-rule:evenodd;fill:#000047;}
	.st11{fill-rule:evenodd;clip-rule:evenodd;fill:#F51618;}
	.st12{fill-rule:evenodd;clip-rule:evenodd;fill:#919191;}
	
		.st13{fill-rule:evenodd;clip-rule:evenodd;fill:none;stroke:#FFFFFF;stroke-width:1.33;stroke-linecap:round;stroke-linejoin:round;}
	.st14{fill:none;stroke:#FFFFFF;stroke-width:1.33;stroke-linecap:round;stroke-linejoin:round;}
	.st15{fill:#FFFFFF;stroke:#000000;stroke-width:1.33;stroke-linecap:round;stroke-linejoin:round;}
	.st16{fill-rule:evenodd;clip-rule:evenodd;fill:#24160C;}
	.st17{fill:#0A0704;stroke:#0A0704;stroke-miterlimit:10;}
	.st18{fill:#F6BE22;}
	.st19{fill:#17B1B1;}
	.st20{fill-rule:evenodd;clip-rule:evenodd;fill:#FFBE00;}
	.st21{fill-rule:evenodd;clip-rule:evenodd;fill:none;stroke:#000000;stroke-linecap:round;stroke-linejoin:round;}
	.st22{fill:none;stroke:#1A1A1A;stroke-width:1.33;stroke-linecap:round;stroke-linejoin:round;}
	.st23{fill:#0A0704;}
	.st24{fill-rule:evenodd;clip-rule:evenodd;fill:#12847E;}
	.st25{fill:#F51618;}
	.st26{fill:none;stroke:#000000;stroke-miterlimit:10;}
	.st27{fill:#0092FF;}
	.st28{fill:#007994;}
	.st29{fill:none;stroke:#F6BE22;stroke-width:1.33;stroke-linecap:round;stroke-linejoin:round;}
	.st30{fill:#FDD2E1;}
	.st31{fill:#0C9390;}
	
		.st32{fill-rule:evenodd;clip-rule:evenodd;fill:none;stroke:#000000;stroke-width:1.33;stroke-linecap:round;stroke-linejoin:round;}
	.st33{fill:#A9D18F;}
	.st34{stroke:#000000;stroke-linejoin:round;}
	.st35{fill:#C5DFB5;}
	.st36{fill:#FFFA94;}
	.st37{fill-rule:evenodd;clip-rule:evenodd;fill:#0092FF;}
	
		.st38{fill-rule:evenodd;clip-rule:evenodd;fill:#A8A8A8;stroke:#000000;stroke-width:1.33;stroke-linecap:round;stroke-linejoin:round;}
	.st39{fill-rule:evenodd;clip-rule:evenodd;fill:#C5DFB5;}
	.st40{fill-rule:evenodd;clip-rule:evenodd;fill:#A9D18F;}
	.st41{fill:none;stroke:#0066CC;stroke-width:1.33;stroke-linecap:round;stroke-linejoin:round;stroke-miterlimit:10;}
	.st42{fill-rule:evenodd;clip-rule:evenodd;fill:#FFFA94;}
	.st43{fill:#5D5D5D;}
	.st44{clip-path:url(#SVGID_6_);fill:#FFFFFF;}
	.st45{fill-rule:evenodd;clip-rule:evenodd;fill:#00CB99;}
	.st46{fill:none;stroke:#00EDB3;stroke-width:7.42;stroke-linecap:round;stroke-linejoin:round;}
	.st47{fill-rule:evenodd;clip-rule:evenodd;fill:#4971AF;}
	.st48{fill-rule:evenodd;clip-rule:evenodd;fill:#282828;}
	.st49{fill:#FFFBF2;}
	.st50{fill-rule:evenodd;clip-rule:evenodd;fill:#3AE5BB;}
	.st51{fill-rule:evenodd;clip-rule:evenodd;fill:#514A45;}
	.st52{fill-rule:evenodd;clip-rule:evenodd;fill:#F9CB00;}
	.st53{fill-rule:evenodd;clip-rule:evenodd;fill:#05DBED;}
	.st54{fill-rule:evenodd;clip-rule:evenodd;fill:#E9B200;}
	.st55{clip-path:url(#SVGID_8_);}
	.st56{fill:none;stroke:#FFFFFF;stroke-width:3;stroke-linecap:round;stroke-linejoin:round;}
	.st57{fill:none;stroke:#E9B200;stroke-width:5;stroke-miterlimit:10;}
	.st58{fill-rule:evenodd;clip-rule:evenodd;fill:#00DB00;}
	.st59{fill:#00BC00;}
	.st60{fill:#00DB00;}
	.st61{fill:none;}
	.st62{fill:#F4BC23;}
	.st63{fill-rule:evenodd;clip-rule:evenodd;}
	.st64{fill-rule:evenodd;clip-rule:evenodd;fill:#0068AB;}
	.st65{fill:#BEC7C9;}
	.st66{fill:#0068AB;}
	.st67{fill:#005C89;}
	.st68{clip-path:url(#SVGID_10_);fill:none;stroke:#000000;stroke-width:1.33;stroke-linecap:round;stroke-linejoin:round;}
	.st69{fill:#E1A916;}
	.st70{opacity:0.55;}
	.st71{fill:#FDBE43;}
	.st72{fill:#FFFFFF;}
	.st73{fill:#0067A6;}
	.st74{fill:#54D900;}
	.st75{fill:#0068A7;}
	.st76{fill:#0068A5;}
	.st77{fill:#B8B8B8;}
	.st78{fill:#5C5C5C;}
	.st79{fill:#666464;}
	.st80{fill:#5A5959;}
	.st81{fill:#7C7B7B;}
	.st82{fill:#BCBCBC;}
	.st83{fill:#757575;}
	.st84{fill:#D3D0D0;}
	.st85{fill:#0068A4;}
	.st86{fill:#0067A4;}
	.st87{fill:#4AB000;}
	.st88{fill:#7DDF45;}
	.st89{fill:#7FDF47;}
	.st90{fill:#39BB49;}
	.st91{fill:#D5EADA;}
	.st92{fill:#CDE6D3;}
	.st93{fill:#84DA60;}
	.st94{fill:#D3EAD7;}
	.st95{fill:#4AC04D;}
	.st96{fill:#6FD150;}
	.st97{fill-rule:evenodd;clip-rule:evenodd;fill:#BEC7C9;}
	.st98{fill:#D0D1D6;}
	.st99{fill-rule:evenodd;clip-rule:evenodd;fill:#7394E3;}
	
		.st100{fill-rule:evenodd;clip-rule:evenodd;fill:#17B1B1;stroke:#000000;stroke-width:1.33;stroke-linecap:round;stroke-linejoin:round;}
	.st101{fill-rule:evenodd;clip-rule:evenodd;fill:#408E96;}
	.st102{clip-path:url(#SVGID_12_);}
	.st103{fill:#408E96;}
	.st104{clip-path:url(#SVGID_14_);}
	.st105{fill-rule:evenodd;clip-rule:evenodd;fill:#9AF4F1;}
	
		.st106{fill-rule:evenodd;clip-rule:evenodd;fill:#0A0704;stroke:#FFFFFF;stroke-width:1.33;stroke-linecap:round;stroke-linejoin:round;}
	
		.st107{fill-rule:evenodd;clip-rule:evenodd;fill:#F6BE22;stroke:#000000;stroke-width:1.33;stroke-linecap:round;stroke-linejoin:round;}
	.st108{fill-rule:evenodd;clip-rule:evenodd;fill:#FDFDFD;}
	.st109{fill-rule:evenodd;clip-rule:evenodd;stroke:#000000;stroke-width:1.33;stroke-linecap:round;stroke-linejoin:round;}
	.st110{fill-rule:evenodd;clip-rule:evenodd;fill:#F5F5F5;}
	.st111{fill:none;stroke:#F51618;stroke-width:1.33;stroke-linecap:round;stroke-linejoin:round;}
	.st112{clip-path:url(#SVGID_16_);}
	.st113{fill:none;stroke:#F6F6F6;stroke-width:1.33;stroke-linecap:round;stroke-linejoin:round;}
	.st114{fill-rule:evenodd;clip-rule:evenodd;fill:#373737;}
	.st115{fill-rule:evenodd;clip-rule:evenodd;fill:#118484;}
	.st116{fill-rule:evenodd;clip-rule:evenodd;fill:#DCB6C3;}
	.st117{fill-rule:evenodd;clip-rule:evenodd;fill:#262626;}
	.st118{fill-rule:evenodd;clip-rule:evenodd;fill:#D19F14;}
	
		.st119{fill-rule:evenodd;clip-rule:evenodd;fill:#0A0704;stroke:#000000;stroke-width:1.33;stroke-linecap:round;stroke-linejoin:round;}
	.st120{fill-rule:evenodd;clip-rule:evenodd;fill:#D2A21D;}
	.st121{fill:none;stroke:#000000;stroke-width:6.34;stroke-linecap:round;stroke-linejoin:round;}
	.st122{clip-path:url(#SVGID_18_);}
	.st123{fill-rule:evenodd;clip-rule:evenodd;fill:#F6C949;}
	.st124{fill-rule:evenodd;clip-rule:evenodd;fill:#F6F6F6;}
	.st125{fill-rule:evenodd;clip-rule:evenodd;fill:#FDD2E1;stroke:#000000;stroke-width:1.33;stroke-miterlimit:10;}
	.st126{fill-rule:evenodd;clip-rule:evenodd;stroke:#FFFFFF;stroke-width:1.33;stroke-linecap:round;stroke-linejoin:round;}
	
		.st127{fill-rule:evenodd;clip-rule:evenodd;fill:#FFFFFF;stroke:#0A0704;stroke-width:1.33;stroke-linecap:round;stroke-linejoin:round;}
	
		.st128{fill-rule:evenodd;clip-rule:evenodd;fill:#31B767;stroke:#000000;stroke-width:0.75;stroke-linecap:round;stroke-linejoin:round;}
	
		.st129{fill-rule:evenodd;clip-rule:evenodd;fill:#ECB82B;stroke:#000000;stroke-width:0.75;stroke-linecap:round;stroke-linejoin:round;}
	
		.st130{fill-rule:evenodd;clip-rule:evenodd;fill:#E9EBEF;stroke:#000000;stroke-width:0.75;stroke-linecap:round;stroke-linejoin:round;}
	.st131{fill:none;stroke:#000000;stroke-width:0.75;stroke-linecap:round;stroke-linejoin:round;}
	
		.st132{fill-rule:evenodd;clip-rule:evenodd;fill:#E9EBEF;stroke:#000000;stroke-width:1.33;stroke-linecap:round;stroke-linejoin:round;}
	.st133{fill-rule:evenodd;clip-rule:evenodd;fill:#D5CECE;}
	.st134{fill-rule:evenodd;clip-rule:evenodd;fill:#FBF7F7;}
	.st135{fill-rule:evenodd;clip-rule:evenodd;stroke:#000000;stroke-miterlimit:10;}
	.st136{fill-rule:evenodd;clip-rule:evenodd;fill:#FFFFFF;stroke:#000000;stroke-linecap:round;stroke-linejoin:round;}
	.st137{fill:none;stroke:#000000;stroke-linecap:round;stroke-linejoin:round;}
	.st138{fill:#D6AE03;}
	.st139{fill:#F9CB00;}
	.st140{fill-rule:evenodd;clip-rule:evenodd;fill:none;stroke:#000000;stroke-width:7;stroke-linecap:round;stroke-linejoin:round;}
	.st141{fill-rule:evenodd;clip-rule:evenodd;fill:#F7F7F7;}
	.st142{fill:#919191;}
	.st143{clip-path:url(#SVGID_20_);fill:none;stroke:#000000;stroke-width:1.33;stroke-linecap:round;stroke-linejoin:round;}
	.st144{fill:#F6E5DC;}
	.st145{fill:#F4AA1C;}
	.st146{fill:#FBBB1F;}
	.st147{fill:#007CFF;}
	.st148{fill:none;stroke:#000000;stroke-width:1.33;stroke-linecap:round;stroke-linejoin:round;stroke-dasharray:12,15;}
	.st149{fill:#FFBE00;}
	.st150{fill-rule:evenodd;clip-rule:evenodd;fill:#0A0704;stroke:#0A0704;stroke-miterlimit:10;}
	.st151{fill:#F51618;stroke:#000000;stroke-width:1.33;stroke-linecap:round;stroke-linejoin:round;}
	.st152{fill:#5CEAE6;}
	.st153{fill:none;stroke:#000000;stroke-linejoin:round;}
	.st154{fill-rule:evenodd;clip-rule:evenodd;fill:none;}
	.st155{clip-path:url(#SVGID_24_);fill:#FFFFFF;}
	.st156{clip-path:url(#SVGID_26_);fill:none;stroke:#000000;stroke-width:1.33;stroke-linecap:round;stroke-linejoin:round;}
	.st157{clip-path:url(#SVGID_28_);}
</style>
<g id="Guides_For_Artboard">
</g>
<g id="Layer_1">
	<g>
		<path class="st3" d="M209.4,118.8l12.6-2l8.6,5.2l23.8-9.8L266.2,97c0,0,2.9-6.4,7-7.8c1.9,2.3,1.6,5.5,3.7,7.7l-0.2,0.1
			c0,0,0.1,0,0.2-0.1c0.9,1,2.9-1,3.9-0.1l-3,3.7c0,0-11.7,18.6-14.2,21.2c-2.6,2.6-41.4,21.9-45.6,19.1
			C213.7,137.9,209.4,118.8,209.4,118.8z"/>
		<path class="st3" d="M230.7,115c-0.4-3-0.1-4.6,0.2-6.8c0.6-4.7,1-9.7,1-9.7s-3.2-2.3-4.9-3.5c-3.5,7.4-2.4,7.4-9.3,15.6
			c-1.9,2.2-18.9,4.9-18.9,4.9s0.3,2.7,0,3.5c-7.6,17.1,20.8,32.3,20.8,32.3l16-23.5C235.6,127.8,233.9,120.7,230.7,115z"/>
		<path class="st3" d="M266.9,98.4l-1.4-10.5c0,0,1.5-0.6,2.6,0.9c1.1,1.5,1.1,4.2,1.1,4.2"/>
		<path class="st7" d="M181.2,162.3c0,0-5.5,29.9,0.3,33.3c5.8,3.3,15.6,2.1,15.6,2.1l29.8,11.5l40.5-9.6c2.4-0.6,4.1-2.6,4.4-5
			c0.6-5.3,1-14.5-2.3-18.9c-4.7-6.4-73.1-14.8-73.1-14.8L181.2,162.3z"/>
		<path class="st3" d="M210.6,193.9c0,0-15.8,4.5-16.8,6.2c-1.1,1.8,2.6,10.1,4.8,15.4c2.2,5.2,3.4,9.2,3.4,9.2l25.1-0.1l2.4-3.6
			l-7.2-2.2l-6.6-6.7l9.3-3.6L210.6,193.9z"/>
		<path class="st1" d="M201,194.6l-9.3,5.2l10.6,25.1l26,0.5c0,0,2.9-2.6,1.7-4.4c-1.3-1.8-6.1-2.3-6.1-2.3s-3.1-2-4.5-3.5
			c-1.4-1.5-1.6-4-1.6-4L201,194.6z"/>
		<path class="st4" d="M193.1,199.1l10.4,24.3l26,0.5"/>
		<path class="st4" d="M194.5,198.2l10.2,23.5l25.6,0.5"/>
		<path class="st4" d="M216.3,215.5c0.5-0.2,2.2-1.1,2.2-1.1"/>
		<path class="st4" d="M217.2,217l2.5-1.5"/>
		<path class="st4" d="M218.7,218.2c0.6-0.4,2.3-1.5,2.3-1.5"/>
		<path class="st11" d="M163.5,167.8c0.4-1.7,6.4-26.8,19.1-40.5c12.5-13.6,20.4-15.3,30.1-16.2c1.1-0.1,12.8,17.3,12.8,17.3
			l9.1-7.9c2.5,2.4,5.1,13.4,2.2,21.9c-0.7,2.1,2.4,9.1,2.4,9.1l-8.8,13.3c-0.6,0.6-3.7-3.7-3.7-3.7l-2.3,9.9
			C224.3,170.8,163.1,169.5,163.5,167.8z"/>
		<line class="st32" x1="212.2" y1="115.5" x2="223.7" y2="133"/>
		<path class="st3" d="M234.9,107.1c1.2,1.4,3.2-0.5,2.3-1.8c-0.2-0.3-0.7-0.5-1-0.5"/>
		<path class="st3" d="M240.3,95.4c-2.5,8-5.4,14.6-6.7,16.8c-1.9,3.1-5.3,3.1-7.5,2.3c-2.3-0.9-4.5-3.3-3.3-6.9
			c1.4-4.1,5-12.9,6-14.3c1-1.4,3.1-2.7,5.6-3.1C237.6,89.6,241,93,240.3,95.4z"/>
		<path class="st4" d="M233.5,104.1c0,0,1.1,4.2-1.5,2.5"/>
		<path class="st7" d="M231.9,103c0.1-0.2,0-0.5-0.2-0.6c-0.2-0.1-0.5,0-0.6,0.3c-0.1,0.3,0,0.5,0.2,0.6
			C231.6,103.4,231.8,103.3,231.9,103z"/>
		<path class="st7" d="M236.1,104.4c0.1-0.3,0-0.5-0.2-0.6c-0.2-0.1-0.5,0-0.6,0.3c-0.1,0.3,0,0.5,0.2,0.6
			C235.7,104.8,236,104.6,236.1,104.4z"/>
		<path class="st3" d="M225.1,104.2c-1.9,0.3-2.1-2.4-0.5-2.7c0.4-0.1,0.8,0.1,1.1,0.3"/>
		<path class="st99" d="M233.7,107.6c0-0.1,0.1-0.1,0.1-0.2"/>
		<path class="st1" d="M242.9,100.7c-5.5,3.9-12.2-5-12.2-5s-3.8,5.2-4.6,4.9c-2-0.8-2.2-5.4,1.2-9.6c3-3.7,12.2-1.9,13,1.4
			C241.5,96.7,246.5,98.1,242.9,100.7z"/>
		<path class="st3" d="M178.1,193.8c0,0-16,4.5-17,6.2c-1.1,1.8,2.5,10.2,4.7,15.4c2.2,5.3,3.4,9.2,3.4,9.2l25.3-0.1l2.5-3.6
			l-7.2-2.2l-6.6-6.7l9.4-3.6L178.1,193.8z"/>
		<path class="st1" d="M168.9,196.1l-6.8,2.6l-0.4-1l-3.1,1.3l10.9,25.8l26.2,0.5c0,0,3-2.6,1.7-4.4c-1.3-1.9-6.2-2.3-6.2-2.3
			s-3.1-2-4.5-3.5c-1.4-1.5-1.6-4-1.6-4L168.9,196.1z"/>
		<path class="st7" d="M164.4,162.3c0,0-8.4,24.7,1.2,32c5.4,4.1,14.7,3.5,14.7,3.5l11.1,12.4l58.6-10.6c2.8-0.5,5-2.9,5.3-5.8
			c0.5-5.4,0.8-13.9-2.3-18.1c-4.7-6.4-70.2-13.5-70.2-13.5L164.4,162.3z"/>
		<path class="st13" d="M254.7,198.8c0,0,3.1-16.6-1.6-23"/>
		<path class="st13" d="M253.1,175.7c-4.7-6.4-70.2-13.5-70.2-13.5"/>
		<g>
			<g>
				<path class="st3" d="M271.1,103.5l-6.6,0.1l0.2,2l7.1-0.1L271.1,103.5z"/>
				<path class="st3" d="M277.7,101.8l-7.9,0.8l-0.1,3.9l8.8,0.5L277.7,101.8z"/>
				<path class="st3" d="M294.7,98.4l-19.5,2.1c0,0-0.8,1.7-0.9,3.8c-0.1,2.1,1,4.4,1,4.4L296,113L294.7,98.4z"/>
				<path class="st100" d="M293.4,95.4c0,0-2.7,4.1-2.7,11c0,5.1,2.1,9.7,2.1,9.7l45.5,12.5l-3.9-38.9L293.4,95.4z"/>
				<path class="st4" d="M271.4,102.7l0.1,3.7"/>
				<path class="st4" d="M266.1,103.7l0.2,1.7"/>
				<path class="st4" d="M297,94.8c0,0-2.1,4-2.5,11c-0.4,5.9,2.2,11.6,2.2,11.6"/>
				<path class="st7" d="M318.6,107.2c1-11.5,12.3-19.9,25.2-18.9c12.8,1,22.5,11,21.6,22.4c-0.9,11.5-12.1,20.1-25,19.1
					C327.2,128.9,317.5,118.8,318.6,107.2z"/>
				<path class="st4" d="M277.7,100.6c0,0-0.9,1.6-1.1,4.3c-0.2,2.4,1,4.3,1,4.3"/>
			</g>
			<g>
				<path class="st100" d="M238.6,102l-6.6,0.1l0.2,2l7.2-0.1L238.6,102z"/>
				<path class="st100" d="M245.3,100.3l-7.9,0.8l-0.2,3.9l8.8,0.5L245.3,100.3z"/>
				<path class="st100" d="M262.4,97l-19.7,2.1c0,0-0.8,1.7-0.9,3.8c-0.2,2.1,0.9,4.4,0.9,4.4l20.9,4.4L262.4,97z"/>
				<path class="st100" d="M261.1,93.9c0,0-2.7,4.1-2.8,11.1c-0.1,5.2,2,9.7,2,9.7l45.8,12.6l-3.6-39L261.1,93.9z"/>
				<path class="st4" d="M238.9,101.2l0,3.8"/>
				<path class="st4" d="M233.6,102.3l0.2,1.7"/>
				<path class="st4" d="M264.8,93.3c0,0-2.1,4.1-2.6,11c-0.4,5.9,2.2,11.6,2.2,11.6"/>
				<path class="st7" d="M286.4,105.8c1.1-11.5,12.5-20,25.5-19c12.9,1,22.6,11.1,21.6,22.5c-1,11.5-12.3,20.2-25.4,19.2
					C295,127.6,285.3,117.4,286.4,105.8z"/>
				<path class="st4" d="M245.2,99.1c0,0-0.9,1.6-1.1,4.3c-0.2,2.4,1,4.3,1,4.3"/>
			</g>
			<g>
				<path class="st1" d="M293.5,107.4c0.8-7.3,10-12.6,20.7-11.9c10.6,0.7,18.7,7.1,18,14.3c-0.7,7.2-9.9,12.6-20.6,12
					C300.8,121.1,292.7,114.6,293.5,107.4z"/>
				<path class="st7" d="M305.8,107.7c0.4-4.3,4.3-7.4,8.8-7c4.5,0.4,7.8,4.1,7.5,8.4c-0.3,4.3-4.2,7.4-8.7,7.1
					C308.8,115.7,305.5,112,305.8,107.7z"/>
			</g>
			<g>
				<path class="st1" d="M333.3,109.1c0.7-7.2,9.8-12.5,20.4-11.9c10.5,0.7,18.6,7,17.9,14.2c-0.6,7.2-9.7,12.6-20.3,11.9
					C340.7,122.8,332.6,116.4,333.3,109.1z"/>
			</g>
		</g>
		<path class="st4" d="M160.2,198.5l10.6,25l26.2,0.5"/>
		<path class="st4" d="M162.1,198.7l1.2,2.7l8.7,20.2l25.8,0.5"/>
		<path class="st4" d="M183.7,215.5c0.5-0.2,2.2-1.1,2.2-1.1"/>
		<path class="st4" d="M184.6,217l2.5-1.5"/>
		<path class="st4" d="M186.2,218.1c0.6-0.4,2.3-1.5,2.3-1.5"/>
		<path class="st13" d="M180.4,197.8c0,0,11.6-4.3,22.7-6.9c11-2.5,21.6-3.3,21.6-3.3"/>
		<path class="st13" d="M168.3,177.5c1.5-1.8,4.3-5,6.1-6.6"/>
		<path class="st32" d="M217,129.8c0,0-2.7-5.1-5.8-9.2c-1.1-1.5-2.3-2.9-3.9-3.8c-6.6-3.8-10.3,1.1-11.2,1.2"/>
		<path class="st3" d="M187.5,142c-1.3-0.9-3-1.8-4.2-2.9"/>
		<path class="st3" d="M188.1,141.2c-0.1-0.5-3.4-4.4-4.9-6.1"/>
		<path class="st3" d="M275.8,88.8L275.8,88.8c0.6,0.5,0.7,1.3,0.2,1.9l-3.7,4.7c-0.5,0.6-1.4,0.7-2,0.3l0,0
			c-0.6-0.5-0.7-1.3-0.2-1.9l3.7-4.7C274.3,88.5,275.1,88.4,275.8,88.8z"/>
		<path class="st3" d="M278.6,89.9L278.6,89.9c0.6,0.5,0.7,1.3,0.2,1.9l-3.7,4.7c-0.5,0.6-1.4,0.7-2,0.3l0,0
			c-0.6-0.5-0.7-1.3-0.2-1.9l3.7-4.7C277.1,89.6,278,89.4,278.6,89.9z"/>
		<path class="st3" d="M281.5,90.7L281.5,90.7c0.6,0.5,0.7,1.3,0.2,1.9l-3.7,4.7c-0.5,0.6-1.4,0.7-2,0.3l0,0
			c-0.6-0.5-0.7-1.3-0.2-1.9l3.7-4.7C280,90.3,280.9,90.2,281.5,90.7z"/>
		<g>
			<path class="st3" d="M249.9,106.4l6.4-7.2c0,0,1.4-0.2,1.4,0.6c0.1,0.7-1.1,2.4-1.1,2.4l3-2.4c0,0,1.2,0.1,1.1,1
				c-0.1,0.9-1.7,2.4-1.7,2.4l2.8-2.3c0,0,1.5,0.6,1,1.7c-0.5,1.2-2.8,3-2.8,3l4-2.7c0,0,1.5,0.4,0.9,1.6c-0.6,1.2-3.1,3.3-3.1,3.3
				s-1.4,4.7-2.6,7.3c-1.2,2.6-2.2,4-2.2,4s-2.7,8.9-6.7,17.8c-8.9,19.9-22.3,26.9-28.3,25c-3.6-0.3-19.6-12-22.8-17.9l17.6-11.5
				l11.8,9.4l19.1-25.3L249.9,106.4z"/>
			<path class="st3" d="M257.4,111.1l0.7-3.6l2-1.9"/>
			<path class="st3" d="M254.5,110.3l1-3.8l3.5-3.2"/>
			<path class="st3" d="M251.5,110.1l0.9-3.6l4.3-4.5"/>
		</g>
		<path class="st7" d="M346.8,109.7c0.4-4.3,4.3-7.4,8.8-7c4.5,0.4,7.8,4.1,7.5,8.4c-0.3,4.3-4.2,7.4-8.7,7.1
			C349.8,117.7,346.5,114,346.8,109.7z"/>
	</g>
	<g>
		<g>
			<path class="st31" d="M127,198.6l-0.6-58.9c0-0.4-0.3-0.7-0.7-0.6l-13.7,1.8c-0.2,0-0.5,0.2-0.5,0.5l-17.1,62.9
				c-0.1,0.4,0.2,0.8,0.7,0.8l31.8-3c0.4,0,0.6-0.3,0.6-0.7L127,198.6C127,198.7,127,198.6,127,198.6z"/>
		</g>
		<g>
			<path class="st147" d="M66.7,211.9c-2.7,2.8-2,7.4,1.4,9.3c14,8,65.8,32.9,150.8,21.8c96.5-12.5,121-23.6,121.3-36.2
				c0-1-0.2-2.1-0.5-3.1c-1.9-6.4-12.4-31.5-54.7-26L90.7,203C90.7,203,73.3,205,66.7,211.9z"/>
			<g>
				<g>
					<path class="st31" d="M127.7,198.2l157.2-20.4c42.3-5.5,52.8,19.7,54.7,26c0.3,1,0.5,2,0.5,3.1c-0.4,12.6-24.9,23.7-121.3,36.2
						c-85,11-136.7-13.8-150.8-21.8c-3.4-1.9-4.1-6.5-1.4-9.3c6.7-7,24-8.9,24-8.9L127.7,198.2z"/>
				</g>
				<path class="st19" d="M268.6,208.7c-70.4,10.3-161,17.7-195.7,15.2c19.1,9.7,68.8,29.2,145.9,19.2
					c96.1-12.5,120.8-23.5,121.3-36.1C331.9,204.1,312.8,202.3,268.6,208.7z"/>
			</g>
		</g>
		<g>
			<path class="st19" d="M201.7,201c-0.7-3.5-3.1-7.7-10.1-11.2L28.3,121.1c-1.1-0.4-2.2-0.7-3.3-0.7l-13-0.5c-1,0-1.4,1.3-0.6,1.8
				l140.9,91.1l47.8-5.8C201.5,205.4,202.1,203.2,201.7,201z"/>
		</g>
		<g>
			<path class="st23" d="M114.3,209.6L114.3,209.6c-1.1,0.1-1.7-0.7-1.4-1.9l0.7-2.2c0.4-1.2,1.6-2.3,2.7-2.4l0,0
				c1.1-0.1,1.7,0.7,1.4,1.9l-0.7,2.2C116.6,208.4,115.4,209.4,114.3,209.6z"/>
			<path class="st23" d="M126.3,208.5L126.3,208.5c-1.1,0.1-1.7-0.7-1.4-1.9l0.7-2.2c0.4-1.2,1.6-2.3,2.7-2.4l0,0
				c1.1-0.1,1.7,0.7,1.4,1.9l-0.7,2.2C128.7,207.3,127.4,208.4,126.3,208.5z"/>
			<path class="st23" d="M138.3,206.5L138.3,206.5c-1.1,0.1-1.7-0.7-1.4-1.9l0.7-2.2c0.4-1.2,1.6-2.3,2.7-2.4l0,0
				c1.1-0.1,1.7,0.7,1.4,1.9l-0.7,2.2C140.7,205.2,139.5,206.3,138.3,206.5z"/>
			<path class="st23" d="M207.5,197.5L207.5,197.5c-1.1,0.1-1.7-0.7-1.4-1.9l0.7-2.2c0.4-1.2,1.6-2.3,2.7-2.4l0,0
				c1.1-0.1,1.7,0.7,1.4,1.9l-0.7,2.2C209.9,196.3,208.7,197.3,207.5,197.5z"/>
			<path class="st23" d="M223.6,195.4L223.6,195.4c-1.1,0.1-1.7-0.7-1.4-1.9l0.7-2.2c0.4-1.2,1.6-2.3,2.7-2.4l0,0
				c1.1-0.1,1.7,0.7,1.4,1.9l-0.7,2.2C225.9,194.2,224.7,195.3,223.6,195.4z"/>
			<path class="st23" d="M239.6,193.3L239.6,193.3c-1.1,0.1-1.7-0.7-1.4-1.9l0.7-2.2c0.4-1.2,1.6-2.3,2.7-2.4l0,0
				c1.1-0.1,1.7,0.7,1.4,1.9l-0.7,2.2C241.9,192.1,240.7,193.2,239.6,193.3z"/>
			<path class="st23" d="M256.2,191.2L256.2,191.2c-1.1,0.1-1.7-0.7-1.4-1.9l0.7-2.2c0.4-1.2,1.6-2.3,2.7-2.4l0,0
				c1.1-0.1,1.7,0.7,1.4,1.9l-0.7,2.2C258.5,189.9,257.3,191,256.2,191.2z"/>
			<path class="st23" d="M272.2,189.1L272.2,189.1c-1.1,0.1-1.7-0.7-1.4-1.9l0.7-2.2c0.4-1.2,1.6-2.3,2.7-2.4l0,0
				c1.1-0.1,1.7,0.7,1.4,1.9l-0.7,2.2C274.6,187.9,273.4,188.9,272.2,189.1z"/>
		</g>
		<g>
			<path class="st23" d="M322,189.4c4.1,1.4,8.3,3.2,11.5,5.1c0,0-3.9-6.2-10.5-9.6L322,189.4z"/>
			<path class="st23" d="M320.6,183.9c-1.7-0.6-3.4-1.1-5.3-1.2l-0.6,4.4c1.5,0.4,3.2,0.9,4.9,1.5L320.6,183.9z"/>
		</g>
		<g>
			<path class="st19" d="M163.7,171.2c-2.8,1-16.6,7.3-29.6,14.4c-1.4,3.1-1.7,7.2-0.3,11.3c1.4,4.1,4.1,7.2,7.1,8.8
				c14.7-2.3,29.5-5.6,32.3-6.5c5.8-2,8.4-9.8,5.8-17.6C176.3,173.9,169.5,169.2,163.7,171.2z"/>
			<path class="st23" d="M176.8,182.3c2.1,6.2,0.8,12.2-3,13.5c-3.7,1.3-8.4-2.7-10.5-8.9c-2.1-6.2-0.8-12.2,3-13.5
				C170,172.2,174.7,176.2,176.8,182.3z"/>
		</g>
		<g>
			<path class="st31" d="M89.4,207.7l-56-18.9c-1.1-0.4-2.3-0.5-3.5-0.4l-7.2,0.6c-1.6,0.1-2,2.4-0.4,3l54.4,21.8L89.4,207.7z"/>
		</g>
		<path class="st32" d="M204.1,201.6C219,199,234,199,249,196c12-1,23-3,35.5-3.5"/>
		<path class="st32" d="M108.5,212.5c11.5-1.5,23.5-3.5,35.1-4"/>
		<path class="st32" d="M146.5,201.5l20-3c0,0-5.6-4.1-7-9c-2-7-2-9-2-9"/>
		<path class="st4" d="M268.6,208.7c-70.4,10.3-161,17.7-195.7,15.2"/>
	</g>
	<path class="st32" d="M133.9,174.7l-20.4,10.8c0,0-2.6,4.8-1.3,9.4"/>
	
		<image style="overflow:visible;" width="502" height="40" xlink:href="225CEDEF.jpg"  transform="matrix(0.7729 0 0 0.7729 0 280)">
	</image>
</g>
</svg>
