<?xml version="1.0" encoding="utf-8"?>
<!-- Generator: Adobe Illustrator 24.1.2, SVG Export Plug-In . SVG Version: 6.00 Build 0)  -->
<svg version="1.1" xmlns="http://www.w3.org/2000/svg" xmlns:xlink="http://www.w3.org/1999/xlink" x="0px" y="0px"
	 viewBox="0 0 412 302" style="enable-background:new 0 0 412 302;" xml:space="preserve">
<style type="text/css">
	.st0{fill-rule:evenodd;clip-rule:evenodd;fill:#17B1B1;}
	.st1{fill-rule:evenodd;clip-rule:evenodd;fill:#F6BE22;}
	.st2{fill-rule:evenodd;clip-rule:evenodd;fill:#FFFFFF;}
	
		.st3{fill-rule:evenodd;clip-rule:evenodd;fill:#FFFFFF;stroke:#000000;stroke-width:1.33;stroke-linecap:round;stroke-linejoin:round;}
	.st4{fill:none;stroke:#000000;stroke-width:1.33;stroke-linecap:round;stroke-linejoin:round;}
	.st5{fill:#030100;}
	.st6{fill-rule:evenodd;clip-rule:evenodd;fill:#FDD2E1;}
	.st7{fill-rule:evenodd;clip-rule:evenodd;fill:#0A0704;}
	.st8{fill-rule:evenodd;clip-rule:evenodd;fill:#030100;}
	.st9{fill-rule:evenodd;clip-rule:evenodd;fill:#230E04;}
	.st10{fill-rule:evenodd;clip-rule:evenodd;fill:#000047;}
	.st11{fill-rule:evenodd;clip-rule:evenodd;fill:#F51618;}
	.st12{fill-rule:evenodd;clip-rule:evenodd;fill:#919191;}
	
		.st13{fill-rule:evenodd;clip-rule:evenodd;fill:none;stroke:#FFFFFF;stroke-width:1.33;stroke-linecap:round;stroke-linejoin:round;}
	.st14{fill:none;stroke:#FFFFFF;stroke-width:1.33;stroke-linecap:round;stroke-linejoin:round;}
	.st15{fill:#FFFFFF;stroke:#000000;stroke-width:1.33;stroke-linecap:round;stroke-linejoin:round;}
	.st16{fill-rule:evenodd;clip-rule:evenodd;fill:#24160C;}
	.st17{fill:#0A0704;stroke:#0A0704;stroke-miterlimit:10;}
	.st18{fill:#F6BE22;}
	.st19{fill:#17B1B1;}
	.st20{fill-rule:evenodd;clip-rule:evenodd;fill:#FFBE00;}
	.st21{fill-rule:evenodd;clip-rule:evenodd;fill:none;stroke:#000000;stroke-linecap:round;stroke-linejoin:round;}
	.st22{fill:none;stroke:#1A1A1A;stroke-width:1.33;stroke-linecap:round;stroke-linejoin:round;}
	.st23{fill:#0A0704;}
	.st24{fill-rule:evenodd;clip-rule:evenodd;fill:#12847E;}
	.st25{fill:#F51618;}
	.st26{fill:none;stroke:#000000;stroke-miterlimit:10;}
	.st27{fill:#0092FF;}
	.st28{fill:#007994;}
	.st29{fill:none;stroke:#F6BE22;stroke-width:1.33;stroke-linecap:round;stroke-linejoin:round;}
	.st30{fill:#FDD2E1;}
	.st31{fill:#0C9390;}
	
		.st32{fill-rule:evenodd;clip-rule:evenodd;fill:none;stroke:#000000;stroke-width:1.33;stroke-linecap:round;stroke-linejoin:round;}
	.st33{fill:#A9D18F;}
	.st34{stroke:#000000;stroke-linejoin:round;}
	.st35{fill:#C5DFB5;}
	.st36{fill:#FFFA94;}
	.st37{fill-rule:evenodd;clip-rule:evenodd;fill:#0092FF;}
	
		.st38{fill-rule:evenodd;clip-rule:evenodd;fill:#A8A8A8;stroke:#000000;stroke-width:1.33;stroke-linecap:round;stroke-linejoin:round;}
	.st39{fill-rule:evenodd;clip-rule:evenodd;fill:#C5DFB5;}
	.st40{fill-rule:evenodd;clip-rule:evenodd;fill:#A9D18F;}
	.st41{fill:none;stroke:#0066CC;stroke-width:1.33;stroke-linecap:round;stroke-linejoin:round;stroke-miterlimit:10;}
	.st42{fill-rule:evenodd;clip-rule:evenodd;fill:#FFFA94;}
	.st43{fill:#5D5D5D;}
	.st44{clip-path:url(#SVGID_6_);fill:#FFFFFF;}
	.st45{fill-rule:evenodd;clip-rule:evenodd;fill:#00CB99;}
	.st46{fill:none;stroke:#00EDB3;stroke-width:7.42;stroke-linecap:round;stroke-linejoin:round;}
	.st47{fill-rule:evenodd;clip-rule:evenodd;fill:#4971AF;}
	.st48{fill-rule:evenodd;clip-rule:evenodd;fill:#282828;}
	.st49{fill:#FFFBF2;}
	.st50{fill-rule:evenodd;clip-rule:evenodd;fill:#3AE5BB;}
	.st51{fill-rule:evenodd;clip-rule:evenodd;fill:#514A45;}
	.st52{fill-rule:evenodd;clip-rule:evenodd;fill:#F9CB00;}
	.st53{fill-rule:evenodd;clip-rule:evenodd;fill:#05DBED;}
	.st54{fill-rule:evenodd;clip-rule:evenodd;fill:#E9B200;}
	.st55{clip-path:url(#SVGID_8_);}
	.st56{fill:none;stroke:#FFFFFF;stroke-width:3;stroke-linecap:round;stroke-linejoin:round;}
	.st57{fill:none;stroke:#E9B200;stroke-width:5;stroke-miterlimit:10;}
	.st58{fill-rule:evenodd;clip-rule:evenodd;fill:#00DB00;}
	.st59{fill:#00BC00;}
	.st60{fill:#00DB00;}
	.st61{fill:none;}
	.st62{fill:#F4BC23;}
	.st63{fill-rule:evenodd;clip-rule:evenodd;}
	.st64{fill-rule:evenodd;clip-rule:evenodd;fill:#0068AB;}
	.st65{fill:#BEC7C9;}
	.st66{fill:#0068AB;}
	.st67{fill:#005C89;}
	.st68{clip-path:url(#SVGID_10_);fill:none;stroke:#000000;stroke-width:1.33;stroke-linecap:round;stroke-linejoin:round;}
	.st69{fill:#E1A916;}
	.st70{opacity:0.55;}
	.st71{fill:#FDBE43;}
	.st72{fill:#FFFFFF;}
	.st73{fill:#0067A6;}
	.st74{fill:#54D900;}
	.st75{fill:#0068A7;}
	.st76{fill:#0068A5;}
	.st77{fill:#B8B8B8;}
	.st78{fill:#5C5C5C;}
	.st79{fill:#666464;}
	.st80{fill:#5A5959;}
	.st81{fill:#7C7B7B;}
	.st82{fill:#BCBCBC;}
	.st83{fill:#757575;}
	.st84{fill:#D3D0D0;}
	.st85{fill:#0068A4;}
	.st86{fill:#0067A4;}
	.st87{fill:#4AB000;}
	.st88{fill:#7DDF45;}
	.st89{fill:#7FDF47;}
	.st90{fill:#39BB49;}
	.st91{fill:#D5EADA;}
	.st92{fill:#CDE6D3;}
	.st93{fill:#84DA60;}
	.st94{fill:#D3EAD7;}
	.st95{fill:#4AC04D;}
	.st96{fill:#6FD150;}
	.st97{fill-rule:evenodd;clip-rule:evenodd;fill:#BEC7C9;}
	.st98{fill:#D0D1D6;}
	.st99{fill-rule:evenodd;clip-rule:evenodd;fill:#7394E3;}
	
		.st100{fill-rule:evenodd;clip-rule:evenodd;fill:#17B1B1;stroke:#000000;stroke-width:1.33;stroke-linecap:round;stroke-linejoin:round;}
	.st101{fill-rule:evenodd;clip-rule:evenodd;fill:#408E96;}
	.st102{clip-path:url(#SVGID_12_);}
	.st103{fill:#408E96;}
	.st104{clip-path:url(#SVGID_14_);}
	.st105{fill-rule:evenodd;clip-rule:evenodd;fill:#9AF4F1;}
	
		.st106{fill-rule:evenodd;clip-rule:evenodd;fill:#0A0704;stroke:#FFFFFF;stroke-width:1.33;stroke-linecap:round;stroke-linejoin:round;}
	
		.st107{fill-rule:evenodd;clip-rule:evenodd;fill:#F6BE22;stroke:#000000;stroke-width:1.33;stroke-linecap:round;stroke-linejoin:round;}
	.st108{fill-rule:evenodd;clip-rule:evenodd;fill:#FDFDFD;}
	.st109{fill-rule:evenodd;clip-rule:evenodd;stroke:#000000;stroke-width:1.33;stroke-linecap:round;stroke-linejoin:round;}
	.st110{fill-rule:evenodd;clip-rule:evenodd;fill:#F5F5F5;}
	.st111{fill:none;stroke:#F51618;stroke-width:1.33;stroke-linecap:round;stroke-linejoin:round;}
	.st112{clip-path:url(#SVGID_16_);}
	.st113{fill:none;stroke:#F6F6F6;stroke-width:1.33;stroke-linecap:round;stroke-linejoin:round;}
	.st114{fill-rule:evenodd;clip-rule:evenodd;fill:#373737;}
	.st115{fill-rule:evenodd;clip-rule:evenodd;fill:#118484;}
	.st116{fill-rule:evenodd;clip-rule:evenodd;fill:#DCB6C3;}
	.st117{fill-rule:evenodd;clip-rule:evenodd;fill:#262626;}
	.st118{fill-rule:evenodd;clip-rule:evenodd;fill:#D19F14;}
	
		.st119{fill-rule:evenodd;clip-rule:evenodd;fill:#0A0704;stroke:#000000;stroke-width:1.33;stroke-linecap:round;stroke-linejoin:round;}
	.st120{fill-rule:evenodd;clip-rule:evenodd;fill:#D2A21D;}
	.st121{fill:none;stroke:#000000;stroke-width:6.34;stroke-linecap:round;stroke-linejoin:round;}
	.st122{clip-path:url(#SVGID_18_);}
	.st123{fill-rule:evenodd;clip-rule:evenodd;fill:#F6C949;}
	.st124{fill-rule:evenodd;clip-rule:evenodd;fill:#F6F6F6;}
	.st125{fill-rule:evenodd;clip-rule:evenodd;fill:#FDD2E1;stroke:#000000;stroke-width:1.33;stroke-miterlimit:10;}
	.st126{fill-rule:evenodd;clip-rule:evenodd;stroke:#FFFFFF;stroke-width:1.33;stroke-linecap:round;stroke-linejoin:round;}
	
		.st127{fill-rule:evenodd;clip-rule:evenodd;fill:#FFFFFF;stroke:#0A0704;stroke-width:1.33;stroke-linecap:round;stroke-linejoin:round;}
	
		.st128{fill-rule:evenodd;clip-rule:evenodd;fill:#31B767;stroke:#000000;stroke-width:0.75;stroke-linecap:round;stroke-linejoin:round;}
	
		.st129{fill-rule:evenodd;clip-rule:evenodd;fill:#ECB82B;stroke:#000000;stroke-width:0.75;stroke-linecap:round;stroke-linejoin:round;}
	
		.st130{fill-rule:evenodd;clip-rule:evenodd;fill:#E9EBEF;stroke:#000000;stroke-width:0.75;stroke-linecap:round;stroke-linejoin:round;}
	.st131{fill:none;stroke:#000000;stroke-width:0.75;stroke-linecap:round;stroke-linejoin:round;}
	
		.st132{fill-rule:evenodd;clip-rule:evenodd;fill:#E9EBEF;stroke:#000000;stroke-width:1.33;stroke-linecap:round;stroke-linejoin:round;}
	.st133{fill-rule:evenodd;clip-rule:evenodd;fill:#D5CECE;}
	.st134{fill-rule:evenodd;clip-rule:evenodd;fill:#FBF7F7;}
	.st135{fill-rule:evenodd;clip-rule:evenodd;stroke:#000000;stroke-miterlimit:10;}
	.st136{fill-rule:evenodd;clip-rule:evenodd;fill:#FFFFFF;stroke:#000000;stroke-linecap:round;stroke-linejoin:round;}
	.st137{fill:none;stroke:#000000;stroke-linecap:round;stroke-linejoin:round;}
	.st138{fill:#D6AE03;}
	.st139{fill:#F9CB00;}
	.st140{fill-rule:evenodd;clip-rule:evenodd;fill:none;stroke:#000000;stroke-width:7;stroke-linecap:round;stroke-linejoin:round;}
	.st141{fill-rule:evenodd;clip-rule:evenodd;fill:#F7F7F7;}
	.st142{fill:#919191;}
	.st143{clip-path:url(#SVGID_20_);fill:none;stroke:#000000;stroke-width:1.33;stroke-linecap:round;stroke-linejoin:round;}
	.st144{fill:#F6E5DC;}
	.st145{fill:#F4AA1C;}
	.st146{fill:#FBBB1F;}
	.st147{fill:#007CFF;}
	.st148{fill:none;stroke:#000000;stroke-width:1.33;stroke-linecap:round;stroke-linejoin:round;stroke-dasharray:12,15;}
	.st149{fill:#FFBE00;}
	.st150{fill-rule:evenodd;clip-rule:evenodd;fill:#0A0704;stroke:#0A0704;stroke-miterlimit:10;}
	.st151{fill:#F51618;stroke:#000000;stroke-width:1.33;stroke-linecap:round;stroke-linejoin:round;}
	.st152{fill:#5CEAE6;}
	.st153{fill:none;stroke:#000000;stroke-linejoin:round;}
	.st154{font-family:'Montserrat-Light';}
	.st155{font-size:18.4072px;}
	.st156{fill-rule:evenodd;clip-rule:evenodd;fill:none;}
	.st157{clip-path:url(#SVGID_24_);fill:#FFFFFF;}
	.st158{clip-path:url(#SVGID_26_);fill:none;stroke:#000000;stroke-width:1.33;stroke-linecap:round;stroke-linejoin:round;}
	.st159{clip-path:url(#SVGID_28_);}
</style>
<g id="Guides_For_Artboard">
</g>
<g id="Layer_1">
	<g>
		<g>
			<path class="st8" d="M320.1,59.6c-4.6,0-11.2,2.1-15.9,2.1c-2.5,0-5,0-7.5,0c-2.6,0-5.5-0.5-8.1-0.5l-1.1-2.4
				c-2.9,1-6,0.2-7.5-1.9c-1.3-1.8-1-3.8-0.9-4.4c-3.4,0-6.1-1.7-6.7-4c-0.3-1.2,0-2.4,0.3-3.1c-2.7,1-5.7,0.3-7.5-1.9
				c-1.5-1.9-1.8-4.5-0.8-6.8c-4.1-2.9-7.6-6.3-7.5-8.4c0.4-7.1,14.8-5.8,25.7-2.1c1.3,0.5,2.6,0.9,3.9,1.5c2.1,0.9,4.1,1.8,6.1,2.7
				c10.3,5,18.7,10.9,30.1,20.9C321.7,54.9,321.2,56,320.1,59.6z"/>
			<path class="st25" d="M309.5,85.5c-0.5,2.5-2.2,4.2-4,4.3c-0.3,0-1.2,0-2.2-0.8c-0.6,0.2-1.8,0.6-3.4,0.4
				c-2.3-0.3-3.7-1.8-4.1-2.3c-0.6,0.1-1.8,0.3-3.1-0.3c-1.8-0.8-3-2.9-3-5.2c-0.2-0.1-1.8-0.8-2.4-2.5c-0.7-2,0.5-3.7,0.6-3.9
				c-0.3-0.3-1.3-1.4-1.4-2.9c-0.1-1.9,1.2-3.7,3.3-4.5c-0.4-0.3-1.7-1.3-2.1-3.2c-0.6-2.9,0.7-3.3,0.8-3.4c2.7,0,5.4-0.2,8.2-0.3
				c2.6-0.1,5.1-0.3,7.7-0.5c5.3-0.4,10.6-0.7,15.5-0.8c-0.4,1.2-1.1,1.9-1.5,3.1c-1.3,1-3.1,2.9-4.5,5.7c-1,2.1-2,4.2-1.6,6.7
				c0.3,2,1.3,2.9,0.9,4.4c-0.4,1.2-1.5,1.9-2.5,2.4L309.5,85.5z"/>
			<path class="st6" d="M304.6,60.4c-2.6,0.2-5.2,0.4-7.7,0.5c0.3-3.2-0.4-5.2-1.3-6.5c-1-1.6-1.8-1.6-2.8-3.5
				c-1.6-2.9-0.2-4.1-1.5-7.1c-1.3-2.9-3.1-2.7-3.7-5.4c-0.4-1.9,0.4-2.3-0.1-4.1c-0.6-2.2-2.1-2.8-3.3-4.4
				c-0.6-0.9-1.2-2.1-1.4-3.8c1.3,0.5,2.6,0.9,3.9,1.5c2.1,0.9,4.1,1.8,6.1,2.7c0.1,0.4,0.3,0.9,0.6,1.3c0.6,1,1,1,1.6,2.2
				c1,1.9,0.3,2.7,0.9,4.4c0.9,2.9,3.4,2.6,4.4,5.7c0.5,1.5-0.1,1.4,0.4,3.4c0.4,1.7,1,2.3,2.7,5.9c0.5,1.1,0.8,1.7,0.9,2
				C304.7,56.2,305.1,57.9,304.6,60.4z"/>
			<path class="st14" d="M266.4,28.6c4.2-0.7,9.3,1.1,13.1,1.7"/>
			<path class="st14" d="M269.3,39.1c2.9-2.1,9.7-0.9,13.2-1.3"/>
			<path class="st14" d="M277.3,47.8c3.1-1.4,7.6-1,11-1.4"/>
			<path class="st14" d="M283.6,55c1.8-1,4.7-0.2,6.9-1.2"/>
			<path class="st25" d="M299.6,36.4c-0.3-0.1-0.7-0.1-1,0c-0.3,0.1-0.6,0.3-0.7,0.7c-0.1,0.5,0.4,0.9,0.9,1.2
				c1.9,1.1,4,1.8,6.2,2.3c0.4,0.1,0.9,0.3,1-0.2c0-0.3-0.6-0.8-0.8-1.1c-0.7-0.7-1.5-1.3-2.3-1.8C301.9,37,300.8,36.6,299.6,36.4z"
				/>
			<path class="st25" d="M307.6,44.1c1.5,1.7-1.4,2.4-2.7,2.1c-1.6-0.4-2.1-2.8-0.2-3.1C305.8,42.9,306.9,43.4,307.6,44.1z"/>
			<path class="st31" d="M313.1,46.4c-0.4-0.3-0.8-0.7-1.3-0.8c-0.5-0.2-1.1-0.1-1.4,0.2c-0.4,0.4-0.5,1-0.2,1.6s0.6,0.9,1,1.3
				c1,0.9,2.1,1.7,3.3,2.4c0.5,0.3,3,1.9,3.5,1.3C318.7,51.6,313.8,47.1,313.1,46.4z"/>
			<path class="st4" d="M307.3,59.1c0,0-2,2.5-2.6,3.4c-0.6,0.9-0.6,2.3,0.1,3.1c0.5,0.5,1.2,0.8,1.9,0.9c0.7,0.1,1.4,0,2.1-0.1
				c2.6-0.5,7-2.1,9.4-3.4"/>
			<path class="st4" d="M288.9,75c1.9-0.5,3.5-1.6,4.9-2.8s2.8-2.7,4.2-3.9c1.5-1.2,4.3-2.8,6.2-3"/>
			<path class="st4" d="M290.4,67.6c2.2-0.3,4.7-1.1,6.7-2.1c2-1,4.2-1.9,6.4-1.9"/>
			<path class="st4" d="M290.1,81.6c1.1-0.7,2.1-1.4,3.2-2.1c1-0.7,2.1-1.3,3-2.2c1.1-0.9,2-2,2.8-3.1c1.6-1.9,4.7-5.8,6.3-7.7"/>
			<path class="st4" d="M296,86.6c4.6-2.5,8-7,9.2-12.1c0.5-2.1,0.7-5.6,1.7-7.5"/>
			<path class="st4" d="M309.5,66.4c-0.1,3.6-0.1,9-1,12.6c-0.8,3.4-2.4,6.7-4.5,9.5"/>
			<path class="st4" d="M313.2,65.3c-1.8,4.3-2.7,10.4-2,15"/>
		</g>
		<g>
			<path class="st8" d="M322.3,60.4c3.5,3,7.3,8.8,10.8,11.8c1.9,1.6,3.8,3.2,5.8,4.8c2,1.7,4.5,3.1,6.6,4.8l2.4-1.1
				c1.6,2.7,4.5,4,6.9,3.3c2.1-0.6,3.2-2.3,3.5-2.8c2.6,2.2,5.8,2.6,7.7,1.2c1-0.7,1.5-1.8,1.8-2.6c1.4,2.5,4.2,3.9,6.9,3.3
				c2.4-0.5,4.3-2.3,5-4.7c5.1,0.4,9.9,0.1,11.2-1.6c4.2-5.7-7.6-13.9-18.3-18.1c-1.3-0.5-2.6-1-3.9-1.4c-2.2-0.7-4.3-1.3-6.4-1.8
				c-11.2-2.8-21.3-3.6-36.5-3.2C324.1,55.8,323.8,56.9,322.3,60.4z"/>
			<path class="st25" d="M313.8,87.1c-1.2,2.2-1,4.7,0.3,5.8c0.3,0.2,0.9,0.7,2.2,0.8c0.3,0.6,1,1.7,2.4,2.5c2,1.2,4,0.9,4.6,0.8
				c0.4,0.5,1.2,1.4,2.6,1.8c1.9,0.5,4.1-0.3,5.6-2c0.3,0.1,1.8,0.5,3.4-0.4c1.8-1.1,2-3.1,2-3.3c0.4,0,1.9-0.2,2.9-1.4
				c1.3-1.4,1.4-3.6,0.4-5.6c0.4,0,2.2,0.1,3.7-1.1c2.3-1.8,1.6-3,1.5-3.1c-2-1.7-4.1-3.6-6.1-5.5c-1.9-1.7-3.7-3.5-5.6-5.3
				c-3.8-3.7-7.7-7.3-11.4-10.6c-0.4,1.2-0.4,2.2-0.8,3.4c0.3,1.6,0.6,4.2-0.2,7.3c-0.6,2.3-1.1,4.5-3.1,6.2
				c-1.5,1.3-2.9,1.4-3.5,2.8c-0.5,1.2-0.1,2.5,0.4,3.4L313.8,87.1z"/>
			<path class="st6" d="M333.7,71c1.9,1.8,3.7,3.6,5.6,5.3c1.8-2.6,3.7-3.7,5.2-4.2c1.8-0.6,2.4-0.1,4.4-0.9
				c3.1-1.3,2.8-3.1,5.7-4.4c2.9-1.4,4.2-0.1,6.3-1.8c1.5-1.2,1.2-2,2.7-3.1c1.9-1.3,3.4-0.8,5.4-1.3c1-0.3,2.2-0.8,3.5-2
				c-1.3-0.5-2.6-1-3.9-1.4c-2.2-0.7-4.3-1.3-6.4-1.8c-0.4,0.2-0.8,0.5-1.3,0.6c-1.1,0.4-1.5,0.1-2.7,0.7c-1.9,0.8-1.9,1.9-3.5,2.8
				c-2.6,1.6-4.3-0.2-7.1,1.5c-1.4,0.8-0.8,1.1-2.5,2.4c-1.4,1-2.3,1.1-5.9,2.7c-1.1,0.5-1.7,0.8-2,0.9
				C336.4,67.7,335,68.7,333.7,71z"/>
			<path class="st14" d="M383.4,71c-2.8-3.3-7.8-5.1-11.1-7.1"/>
			<path class="st14" d="M374.5,77.3c-0.9-3.4-6.8-6.9-9.3-9.4"/>
			<path class="st14" d="M362.8,78.8c-1.5-3.1-5.2-5.6-7.6-8.1"/>
			<path class="st14" d="M353.3,80.2c-0.8-1.9-3.5-3.2-4.6-5.3"/>
			<path class="st25" d="M352.9,55.7c0.3,0.2,0.6,0.4,0.8,0.6c0.2,0.3,0.3,0.7,0.1,0.9c-0.3,0.5-0.9,0.4-1.5,0.3
				c-2.2-0.4-4.2-1.2-6.2-2.2c-0.3-0.2-1-0.3-0.6-0.8c0.2-0.3,1-0.2,1.3-0.3c1-0.1,2,0,2.9,0.2C350.8,54.8,351.9,55.2,352.9,55.7z"
				/>
			<path class="st25" d="M341.8,56.5c-2.3,0.3-0.5,2.8,0.7,3.3c1.5,0.7,3.4-0.8,2.1-2.3C343.9,56.8,342.8,56.4,341.8,56.5z"/>
			<path class="st31" d="M336.1,54.8c0.5,0,1,0,1.5,0.2c0.5,0.2,0.9,0.6,1,1.1c0.1,0.6-0.3,1.1-0.8,1.3c-0.5,0.3-1.1,0.3-1.6,0.3
				c-1.4,0.1-2.7,0-4-0.3c-0.6-0.1-3.5-0.4-3.5-1.3C328.5,55.1,335.2,54.8,336.1,54.8z"/>
			<path class="st4" d="M332.5,68.2c0,0,0,3.2-0.2,4.3c-0.1,1.1-1,2.1-2.1,2.3c-0.7,0.1-1.4-0.1-2-0.5s-1.1-0.9-1.5-1.4
				c-1.7-2-4-6.1-5-8.6"/>
			<path class="st4" d="M336.4,92.3c-1.1-1.5-1.7-3.5-2-5.3s-0.4-3.8-0.8-5.7c-0.4-1.9-1.5-4.9-2.8-6.3"/>
			<path class="st4" d="M340,85.6c-1.5-1.7-2.9-3.8-3.8-5.9s-2-4.1-3.7-5.6"/>
			<path class="st4" d="M331.3,96.5c-0.4-1.2-0.7-2.4-1.1-3.6c-0.4-1.2-0.7-2.4-0.9-3.6c-0.2-1.4-0.2-2.8-0.2-4.2
				c0-2.5,0.1-7.5,0.1-9.9"/>
			<path class="st4" d="M323.5,96.6c-1.9-4.9-1.6-10.5,0.7-15.2c1-1.9,3.1-4.7,3.5-6.8"/>
			<path class="st4" d="M326.1,72.4c-2.3,2.9-5.7,7-7.3,10.3c-1.6,3.2-2.5,6.7-2.7,10.2"/>
			<path class="st4" d="M324,69.2c-1.4,4.4-4.6,9.7-8.1,12.8"/>
		</g>
		<path class="st18" d="M315.6,66.5c-0.4,2.3-0.6,7.1,0.5,7.5c1.1,0.4,4-5,4.5-5.7c1.7-2.7,5.2-11.1,5.9-14.1
			c1.1-4.6-3.1-9.3-6.5-2.3C317.2,57.8,316.4,62,315.6,66.5z"/>
		<line class="st4" x1="323.7" y1="51.4" x2="323.4" y2="52.4"/>
		<polyline class="st4" points="320.4,55.4 322.5,54.4 323.7,56.5 		"/>
		<line class="st4" x1="321.3" y1="58.3" x2="320.8" y2="59.8"/>
		<line class="st4" x1="319.2" y1="64.6" x2="318.7" y2="66.3"/>
		<polyline class="st4" points="317.8,63.1 319.8,62.3 321.1,64.2 		"/>
		<polyline class="st4" points="316.9,68.7 317.2,70.4 318.8,69.2 		"/>
		
			<ellipse transform="matrix(0.3409 -0.9401 0.9401 0.3409 169.0227 336.906)" class="st8" cx="324.8" cy="47.9" rx="3.1" ry="3.8"/>
		
			<ellipse transform="matrix(0.9846 -0.1748 0.1748 0.9846 -2.9632 57.2702)" class="st31" cx="323.6" cy="45.5" rx="1.1" ry="0.4"/>
		<ellipse transform="matrix(0.862 -0.5069 0.5069 0.862 21.4504 172.3217)" class="st31" cx="327.2" cy="46.8" rx="0.4" ry="1.1"/>
		<path class="st4" d="M341,36.2c-1,2.8-3.1,5.1-5.8,6.4c-2.5,1.2-5.5,1.6-7.6,3.5"/>
		<path class="st4" d="M341.5,36.7c-0.4,0-0.8-0.3-1-0.7c-0.1-0.4,0.1-0.9,0.4-1.1c0.6,0.4,0.9,1.3,0.6,2"/>
		<path class="st4" d="M323.7,29.2c0.3,0,0.5-0.2,0.6-0.5c0.1-0.3-0.1-0.5-0.3-0.7c-0.9,0.4-0.6,1.1-0.7,1.8c-0.2,0.7-0.6,1.3-0.8,2
			c-0.4,1.5-0.3,3.1,0.1,4.5c0.5,1.5,1.4,2.9,2.1,4.4c0.7,1.5,1,3.2,0.4,4.7"/>
	</g>
	<g>
		<g>
			<g>
				<path class="st1" d="M-15.6-2.6c1-5.3,5.4-8.9,9.8-8c4.4,0.8,7.1,5.8,6.1,11c-1,5.3-5.4,8.9-9.7,8C-13.9,7.6-16.6,2.7-15.6-2.6z
					"/>
			</g>
		</g>
	</g>
	<path class="st4" d="M277.5,135.3c3.1-1.1,6.2-1.9,9.2-3.1c3-1.2,5.9-2.9,7.7-5.2c1.8-2.3,2.1-5.3,0.2-7.1
		c-1.9-1.8-6.2-1.7-8.3,0.4c-2,4.8,2.1,9.8,8.1,9.9c6.5,0.2,12.8-4.8,15.1-10c2.3-5.2,1.7-10.5,1.2-15.7c-0.5-5.1-0.8-10.6,2.1-15.6
		"/>
	<g>
		<path class="st3" d="M169.3,237.3l0.9,30.1l10.7,4c0,0,1.6-14,4.6-34.2C188.6,217,169.3,237.3,169.3,237.3z"/>
		<path class="st7" d="M195.7,215.8c5.2-23.5,13.1-88.5,0.4-97.8c-20.8-15.2-39.9,3.1-36.5,20.7c3.1,16,8.7,67.6,8.7,67.6l-2.2,49.3
			l20.6-0.4C186.9,255.3,192.1,232.2,195.7,215.8z"/>
		<path class="st6" d="M168.4,265.3l-0.3,10l28,0.5c0,0,2.1-1.9-0.5-3.6c-2.5-1.7-11.9-6.7-11.9-6.7L168.4,265.3z"/>
		<path class="st4" d="M196.2,273.5l-27.8-0.6"/>
		<path class="st4" d="M190.2,269.3l-2.7,1.8"/>
		<path class="st4" d="M188,267.7l-2.7,1.8"/>
		<path class="st4" d="M184.7,269.6c1.4,0.5,0.8,1.8-0.4,1.4C183.6,270.8,183.4,269.1,184.7,269.6z"/>
		<path class="st3" d="M146.6,237l0.9,30.1l10.7,4c0,0,1.6-14,4.6-34.2C165.9,216.8,146.6,237,146.6,237z"/>
		<path class="st7" d="M173,215.6c5.2-23.5,13.1-88.5,0.4-97.8c-20.8-15.2-33.6-1.2-30.2,16.4c3.1,16,2.4,71.9,2.4,71.9l-2.2,49.3
			l20.6-0.4C164.1,255,169.3,232,173,215.6z"/>
		<path class="st6" d="M145.7,265l-0.3,10l28,0.5c0,0,2.1-1.9-0.5-3.6c-2.5-1.7-11.9-6.7-11.9-6.7L145.7,265z"/>
		<path class="st4" d="M173.5,273.3l-27.8-0.6"/>
		<path class="st4" d="M167.5,269l-2.7,1.8"/>
		<path class="st4" d="M165.2,267.4l-2.7,1.8"/>
		<path class="st4" d="M161.9,269.3c1.4,0.5,0.8,1.8-0.4,1.4C160.8,270.5,160.6,268.8,161.9,269.3z"/>
		<path class="st14" d="M194.2,138.8c-4.4,6.8-12.8,13.1-12.8,13.1s-4.4,37.5-7.1,59.6"/>
		<path class="st3" d="M244.7,79.5c0.6-4-4.2-10.9-9.4-3.3c-1.5,2.1-6.3,9.3-7.3,9.9c-7.6,5-18.3,15.4-20.2,14.5
			c-8.1-3.7-7.8-16.1-9-24.1c-1.6-10.1-14.5-19.4-19.6-10.8c-4.9,8.3,8,52,23,52.8c16.2,0.9,27.4-23.6,34-29.4
			C238.5,87.2,244.2,82.8,244.7,79.5z"/>
		<path class="st3" d="M183.4,58.8c-1-3-1-4.8-1.2-7.1c-0.4-5-1-10.3-1-10.3s-3.8-1.9-5.7-2.8c-2,8.3-0.9,8.1-6.2,17.8
			c-1.4,2.6-14.4,2.8-14.4,2.8s-3,8.2-3.1,9c-4,18.8,27.7,29.6,27.7,29.6l10.4-23.7C189.9,74.1,184.4,61.8,183.4,58.8z"/>
		<path class="st3" d="M186.1,46.2c1.5,1.2,3.1-1.2,1.8-2.3c-0.3-0.3-0.8-0.3-1.1-0.2"/>
		<path class="st3" d="M188.5,32.9c-0.4,8.8-1.6,16.3-2.4,18.8c-1.1,3.6-4.5,4.4-6.9,4.1c-2.5-0.4-5.5-2.4-5.2-6.3
			c0.3-4.5,1.6-14.4,2.2-16c0.7-1.7,2.4-3.5,4.8-4.5C184.2,27.6,188.6,30.2,188.5,32.9z"/>
		<path class="st3" d="M188.5,32.9c-0.4,8.8-1.6,16.3-2.4,18.8c-1.1,3.6-4.5,4.4-6.9,4.1c-2.5-0.4-5.5-2.4-5.2-6.3
			c0.3-4.5,1.6-14.4,2.2-16c0.7-1.7,2.4-3.5,4.8-4.5C184.2,27.6,188.6,30.2,188.5,32.9z"/>
		<path class="st3" d="M188.5,32.9c-0.4,8.8-1.6,16.3-2.4,18.8c-1.1,3.6-4.5,4.4-6.9,4.1c-2.5-0.4-5.5-2.4-5.2-6.3
			c0.3-4.5,1.6-14.4,2.2-16c0.7-1.7,2.4-3.5,4.8-4.5C184.2,27.6,188.6,30.2,188.5,32.9z"/>
		<path class="st4" d="M184.4,43c0.3,2.8,1.7,4.5-1.4,3.3"/>
		<path class="st4" d="M184.4,43c0.3,2.8,1.7,4.5-1.4,3.3"/>
		<path class="st63" d="M182,42.7c0-0.3-0.1-0.5-0.4-0.6c-0.2,0-0.5,0.2-0.5,0.4c0,0.3,0.1,0.5,0.4,0.6C181.8,43.2,182,43,182,42.7z
			"/>
		<path class="st16" d="M186.6,43.1c0-0.3-0.1-0.5-0.4-0.6c-0.2,0-0.5,0.2-0.5,0.4c0,0.3,0.1,0.5,0.4,0.6
			C186.3,43.6,186.6,43.4,186.6,43.1z"/>
		<path class="st63" d="M186.6,43.1c0-0.3-0.1-0.5-0.4-0.6c-0.2,0-0.5,0.2-0.5,0.4c0,0.3,0.1,0.5,0.4,0.6
			C186.3,43.6,186.6,43.4,186.6,43.1z"/>
		<path class="st3" d="M175.4,45.5c-1.8,0.8-2.7-1.9-1.2-2.7c0.4-0.2,0.8-0.1,1.2,0"/>
		<path class="st8" d="M195,37c-0.5,1.1-4.8,7.3-10.4,1.9c-5.6-5.3-8.9,2.6-9.8,2.4c-2.2-0.3-3.1-4.9-0.7-10
			c1.9-4.1,7.2-4.7,11.8-3.2C190.6,29.8,196.4,27.2,195,37z"/>
		<path class="st11" d="M190,62.6c-0.3-0.4-5.2-2.1-5.2-2.1c-0.7,0.3-1,1.8-2.8,2.7c-4.1,2-9.3,0.3-13-0.6
			c-5.1-1.1-9.8-5.1-15.3-3.9c-9.5,2.1-14.6,4.1-10.4,12.5l-3.9,2.6c-1.3,10.7-1.6,50.9,1.6,62.2c18.5,3.7,43.5-5.1,62-5
			c-0.9-3.1,1.3-40.2-4-58C196,63,191,64,190,62.6z"/>
		<path class="st3" d="M208.8,95.1c0.7-4.9-4.5-17.8-10.3-8.6c-1.6,2.6-5,6.6-6.2,7.4c-8.5,6.1-33.7,16.6-35.9,15.5
			c-2.7-2.1-1.1-21.9-0.4-31.7c0.7-10.4-10.4-22.7-16.1-12.2c-5.5,10.1-6,21.3-6.4,32.5c-0.4,12.9-1.2,32.4,15.5,33.4
			c18,1.1,33.3-15.6,45.6-24.4C200.1,103.2,208.2,99.1,208.8,95.1z"/>
		<path class="st4" d="M201.9,88.7c0.8,2.3,3.5,1.4,4.5-0.1"/>
		<path class="st4" d="M208,89.6c0,1.1-0.8,1.4-1.5,2.1"/>
		<path class="st4" d="M207.5,94.3c0.4-0.3,0.8-0.4,1.1-0.9"/>
		<path class="st4" d="M207.2,97.2l0.5-0.1l0.2-0.1l0.3-0.3l0,0"/>
		<path class="st4" d="M194.5,91.5c0.1,0.3-1-9-2-10"/>
		<path class="st4" d="M154,58.7c6.3,5.1,27.4,13.7,32.7,3.2"/>
		<path class="st3" d="M259.1,68.8l6.5-3.9c0.8-0.5,1.9-0.2,2.5,0.6l0,0c0.5,0.8,0.2,1.9-0.6,2.5l-6.5,3.9c-0.8,0.5-1.9,0.2-2.5-0.6
			l0,0C258,70.4,258.2,69.3,259.1,68.8z"/>
		<path class="st12" d="M201.6,116.1L201,76.4c0-2.4,1.6-4.4,3.8-5l54.2-13.7c3.2-0.8,6.3,1.6,6.3,4.9l-1.4,39c0,2.3-1.4,4.3-3.6,5
			l-52.2,14.5C205,121.9,201.7,119.5,201.6,116.1z"/>
		<path class="st3" d="M261.6,71.9l5-3.3c0.8-0.5,1.9-0.2,2.5,0.6l0,0c0.5,0.8,0.2,1.9-0.6,2.5l-6.5,3.9c-0.8,0.5-1.9,0.2-2.5-0.6
			l0,0C259,74.1,260.8,72.5,261.6,71.9z"/>
		<path class="st3" d="M260.6,76.4l6.5-3.9c0.8-0.5,1.9-0.2,2.5,0.6l0,0c0.5,0.8,0.2,1.9-0.6,2.5l-5.7,2.9c-0.8,0.5-2.8,1.2-3.3,0.3
			l0,0C259.5,78,259.8,76.9,260.6,76.4z"/>
		<g>
			<path class="st3" d="M201.3,102.1c2.4-1.8,4.1-10.2,4.1-10.2s4.2-1.9,6.7-3c2.5-1,0.5-2.7,0.5-2.7l-6.5,1.9c0,0,7.2-5.4,8.2-7
				c1-1.6-2.6-3.1-2.6-3.1l-10.5,5.1l-5.8,8.3l-5.7,4.3"/>
			<path class="st15" d="M205.9,84c2-1.1,4.8-3.2,6.5-4.8"/>
			<path class="st15" d="M204.2,82.8c0.7-0.2,2.1-1.5,2.8-1.9c1.6-1,3.2-2.1,4.9-3"/>
		</g>
		<circle class="st2" cx="236" cy="82.1" r="5.3"/>
	</g>
	<rect x="73.5" y="168" class="st72" width="265" height="174.5"/>
	
		<image style="overflow:visible;" width="535" height="70" xlink:href="EBD61A8.jpg"  transform="matrix(0.7009 0 0 0.7009 13 231)">
	</image>
	<g>
		<g>
			<path d="M185.5,117v61.6H141V117c0.2,0,0.4,0,0.6,0h41.7C183.5,117,185.3,117,185.5,117z"/>
			<path class="st72" d="M144.7,128.9c0,12.6,0,25.2,0,37.8c0.2,0,0.3,0,0.5,0c11.9,0,23.8,0,35.6,0c0.4,0,0.6-0.1,0.6-0.8
				c0-12.1,0-24.2,0-36.3c0-0.2,0-0.5,0-0.7C169.2,128.9,157,128.9,144.7,128.9z M148.7,175c0-1.7,0-3.4,0-5.1c-1.6,0-3.2,0-4.8,0
				c0,1.7,0,3.4,0,5.1C145.5,175,147.1,175,148.7,175z M148.7,125.8c0-1.7,0-3.4,0-5.1c-1.5,0-3.1,0-4.6,0c-0.1,0-0.2,0.3-0.2,0.4
				c0,0.6,0,1.3,0,1.9c0,0.9,0,1.8,0,2.8C145.5,125.8,147.1,125.8,148.7,125.8z M155.1,174.9c1.6,0,3.2,0,4.8,0c0-1.7,0-3.4,0-5.1
				c-1.6,0-3.2,0-4.8,0C155.1,171.6,155.1,173.3,155.1,174.9z M159.9,120.7c-1.6,0-3.2,0-4.8,0c0,1.7,0,3.4,0,5.1c1.6,0,3.2,0,4.8,0
				C159.9,124,159.9,122.4,159.9,120.7z M182.3,120.7c-1.6,0-3.2,0-4.8,0c0,1.7,0,3.4,0,5.1c1.5,0,3.1,0,4.6,0
				c0.1,0,0.2-0.3,0.2-0.5c0-0.7,0-1.4,0-2.1C182.3,122.4,182.3,121.5,182.3,120.7z M177.5,169.8c0,1.8,0,3.4,0,5.2
				c1.6,0,3.2,0,4.8,0c0-1.6,0-3.3,0-4.9c0-0.1-0.2-0.3-0.3-0.3C180.5,169.8,179,169.8,177.5,169.8z M168.7,120.6c-0.7,0-1.4,0-2,0
				c-0.3,0-0.4,0.1-0.4,0.6c0,1.4,0,2.7,0,4.1c0,0.5,0.1,0.6,0.4,0.6c1.3,0,2.7,0,4,0c0.3,0,0.4-0.1,0.4-0.6c0-1.4,0-2.7,0-4.1
				c0-0.5-0.1-0.6-0.4-0.6C170,120.6,169.4,120.6,168.7,120.6z M171.1,175c0-1.6,0-3.1,0-4.6c0-0.5-0.1-0.6-0.4-0.6
				c-1.3,0-2.7,0-4,0c-0.1,0-0.2,0-0.4,0.1c0,1.6,0,3.2,0,4.8c0,0.1,0.2,0.3,0.3,0.3c0.4,0,0.8,0,1.2,0
				C168.8,175,169.9,175,171.1,175z"/>
			<polygon class="st18" points="148.5,161.9 177.4,161.9 173.1,144 163.1,152.8 157.3,149 			"/>
			<ellipse class="st18" cx="152.7" cy="138.5" rx="3.5" ry="3.5"/>
		</g>
		<g>
			<path d="M234.7,117v61.6h-44.5V117c0.2,0,0.4,0,0.6,0h41.7C232.7,117,234.5,117,234.7,117z"/>
			<path class="st72" d="M194,128.9c0,12.6,0,25.2,0,37.8c0.2,0,0.3,0,0.5,0c11.9,0,23.8,0,35.6,0c0.4,0,0.6-0.1,0.6-0.8
				c0-12.1,0-24.2,0-36.3c0-0.2,0-0.5,0-0.7C218.4,128.9,206.2,128.9,194,128.9z M197.9,175c0-1.7,0-3.4,0-5.1c-1.6,0-3.2,0-4.8,0
				c0,1.7,0,3.4,0,5.1C194.7,175,196.3,175,197.9,175z M197.9,125.8c0-1.7,0-3.4,0-5.1c-1.5,0-3.1,0-4.6,0c-0.1,0-0.2,0.3-0.2,0.4
				c0,0.6,0,1.3,0,1.9c0,0.9,0,1.8,0,2.8C194.8,125.8,196.3,125.8,197.9,125.8z M204.3,174.9c1.6,0,3.2,0,4.8,0c0-1.7,0-3.4,0-5.1
				c-1.6,0-3.2,0-4.8,0C204.3,171.6,204.3,173.3,204.3,174.9z M209.1,120.7c-1.6,0-3.2,0-4.8,0c0,1.7,0,3.4,0,5.1c1.6,0,3.2,0,4.8,0
				C209.1,124,209.1,122.4,209.1,120.7z M231.6,120.7c-1.6,0-3.2,0-4.8,0c0,1.7,0,3.4,0,5.1c1.5,0,3.1,0,4.6,0
				c0.1,0,0.2-0.3,0.2-0.5c0-0.7,0-1.4,0-2.1C231.6,122.4,231.6,121.5,231.6,120.7z M226.7,169.8c0,1.8,0,3.4,0,5.2
				c1.6,0,3.2,0,4.8,0c0-1.6,0-3.3,0-4.9c0-0.1-0.2-0.3-0.3-0.3C229.8,169.8,228.3,169.8,226.7,169.8z M218,120.6c-0.7,0-1.4,0-2,0
				c-0.3,0-0.4,0.1-0.4,0.6c0,1.4,0,2.7,0,4.1c0,0.5,0.1,0.6,0.4,0.6c1.3,0,2.7,0,4,0c0.3,0,0.4-0.1,0.4-0.6c0-1.4,0-2.7,0-4.1
				c0-0.5-0.1-0.6-0.4-0.6C219.3,120.6,218.6,120.6,218,120.6z M220.4,175c0-1.6,0-3.1,0-4.6c0-0.5-0.1-0.6-0.4-0.6
				c-1.3,0-2.7,0-4,0c-0.1,0-0.2,0-0.4,0.1c0,1.6,0,3.2,0,4.8c0,0.1,0.2,0.3,0.3,0.3c0.4,0,0.8,0,1.2,0
				C218.1,175,219.2,175,220.4,175z"/>
			<polygon class="st18" points="197.8,161.9 226.6,161.9 222.4,144 212.4,152.8 206.6,149 			"/>
			<ellipse class="st18" cx="202" cy="138.5" rx="3.5" ry="3.5"/>
		</g>
		<g>
			<path d="M284,117v61.6h-44.5V117c0.2,0,0.4,0,0.6,0h41.7C282,117,283.8,117,284,117z"/>
			<path class="st72" d="M243.3,128.9c0,12.6,0,25.2,0,37.8c0.2,0,0.3,0,0.5,0c11.9,0,23.8,0,35.6,0c0.4,0,0.6-0.1,0.6-0.8
				c0-12.1,0-24.2,0-36.3c0-0.2,0-0.5,0-0.7C267.7,128.9,255.5,128.9,243.3,128.9z M247.2,175c0-1.7,0-3.4,0-5.1c-1.6,0-3.2,0-4.8,0
				c0,1.7,0,3.4,0,5.1C244,175,245.6,175,247.2,175z M247.2,125.8c0-1.7,0-3.4,0-5.1c-1.5,0-3.1,0-4.6,0c-0.1,0-0.2,0.3-0.2,0.4
				c0,0.6,0,1.3,0,1.9c0,0.9,0,1.8,0,2.8C244,125.8,245.6,125.8,247.2,125.8z M253.6,174.9c1.6,0,3.2,0,4.8,0c0-1.7,0-3.4,0-5.1
				c-1.6,0-3.2,0-4.8,0C253.6,171.6,253.6,173.3,253.6,174.9z M258.4,120.7c-1.6,0-3.2,0-4.8,0c0,1.7,0,3.4,0,5.1c1.6,0,3.2,0,4.8,0
				C258.4,124,258.4,122.4,258.4,120.7z M280.8,120.7c-1.6,0-3.2,0-4.8,0c0,1.7,0,3.4,0,5.1c1.5,0,3.1,0,4.6,0
				c0.1,0,0.2-0.3,0.2-0.5c0-0.7,0-1.4,0-2.1C280.8,122.4,280.8,121.5,280.8,120.7z M276,169.8c0,1.8,0,3.4,0,5.2c1.6,0,3.2,0,4.8,0
				c0-1.6,0-3.3,0-4.9c0-0.1-0.2-0.3-0.3-0.3C279,169.8,277.5,169.8,276,169.8z M267.2,120.6c-0.7,0-1.4,0-2,0
				c-0.3,0-0.4,0.1-0.4,0.6c0,1.4,0,2.7,0,4.1c0,0.5,0.1,0.6,0.4,0.6c1.3,0,2.7,0,4,0c0.3,0,0.4-0.1,0.4-0.6c0-1.4,0-2.7,0-4.1
				c0-0.5-0.1-0.6-0.4-0.6C268.6,120.6,267.9,120.6,267.2,120.6z M269.6,175c0-1.6,0-3.1,0-4.6c0-0.5-0.1-0.6-0.4-0.6
				c-1.3,0-2.7,0-4,0c-0.1,0-0.2,0-0.4,0.1c0,1.6,0,3.2,0,4.8c0,0.1,0.2,0.3,0.3,0.3c0.4,0,0.8,0,1.2,0
				C267.4,175,268.5,175,269.6,175z"/>
			<polygon class="st18" points="247,161.9 275.9,161.9 271.7,144 261.7,152.8 255.9,149 			"/>
			<ellipse class="st18" cx="251.3" cy="138.5" rx="3.5" ry="3.5"/>
		</g>
	</g>
	<g>
		<text transform="matrix(1 0 0 1 159.4937 147.976)" class="st154 st155">1</text>
	</g>
	<g>
		<text transform="matrix(1 0 0 1 208.4937 147.976)" class="st154 st155">2</text>
	</g>
	<g>
		<text transform="matrix(1 0 0 1 257.4937 147.976)" class="st154 st155">3</text>
	</g>
	<g>
		<g>
			<path class="st19" d="M144.5,155.8c-3.1,2-6.5,1.7-8.1,1.4c-0.3-0.1-0.6-0.1-0.7-0.2c-0.5,0.6-3.2,4.3-8.3,5
				c-3.5,0.5-6.3-0.6-7.9-1.6c-0.8-0.4-1.3-0.8-1.5-1c-1.2,1.1-4.2,3.3-8.5,3.8c-7.9,0.8-11.4-3.3-12-3.9c-0.7,3.9-2.8,7.4-6.7,9.1
				c-2.9,1.3-6.5,0.8-9.2-1.3c0.1,0.3,1.1,6.6-3.6,10.8c-3.4,3-8.4,3.7-12.7,1.8c0.1,0.4-4,1.9-10.5,3.2c-2.6,0.5-7.9-2.6-7.9-2.6
				c-2.1,2.2-7,0.9-9.2-0.7c-2-1.4-2-6.6,2-7.9c0,0-3.7-7.5,2-12.5c5.3-4.6,11.2-5.3,11.2-5.3c0.8-3.1,1.2-9.8,8.5-15.8
				c3.5-2.8,7.9-3.8,10.4-4.6c0.5-1.1,4.4-5.7,11.3-7.9c9.4-3,16.1,2.4,16.4,2.7c1.6-0.9,4.2-2,7.4-2.3c6.6-0.7,11.6,2.2,13.4,3.3
				c1.7-0.1,4.6,0.1,8,1.5c3.8,1.6,6.1,4.1,7.2,5.5c4.6-1.3,9.5,0.1,12.1,3.5C151.3,144.9,149.4,152.6,144.5,155.8z"/>
			<path class="st31" d="M136.4,157.2c-0.3-0.1-0.6-0.1-0.7-0.2c-0.5,0.6-3.2,4.3-8.3,5c-3.5,0.5-6.3-0.6-7.9-1.6
				c0.1-0.2,0.2-0.4,0.4-0.5c1.2-1.4,2.9-0.6,7.9-1.3c2.7-0.4,3.8-0.8,4.6-1.3c1.3-0.8,1.5-1.2,2-2L136.4,157.2z"/>
			<g>
				<path class="st19" d="M53.7,184c-2.2-0.3-3.8-3.3-2.6-5.3c0.7-1.2,2.5-1.8,3.9-1.3c1.8,0.7,2.7,2.9,2,4.6
					C56.5,183.3,55,184.2,53.7,184z"/>
				<path d="M54.5,185c-1.6-0.2-2.7-2.4-1.9-3.8c0.5-0.9,1.8-1.3,2.8-0.9c1.3,0.5,2,2.1,1.4,3.3C56.4,184.6,55.4,185.2,54.5,185z"/>
				<path class="st4" d="M49.8,177.4c-1,3,1.9,5.5,3,5.9"/>
			</g>
			<g>
				<path class="st19" d="M77.4,181.4c-2.2-0.3-3.8-3.3-2.6-5.3c0.7-1.2,2.5-1.8,3.9-1.3c1.8,0.7,2.7,2.9,2,4.6
					C80.1,180.7,78.7,181.6,77.4,181.4z"/>
				<path d="M78.1,182.4c-1.6-0.2-2.7-2.4-1.9-3.8c0.5-0.9,1.8-1.3,2.8-0.9c1.3,0.5,2,2.1,1.4,3.3C80.1,181.9,79.1,182.5,78.1,182.4
					z"/>
				<path class="st4" d="M73.4,174.8c-1,3,1.9,5.5,3,5.9"/>
			</g>
			<g>
				<path class="st19" d="M92.4,170.1c-2.2,0.1-4.3-2.6-3.6-4.7c0.5-1.3,2.1-2.3,3.6-2c1.9,0.3,3.2,2.3,2.8,4.2
					C94.9,168.9,93.7,170,92.4,170.1z"/>
				<path d="M93.3,171c-1.6,0.1-3.1-1.9-2.6-3.4c0.3-1,1.5-1.6,2.6-1.5c1.4,0.2,2.3,1.7,2,3C95.1,170.1,94.2,170.9,93.3,171z"/>
				<path class="st4" d="M87.3,164.3c-0.4,3.1,2.9,5.1,4,5.3"/>
			</g>
			<g>
				<path class="st19" d="M110.9,165.6c-2.2-0.3-3.7-3.4-2.5-5.3c0.7-1.2,2.5-1.8,4-1.2c1.8,0.7,2.7,2.9,1.9,4.6
					C113.6,165,112.2,165.8,110.9,165.6z"/>
				<path d="M111.6,166.7c-1.6-0.2-2.7-2.4-1.8-3.8c0.5-0.9,1.8-1.3,2.8-0.9c1.3,0.5,1.9,2.1,1.4,3.3
					C113.6,166.2,112.5,166.8,111.6,166.7z"/>
				<path class="st4" d="M107,158.9c-1,3,1.8,5.6,2.9,6"/>
			</g>
			<g>
				<path class="st19" d="M123.4,161.7c-2.2-0.3-5.1-4-3.9-5.9c0.7-1.2,3.8-1.2,5.3-0.6c1.8,0.7,2.7,2.9,1.9,4.6
					C126.1,161,124.7,161.9,123.4,161.7z"/>
				<path d="M124.1,162.7c-1.6-0.2-2.7-2.4-1.8-3.8c0.5-0.9,1.8-1.3,2.8-0.9c1.3,0.5,1.9,2.1,1.4,3.3
					C126,162.3,125,162.8,124.1,162.7z"/>
				<path class="st4" d="M119.5,155c-1,3,1.8,5.6,2.9,6"/>
			</g>
			<path class="st4" d="M135.2,136.7c0,0-4.6,4.6-4.6,9.2c0,9.2,5.3,11.2,5.3,11.2"/>
			<path class="st4" d="M120.1,129.4c0,0-5.3,5.9-5.9,13.8c-0.7,7.9,3.9,15.8,3.9,15.8"/>
			<path class="st4" d="M99.1,128.8c0,0-5.9,5.9-4.6,16.4c1.3,10.5,3.3,13.8,3.3,13.8"/>
			<path class="st4" d="M71.4,134c0,0-1.4,8.1,2.6,21.7c2,6.6,7.2,11.2,7.2,11.2"/>
			<path class="st4" d="M52.4,153.8c0,0,0,5.3,3.3,11.2c3.3,5.9,9.9,15.1,9.9,15.1"/>
			<path class="st4" d="M39.2,170.9c0,0,2,5.9,7.9,9.9"/>
			<g>
				<path d="M137.3,149.2c-0.9-0.1-1.5-1.4-1-2.2c0.3-0.5,1-0.7,1.6-0.5c0.7,0.3,1.1,1.2,0.8,1.9
					C138.4,148.9,137.9,149.2,137.3,149.2z"/>
			</g>
			<g>
				<path d="M143.9,149.8c-0.9-0.1-1.5-1.4-1-2.2c0.3-0.5,1-0.7,1.6-0.5c0.7,0.3,1.1,1.2,0.8,1.9C145,149.6,144.4,149.9,143.9,149.8
					z"/>
			</g>
			<path class="st4" d="M135.3,150.7c1,1.1,2.4,1.6,3.8,1.5"/>
			<path class="st31" d="M80.6,153c0.8,1.5,1.8,3.1,3.4,3.8c1.6,0.7,3.7,0.4,4.6-1.1c0.5-0.9,0.5-2.1,0.4-3.2
				c-0.6-6.1-1.4-12.4-4.2-17.9c-1.8-3.6-4.2,0.7-4.6,1.6c-1.4,3.4-1.9,7.1-1.4,10.7C79.1,149.1,79.7,151.1,80.6,153z"/>
			<path class="st31" d="M100.6,142.3c-0.1,2.9,0.9,5.9,2.7,8.1c0.9,1.1,2.2,2.1,3.6,1.8c0.9-0.2,1.7-0.9,2-1.7
				c0.4-0.8,0.5-1.8,0.4-2.7c-0.2-2.7-1.4-5.5-0.6-8.1c0.4-1.3,1.4-2.6,1.1-3.9c-0.5-2.4-4.4-2.8-6-1.4
				C101.7,136.2,100.7,139.7,100.6,142.3z"/>
			<path class="st31" d="M119.8,150.3c1,3.1,3.7,4.1,5.3,3.8c3.3-0.7,1.9-5.5,2-6.6c0.3-3.1,3.9-9.9,0.7-11.8
				C121.3,131.9,118.5,146.2,119.8,150.3z"/>
			<path class="st31" d="M60.6,159.8c1.1,3.1,3.4,5.8,6.3,7.4c0.9,0.5,1.9,0.9,2.9,0.9c1,0,2.1-0.4,2.6-1.3c0.7-1.1,0.3-2.5-0.4-3.6
				c-0.7-1-7-18.7-10.7-14.7c-0.7,0.7-0.8,1.4-0.9,2.2C60,154,59.5,156.7,60.6,159.8z"/>
			<path class="st31" d="M52.1,169.9c-1.3-3.3-2-5.4-3.2-6.2c-1.2-0.8-3.1-0.9-4.1,0.2c-0.7,0.7-0.9,1.8-0.7,2.8
				c0.1,1,0.6,1.9,1.1,2.8c0.9,1.6,1.9,3.2,2.9,4.6c0.8,1.1,2,2.1,3.4,2.4c1,0.2,3.7-0.2,3.9-1.3C55.6,174.2,52.7,171.5,52.1,169.9z
				"/>
			<path class="st18" d="M50,168.6c-0.3-0.5-0.7-1-1.2-1.3c-0.6-0.3-1.4-0.4-1.9,0c-0.4,0.4-0.6,1-0.5,1.5s0.4,1.1,0.7,1.5
				c0.5,0.7,1.2,1.3,1.9,1.8c0.6,0.4,1.7,0.9,2.2,0.2c0.2-0.3,0.2-0.6,0.1-0.9c-0.1-0.5-0.3-1-0.6-1.4
				C50.6,169.6,50.3,169.1,50,168.6z"/>
			<path class="st18" d="M65.5,161.6c0.6,0.5,1.5,0.9,2.1,0.5c0.5-0.3,0.7-0.8,0.7-1.4c0-0.5-0.2-1-0.4-1.5
				c-0.5-1.1-1.1-2.1-1.7-3.1c-0.3-0.5-0.7-1.1-1.3-1.3c-0.6-0.2-1.2,0-1.6,0.4c-0.7,0.8-0.1,2.2,0.1,3.1
				C63.7,159.6,64.4,160.8,65.5,161.6z"/>
			<path class="st18" d="M81.5,148c0.3,1.6,1.1,3.1,2.3,4.2c0.5,0.4,1.2,0.8,1.8,0.5c0.4-0.2,0.6-0.6,0.7-1s0-0.8-0.1-1.3
				c-0.3-1.8-0.9-3.5-1.6-5.1c-0.3-0.7-0.6-1.3-1.2-1.8C80.5,141.1,81.2,146.7,81.5,148z"/>
			<path class="st18" d="M103.8,145.4c0.2,0.5,0.5,1,1.1,1.1c0.7,0.2,1.3-0.4,1.5-1c0.2-0.7,0.1-1.4-0.1-2c-0.2-1-0.4-5.4-2.4-4.1
				C102.3,140.4,103.1,144.1,103.8,145.4z"/>
			<path class="st18" d="M125.9,142.2c-0.1-0.5-0.4-1-0.8-1.2c-0.5-0.2-1.1-0.1-1.6,0.2c-0.4,0.3-0.7,0.8-0.9,1.4
				c-0.4,1.1-0.5,2.3-0.2,3.4c0.3,1.2,1.7,2.4,2.7,1.1C126,146,126.2,143.4,125.9,142.2z"/>
		</g>
		<path d="M84.3,182.4c0,0-25.3,1.4-34.2,1.3c-4.8,0-20.4-1.3-20.4-1.3v4.6c0,0,23.8,0,31.6,0c2.4,0,6.6,0,10.8,0l5.6,5.3l1.3-0.7
			l-2.2-4.6c4.2,0,7.5,0,7.5,0V182.4z"/>
	</g>
</g>
</svg>
