<?xml version="1.0" encoding="utf-8"?>
<!-- Generator: Adobe Illustrator 24.1.2, SVG Export Plug-In . SVG Version: 6.00 Build 0)  -->
<svg version="1.1" xmlns="http://www.w3.org/2000/svg" xmlns:xlink="http://www.w3.org/1999/xlink" x="0px" y="0px"
	 viewBox="0 0 464 515" style="enable-background:new 0 0 464 515;" xml:space="preserve">
<style type="text/css">
	.st0{fill-rule:evenodd;clip-rule:evenodd;fill:#17B1B1;}
	.st1{fill-rule:evenodd;clip-rule:evenodd;fill:#F6BE22;}
	.st2{fill-rule:evenodd;clip-rule:evenodd;fill:#FFFFFF;}
	
		.st3{fill-rule:evenodd;clip-rule:evenodd;fill:#FFFFFF;stroke:#000000;stroke-width:1.33;stroke-linecap:round;stroke-linejoin:round;}
	.st4{fill:none;stroke:#000000;stroke-width:1.33;stroke-linecap:round;stroke-linejoin:round;}
	.st5{fill:#030100;}
	.st6{fill-rule:evenodd;clip-rule:evenodd;fill:#FDD2E1;}
	.st7{fill-rule:evenodd;clip-rule:evenodd;fill:#0A0704;}
	.st8{fill-rule:evenodd;clip-rule:evenodd;fill:#030100;}
	.st9{fill-rule:evenodd;clip-rule:evenodd;fill:#230E04;}
	.st10{fill-rule:evenodd;clip-rule:evenodd;fill:#000047;}
	.st11{fill-rule:evenodd;clip-rule:evenodd;fill:#F51618;}
	.st12{fill-rule:evenodd;clip-rule:evenodd;fill:#919191;}
	
		.st13{fill-rule:evenodd;clip-rule:evenodd;fill:none;stroke:#FFFFFF;stroke-width:1.33;stroke-linecap:round;stroke-linejoin:round;}
	.st14{fill:none;stroke:#FFFFFF;stroke-width:1.33;stroke-linecap:round;stroke-linejoin:round;}
	.st15{fill:#FFFFFF;stroke:#000000;stroke-width:1.33;stroke-linecap:round;stroke-linejoin:round;}
	.st16{fill-rule:evenodd;clip-rule:evenodd;fill:#24160C;}
	.st17{fill:#0A0704;stroke:#0A0704;stroke-miterlimit:10;}
	.st18{fill:#F6BE22;}
	.st19{fill:#17B1B1;}
	.st20{fill-rule:evenodd;clip-rule:evenodd;fill:#FFBE00;}
	.st21{fill-rule:evenodd;clip-rule:evenodd;fill:none;stroke:#000000;stroke-linecap:round;stroke-linejoin:round;}
	.st22{fill:none;stroke:#1A1A1A;stroke-width:1.33;stroke-linecap:round;stroke-linejoin:round;}
	.st23{fill:#0A0704;}
	.st24{fill-rule:evenodd;clip-rule:evenodd;fill:#12847E;}
	.st25{fill:#F51618;}
	.st26{fill:none;stroke:#000000;stroke-miterlimit:10;}
	.st27{fill:#0092FF;}
	.st28{fill:#007994;}
	.st29{fill:none;stroke:#F6BE22;stroke-width:1.33;stroke-linecap:round;stroke-linejoin:round;}
	.st30{fill:#FDD2E1;}
	.st31{fill:#0C9390;}
	
		.st32{fill-rule:evenodd;clip-rule:evenodd;fill:none;stroke:#000000;stroke-width:1.33;stroke-linecap:round;stroke-linejoin:round;}
	.st33{fill:#A9D18F;}
	.st34{stroke:#000000;stroke-linejoin:round;}
	.st35{fill:#C5DFB5;}
	.st36{fill:#FFFA94;}
	.st37{fill-rule:evenodd;clip-rule:evenodd;fill:#0092FF;}
	
		.st38{fill-rule:evenodd;clip-rule:evenodd;fill:#A8A8A8;stroke:#000000;stroke-width:1.33;stroke-linecap:round;stroke-linejoin:round;}
	.st39{fill-rule:evenodd;clip-rule:evenodd;fill:#C5DFB5;}
	.st40{fill-rule:evenodd;clip-rule:evenodd;fill:#A9D18F;}
	.st41{fill:none;stroke:#0066CC;stroke-width:1.33;stroke-linecap:round;stroke-linejoin:round;stroke-miterlimit:10;}
	.st42{fill-rule:evenodd;clip-rule:evenodd;fill:#FFFA94;}
	.st43{fill:#5D5D5D;}
	.st44{clip-path:url(#SVGID_6_);fill:#FFFFFF;}
	.st45{fill-rule:evenodd;clip-rule:evenodd;fill:#00CB99;}
	.st46{fill:none;stroke:#00EDB3;stroke-width:7.42;stroke-linecap:round;stroke-linejoin:round;}
	.st47{fill-rule:evenodd;clip-rule:evenodd;fill:#4971AF;}
	.st48{fill-rule:evenodd;clip-rule:evenodd;fill:#282828;}
	.st49{fill:#FFFBF2;}
	.st50{fill-rule:evenodd;clip-rule:evenodd;fill:#3AE5BB;}
	.st51{fill-rule:evenodd;clip-rule:evenodd;fill:#514A45;}
	.st52{fill-rule:evenodd;clip-rule:evenodd;fill:#F9CB00;}
	.st53{fill-rule:evenodd;clip-rule:evenodd;fill:#05DBED;}
	.st54{fill-rule:evenodd;clip-rule:evenodd;fill:#E9B200;}
	.st55{clip-path:url(#SVGID_8_);}
	.st56{fill:none;stroke:#FFFFFF;stroke-width:3;stroke-linecap:round;stroke-linejoin:round;}
	.st57{fill:none;stroke:#E9B200;stroke-width:5;stroke-miterlimit:10;}
	.st58{fill-rule:evenodd;clip-rule:evenodd;fill:#00DB00;}
	.st59{fill:#00BC00;}
	.st60{fill:#00DB00;}
	.st61{fill:none;}
	.st62{fill:#F4BC23;}
	.st63{fill-rule:evenodd;clip-rule:evenodd;}
	.st64{fill-rule:evenodd;clip-rule:evenodd;fill:#0068AB;}
	.st65{fill:#BEC7C9;}
	.st66{fill:#0068AB;}
	.st67{fill:#005C89;}
	.st68{clip-path:url(#SVGID_10_);fill:none;stroke:#000000;stroke-width:1.33;stroke-linecap:round;stroke-linejoin:round;}
	.st69{fill:#E1A916;}
	.st70{opacity:0.55;}
	.st71{fill:#FDBE43;}
	.st72{fill:#FFFFFF;}
	.st73{fill:#0067A6;}
	.st74{fill:#54D900;}
	.st75{fill:#0068A7;}
	.st76{fill:#0068A5;}
	.st77{fill:#B8B8B8;}
	.st78{fill:#5C5C5C;}
	.st79{fill:#666464;}
	.st80{fill:#5A5959;}
	.st81{fill:#7C7B7B;}
	.st82{fill:#BCBCBC;}
	.st83{fill:#757575;}
	.st84{fill:#D3D0D0;}
	.st85{fill:#0068A4;}
	.st86{fill:#0067A4;}
	.st87{fill:#4AB000;}
	.st88{fill:#7DDF45;}
	.st89{fill:#7FDF47;}
	.st90{fill:#39BB49;}
	.st91{fill:#D5EADA;}
	.st92{fill:#CDE6D3;}
	.st93{fill:#84DA60;}
	.st94{fill:#D3EAD7;}
	.st95{fill:#4AC04D;}
	.st96{fill:#6FD150;}
	.st97{fill-rule:evenodd;clip-rule:evenodd;fill:#BEC7C9;}
	.st98{fill:#D0D1D6;}
	.st99{fill-rule:evenodd;clip-rule:evenodd;fill:#7394E3;}
	
		.st100{fill-rule:evenodd;clip-rule:evenodd;fill:#17B1B1;stroke:#000000;stroke-width:1.33;stroke-linecap:round;stroke-linejoin:round;}
	.st101{fill-rule:evenodd;clip-rule:evenodd;fill:#408E96;}
	.st102{clip-path:url(#SVGID_12_);}
	.st103{fill:#408E96;}
	.st104{clip-path:url(#SVGID_14_);}
	.st105{fill-rule:evenodd;clip-rule:evenodd;fill:#9AF4F1;}
	
		.st106{fill-rule:evenodd;clip-rule:evenodd;fill:#0A0704;stroke:#FFFFFF;stroke-width:1.33;stroke-linecap:round;stroke-linejoin:round;}
	
		.st107{fill-rule:evenodd;clip-rule:evenodd;fill:#F6BE22;stroke:#000000;stroke-width:1.33;stroke-linecap:round;stroke-linejoin:round;}
	.st108{fill-rule:evenodd;clip-rule:evenodd;fill:#FDFDFD;}
	.st109{fill-rule:evenodd;clip-rule:evenodd;stroke:#000000;stroke-width:1.33;stroke-linecap:round;stroke-linejoin:round;}
	.st110{fill-rule:evenodd;clip-rule:evenodd;fill:#F5F5F5;}
	.st111{fill:none;stroke:#F51618;stroke-width:1.33;stroke-linecap:round;stroke-linejoin:round;}
	.st112{clip-path:url(#SVGID_16_);}
	.st113{fill:none;stroke:#F6F6F6;stroke-width:1.33;stroke-linecap:round;stroke-linejoin:round;}
	.st114{fill-rule:evenodd;clip-rule:evenodd;fill:#373737;}
	.st115{fill-rule:evenodd;clip-rule:evenodd;fill:#118484;}
	.st116{fill-rule:evenodd;clip-rule:evenodd;fill:#DCB6C3;}
	.st117{fill-rule:evenodd;clip-rule:evenodd;fill:#262626;}
	.st118{fill-rule:evenodd;clip-rule:evenodd;fill:#D19F14;}
	
		.st119{fill-rule:evenodd;clip-rule:evenodd;fill:#0A0704;stroke:#000000;stroke-width:1.33;stroke-linecap:round;stroke-linejoin:round;}
	.st120{fill-rule:evenodd;clip-rule:evenodd;fill:#D2A21D;}
	.st121{fill:none;stroke:#000000;stroke-width:6.34;stroke-linecap:round;stroke-linejoin:round;}
	.st122{clip-path:url(#SVGID_18_);}
	.st123{fill-rule:evenodd;clip-rule:evenodd;fill:#F6C949;}
	.st124{fill-rule:evenodd;clip-rule:evenodd;fill:#F6F6F6;}
	.st125{fill-rule:evenodd;clip-rule:evenodd;fill:#FDD2E1;stroke:#000000;stroke-width:1.33;stroke-miterlimit:10;}
	.st126{fill-rule:evenodd;clip-rule:evenodd;stroke:#FFFFFF;stroke-width:1.33;stroke-linecap:round;stroke-linejoin:round;}
	
		.st127{fill-rule:evenodd;clip-rule:evenodd;fill:#FFFFFF;stroke:#0A0704;stroke-width:1.33;stroke-linecap:round;stroke-linejoin:round;}
	
		.st128{fill-rule:evenodd;clip-rule:evenodd;fill:#31B767;stroke:#000000;stroke-width:0.75;stroke-linecap:round;stroke-linejoin:round;}
	
		.st129{fill-rule:evenodd;clip-rule:evenodd;fill:#ECB82B;stroke:#000000;stroke-width:0.75;stroke-linecap:round;stroke-linejoin:round;}
	
		.st130{fill-rule:evenodd;clip-rule:evenodd;fill:#E9EBEF;stroke:#000000;stroke-width:0.75;stroke-linecap:round;stroke-linejoin:round;}
	.st131{fill:none;stroke:#000000;stroke-width:0.75;stroke-linecap:round;stroke-linejoin:round;}
	
		.st132{fill-rule:evenodd;clip-rule:evenodd;fill:#E9EBEF;stroke:#000000;stroke-width:1.33;stroke-linecap:round;stroke-linejoin:round;}
	.st133{fill-rule:evenodd;clip-rule:evenodd;fill:#D5CECE;}
	.st134{fill-rule:evenodd;clip-rule:evenodd;fill:#FBF7F7;}
	.st135{fill-rule:evenodd;clip-rule:evenodd;stroke:#000000;stroke-miterlimit:10;}
	.st136{fill-rule:evenodd;clip-rule:evenodd;fill:#FFFFFF;stroke:#000000;stroke-linecap:round;stroke-linejoin:round;}
	.st137{fill:none;stroke:#000000;stroke-linecap:round;stroke-linejoin:round;}
	.st138{fill:#D6AE03;}
	.st139{fill:#F9CB00;}
	.st140{fill-rule:evenodd;clip-rule:evenodd;fill:none;stroke:#000000;stroke-width:7;stroke-linecap:round;stroke-linejoin:round;}
	.st141{fill-rule:evenodd;clip-rule:evenodd;fill:#F7F7F7;}
	.st142{fill:#919191;}
	.st143{clip-path:url(#SVGID_20_);fill:none;stroke:#000000;stroke-width:1.33;stroke-linecap:round;stroke-linejoin:round;}
	.st144{fill:#F6E5DC;}
	.st145{fill:#F4AA1C;}
	.st146{fill:#FBBB1F;}
	.st147{fill:#007CFF;}
	.st148{fill:none;stroke:#000000;stroke-width:1.33;stroke-linecap:round;stroke-linejoin:round;stroke-dasharray:12,15;}
	.st149{fill:#FFBE00;}
	.st150{fill-rule:evenodd;clip-rule:evenodd;fill:#0A0704;stroke:#0A0704;stroke-miterlimit:10;}
	.st151{fill:#F51618;stroke:#000000;stroke-width:1.33;stroke-linecap:round;stroke-linejoin:round;}
	.st152{fill:#5CEAE6;}
	.st153{fill:none;stroke:#000000;stroke-linejoin:round;}
	.st154{fill-rule:evenodd;clip-rule:evenodd;fill:none;}
	.st155{clip-path:url(#SVGID_24_);fill:#FFFFFF;}
	.st156{clip-path:url(#SVGID_26_);fill:none;stroke:#000000;stroke-width:1.33;stroke-linecap:round;stroke-linejoin:round;}
	.st157{clip-path:url(#SVGID_28_);}
</style>
<g id="Guides_For_Artboard">
</g>
<g id="Layer_1">
	<g>
		<line class="st4" x1="196.5" y1="425.5" x2="355" y2="426.5"/>
	</g>
	<g>
		<path class="st11" d="M367.6,113.4c27.2,45,40.9,102.6,50.8,107c1.3-0.7,2.7-6.1,2.7-6.1s-32.3-77.7-45.5-106.2
			C375.6,108.1,368.3,110.2,367.6,113.4z"/>
		<path class="st3" d="M335.7,102.9l-6.6-22.6c0,0-6.4-1.3-9.7-1.8c0.4,13.1-1.5,31-1.5,31s2.3,20.7,4.7,18.7
			C345,129.5,335.7,102.9,335.7,102.9z"/>
		<path class="st3" d="M337.5,373.2l-1.4,45l-16,6c0,0-2.5-20.9-6.9-51.1C308.7,342.9,337.5,373.2,337.5,373.2z"/>
		<path class="st12" d="M298,341.1c-7.8-35.1-19.6-132.3-0.6-146.2c31.1-22.8,59.6,4.7,54.6,30.9c-4.6,23.9-13,101.1-13,101.1
			l3.2,73.8l-30.8-0.7C311.3,400.1,303.4,365.6,298,341.1z"/>
		<path class="st0" d="M338.9,415.1l0.5,15l-41.8,0.8c0,0-3.1-2.8,0.7-5.4c3.8-2.6,17.8-10.1,17.8-10.1L338.9,415.1z"/>
		<path class="st14" d="M297.2,427.3l41.6-0.9"/>
		<path class="st14" d="M306.2,421l4,2.8"/>
		<path class="st14" d="M309.6,418.7l4,2.8"/>
		<path class="st14" d="M314.5,421.5c-2,0.8-1.3,2.8,0.6,2.1C316.2,423.2,316.5,420.7,314.5,421.5z"/>
		<path class="st3" d="M371.5,372.8l-1.4,45l-16,6c0,0-2.5-20.9-6.9-51.1C342.7,342.5,371.5,372.8,371.5,372.8z"/>
		<path class="st12" d="M332,340.7c-7.8-35.1-19.6-132.3-0.6-146.2c31.1-22.8,50.2-1.8,45.1,24.5c-4.6,23.9-3.6,107.6-3.6,107.6
			l3.2,73.8l-30.8-0.7C345.3,399.7,337.4,365.2,332,340.7z"/>
		<path class="st0" d="M372.9,414.7l0.5,15l-41.8,0.8c0,0-3.1-2.8,0.7-5.4c3.8-2.6,17.8-10.1,17.8-10.1L372.9,414.7z"/>
		<path class="st14" d="M331.2,426.9l41.6-0.9"/>
		<path class="st14" d="M340.2,420.6l4,2.8"/>
		<path class="st14" d="M343.6,418.3l4,2.8"/>
		<path class="st14" d="M348.5,421.1c-2,0.8-1.3,2.8,0.6,2.1C350.2,422.9,350.5,420.4,348.5,421.1z"/>
		<path class="st4" d="M300.2,225.9c6.5,10.1,19.1,19.5,19.1,19.5s6.6,56.1,10.6,89.1"/>
		<path class="st52" d="M310.5,209c-34.5-14.4-10.6-53.9-0.4-82.6c2.7-7.6-7.7-15.5,1.4-17.4c2.1-0.5,32.3-4,33-2
			c7,19,3.6,38.4,4,58.8c0.2,10.7,0.4,34.5-4,44.2"/>
		<polygon class="st7" points="318.5,102 324.5,106 335.1,100.5 339.5,104 330.5,112 328.5,117 329.5,144 325.5,155 320.5,145 
			322.5,117 320.5,112 316.5,106 		"/>
		<path class="st3" d="M275.3,189.3l13.6,33.3l-10.9,6.6l-18.5-32L275.3,189.3z"/>
		<path class="st0" d="M254.7,189.2c-0.1,2,1.3,7.5,1.3,7.5s-4.7,1.8-4.6,3.3c0.3,7.4,4.7,9,4.7,9l35.2-12.2l-11.7-39.3
			c0,0-12.9-2.3-20.8,7.1C255.7,168.3,255,182.1,254.7,189.2z"/>
		<path class="st3" d="M315.9,74.2c0.7-0.7-0.8-2.2-2.1-1.6c-1.4,0.6-2,3.1-1.4,4.1c0.4,0.9,1.2,1.2,2.2,1.5"/>
		<path class="st3" d="M318.4,55.9c0,0-6.7,24-6.4,32c0.2,6.1,12.6,9.8,16.1,4.3c3.7-6.2,8.6-30.9,8.6-30.9L318.4,55.9z"/>
		<path class="st4" d="M320.4,74.4c0,0-4.1,3.7-1.5,5"/>
		<g>
			<path class="st9" d="M318.5,72c0.1-0.5-0.1-0.9-0.4-0.9c-0.4-0.1-0.7,0.1-1,0.5c-0.1,0.5,0.1,0.9,0.4,1
				C318,72.6,318.4,72.4,318.5,72z"/>
			<path class="st9" d="M325.3,73.9c0.1-0.5-0.1-0.9-0.4-0.9c-0.4-0.1-0.7,0.1-1,0.5c-0.1,0.5,0.1,0.9,0.4,0.9
				C324.8,74.5,325.2,74.3,325.3,73.9z"/>
		</g>
		<path class="st0" d="M318.8,99.9c-21.1,0.2-38.2,2.3-42.4,7.1c-9.1,10.2,0.4,41.5,0.4,41.5l3.6,86.2c0,0,10.9,15.6,20,15.4
			c9.2-0.2,15.1-17.5,15.1-17.5S320.7,99.9,318.8,99.9z"/>
		<path class="st0" d="M382.4,104.4c-1.2-2.3-23.5-4.3-47.4-4.5c-2.3,0-3.3,35.3-3.6,34.1l-2.8,99.8c0,0,13.1,18.6,14.7,18.7
			c20.3,0.2,31.8-20.2,31.8-20.2S388,114.4,382.4,104.4z"/>
		<path class="st0" d="M276.2,107.4l-18.9,60.3l-1.7,18.4l30.3-0.7l-0.7-48.9L276.2,107.4z"/>
		<path class="st3" d="M331.1,76.1c1.8-1.7,2.7,0,2.8,0.3c1.1,2.9-2.2,5.7-3.9,3.3"/>
		<path class="st0" d="M381.6,105.5l37.2,61.8L389.5,182L357,133.4L381.6,105.5z"/>
		<g>
			<path class="st25" d="M334.9,280.3c-3.8-3.1-4.7-19.1-1.5-46.1c1-8.6,2.2-15.8,3.1-20.7c0.6-1,2.4-3.9,6.1-5.4
				c2.6-1.1,5-0.9,6.1-0.8c19.2,0.3,38.4,0.5,57.6,0.8c0.7-0.2,6.4-1.5,11.5,2.3c4.9,3.7,5.3,9.2,5.4,10c0,20.7-0.5,33.7,0,39.2
				c1.5,15.4,0,20-1.5,21.5c-4.6,4.6-17.9,2.5-22.3,2.3C366.4,281.8,340.6,284.8,334.9,280.3z"/>
			<path class="st4" d="M345.5,275.7c-3.1-2.5-3.8-15.4-1.3-37.4c0.8-7,1.8-12.8,2.5-16.8c0.5-0.8,2-3.1,5-4.4c2.1-0.9,4-0.7,5-0.6
				c15.6,0.2,31.3,0.4,46.9,0.6c0.6-0.1,5.2-1.2,9.4,1.9c4,3,4.3,7.4,4.4,8.1c0,16.8-0.4,27.3,0,31.7c1.3,12.5,0,16.2-1.3,17.4
				c-3.7,3.7-14.6,2-18.1,1.9C371.1,276.9,350.1,279.4,345.5,275.7z"/>
			<path class="st4" d="M333.7,233.8l7.7,0.8c0,0-2.3,25.2-2.3,32.3c0,13.1,10.8,15.3,10.8,15.3"/>
			<path class="st4" d="M398,235.3h-25.5c-2.3,0-4.2-1.9-4.2-4.2v-2.4c0-2.3,1.9-4.2,4.2-4.2H398c2.3,0,4.2,1.9,4.2,4.2v2.4
				C402.1,233.4,400.2,235.3,398,235.3z"/>
			<path class="st25" d="M364.9,211.1c-0.1-1.3-0.8-9.9,5.4-15.4c1.8-1.6,3.8-2.5,5.4-3.1c3-0.6,10-1.6,17.7,1.5
				c3.8,1.6,6.6,3.7,8.5,5.4c0.9,1,2.4,3.1,3.1,6.1c0.9,4-0.3,7.2-0.8,8.5c-2,0-4.1,0-6.1,0c0.8-2.1,1.8-5.8,0.8-10
				c-0.2-0.8-0.5-1.6-0.8-2.3c-2-1.3-6-3.5-11.5-3.8c-3.2-0.2-5.8,0.3-7.7,0.8c-1.2,0.8-3.1,2.2-4.6,4.6c-2.7,4.2-2.5,8.5-2.3,10
				c-2.3,0-4.6,0-6.9,0C364.9,212.6,364.9,211.9,364.9,211.1z"/>
			<polyline class="st4" points="366.8,210.7 372,210.7 372.3,207.5 			"/>
			<polyline class="st4" points="399,208.1 398.7,211.8 403.7,212.3 			"/>
			<path class="st4" d="M409.3,207.5c0,0,3.2,0,6.2,1s5.4,4.6,5.4,4.6"/>
		</g>
		<path class="st3" d="M375.7,212.5c-7.9,7.4-17.7,10.1-17.9,12.3c-0.2,1.8,6.4-0.5,6.4-0.5s-13.8,13.9-12.5,15
			c2.1,1.6,12.4-9.2,12.4-9.2s-6.7,8-4.4,9.4c1.9,1.3,1.7-1.1,7.4-7c-4.7,7.7-5,8.5-4.4,9c2.6,1.6,0.9-0.3,7.1-7.2
			c-2.9,4.7-6,8.3-3.9,9.4c2,1.2,5.3-5.3,10.9-13.4c1.7-2.4,6.6-6.6,7.7-8.8c0.4-0.8,30-33.5,31.4-37.1c5.7-13.5-15.8-11-17.4-12.6
			C397.6,170.7,376.8,213.4,375.7,212.5z"/>
		<path class="st0" d="M419.6,180.9c-1.1,6.1-11.4,20.4-11.4,20.4s3.1,1,1.9,3.6c-1.2,2.6-6.8,6.9-6.8,6.9l-25.7-19.3l20.1-41.8
			C397.8,150.8,424.4,155.6,419.6,180.9z"/>
		<path class="st8" d="M331.1,76.3c0,0-0.7-10.2-1.9-11.4c-3.2-3.3-9.1,1.9-15.8-5.1c-2.3-2.5-1.5-6.7,0.9-8.3
			c2.6-1.9,6.2-1.9,8.3,0.7c0.3,0.3,0.3,1,0.4,1.2c0.1,0.1,1.4-0.8,1.7-0.9c1.1-0.2,2.4-0.1,3.3,0.1c1.4,0.4,3.3,1.7,3.6,3.2
			c0,0.4-0.2,1.3,0,1.6c0.1,0.2,0.8-0.4,1-0.4c0.6-0.2,1.5-0.1,2.2,0c2.3,0.2,4.2,2.7,4.1,5c-0.1,3.5-1.5,5.3-2.7,8.4
			c-0.5,1.2-2,5.3-2,5.3L331.1,76.3z"/>
		<path class="st3" d="M277.6,223.7c0.3,2.8,0.8,4,1.8,7.2c1,3.2,5.7,6.7,6.7,5.1c1.1-1.8-4.1-8.3-5.9-12.5c-0.5-1.2-0.5-4.2-1-5.1
			C279.2,218,277.5,222.5,277.6,223.7z"/>
		<path class="st3" d="M277.9,222.4c-0.4-2.1-2.5,3.6-2.8,5c-0.6,3.3,2.3,7.5,4.8,10.3c2.4,2.9,3.5,3.8,4.4,2.2
			c0.9-1.7-3.3-7.5-3.6-8C278.7,227.4,278.8,227.3,277.9,222.4z"/>
		<path class="st4" d="M342.2,100.1C342,103,342,107,342,110c-1,5-2,9-3,14c-2,30-2,59-1.2,88.9"/>
		<path class="st4" d="M358.6,100.5C359,109,357,118,357,126c-2,27-2,54-2,80.9"/>
		<path class="st4" d="M373.2,102c-0.2,3-1.2,6-1.2,9c1,7,1,15,1,22c-1,24-1,47-2.2,70.6"/>
		<path class="st4" d="M386.5,114.9c-1.1,6,0.2,9.9-0.3,15.8c-1.5,16.6-3.9,33.3-3.5,50"/>
		<path class="st4" d="M397.8,133.6c0.5,19.1-5.2,35.3-6.5,54.3c-0.5,5.5-2.2,7.3-2.1,13"/>
		<path class="st4" d="M408,149c0.3,15.2-2.3,27.4-3.5,42.5c-0.4,4.8,0.2,9.5-0.1,14.4c-0.3,3.9-0.1,1.4-0.1,5.3"/>
		<path class="st4" d="M416.8,162.9c0.2,7-0.6,17-0.8,24"/>
		<path class="st4" d="M287.9,102.3c0.4,14.9-1.1,27.9-1.2,42.8c0,14.3,1.8,28.6,1.3,42.9c-0.5,19.1-0.1,38.2,0.4,57.3"/>
		<path class="st4" d="M303.1,100.4c0.3,11.9-1.9,23.2-2.2,35.2c-0.5,20.7,0.2,41.3,0.8,61.8c0.2,11.5,1.5,22.9,1.8,34.3
			c0.1,3.2-0.1,7.5,0.9,10.7c0.3,0.9,0.7,6.4,0.5,4.3"/>
		<path class="st4" d="M313.4,100.7c0.4,15.9,0.1,30.7,0.9,46.6c0.5,11,1.9,22.1,1.6,33.1"/>
		<path class="st4" d="M268.9,130.1c0.6,22.8,2.4,50.6,3,73.4"/>
		<path class="st4" d="M260.2,160.2c-1.4,12,0.7,24.2,1.4,36.2c0.1,2.5-0.2,6.9,1.1,9.4"/>
		<path class="st4" d="M338.8,114.1c16.2-0.2,32.2-0.3,48.4,0.6"/>
		<path class="st4" d="M273,116.7c14.3,1.1,28.8-1.9,43-2.3"/>
		<path class="st4" d="M336.2,133.5c20.2-1.5,41.2-1.5,61.6,0.6"/>
		<path class="st4" d="M267.5,135.1c15.3,0.4,30.5-0.4,45.8-0.9"/>
		<path class="st4" d="M262.3,153.4c18.2,1.6,37.8,1.7,55.7,0.1"/>
		<path class="st4" d="M332,153.5c6.5,1.4,10.1-0.9,16.7-0.7c8.5,0.3,17.1,0.6,25.5,0.5c4.2,0,8.6,0.8,12.8,0.2
			c7.5-0.9,15.7-2.3,23.2-0.7"/>
		<path class="st4" d="M331,175.5c10.6,1.3,18.1-0.4,28.8,0c15.1,0.5,30,0.3,45,0.1c6.3-0.1,9.1,1.4,15.4,0.8"/>
		<path class="st4" d="M382.1,195.3c9.9,0.7,19.9,0.7,29.9,0.7"/>
		<path class="st4" d="M331,194.5c12.4,0.3,24.9,0.4,37.3,0.5"/>
		<path class="st4" d="M329.5,211.5c2.3-0.6,4.6-0.3,6.9,0.2"/>
		<path class="st4" d="M329.1,227.7c0.2,0.4,3,0.8,3.9,0.9"/>
		<path class="st4" d="M256.2,172.2c2.9-0.3,5.7,0.1,8.7,0.2c13.1,0.4,25.8,0.2,38.8,0.9c5.6,0.3,8.8-0.9,14.3,0.2"/>
		<path class="st4" d="M255.6,193.2c0.1-0.1,13-0.2,15.1-0.2c11.1,0.1,22.3-0.4,33.2,0.9c4.6,0.6,8.8-0.3,13,0.6"/>
		<path class="st4" d="M279.7,212c11.8,3.6,25.2,0.3,37.2,1.3"/>
		<path class="st4" d="M287,232.3c2.6-1.3,5.9,0.4,8.9,0.7c4.8,0.5,13.9,1.8,18.6-0.5"/>
		<path class="st5" d="M370.3,152.2c1.4-0.6,6.2,7.2,14.2,23.2c-1.7,4.6-3.4,9-5.1,13.6C371.7,165.1,370.3,152.2,370.3,152.2z"/>
		<path class="st5" d="M277.6,149.3c-0.6,10.2-1.1,20.4-1.7,30.4l2.3,20.8c0.3,1.7,1.1,15.1,1.4,16.9c-1.1-0.1,2.4-15.9,3.8-18.2
			C281.5,182.5,279.5,165.9,277.6,149.3z"/>
		<path class="st4" d="M320,82.5c0.9,0.3,5-1,5-3"/>
		<path class="st11" d="M365.5,101c-7.5,52-33.4,105.3-28.5,115c1.5,0.3,6-3,6-3s24.2-80.6,32-111C375,102,368,99,365.5,101z"/>
	</g>
	
		<image style="overflow:visible;" width="613" height="71" xlink:href="E09264CF.jpg"  transform="matrix(0.6656 0 0 0.6656 19 453)">
	</image>
	<g>
		<path class="st4" d="M72.5,95.5h66c0,0,15,23,13,43s5,6,5,31s-25,49-25,49"/>
		<path class="st4" d="M164.5,202.5c0,0-12-4-30,58s-6,81,8,80s29-17,29-17"/>
		<path class="st4" d="M167.5,126.5c0,0,19,91,10,120s-26,23-26,23"/>
		<path class="st4" d="M132.5,99.5c0,0,1,54,10,63s23,3,23,3"/>
		<path class="st4" d="M155.5,105.5c0,0,9,69,6,78s-14,92-24,102s-30,11-30,11"/>
		<path class="st4" d="M164.5,183.5c-3,20,2.1,63.4,15,66c10,2,22-8,22-8"/>
		<path class="st4" d="M79.3,74.3c-0.2,6.6,0.5,13.1,2.1,19.5"/>
		<path class="st4" d="M99.1,53.1c3.1,12.3,2.6,25.5-1.4,37.6"/>
		<path class="st4" d="M130.9,64.1c-0.7,5.1,0.9,10.4-0.6,15.3c-1.5,4.7-5.8,8.7-5.5,13.6"/>
		<path class="st4" d="M110,95.2c-0.1-7.1,1.2-14.2,3.6-20.9"/>
		<path class="st4" d="M110.2,323.9c0.4,2.6,2.2,4.9,4.6,5.8c1.1,0.4,2.3,0.6,3.4,0.7c0.7,0,1.5,0,2.2-0.3c0.7-0.3,1.2-0.9,1.7-1.5
			c1.8-2.3,2.9-5,3.1-7.9"/>
		<path class="st4" d="M126.3,303.9c-1,3.4,0.3,7.4,3.1,9.5c0.7,0.5,1.5,0.9,2.4,1.1c1.9,0.3,3.8-0.9,4.9-2.4
			c1.1-1.6,1.5-3.5,1.7-5.4"/>
		<path class="st4" d="M124.6,247.4c0,2.6,0.3,5.7,2.4,7.2c1.4,1,3.2,1,5,1c0.6,0,1.3,0,1.9-0.3c0.6-0.3,1-0.9,1.3-1.5
			c0.4-0.8,0.8-1.7,1-2.6"/>
		<path class="st4" d="M204.4,176.1c-3.5,6.1-8.1,11.4-13.6,15.8c-2.4,1.9-5,3.6-7.9,4.5c-3,0.9-6.1,1-9.2,0.9
			c-1.9-0.1-3.8-0.2-5.4-1.2c-2.6-1.6-3.5-5-4.1-8"/>
		<path class="st4" d="M157.4,117.7c1.9,4,6.5,6,10.8,6.6c1.5,0.2,3.1,0.3,4.6-0.1c1-0.2,1.9-0.7,2.7-1.2c3.9-2.1,7.3-5.2,9.8-8.9"
			/>
		<path class="st4" d="M164.1,82.8c0.1,4.8-2.6,9.5-6.4,12.5c-3.8,3-8.6,4.5-13.4,4.9c-1.8,0.2-4.3-0.4-4.3-2.3"/>
		<g>
			<path class="st4" d="M127.7,117.1c-9.8,15.1-3.3,34.7-13.2,49.8c-8.6-2.4-17.2-4.8-25.8-7.2c9.8-15.1,3.3-34.7,13.2-49.8
				C110.5,112.3,119.1,114.7,127.7,117.1z"/>
			<path class="st63" d="M109,130.9c3.9,1.1,6.6,5.3,6.2,9.4c-0.4,4.1-3.9,6.6-7.8,5.5c-3.9-1.1-6.6-5.3-6.2-9.4
				C101.6,132.3,105.1,129.8,109,130.9z"/>
		</g>
		<g>
			<path class="st52" d="M177.8,129.1c-3.9,9.8-7.8,19.6-11.7,29.5c15.2,13.2,37.8,6.6,53,19.8c3.6-9.7,7.2-19.3,10.8-29
				C215.1,136,192.9,142,177.8,129.1z"/>
			<path class="st14" d="M179.8,137.3c13.5,8,31,5.3,44.4,13.6c-2.3,6.2-4.6,12.4-6.9,18.6c-13.4-8.3-30.9-5.6-44.4-13.6
				C175.2,149.7,177.5,143.5,179.8,137.3z"/>
			<path class="st14" d="M193.6,152.8c1.1-2.9,4.6-4.8,7.9-4.3c3.3,0.6,5,3.5,3.9,6.4c-1.1,2.9-4.6,4.8-7.9,4.2
				C194.2,158.6,192.5,155.8,193.6,152.8z"/>
			<path class="st14" d="M182.3,149.3c0.3-0.8,1.2-1.2,1.9-0.9c0.8,0.3,1.2,1.1,0.9,1.9c-0.3,0.8-1.2,1.2-2,0.9
				C182.4,150.9,182,150,182.3,149.3z"/>
			<path class="st14" d="M212.6,156.3c0.3-0.8,1.2-1.2,1.9-0.9c0.8,0.3,1.2,1.2,0.9,1.9c-0.3,0.8-1.1,1.2-1.9,0.9
				C212.8,157.9,212.4,157.1,212.6,156.3z"/>
		</g>
		<g>
			<path class="st52" d="M146.4,323c2.1,8.5,4.1,17,6.2,25.6c16.6,1.7,28.8-13.6,45.5-11.9c-2.2-8.3-4.3-16.6-6.5-24.9
				C175,309.9,162.8,324.6,146.4,323z"/>
			<path class="st14" d="M151.7,327.7c13-1,23.6-11.2,36.6-12c1.4,5.3,2.8,10.6,4.2,15.9c-13,0.8-23.6,11-36.6,12
				C154.5,338.3,153.1,333,151.7,327.7z"/>
			<path class="st14" d="M168.5,331.6c-0.7-2.5,0.8-5.5,3.3-6.7c2.5-1.2,5,0,5.7,2.5c0.7,2.5-0.8,5.4-3.3,6.6
				C171.7,335.3,169.2,334.1,168.5,331.6z"/>
			<path class="st14" d="M159.1,334.6c-0.2-0.7,0.2-1.3,0.9-1.5c0.7-0.2,1.3,0.2,1.5,0.8c0.2,0.7-0.2,1.4-0.9,1.6
				C160,335.7,159.3,335.3,159.1,334.6z"/>
			<path class="st14" d="M183.1,324.9c-0.2-0.7,0.2-1.4,0.9-1.6c0.7-0.2,1.3,0.2,1.5,0.9c0.2,0.7-0.2,1.3-0.9,1.5
				C183.9,325.9,183.2,325.5,183.1,324.9z"/>
		</g>
		<g>
			<path class="st52" d="M106.7,160.3c4.9,5.5,9.7,11,14.6,16.5c12.9-5.3,16-21.3,29-26.6c-4.9-5.3-9.7-10.6-14.6-15.8
				C122.7,139.4,119.4,155,106.7,160.3z"/>
			<path class="st14" d="M112.4,161.7c9.2-5.8,13-17.5,22.4-23.2c3.1,3.4,6.2,6.8,9.3,10.1c-9.3,5.7-13.2,17.4-22.4,23.2
				C118.6,168.5,115.5,165.1,112.4,161.7z"/>
			<path class="st14" d="M126.3,158c-1.5-1.6-1.5-4.4-0.2-6.2c1.4-1.8,3.7-2,5.2-0.4c1.5,1.6,1.5,4.3,0.1,6.2
				C130.1,159.5,127.8,159.6,126.3,158z"/>
			<path class="st14" d="M120.6,163.9c-0.4-0.4-0.4-1.1,0.1-1.5c0.4-0.4,1.1-0.4,1.4,0c0.4,0.4,0.4,1.1,0,1.5
				C121.6,164.3,121,164.3,120.6,163.9z"/>
			<path class="st14" d="M134.5,147.3c-0.4-0.4-0.4-1.1,0-1.5c0.4-0.4,1.1-0.4,1.5,0.1c0.4,0.4,0.4,1.1-0.1,1.5
				C135.5,147.8,134.9,147.7,134.5,147.3z"/>
		</g>
		<g>
			<path class="st15" d="M179.4,253c8.5,10.6,24.1,10.5,32.6,21.1c-3.7,5.6-7.5,11.2-11.2,16.8c-8.5-10.6-24.1-10.5-32.6-21.1
				C172,264.3,175.7,258.7,179.4,253z"/>
			<path class="st63" d="M185,269.7c1.7-2.5,5.3-3.5,8.2-2.2c2.9,1.2,3.8,4.4,2.1,6.9c-1.7,2.5-5.3,3.5-8.2,2.2
				C184.2,275.4,183.3,272.2,185,269.7z"/>
		</g>
		<g>
			<path class="st4" d="M92.1,273.9c12.8-1.7,20.6-14.4,33.4-16.1c2.7,5.8,5.4,11.7,8.1,17.5c-12.8,1.7-20.6,14.4-33.4,16.1
				C97.6,285.6,94.9,279.8,92.1,273.9z"/>
			<path class="st63" d="M108.4,277.7c-1.2-2.6-0.2-6.1,2.3-7.8c2.4-1.7,5.5-0.9,6.7,1.7c1.2,2.6,0.2,6.1-2.3,7.8
				C112.7,281.1,109.7,280.3,108.4,277.7z"/>
		</g>
		<g>
			<path class="st0" d="M147.1,188.4c-5.5,11-16.1,18-27.1,17.7c-8.8-0.2-15.1-5.1-17.3-7c2.1-3,5.9-7.5,12-10.7
				C129.4,180.6,144.8,187.4,147.1,188.4z"/>
			<line class="st4" x1="138.4" y1="190.3" x2="151.9" y2="186.5"/>
			<line class="st4" x1="121.3" y1="195.1" x2="132.7" y2="191.8"/>
		</g>
		<g>
			<path class="st0" d="M147.7,281.3c9.5-2.8,19.4-0.5,25.3,6.1c4.7,5.3,5.4,11.6,5.5,14.1c-2.9,0.4-7.7,0.7-12.9-1.1
				C152.9,295.9,148.4,283.2,147.7,281.3z"/>
			<line class="st4" x1="153.6" y1="285.3" x2="144" y2="279.5"/>
			<line class="st4" x1="165.9" y1="292.7" x2="157.7" y2="287.8"/>
		</g>
		<g>
			<path class="st0" d="M142.1,86.9c-2.1-9.7,1-19.4,8-24.8c5.7-4.3,12-4.5,14.4-4.4c0.2,3,0.1,7.7-2.1,12.8
				C157.1,82.8,144.1,86.4,142.1,86.9z"/>
			<line class="st4" x1="146.6" y1="81.3" x2="140" y2="90.5"/>
			<line class="st4" x1="154.9" y1="69.6" x2="149.4" y2="77.5"/>
		</g>
		<g>
			<path class="st0" d="M181.7,228.2c3.7-5.8,10-9.1,16-8.3c4.9,0.6,8.1,3.7,9.2,4.9c-1.3,1.6-3.7,3.8-7.3,5.3
				C191,233.6,182.9,228.9,181.7,228.2z"/>
		</g>
		<g>
			<path class="st0" d="M158.6,201.6c6.7-1.5,13.4,0.7,17.2,5.5c3,3.9,3.1,8.3,3.1,10c-2.1,0.2-5.3,0.1-8.8-1.4
				C161.4,212,158.9,203,158.6,201.6z"/>
		</g>
		<g>
			<path class="st0" d="M107.7,216.2c3.7-5.8,10-9.1,16-8.3c4.9,0.6,8.1,3.7,9.2,4.9c-1.3,1.6-3.7,3.8-7.3,5.3
				C117,221.6,108.9,216.9,107.7,216.2z"/>
		</g>
		<g>
			<path class="st0" d="M157,171c6.8-1.1,13.4,1.4,16.8,6.5c2.8,4.1,2.6,8.5,2.5,10.1c-2.1,0-5.3-0.2-8.7-1.9
				C159.2,181.6,157.3,172.4,157,171z"/>
		</g>
		<g>
			<path class="st0" d="M135.9,115.4c4.3-0.7,8.5,0.9,10.7,4.1c1.8,2.6,1.7,5.4,1.6,6.5c-1.3,0-3.4-0.1-5.6-1.2
				C137.3,122.1,136,116.3,135.9,115.4z"/>
		</g>
		<g>
			<path class="st0" d="M157.2,109.2c1.3,3.5,0.7,7.3-1.6,9.7c-1.8,2-4.2,2.4-5,2.6c-0.2-1.1-0.5-2.8,0.1-4.9
				C152,111.7,156.6,109.5,157.2,109.2z"/>
		</g>
		<g>
			<path class="st0" d="M161.5,123.7c0.2,3.9-1.4,6.7-4.1,7.2c-2.2,0.4-4.4-0.8-5.2-1.3c0.1-1.1,0.4-2.8,1.4-4.1
				C156.2,122.2,160.8,123.5,161.5,123.7z"/>
		</g>
		<g>
			<path class="st0" d="M150.4,142.8c-3.8,0.9-6.8-0.2-7.8-2.7c-0.8-2.1,0-4.4,0.3-5.3c1.1-0.1,2.8-0.1,4.3,0.7
				C150.9,137.2,150.4,142.1,150.4,142.8z"/>
		</g>
		<g>
			<path class="st0" d="M90.1,67c5.7-2,11.8-0.9,15.6,3c3.1,3.1,3.6,7,3.7,8.4c-1.8,0.4-4.7,0.6-7.9-0.3
				C93.7,75.8,90.5,68.1,90.1,67z"/>
		</g>
		<g>
			<path class="st0" d="M110.3,93.1c-0.2-6.1,2.8-11.5,7.6-14c3.9-2,7.7-1.3,9.2-1c-0.2,1.8-0.8,4.6-2.7,7.4
				C119.8,92.4,111.5,93,110.3,93.1z"/>
		</g>
		<g>
			<path class="st0" d="M164.3,231.6c2.1,5.2,1.4,10.9-2,14.6c-2.7,3-6.2,3.8-7.5,4c-0.4-1.6-0.8-4.3-0.1-7.3
				C156.4,235.5,163.3,232.1,164.3,231.6z"/>
		</g>
		<g>
			<path class="st0" d="M163.2,219.9c-1.3,5.4-5.3,9.6-10.2,10.7c-4,0.9-7.2-0.6-8.4-1.2c0.6-1.6,1.8-3.9,4.2-6
				C154.5,218.4,162.1,219.7,163.2,219.9z"/>
		</g>
		<g>
			<path class="st0" d="M147.2,315.9c-1.3,5.4-5.3,9.6-10.2,10.7c-4,0.9-7.2-0.6-8.4-1.2c0.6-1.6,1.8-3.9,4.2-6
				C138.5,314.4,146.1,315.7,147.2,315.9z"/>
		</g>
		<g>
			<path class="st0" d="M130.2,336.9c-1.3,5.4-5.3,9.6-10.2,10.7c-4,0.9-7.2-0.6-8.4-1.2c0.6-1.6,1.8-3.9,4.2-6
				C121.5,335.4,129.1,336.7,130.2,336.9z"/>
		</g>
		<g>
			<path class="st0" d="M66.4,61.7c6.7,1.7,11.7,6.6,12.9,12.6c0.9,4.8-0.9,8.8-1.7,10.3c-1.9-0.8-4.8-2.3-7.3-5.2
				C64.3,72.3,66.1,63.1,66.4,61.7z"/>
		</g>
		<g>
			<path class="st0" d="M119,54c6.7,1.7,11.7,6.6,12.9,12.6c0.9,4.8-0.9,8.8-1.7,10.3c-1.9-0.8-4.8-2.3-7.3-5.2
				C116.8,64.5,118.7,55.3,119,54z"/>
		</g>
		<g>
			<path class="st0" d="M113.5,326.8c-6.8,1.2-13.4-1.2-17-6.2c-2.9-4-2.8-8.4-2.7-10.1c2.1-0.1,5.3,0.1,8.8,1.8
				C111.1,316.3,113.2,325.4,113.5,326.8z"/>
		</g>
		<g>
			<path class="st0" d="M165.6,114.3c1.8-14,10.5-25.5,22.4-29.4c9.6-3.1,18.2-0.3,21.4,0.9c-1.1,4.1-3.5,10.3-8.8,16.1
				C187.6,116,168.4,114.6,165.6,114.3z"/>
			<line class="st4" x1="174.2" y1="109" x2="161.1" y2="118.2"/>
			<line class="st4" x1="190.8" y1="97.2" x2="179.7" y2="105.1"/>
		</g>
		<circle class="st0" cx="138" cy="301.4" r="4.3"/>
		<circle class="st0" cx="121.1" cy="242.2" r="2.9"/>
		<circle class="st0" cx="90.1" cy="79" r="4.3"/>
		<circle class="st0" cx="98.9" cy="57.6" r="2.9"/>
		<circle class="st0" cx="137.6" cy="227.8" r="5"/>
		<circle class="st0" cx="185.6" cy="207.8" r="5"/>
		<circle class="st0" cx="134.6" cy="60.8" r="5"/>
	</g>
</g>
</svg>
