<?xml version="1.0" encoding="utf-8"?>
<!-- Generator: Adobe Illustrator 24.1.2, SVG Export Plug-In . SVG Version: 6.00 Build 0)  -->
<svg version="1.1" xmlns="http://www.w3.org/2000/svg" xmlns:xlink="http://www.w3.org/1999/xlink" x="0px" y="0px"
	 viewBox="0 0 460 304" style="enable-background:new 0 0 460 304;" xml:space="preserve">
<style type="text/css">
	.st0{fill-rule:evenodd;clip-rule:evenodd;fill:#17B1B1;}
	.st1{fill-rule:evenodd;clip-rule:evenodd;fill:#F6BE22;}
	.st2{fill-rule:evenodd;clip-rule:evenodd;fill:#FFFFFF;}
	
		.st3{fill-rule:evenodd;clip-rule:evenodd;fill:#FFFFFF;stroke:#000000;stroke-width:1.33;stroke-linecap:round;stroke-linejoin:round;}
	.st4{fill:none;stroke:#000000;stroke-width:1.33;stroke-linecap:round;stroke-linejoin:round;}
	.st5{fill:#030100;}
	.st6{fill-rule:evenodd;clip-rule:evenodd;fill:#FDD2E1;}
	.st7{fill-rule:evenodd;clip-rule:evenodd;fill:#0A0704;}
	.st8{fill-rule:evenodd;clip-rule:evenodd;fill:#030100;}
	.st9{fill-rule:evenodd;clip-rule:evenodd;fill:#230E04;}
	.st10{fill-rule:evenodd;clip-rule:evenodd;fill:#000047;}
	.st11{fill-rule:evenodd;clip-rule:evenodd;fill:#F51618;}
	.st12{fill-rule:evenodd;clip-rule:evenodd;fill:#919191;}
	
		.st13{fill-rule:evenodd;clip-rule:evenodd;fill:none;stroke:#FFFFFF;stroke-width:1.33;stroke-linecap:round;stroke-linejoin:round;}
	.st14{fill:none;stroke:#FFFFFF;stroke-width:1.33;stroke-linecap:round;stroke-linejoin:round;}
	.st15{fill:#FFFFFF;stroke:#000000;stroke-width:1.33;stroke-linecap:round;stroke-linejoin:round;}
	.st16{fill-rule:evenodd;clip-rule:evenodd;fill:#24160C;}
	.st17{fill:#0A0704;stroke:#0A0704;stroke-miterlimit:10;}
	.st18{fill:#F6BE22;}
	.st19{fill:#17B1B1;}
	.st20{fill-rule:evenodd;clip-rule:evenodd;fill:#FFBE00;}
	.st21{fill-rule:evenodd;clip-rule:evenodd;fill:none;stroke:#000000;stroke-linecap:round;stroke-linejoin:round;}
	.st22{fill:none;stroke:#1A1A1A;stroke-width:1.33;stroke-linecap:round;stroke-linejoin:round;}
	.st23{fill:#0A0704;}
	.st24{fill-rule:evenodd;clip-rule:evenodd;fill:#12847E;}
	.st25{fill:#F51618;}
	.st26{fill:none;stroke:#000000;stroke-miterlimit:10;}
	.st27{fill:#0092FF;}
	.st28{fill:#007994;}
	.st29{fill:none;stroke:#F6BE22;stroke-width:1.33;stroke-linecap:round;stroke-linejoin:round;}
	.st30{fill:#FDD2E1;}
	.st31{fill:#0C9390;}
	
		.st32{fill-rule:evenodd;clip-rule:evenodd;fill:none;stroke:#000000;stroke-width:1.33;stroke-linecap:round;stroke-linejoin:round;}
	.st33{fill:#A9D18F;}
	.st34{stroke:#000000;stroke-linejoin:round;}
	.st35{fill:#C5DFB5;}
	.st36{fill:#FFFA94;}
	.st37{fill-rule:evenodd;clip-rule:evenodd;fill:#0092FF;}
	
		.st38{fill-rule:evenodd;clip-rule:evenodd;fill:#A8A8A8;stroke:#000000;stroke-width:1.33;stroke-linecap:round;stroke-linejoin:round;}
	.st39{fill-rule:evenodd;clip-rule:evenodd;fill:#C5DFB5;}
	.st40{fill-rule:evenodd;clip-rule:evenodd;fill:#A9D18F;}
	.st41{fill:none;stroke:#0066CC;stroke-width:1.33;stroke-linecap:round;stroke-linejoin:round;stroke-miterlimit:10;}
	.st42{fill-rule:evenodd;clip-rule:evenodd;fill:#FFFA94;}
	.st43{fill:#5D5D5D;}
	.st44{clip-path:url(#SVGID_6_);fill:#FFFFFF;}
	.st45{fill-rule:evenodd;clip-rule:evenodd;fill:#00CB99;}
	.st46{fill:none;stroke:#00EDB3;stroke-width:7.42;stroke-linecap:round;stroke-linejoin:round;}
	.st47{fill-rule:evenodd;clip-rule:evenodd;fill:#4971AF;}
	.st48{fill-rule:evenodd;clip-rule:evenodd;fill:#282828;}
	.st49{fill:#FFFBF2;}
	.st50{fill-rule:evenodd;clip-rule:evenodd;fill:#3AE5BB;}
	.st51{fill-rule:evenodd;clip-rule:evenodd;fill:#514A45;}
	.st52{fill-rule:evenodd;clip-rule:evenodd;fill:#F9CB00;}
	.st53{fill-rule:evenodd;clip-rule:evenodd;fill:#05DBED;}
	.st54{fill-rule:evenodd;clip-rule:evenodd;fill:#E9B200;}
	.st55{clip-path:url(#SVGID_8_);}
	.st56{fill:none;stroke:#FFFFFF;stroke-width:3;stroke-linecap:round;stroke-linejoin:round;}
	.st57{fill:none;stroke:#E9B200;stroke-width:5;stroke-miterlimit:10;}
	.st58{fill-rule:evenodd;clip-rule:evenodd;fill:#00DB00;}
	.st59{fill:#00BC00;}
	.st60{fill:#00DB00;}
	.st61{fill:none;}
	.st62{fill:#F4BC23;}
	.st63{fill-rule:evenodd;clip-rule:evenodd;}
	.st64{fill-rule:evenodd;clip-rule:evenodd;fill:#0068AB;}
	.st65{fill:#BEC7C9;}
	.st66{fill:#0068AB;}
	.st67{fill:#005C89;}
	.st68{clip-path:url(#SVGID_10_);fill:none;stroke:#000000;stroke-width:1.33;stroke-linecap:round;stroke-linejoin:round;}
	.st69{fill:#E1A916;}
	.st70{opacity:0.55;}
	.st71{fill:#FDBE43;}
	.st72{fill:#FFFFFF;}
	.st73{fill:#0067A6;}
	.st74{fill:#54D900;}
	.st75{fill:#0068A7;}
	.st76{fill:#0068A5;}
	.st77{fill:#B8B8B8;}
	.st78{fill:#5C5C5C;}
	.st79{fill:#666464;}
	.st80{fill:#5A5959;}
	.st81{fill:#7C7B7B;}
	.st82{fill:#BCBCBC;}
	.st83{fill:#757575;}
	.st84{fill:#D3D0D0;}
	.st85{fill:#0068A4;}
	.st86{fill:#0067A4;}
	.st87{fill:#4AB000;}
	.st88{fill:#7DDF45;}
	.st89{fill:#7FDF47;}
	.st90{fill:#39BB49;}
	.st91{fill:#D5EADA;}
	.st92{fill:#CDE6D3;}
	.st93{fill:#84DA60;}
	.st94{fill:#D3EAD7;}
	.st95{fill:#4AC04D;}
	.st96{fill:#6FD150;}
	.st97{fill-rule:evenodd;clip-rule:evenodd;fill:#BEC7C9;}
	.st98{fill:#D0D1D6;}
	.st99{fill-rule:evenodd;clip-rule:evenodd;fill:#7394E3;}
	
		.st100{fill-rule:evenodd;clip-rule:evenodd;fill:#17B1B1;stroke:#000000;stroke-width:1.33;stroke-linecap:round;stroke-linejoin:round;}
	.st101{fill-rule:evenodd;clip-rule:evenodd;fill:#408E96;}
	.st102{clip-path:url(#SVGID_12_);}
	.st103{fill:#408E96;}
	.st104{clip-path:url(#SVGID_14_);}
	.st105{fill-rule:evenodd;clip-rule:evenodd;fill:#9AF4F1;}
	
		.st106{fill-rule:evenodd;clip-rule:evenodd;fill:#0A0704;stroke:#FFFFFF;stroke-width:1.33;stroke-linecap:round;stroke-linejoin:round;}
	
		.st107{fill-rule:evenodd;clip-rule:evenodd;fill:#F6BE22;stroke:#000000;stroke-width:1.33;stroke-linecap:round;stroke-linejoin:round;}
	.st108{fill-rule:evenodd;clip-rule:evenodd;fill:#FDFDFD;}
	.st109{fill-rule:evenodd;clip-rule:evenodd;stroke:#000000;stroke-width:1.33;stroke-linecap:round;stroke-linejoin:round;}
	.st110{fill-rule:evenodd;clip-rule:evenodd;fill:#F5F5F5;}
	.st111{fill:none;stroke:#F51618;stroke-width:1.33;stroke-linecap:round;stroke-linejoin:round;}
	.st112{clip-path:url(#SVGID_16_);}
	.st113{fill:none;stroke:#F6F6F6;stroke-width:1.33;stroke-linecap:round;stroke-linejoin:round;}
	.st114{fill-rule:evenodd;clip-rule:evenodd;fill:#373737;}
	.st115{fill-rule:evenodd;clip-rule:evenodd;fill:#118484;}
	.st116{fill-rule:evenodd;clip-rule:evenodd;fill:#DCB6C3;}
	.st117{fill-rule:evenodd;clip-rule:evenodd;fill:#262626;}
	.st118{fill-rule:evenodd;clip-rule:evenodd;fill:#D19F14;}
	
		.st119{fill-rule:evenodd;clip-rule:evenodd;fill:#0A0704;stroke:#000000;stroke-width:1.33;stroke-linecap:round;stroke-linejoin:round;}
	.st120{fill-rule:evenodd;clip-rule:evenodd;fill:#D2A21D;}
	.st121{fill:none;stroke:#000000;stroke-width:6.34;stroke-linecap:round;stroke-linejoin:round;}
	.st122{clip-path:url(#SVGID_18_);}
	.st123{fill-rule:evenodd;clip-rule:evenodd;fill:#F6C949;}
	.st124{fill-rule:evenodd;clip-rule:evenodd;fill:#F6F6F6;}
	.st125{fill-rule:evenodd;clip-rule:evenodd;fill:#FDD2E1;stroke:#000000;stroke-width:1.33;stroke-miterlimit:10;}
	.st126{fill-rule:evenodd;clip-rule:evenodd;stroke:#FFFFFF;stroke-width:1.33;stroke-linecap:round;stroke-linejoin:round;}
	
		.st127{fill-rule:evenodd;clip-rule:evenodd;fill:#FFFFFF;stroke:#0A0704;stroke-width:1.33;stroke-linecap:round;stroke-linejoin:round;}
	
		.st128{fill-rule:evenodd;clip-rule:evenodd;fill:#31B767;stroke:#000000;stroke-width:0.75;stroke-linecap:round;stroke-linejoin:round;}
	
		.st129{fill-rule:evenodd;clip-rule:evenodd;fill:#ECB82B;stroke:#000000;stroke-width:0.75;stroke-linecap:round;stroke-linejoin:round;}
	
		.st130{fill-rule:evenodd;clip-rule:evenodd;fill:#E9EBEF;stroke:#000000;stroke-width:0.75;stroke-linecap:round;stroke-linejoin:round;}
	.st131{fill:none;stroke:#000000;stroke-width:0.75;stroke-linecap:round;stroke-linejoin:round;}
	
		.st132{fill-rule:evenodd;clip-rule:evenodd;fill:#E9EBEF;stroke:#000000;stroke-width:1.33;stroke-linecap:round;stroke-linejoin:round;}
	.st133{fill-rule:evenodd;clip-rule:evenodd;fill:#D5CECE;}
	.st134{fill-rule:evenodd;clip-rule:evenodd;fill:#FBF7F7;}
	.st135{fill-rule:evenodd;clip-rule:evenodd;stroke:#000000;stroke-miterlimit:10;}
	.st136{fill-rule:evenodd;clip-rule:evenodd;fill:#FFFFFF;stroke:#000000;stroke-linecap:round;stroke-linejoin:round;}
	.st137{fill:none;stroke:#000000;stroke-linecap:round;stroke-linejoin:round;}
	.st138{fill:#D6AE03;}
	.st139{fill:#F9CB00;}
	.st140{fill-rule:evenodd;clip-rule:evenodd;fill:none;stroke:#000000;stroke-width:7;stroke-linecap:round;stroke-linejoin:round;}
	.st141{fill-rule:evenodd;clip-rule:evenodd;fill:#F7F7F7;}
	.st142{fill:#919191;}
	.st143{clip-path:url(#SVGID_20_);fill:none;stroke:#000000;stroke-width:1.33;stroke-linecap:round;stroke-linejoin:round;}
	.st144{fill:#F6E5DC;}
	.st145{fill:#F4AA1C;}
	.st146{fill:#FBBB1F;}
	.st147{fill:#007CFF;}
	.st148{fill:none;stroke:#000000;stroke-width:1.33;stroke-linecap:round;stroke-linejoin:round;stroke-dasharray:12,15;}
	.st149{fill:#FFBE00;}
	.st150{fill-rule:evenodd;clip-rule:evenodd;fill:#0A0704;stroke:#0A0704;stroke-miterlimit:10;}
	.st151{fill:#F51618;stroke:#000000;stroke-width:1.33;stroke-linecap:round;stroke-linejoin:round;}
	.st152{fill:#5CEAE6;}
	.st153{fill:none;stroke:#000000;stroke-linejoin:round;}
	.st154{fill-rule:evenodd;clip-rule:evenodd;fill:none;}
	.st155{clip-path:url(#SVGID_24_);fill:#FFFFFF;}
	.st156{clip-path:url(#SVGID_26_);fill:none;stroke:#000000;stroke-width:1.33;stroke-linecap:round;stroke-linejoin:round;}
	.st157{clip-path:url(#SVGID_28_);}
</style>
<g id="Guides_For_Artboard">
</g>
<g id="Layer_1">
	<rect x="144.1" y="169.7" class="st0" width="63" height="63"/>
	<rect x="79.1" y="169.7" class="st1" width="63" height="63"/>
	<g>
		<circle class="st2" cx="90.1" cy="183.7" r="3"/>
		<circle class="st2" cx="110.1" cy="183.7" r="3"/>
		<circle class="st2" cx="130.1" cy="183.7" r="3"/>
		<circle class="st2" cx="90.1" cy="202.7" r="3"/>
		<circle class="st2" cx="110.1" cy="202.7" r="3"/>
		<circle class="st2" cx="130.1" cy="202.7" r="3"/>
		<circle class="st2" cx="90.1" cy="221.7" r="3"/>
		<circle class="st2" cx="110.1" cy="221.7" r="3"/>
		<circle class="st2" cx="130.1" cy="221.7" r="3"/>
	</g>
	<rect x="209.1" y="169.7" class="st3" width="63" height="63"/>
	<g>
		<path class="st1" d="M261.1,226.6c-2-2.3-2.1-5.2-0.4-6.5c1.8-1.3,4.8-0.4,6.7,1.9c2,2.3,2.1,5.2,0.4,6.5
			C266.1,229.8,263.1,228.9,261.1,226.6z"/>
		<path class="st4" d="M261.9,226c-1.5-1.8-1.7-3.9-0.4-4.9c1.3-0.9,3.5-0.3,5,1.5c1.5,1.8,1.7,3.9,0.4,4.9
			C265.7,228.4,263.4,227.7,261.9,226z"/>
	</g>
	<g>
		<path class="st1" d="M239.7,230.7c-2.2,1.8-4.8,1.9-6,0.2c-1.1-1.6-0.3-4.4,1.9-6.2c2.2-1.8,4.8-1.9,6-0.2
			C242.7,226.1,241.8,228.9,239.7,230.7z"/>
		<path class="st4" d="M239.1,229.9c-1.6,1.3-3.7,1.5-4.5,0.2c-0.8-1.2-0.2-3.3,1.5-4.6c1.6-1.3,3.7-1.4,4.5-0.2
			C241.5,226.5,240.8,228.6,239.1,229.9z"/>
	</g>
	<g>
		<path class="st1" d="M230.4,232c-2.7,0-5.1-1.1-5.2-2.5c-0.1-1.4,2-2.7,4.7-2.7c2.7,0,5.1,1.1,5.2,2.5
			C235.3,230.8,233.1,232,230.4,232z"/>
		<path class="st4" d="M230.3,230.7c-1.4,0-2.6-0.5-2.7-1.3c-0.1-0.7,1-1.3,2.5-1.4c1.4,0,2.6,0.5,2.7,1.3
			C232.8,230.1,231.7,230.7,230.3,230.7z"/>
	</g>
	<g>
		<g>
			<path class="st1" d="M233.5,204.6c0.7-3.4,3.5-5.8,6.4-5.2c2.9,0.5,4.6,3.8,4,7.2c-0.7,3.4-3.5,5.8-6.4,5.2
				C234.6,211.3,232.8,208,233.5,204.6z"/>
			<path class="st4" d="M234.8,204.8c0.5-2.6,2.6-4.4,4.7-4c2.1,0.4,3.4,2.8,2.9,5.5c-0.5,2.6-2.6,4.4-4.7,4
				C235.6,209.9,234.3,207.5,234.8,204.8z"/>
		</g>
		<path class="st5" d="M239.1,205.1l0.2-1.2c0.3,0.2,0.3,0.4,0.3,0.7l0,0l0.9,0.1l0-0.1c0.1-0.9-0.3-1.4-1.1-1.7l0.1-0.5l-0.6-0.1
			l-0.1,0.5c-0.8,0-1.5,0.3-1.6,1.2c-0.2,1,0.5,1.4,1.1,1.7l-0.2,1.4c-0.5-0.2-0.4-0.4-0.4-0.8c0,0,0-0.1,0-0.1l-1-0.2
			c0,0,0,0.1,0,0.1c-0.1,0.9,0.5,1.5,1.2,1.8l-0.1,0.5l0.6,0.1l0.1-0.5c0.9,0,1.5-0.4,1.6-1.4C240.4,205.8,239.8,205.4,239.1,205.1z
			 M238.6,204.8c-0.2-0.1-0.4-0.3-0.3-0.6c0-0.2,0.3-0.4,0.5-0.4L238.6,204.8z M238.7,207.3l0.2-1.2c0.3,0.2,0.4,0.4,0.3,0.7
			C239.2,207.1,239.1,207.3,238.7,207.3z"/>
	</g>
	<rect x="144.1" y="104.7" class="st6" width="63" height="63"/>
	<rect x="209.1" y="104.7" class="st7" width="63" height="63"/>
	<g>
		<path class="st15" d="M101.6,159.5c4.1-7.3,10.9-9.2,22.7-5.2c-2.4-5.3,4.7-15.9,16-4.7c-3.4-17.9,23.5-20,22.1-2.7
			c6.7-8.4,24.5-3.6,17.6,6.4c10.4-2.6,14.6-0.2,21.4,6.2H101.6z"/>
	</g>
	<g>
		<path class="st19" d="M297.1,233.2c-4.1-5.7-8.3-10.3-14-13.3c-7.5-6.5-17.4,0.1-20.1,11.2c-0.1,0.3-0.1,0.7-0.2,1
			c0-0.7-0.1-1.4,0.1-2.1c-0.1-5.1-1.6-12-5.7-12.6c-5.5-0.8-5.4,10.1-5.1,14.9c-0.4-0.5-0.8-1.1-1-1.8c-1.8-2.7-4.4-4.4-7.1-6.1
			c-3.7-1.3-5.1,4.3-6.6,7.8c-0.3,0.5-0.7,0.6-1,1C236.4,233.3,297.1,233.4,297.1,233.2z"/>
	</g>
	
		<image style="overflow:visible;" width="498" height="56" xlink:href="DC6B4236.jpg"  transform="matrix(0.6867 0 0 0.6867 0 291)">
	</image>
	<line class="st15" x1="92.6" y1="233.2" x2="301.6" y2="234.2"/>
	<line class="st15" x1="67.6" y1="238.2" x2="169.6" y2="239.2"/>
	<g>
		<path class="st3" d="M333.6,130.7c0,0,0.1-6.2-1.5-6.5c-1.6-0.3-2-0.2-2-0.2s-0.2,0.9,0.3,1.3c0.5,0.3,1.2,0.4,1.2,0.4l-0.5,2
			l-1.7-2.9l-2.4-3.3c0,0-0.9,0.1-0.4,1.2c0.1,0.4,1.6,2.7,1.6,2.7l1,2.5l-4.1-5c0,0-0.5,0.5-0.2,1.1c0.6,0.9,3,4.7,3,4.7l-3.8-4.2
			c0,0-1.1,0.4-0.3,1.3c0.2,0.3,3.2,4.1,3.2,4.1l-3.8-3.5c0,0-0.8,0.4-0.2,1.1c0.6,0.8,6.9,8.2,6.9,8.2s3.9,5.5,8.6,10.9
			c1.9-2.4,3.7-4.8,5.7-7.2L333.6,130.7z"/>
		<path class="st3" d="M335,147.8l-6.3,2l-17.4-12c-0.6-1.2-2.4-6.4-2.7-6.3c-0.6,0.3,0.2,3.9,0.2,3.9s-5.8-8.4-6.7-7.7
			c-0.5,0.4,3.5,5,3.4,6c0,0.3-4.1-5.6-4.8-5c-0.3,0.3,3.4,5.2,3.4,6c0,0.5-4.4-5.2-4.8-4.9c-0.5,0.3,3.8,5.8,3.5,6.1
			c-0.2,0.3-4.5-5.1-4.8-4.8c-0.4,0.4,4.5,7.4,7.4,11.1c0.7,0.9,12.5,14.7,18.3,17.1c8.9,3.5,15.5-1.5,15.5-1.5L335,147.8z"/>
		<path class="st3" d="M370.3,225.8l-3.4,8.6c2.7,0.9,5,1.9,6.6,2.9c2,1.3,2.8,3.6,1.6,6.5c-1.2,2.9-2.2,8.3,0.3,6.1s9-15.2,9-15.2
			S378.7,230.7,370.3,225.8z"/>
		<path class="st7" d="M385.8,234.4l-1.7-0.9l-6.3,10.6c0,0-2.3-0.8-3.3-0.2c-1,0.6-0.8,2.5-0.8,2.5l2.7,0.4c0,0-1.8,3-2,4.3
			c-0.2,1.2,1,1.2,1,1.2L385.8,234.4z"/>
		<path class="st3" d="M352.6,253.8c0,2.4-1.6,4.2-4.7,4.8c-3.1,0.6-8.2,2.5-5.1,3.4c3.1,1,17.7-0.3,17.7-0.3s0.6-9.3,0.1-21.2
			l-10.7-0.3C351.4,245.4,352.6,250.2,352.6,253.8z"/>
		<path class="st6" d="M368.2,173.1c-4.4-0.5-19.8-6.8-19.8-6.8s-3.5,36.5-4.2,49.8c-0.3,6.6,1.3,16.8,3.9,25.6h14
			c0-1.1-1.4-23-1-25c0.8-3.8,3.5-29.5,4.2-31.3c1.4-3.6,1.8-4.2,2.3-6.2C368.3,175.9,368.2,173.1,368.2,173.1z"/>
		<path class="st6" d="M348.2,212.1c-2.2-2.1,9.4-25.9,11.4-27.9c13.7-13.7,2.7-25.5,2.7-25.5c-2.8,3.5-17,12.2-17,12.2
			s-25.8,44.4-14.8,51.8c7,4.7,25.2,9.1,36.6,12.9l5-11C369.9,223.4,349.7,213.5,348.2,212.1z"/>
		<path class="st7" d="M361.5,262.7l-0.1-1.9l-12.3,0.2c0,0-0.5-2.3-1.6-2.9c-1-0.6-2.6,0.6-2.6,0.6l1.1,2.5c0,0-3.5,0.1-4.7,0.5
			c-1.2,0.5-0.5,1.5-0.5,1.5L361.5,262.7z"/>
		<path class="st3" d="M365.5,139.4c-3.1-0.3-6.2-0.1-9.3-0.3c0.6-3.9,2.8-11.7,2.8-11.7l4.1-0.3
			C363.1,127.2,363.7,132.4,365.5,139.4z"/>
		<path class="st3" d="M357.6,117.2c-0.5,2.5-0.8,4.8-1,6.7c-0.1,0.6-1.3,1.6-1.3,2.1c0,0.3,1,1.1,1,1.1s0,1.3,0,1.9
			c0.1,2.4,2.1,3.4,3.6,3.5c1.6,0.2,3.7-0.6,4.1-3.1c0.5-2.8,1.2-9,1-10.1c-0.2-1.1-1-2.5-2.3-3.5
			C361,114.6,357.9,115.5,357.6,117.2z"/>
		<path class="st16" d="M357.7,123.4c0-0.2,0.2-0.3,0.3-0.3c0.2,0,0.3,0.2,0.3,0.3c0,0.2-0.2,0.3-0.3,0.3
			C357.8,123.7,357.7,123.5,357.7,123.4z"/>
		<path class="st3" d="M360.1,126.7c1,0.7,2-0.8,1.1-1.5c-0.2-0.2-0.5-0.2-0.7-0.1"/>
		<path class="st99" d="M357.6,126.3c0,0,0-0.1,0-0.1"/>
		<path class="st1" d="M363.7,134.6c6.2,1.8,7.9,8.4,7.9,8.4l-0.5,8.6l-3,25.4c0,0-10.7,1.8-15,2c-2.5,0.1-12,0-12,0l1.1-20.3l-5,2
			l-5-14l14.5-10.7C346.6,136,357.5,132.8,363.7,134.6z"/>
		<path class="st4" d="M348.3,152.6c-3,1.3-4.7,4.9-7.8,6.6"/>
		<path class="st7" d="M363.4,128c2.1,0.6,6.6-3.8,6.3-7.9c-0.3-4.1-3.8-6.3-7.9-6.1c-3.9,0.2-5.1-2.2-6.6-0.9
			c-1.6,1.2,1.4,6.9,1.4,6.9s1.8-0.6,3.5,1.6C361.5,123.6,361.3,127.4,363.4,128z"/>
		<polyline class="st4" points="360.6,191.2 348.6,212.2 360.6,218.2 		"/>
		<line class="st4" x1="349.6" y1="230.2" x2="361.1" y2="234"/>
		<line class="st4" x1="341.5" y1="165.5" x2="369.5" y2="164.5"/>
		<line class="st4" x1="341.5" y1="174.5" x2="368.5" y2="173.5"/>
		<line class="st4" x1="345.7" y1="156.3" x2="369.9" y2="155.4"/>
		<line class="st4" x1="336.6" y1="143.9" x2="345" y2="153.9"/>
		<polyline class="st4" points="343.2,139.2 351.5,149.5 371,149.2 		"/>
		<path class="st4" d="M348.5,135.5c0.7,2.3,10,7,10,7c3.5,0.3,9.9,0.7,13.4,0.9"/>
		<line class="st4" x1="356.5" y1="134.5" x2="365.5" y2="135.5"/>
		<path class="st4" d="M341.5,179.5c0,0,11.5-0.3,15.8-0.7c3.2-0.3,10.2-1.3,10.2-1.3"/>
	</g>
	<g>
		<path class="st7" d="M365,124c-2.9-1.7,0.5-4.1,2.8-5.2c3.5-1.7,8.5-0.8,11.3,1.6c4,3.5,2.8,12.8,4.5,17.5
			c2.5,6.9,10.5,2.6,10.5,14c0,1.3-0.5,4-1.4,4.9c-1.6,1.6-4.4-0.2-5.6,2.5c-0.8,1.8,0.2,6-2.3,6.8c-3.7,1.2-10.4-1.1-11.1-5.1
			c-0.3-1.8,0.1-4.5-0.6-6.2c-0.9-2.2-4.1-2.6-4.5-4.7c-0.5-2.4,1.2-4.2,1.6-6.4c0.8-3.9-2.1-6.4-2.1-9.9c0-1.7,2.9-6.2,1-7.6
			C368.1,125.4,366.1,124.7,365,124z"/>
		<path class="st4" d="M364.3,122.6c0.3-5.7,11.7-7.8,15.5-5.2c6.7,4.6,2.6,11.4,4.5,17.4c1.1,3.3,5,4.6,5.8,8c0.8,3-0.2,5-2,7.3"/>
	</g>
	<path class="st19" d="M119.9,224.5c-2.7,0.9-3.5,5.2-4.1,7.7c-0.2-4.1-1.2-16.3-6.1-14.7c-3.9,1.3-5.3,10.6-5.7,14.9
		c-0.3-4.3-2.3-9.4-6-8.4c0.9-11-0.9-30.2-12.3-27.7c-3.4,0.8-7.3,3.3-8.4,8.1c-2.6-3.5-7.6-7.3-10.7-3c-3.6,4.8-2.8,7.6-0.4,12.1
		c-2.2-2.3-5.7-3.4-7.8,2.2C57,219,59.4,224.4,61,227c-3-2.7-10.9-5.3-8.6,3.2c-2.7-4.4-5.6-0.7-6.5,3.4l92.1,0.7
		C138.2,231.9,125.1,222.7,119.9,224.5z"/>
	<g>
		<defs>
			<rect id="SVGID_25_" x="144.1" y="169.7" width="63" height="63"/>
		</defs>
		<clipPath id="SVGID_2_">
			<use xlink:href="#SVGID_25_"  style="overflow:visible;"/>
		</clipPath>
		
			<path style="clip-path:url(#SVGID_2_);fill:none;stroke:#000000;stroke-width:1.33;stroke-linecap:round;stroke-linejoin:round;" d="
			M139.2,211.1c1-12.4,6.8-23.9,13-34.7c2.4-4.2,4.9-8.4,8.3-11.7c3.4-3.4,7.9-5.9,12.8-6c-5.8,28.4-19.2,55.1-38.3,76.9
			c-2,2.3-4.4,4.7-7.4,5.2c-3.3-11,0.1-23.2,6.5-32.8c6.4-9.6,15.6-16.9,24.8-23.8c10.6-7.9,21.8-15.5,34.8-18.1
			c2.4-0.5,5.3-0.6,6.8,1.3c1.1,1.4,1,3.4,0.8,5.2c-2.5,18.6-13.3,35.1-25.4,49.4c-7.3,8.6-15.1,16.6-23.5,24.1
			c-0.4-3.8-0.8-7.6,0-11.3c0.7-3.9,2.7-7.5,4.6-10.9c11.5-20,26.7-38,44.5-52.7c1.3-1.1,2.7-2.2,4.3-2.6c1.6-0.5,3.6-0.1,4.6,1.2
			c0.8,1,0.9,2.3,0.9,3.6c0.7,14.3-0.8,28.8-4.4,42.7c-1.8,7.1-4.6,14.6-10.6,18.9c-2.2,1.6-4.8,2.6-7.3,3.5
			c-2.4,0.9-4.8,1.6-7.2,2.3c-0.6,0.2-1.3,0.3-1.9,0c-0.6-0.4-0.8-1.2-0.9-1.9c-0.8-7.6,2.5-15.1,6.4-21.7c4.7-8,11.2-15.8,20.2-18
			c1.6-0.4,3.6-0.5,4.7,0.8c0.5,0.6,0.7,1.5,0.8,2.3c1.3,8.2,0.5,16.7-2.3,24.5c-1.1,3.2-2.6,6.3-4.8,9c-0.2,0.3-0.6,0.6-0.9,0.4
			s0.1-0.8,0.2-0.5"/>
	</g>
	<g>
		<defs>
			<rect id="SVGID_27_" x="209.1" y="104.7" width="63" height="63"/>
		</defs>
		<clipPath id="SVGID_4_">
			<use xlink:href="#SVGID_27_"  style="overflow:visible;"/>
		</clipPath>
		<g style="clip-path:url(#SVGID_4_);">
			<line class="st14" x1="222.1" y1="97.3" x2="219.2" y2="201"/>
			<line class="st14" x1="232.2" y1="97.3" x2="235.7" y2="183.3"/>
			<line class="st14" x1="244.6" y1="96.8" x2="244" y2="173.2"/>
			<line class="st14" x1="264.2" y1="92.6" x2="260" y2="189.8"/>
			<line class="st14" x1="193.1" y1="115.7" x2="277.2" y2="118.7"/>
			<line class="st14" x1="197.8" y1="138.2" x2="278.4" y2="135.9"/>
			<line class="st14" x1="186.6" y1="157.2" x2="282" y2="156"/>
		</g>
	</g>
	<g>
		<g>
			<path class="st3" d="M227.8,55.1c3.7,0.4,10.6-2.5,10.6-2.5s1.8,6.6,2.3,8.1c-6.3,1-9.5,5-15.7,6C224.8,62.9,228,58.8,227.8,55.1
				z"/>
			<path class="st3" d="M247.9,50.9c0,0-3.1,11.6-5.2,14.8c-1.6,2.5-7.7,1-7.7-2.2c-0.1-3.5,4-14.9,4-14.9L247.9,50.9z"/>
			<path class="st4" d="M243.4,57.5c-0.3,1.1,0.8,1.6-0.6,1.6"/>
			<g>
				<path class="st8" d="M244.8,57c0-0.2,0.2-0.4,0.4-0.3c0.2,0,0.3,0.2,0.3,0.4c0,0.2-0.2,0.4-0.4,0.3
					C244.9,57.4,244.8,57.3,244.8,57z"/>
				<path class="st8" d="M241.5,56.1c0-0.2,0.2-0.4,0.4-0.3c0.2,0,0.3,0.2,0.3,0.4c0,0.2-0.2,0.3-0.4,0.3
					C241.6,56.6,241.5,56.4,241.5,56.1z"/>
			</g>
			<path class="st8" d="M238.3,60.5c-2,0.6-0.9-5.1-0.9-5.1s1.2-0.2,1.8-1c1-1.1,1.5-2.8,1.4-2.7c-0.2,0.1-3.2-1.6-3.3-1.2
				c0,0.2-2,6.9-2,6.9l-2.5,5.6l3,4.1l5.4,1.1l3.2-2.4c0,0,0-2.3,0.3-3.9C244.8,61.5,240.4,59.8,238.3,60.5z"/>
			<path class="st3" d="M237.5,56.3c-0.3-1.1-1.1-0.7-1.2-0.5c-1.2,1-0.3,3,1,2.3"/>
			<path class="st8" d="M237.2,51.4c2.1,1.9,4.9,1.5,7.5,1.6c1.6,0,3.3,0.8,5,0.4c2.3-0.4,5.8-4.3,3.2-6.3c-3-2.2-4.3,0.3-6.8,0.2
				c-0.8,0-1.2-0.6-1.9-0.9c-2.4-1-5.6-1.9-7.1,1.1c-0.3,0.5-0.4,1-0.5,1.5C236.4,50,236.5,50.9,237.2,51.4z"/>
			<path class="st8" d="M246.7,52.8c-0.5,0.5-0.5,1.4-0.6,2c0,0.1,0,1.2,0.3,1c0.6-0.3,1.7-4.1,1.6-4.7"/>
		</g>
		<g>
			<g>
				<polygon class="st3" points="120.8,110.7 112.6,114.9 117.2,124.5 125.9,119.4 				"/>
				<g>
					<path class="st11" d="M120.3,124l3.5-1.3c0,0-2.1-3.9-3.7-3.4c-1.6,0.5-2.8,2.9-2.8,2.9L120.3,124z"/>
					<path class="st11" d="M120.2,124.2l-1.3-4.1c0,0-3.4-4-3-4.7c0.2-0.4,0.3-1.4,0.2-2.3c0-0.5-0.5-1.7-0.9-1.5
						c-0.4,0.2-1.1,0.4-2,0.4c-2.6,0-5.5,2.2-5.5,2.2l0.3,5.4l0.7,14.8l0.8,10.2c0,0,3.8,1.6,4.8-1.3
						C115.8,138.9,120.2,124.2,120.2,124.2z"/>
					<path class="st1" d="M119.9,124.4l-1.3-4.1l-2.1,0.8l-0.4,3.5c0,0-2.6,8.1-2.6,11.7c0,3.6,1.6,2.9,1.6,2.9L119.9,124.4z"/>
					<path class="st32" d="M116.3,135.9l-1.5-0.3"/>
					<path class="st32" d="M117,133.6l-1.5-0.3"/>
					<path class="st32" d="M117.6,131.4l-1.5-0.3"/>
					<path class="st32" d="M118.3,129l-1.5-0.3"/>
					<path class="st4" d="M114.7,141l-1.5,1.1c0,0-0.6-3.5-1.7-5.5c-1-1.9-1.5-2.5-1.5-2.5"/>
					<path class="st1" d="M110.1,134.2c0,0,2.6,0,3.3-2.4c1.1-3.9,1.7-16,1.7-16l-1.8-0.5c0,0-0.1,7.2-1,9c-0.9,1.8-2.1,1.3-2.1,1.3
						L110.1,134.2z"/>
					<path class="st4" d="M109.8,119.6c3.2-1.5,3.2-4.2,3.2-4.2l2.6,0.5"/>
					<path class="st132" d="M109,113.7l1.1,11l-0.5,20l-1.2-0.7l-2.3-29.2L109,113.7z"/>
				</g>
				<path class="st19" d="M174.4,55.3l-23.2,33.8l-35.4,21.1l9.9,15.7c0,0,35.1-12.9,39.4-17.8c3.6-4.1,24.3-27.1,28.4-34.4
					c0.8-1.4-6.7-1.9-6.7-1.9L174.4,55.3z"/>
				<polygon class="st3" points="174.2,92.5 160.4,94 165.6,103.8 175.6,102.4 				"/>
				<path class="st15" d="M226.6,64.8l5.8,25.1c0,0,25.4,6.9,30.2,7.7c1.7,0.3,7.3,4,7.3,4c3.2,1.8,6.2,4.7,6.2,4.7
					s-0.3,0.9-2.4,0.2c-2.2-0.8-4.4-2.7-4.4-2.7s-5.6,0.5-6.6,0.3c-1.3-0.3,2.9,4,2.9,4s0.1,2.2-2.6,0c-1.1-0.9-6.2-4.2-6.2-4.2
					s-38.6-3.8-39-10.9c-0.3-7.1-4-32.3-4-32.3L226.6,64.8z"/>
				<path class="st25" d="M188.3,45.6l3.5,22.7c0,0,23.2,18.8,38,8.4c0,0-1.2-6.5-0.8-8.9c1.5-8.2,2.6-13.4-3.4-18.8
					C219.6,43.5,188.3,45.6,188.3,45.6z"/>
				<path class="st19" d="M188.2,45.4c0,0-26.2,2.1-23.2,16.8c3,14.6,26,25.8,26,25.8l-19.1,2.2l1.1,14.9c0,0,56.2,0.3,57-3.9
					c3.5-18.9-33.4-34.5-33.4-34.5L188.2,45.4z"/>
				<path class="st4" d="M201.5,87.2l-9.2,0.6"/>
				<g>
					<path class="st11" d="M168,103.3l3.3-1.8c0,0-2.7-3.6-4.2-2.9c-1.5,0.7-2.3,3.3-2.3,3.3L168,103.3z"/>
					<path class="st11" d="M167.9,103.6l-1.9-3.9c0,0-4-3.5-3.6-4.3c0.1-0.3,0.3-0.7,0.4-1.2c0.2-0.7-0.4-2.3-1.1-2.1
						c-0.6,0.1-1.3,0.3-2.3,0.4c-2.5,0.4-5.3,3-5.3,3l1.1,5.3l2.9,14.5l2.3,10c0,0,4,1,4.6-2C165.7,118.7,167.9,103.6,167.9,103.6z"
						/>
					<path class="st1" d="M167.6,103.8l-1.9-3.9l-2,1.1l0.1,3.6c0,0-1.3,8.3-0.8,11.9c0.5,3.6,2,2.6,2,2.6L167.6,103.8z"/>
					<path class="st32" d="M165.8,115.7l-1.5-0.1"/>
					<path class="st32" d="M166.1,113.3l-1.5-0.1"/>
					<path class="st32" d="M166.4,111.1l-1.5-0.1"/>
					<path class="st32" d="M166.7,108.6l-1.5-0.1"/>
					<path class="st4" d="M164.9,121l-1.3,1.3c0,0-1.2-3.4-2.5-5.2c-1.3-1.8-1.9-2.3-1.9-2.3"/>
					<path class="st1" d="M159.4,115c0,0,2.6-0.4,2.9-2.9c0.5-4-0.7-16.1-0.7-16.1l-1.9-0.3c0,0,1,7.2,0.3,9
						c-0.7,1.9-1.9,1.6-1.9,1.6L159.4,115z"/>
					<path class="st4" d="M156.9,100.5c2.9-2,2.6-4.6,2.6-4.6l2.6,0.1"/>
					<path class="st132" d="M155.3,94.8l2.7,10.7l2.4,19.8l-1.3-0.5l-6.6-28.5L155.3,94.8z"/>
				</g>
			</g>
			<path class="st4" d="M174.9,78.3c7.2,6.4,17.4,9.9,17.4,9.9l-19.3,2.3"/>
			<path class="st3" d="M211.3,70.1l27.6,21.2l32.6,3.4c0,0,4.4,2.4,9.1,3.7c4.7,1.2,5.5-0.3,5.5-0.3l6.7-1.4c0,0,0.3-0.7,0.2-1.2
				c-0.1-0.5-1-1-1-1l3-1.7c0,0-0.2-0.6-0.8-1.3c-0.6-0.7-1.6-0.4-1.6-0.4l1.1-1.1c0,0-1-1.2-1.8-1c-1.3,0.3-5.4,1.4-5.4,1.4
				l-5.5-2.2c0,0,3.1-1.4,4.8-2.7c0.8-0.2,1.6-2.3,1.6-2.3s-3.7,1.2-8.3,0.5c-4.6-0.7-7-0.4-7-0.4l-27.6-6.7l-15.1-13L211.3,70.1z"
				/>
			<path class="st3" d="M293.1,90.7l-4.7,2.4l-3.7-0.5"/>
			<path class="st3" d="M283.1,94.6l5,1.1l4.3-1.1"/>
			<polyline class="st151" points="203.5,68.9 217.2,80 233.3,66.2 223.6,56 			"/>
		</g>
	</g>
	<line class="st15" x1="329.5" y1="263.5" x2="386.5" y2="263.5"/>
</g>
</svg>
