<?xml version="1.0" encoding="utf-8"?>
<!-- Generator: Adobe Illustrator 24.1.2, SVG Export Plug-In . SVG Version: 6.00 Build 0)  -->
<svg version="1.1" xmlns="http://www.w3.org/2000/svg" xmlns:xlink="http://www.w3.org/1999/xlink" x="0px" y="0px"
	 viewBox="0 0 720 610" style="enable-background:new 0 0 720 610;" xml:space="preserve">
<style type="text/css">
	.st0{fill-rule:evenodd;clip-rule:evenodd;fill:#17B1B1;}
	.st1{fill-rule:evenodd;clip-rule:evenodd;fill:#F6BE22;}
	.st2{fill-rule:evenodd;clip-rule:evenodd;fill:#FFFFFF;}
	
		.st3{fill-rule:evenodd;clip-rule:evenodd;fill:#FFFFFF;stroke:#000000;stroke-width:1.33;stroke-linecap:round;stroke-linejoin:round;}
	.st4{fill:none;stroke:#000000;stroke-width:1.33;stroke-linecap:round;stroke-linejoin:round;}
	.st5{fill:#030100;}
	.st6{fill-rule:evenodd;clip-rule:evenodd;fill:#FDD2E1;}
	.st7{fill-rule:evenodd;clip-rule:evenodd;fill:#0A0704;}
	.st8{fill-rule:evenodd;clip-rule:evenodd;fill:#030100;}
	.st9{fill-rule:evenodd;clip-rule:evenodd;fill:#230E04;}
	.st10{fill-rule:evenodd;clip-rule:evenodd;fill:#000047;}
	.st11{fill-rule:evenodd;clip-rule:evenodd;fill:#F51618;}
	.st12{fill-rule:evenodd;clip-rule:evenodd;fill:#919191;}
	
		.st13{fill-rule:evenodd;clip-rule:evenodd;fill:none;stroke:#FFFFFF;stroke-width:1.33;stroke-linecap:round;stroke-linejoin:round;}
	.st14{fill:none;stroke:#FFFFFF;stroke-width:1.33;stroke-linecap:round;stroke-linejoin:round;}
	.st15{fill:#FFFFFF;stroke:#000000;stroke-width:1.33;stroke-linecap:round;stroke-linejoin:round;}
	.st16{fill-rule:evenodd;clip-rule:evenodd;fill:#24160C;}
	.st17{fill:#0A0704;stroke:#0A0704;stroke-miterlimit:10;}
	.st18{fill:#F6BE22;}
	.st19{fill:#17B1B1;}
	.st20{fill-rule:evenodd;clip-rule:evenodd;fill:#FFBE00;}
	.st21{fill-rule:evenodd;clip-rule:evenodd;fill:none;stroke:#000000;stroke-linecap:round;stroke-linejoin:round;}
	.st22{fill:none;stroke:#1A1A1A;stroke-width:1.33;stroke-linecap:round;stroke-linejoin:round;}
	.st23{fill:#0A0704;}
	.st24{fill-rule:evenodd;clip-rule:evenodd;fill:#12847E;}
	.st25{fill:#F51618;}
	.st26{fill:none;stroke:#000000;stroke-miterlimit:10;}
	.st27{fill:#0092FF;}
	.st28{fill:#007994;}
	.st29{fill:none;stroke:#F6BE22;stroke-width:1.33;stroke-linecap:round;stroke-linejoin:round;}
	.st30{fill:#FDD2E1;}
	.st31{fill:#0C9390;}
	
		.st32{fill-rule:evenodd;clip-rule:evenodd;fill:none;stroke:#000000;stroke-width:1.33;stroke-linecap:round;stroke-linejoin:round;}
	.st33{fill:#A9D18F;}
	.st34{stroke:#000000;stroke-linejoin:round;}
	.st35{fill:#C5DFB5;}
	.st36{fill:#FFFA94;}
	.st37{fill-rule:evenodd;clip-rule:evenodd;fill:#0092FF;}
	
		.st38{fill-rule:evenodd;clip-rule:evenodd;fill:#A8A8A8;stroke:#000000;stroke-width:1.33;stroke-linecap:round;stroke-linejoin:round;}
	.st39{fill-rule:evenodd;clip-rule:evenodd;fill:#C5DFB5;}
	.st40{fill-rule:evenodd;clip-rule:evenodd;fill:#A9D18F;}
	.st41{fill:none;stroke:#0066CC;stroke-width:1.33;stroke-linecap:round;stroke-linejoin:round;stroke-miterlimit:10;}
	.st42{fill-rule:evenodd;clip-rule:evenodd;fill:#FFFA94;}
	.st43{fill:#5D5D5D;}
	.st44{clip-path:url(#SVGID_6_);fill:#FFFFFF;}
	.st45{fill-rule:evenodd;clip-rule:evenodd;fill:#00CB99;}
	.st46{fill:none;stroke:#00EDB3;stroke-width:7.42;stroke-linecap:round;stroke-linejoin:round;}
	.st47{fill-rule:evenodd;clip-rule:evenodd;fill:#4971AF;}
	.st48{fill-rule:evenodd;clip-rule:evenodd;fill:#282828;}
	.st49{fill:#FFFBF2;}
	.st50{fill-rule:evenodd;clip-rule:evenodd;fill:#3AE5BB;}
	.st51{fill-rule:evenodd;clip-rule:evenodd;fill:#514A45;}
	.st52{fill-rule:evenodd;clip-rule:evenodd;fill:#F9CB00;}
	.st53{fill-rule:evenodd;clip-rule:evenodd;fill:#05DBED;}
	.st54{fill-rule:evenodd;clip-rule:evenodd;fill:#E9B200;}
	.st55{clip-path:url(#SVGID_8_);}
	.st56{fill:none;stroke:#FFFFFF;stroke-width:3;stroke-linecap:round;stroke-linejoin:round;}
	.st57{fill:none;stroke:#E9B200;stroke-width:5;stroke-miterlimit:10;}
	.st58{fill-rule:evenodd;clip-rule:evenodd;fill:#00DB00;}
	.st59{fill:#00BC00;}
	.st60{fill:#00DB00;}
	.st61{fill:none;}
	.st62{fill:#F4BC23;}
	.st63{fill-rule:evenodd;clip-rule:evenodd;}
	.st64{fill-rule:evenodd;clip-rule:evenodd;fill:#0068AB;}
	.st65{fill:#BEC7C9;}
	.st66{fill:#0068AB;}
	.st67{fill:#005C89;}
	.st68{clip-path:url(#SVGID_10_);fill:none;stroke:#000000;stroke-width:1.33;stroke-linecap:round;stroke-linejoin:round;}
	.st69{fill:#E1A916;}
	.st70{opacity:0.55;}
	.st71{fill:#FDBE43;}
	.st72{fill:#FFFFFF;}
	.st73{fill:#0067A6;}
	.st74{fill:#54D900;}
	.st75{fill:#0068A7;}
	.st76{fill:#0068A5;}
	.st77{fill:#B8B8B8;}
	.st78{fill:#5C5C5C;}
	.st79{fill:#666464;}
	.st80{fill:#5A5959;}
	.st81{fill:#7C7B7B;}
	.st82{fill:#BCBCBC;}
	.st83{fill:#757575;}
	.st84{fill:#D3D0D0;}
	.st85{fill:#0068A4;}
	.st86{fill:#0067A4;}
	.st87{fill:#4AB000;}
	.st88{fill:#7DDF45;}
	.st89{fill:#7FDF47;}
	.st90{fill:#39BB49;}
	.st91{fill:#D5EADA;}
	.st92{fill:#CDE6D3;}
	.st93{fill:#84DA60;}
	.st94{fill:#D3EAD7;}
	.st95{fill:#4AC04D;}
	.st96{fill:#6FD150;}
	.st97{fill-rule:evenodd;clip-rule:evenodd;fill:#BEC7C9;}
	.st98{fill:#D0D1D6;}
	.st99{fill-rule:evenodd;clip-rule:evenodd;fill:#7394E3;}
	
		.st100{fill-rule:evenodd;clip-rule:evenodd;fill:#17B1B1;stroke:#000000;stroke-width:1.33;stroke-linecap:round;stroke-linejoin:round;}
	.st101{fill-rule:evenodd;clip-rule:evenodd;fill:#408E96;}
	.st102{clip-path:url(#SVGID_12_);}
	.st103{fill:#408E96;}
	.st104{clip-path:url(#SVGID_14_);}
	.st105{fill-rule:evenodd;clip-rule:evenodd;fill:#9AF4F1;}
	
		.st106{fill-rule:evenodd;clip-rule:evenodd;fill:#0A0704;stroke:#FFFFFF;stroke-width:1.33;stroke-linecap:round;stroke-linejoin:round;}
	
		.st107{fill-rule:evenodd;clip-rule:evenodd;fill:#F6BE22;stroke:#000000;stroke-width:1.33;stroke-linecap:round;stroke-linejoin:round;}
	.st108{fill-rule:evenodd;clip-rule:evenodd;fill:#FDFDFD;}
	.st109{fill-rule:evenodd;clip-rule:evenodd;stroke:#000000;stroke-width:1.33;stroke-linecap:round;stroke-linejoin:round;}
	.st110{fill-rule:evenodd;clip-rule:evenodd;fill:#F5F5F5;}
	.st111{fill:none;stroke:#F51618;stroke-width:1.33;stroke-linecap:round;stroke-linejoin:round;}
	.st112{clip-path:url(#SVGID_16_);}
	.st113{fill:none;stroke:#F6F6F6;stroke-width:1.33;stroke-linecap:round;stroke-linejoin:round;}
	.st114{fill-rule:evenodd;clip-rule:evenodd;fill:#373737;}
	.st115{fill-rule:evenodd;clip-rule:evenodd;fill:#118484;}
	.st116{fill-rule:evenodd;clip-rule:evenodd;fill:#DCB6C3;}
	.st117{fill-rule:evenodd;clip-rule:evenodd;fill:#262626;}
	.st118{fill-rule:evenodd;clip-rule:evenodd;fill:#D19F14;}
	
		.st119{fill-rule:evenodd;clip-rule:evenodd;fill:#0A0704;stroke:#000000;stroke-width:1.33;stroke-linecap:round;stroke-linejoin:round;}
	.st120{fill-rule:evenodd;clip-rule:evenodd;fill:#D2A21D;}
	.st121{fill:none;stroke:#000000;stroke-width:6.34;stroke-linecap:round;stroke-linejoin:round;}
	.st122{clip-path:url(#SVGID_18_);}
	.st123{fill-rule:evenodd;clip-rule:evenodd;fill:#F6C949;}
	.st124{fill-rule:evenodd;clip-rule:evenodd;fill:#F6F6F6;}
	.st125{fill-rule:evenodd;clip-rule:evenodd;fill:#FDD2E1;stroke:#000000;stroke-width:1.33;stroke-miterlimit:10;}
	.st126{fill-rule:evenodd;clip-rule:evenodd;stroke:#FFFFFF;stroke-width:1.33;stroke-linecap:round;stroke-linejoin:round;}
	
		.st127{fill-rule:evenodd;clip-rule:evenodd;fill:#FFFFFF;stroke:#0A0704;stroke-width:1.33;stroke-linecap:round;stroke-linejoin:round;}
	
		.st128{fill-rule:evenodd;clip-rule:evenodd;fill:#31B767;stroke:#000000;stroke-width:0.75;stroke-linecap:round;stroke-linejoin:round;}
	
		.st129{fill-rule:evenodd;clip-rule:evenodd;fill:#ECB82B;stroke:#000000;stroke-width:0.75;stroke-linecap:round;stroke-linejoin:round;}
	
		.st130{fill-rule:evenodd;clip-rule:evenodd;fill:#E9EBEF;stroke:#000000;stroke-width:0.75;stroke-linecap:round;stroke-linejoin:round;}
	.st131{fill:none;stroke:#000000;stroke-width:0.75;stroke-linecap:round;stroke-linejoin:round;}
	
		.st132{fill-rule:evenodd;clip-rule:evenodd;fill:#E9EBEF;stroke:#000000;stroke-width:1.33;stroke-linecap:round;stroke-linejoin:round;}
	.st133{fill-rule:evenodd;clip-rule:evenodd;fill:#D5CECE;}
	.st134{fill-rule:evenodd;clip-rule:evenodd;fill:#FBF7F7;}
	.st135{fill-rule:evenodd;clip-rule:evenodd;stroke:#000000;stroke-miterlimit:10;}
	.st136{fill-rule:evenodd;clip-rule:evenodd;fill:#FFFFFF;stroke:#000000;stroke-linecap:round;stroke-linejoin:round;}
	.st137{fill:none;stroke:#000000;stroke-linecap:round;stroke-linejoin:round;}
	.st138{fill:#D6AE03;}
	.st139{fill:#F9CB00;}
	.st140{fill-rule:evenodd;clip-rule:evenodd;fill:none;stroke:#000000;stroke-width:7;stroke-linecap:round;stroke-linejoin:round;}
	.st141{fill-rule:evenodd;clip-rule:evenodd;fill:#F7F7F7;}
	.st142{fill:#919191;}
	.st143{clip-path:url(#SVGID_20_);fill:none;stroke:#000000;stroke-width:1.33;stroke-linecap:round;stroke-linejoin:round;}
	.st144{fill:#F6E5DC;}
	.st145{fill:#F4AA1C;}
	.st146{fill:#FBBB1F;}
	.st147{fill:#007CFF;}
	.st148{fill:none;stroke:#000000;stroke-width:1.33;stroke-linecap:round;stroke-linejoin:round;stroke-dasharray:12,15;}
	.st149{fill:#FFBE00;}
	.st150{fill-rule:evenodd;clip-rule:evenodd;fill:#0A0704;stroke:#0A0704;stroke-miterlimit:10;}
	.st151{fill:#F51618;stroke:#000000;stroke-width:1.33;stroke-linecap:round;stroke-linejoin:round;}
	.st152{fill:#5CEAE6;}
	.st153{fill:none;stroke:#000000;stroke-linejoin:round;}
	.st154{fill-rule:evenodd;clip-rule:evenodd;fill:none;}
	.st155{clip-path:url(#SVGID_24_);fill:#FFFFFF;}
	.st156{clip-path:url(#SVGID_26_);fill:none;stroke:#000000;stroke-width:1.33;stroke-linecap:round;stroke-linejoin:round;}
	.st157{clip-path:url(#SVGID_28_);}
</style>
<g id="Guides_For_Artboard">
</g>
<g id="Layer_1">
	<g>
		<rect x="281" y="60" class="st3" width="183" height="105"/>
		<rect x="383.5" y="73.5" class="st3" width="35" height="58"/>
		<rect x="297" y="71" class="st20" width="50" height="26"/>
		<rect x="321" y="141" class="st0" width="16" height="18"/>
		<rect x="342" y="141" class="st0" width="16" height="18"/>
		<rect x="297" y="111" class="st8" width="76" height="13"/>
		<g>
			<path class="st4" d="M395.4,80.1c5.6,0,11.2,0,16.8,0"/>
			<path class="st4" d="M361.2,80.1c8.3,0,16.7,0,25,0"/>
			<path class="st4" d="M383.4,86.1c9.6,0,19.2,0,28.8,0"/>
			<path class="st4" d="M361.2,86.1c3.5,0,7,0,10.5,0"/>
			<path class="st4" d="M401.4,92.1c3.6,0,7.2,0,10.8,0"/>
			<path class="st4" d="M361.2,92.1c9,0,18,0,27.1,0"/>
			<path class="st4" d="M384.1,98.1c9.4,0,18.7,0,28.1,0"/>
			<path class="st4" d="M361.2,98.1c4,0,8,0,12,0"/>
		</g>
		<rect x="433" y="75" class="st11" width="16.9" height="16.9"/>
		<rect x="433" y="103.4" class="st11" width="16.9" height="16.9"/>
		<rect x="433" y="131.8" class="st11" width="16.9" height="16.9"/>
		<rect x="429.1" y="78.4" class="st21" width="16.9" height="16.9"/>
		<rect x="429.1" y="106.8" class="st21" width="16.9" height="16.9"/>
		<rect x="429.1" y="135.1" class="st21" width="16.9" height="16.9"/>
	</g>
	<g>
		<polygon class="st1" points="152.4,326.9 260.8,326.9 259.7,321.7 151.4,321.7 		"/>
		<line class="st4" x1="289.4" y1="410.7" x2="260.2" y2="327.5"/>
		<line class="st4" x1="214.3" y1="327.5" x2="214.3" y2="410.7"/>
		<line class="st4" x1="153" y1="327.5" x2="138.4" y2="410.7"/>
	</g>
	<g>
		<polygon class="st1" points="452.4,326.9 560.8,326.9 559.7,321.7 451.4,321.7 		"/>
		<line class="st4" x1="589.4" y1="410.7" x2="560.2" y2="327.5"/>
		<line class="st4" x1="514.3" y1="327.5" x2="514.3" y2="410.7"/>
		<line class="st4" x1="453" y1="327.5" x2="438.4" y2="410.7"/>
	</g>
	<g>
		<polygon class="st1" points="313.4,326.9 421.8,326.9 420.7,321.7 312.4,321.7 		"/>
		<line class="st4" x1="450.4" y1="410.7" x2="421.2" y2="327.5"/>
		<line class="st4" x1="375.3" y1="327.5" x2="375.3" y2="410.7"/>
		<line class="st4" x1="314" y1="327.5" x2="299.4" y2="410.7"/>
	</g>
	<g>
		<path class="st0" d="M239.5,170.6l-19,63.3l40.4,18.5c0,0-5.9-28.4-6.9-51.4C253.1,181.7,239.5,170.6,239.5,170.6z"/>
		<path class="st3" d="M285.1,277.2c7.4,6.5,22,7.5,21.1,11.9c-0.3,1.3-5.7-1.8-5.8-0.3c-0.3,3.6,14.7,10.3,11.9,13.1
			c-1.7,1.7-11.6-8-11.6-8s6.3,7,4.4,8.4c-1.7,1.2-1.6-1-7-6.1c4.5,6.8,4.9,7.5,4.3,8c-2.3,1.5-0.8-0.3-6.6-6.3
			c2.8,4.2,5.7,7.3,3.9,8.4c-1.7,1.1-5-4.6-10.4-11.7c-1.6-2.1-6.2-5.7-7.3-7.7C279.5,282.1,281.7,280.7,285.1,277.2z"/>
		<path class="st3" d="M284.7,273l5.3,5.6l-8,8.3l-6.4-4.9L284.7,273z"/>
		<path class="st0" d="M235,247.1l36.8,44.6l18.6-17.7L256,230.3l-15.5,6.1L235,247.1z"/>
		<path class="st14" d="M287.6,270.7c0,0-13.9,12.3-18.3,16.4"/>
		<path class="st3" d="M208.6,147.7c-0.3-0.8,1.4-1.6,2.4-0.6s0.6,3.2-0.2,4c-0.6,0.6-1.5,0.6-2.4,0.5"/>
		<path class="st3" d="M189.3,173.4c1.7-6.9,5.2-20.7,5.2-20.7s5.8-1.3,8.7-1.9c0.1,11.9,1.3,17.8,1.4,29.8
			C197.5,179.9,196.2,173.9,189.3,173.4z"/>
		<path class="st3" d="M211.6,131.7c0,0-2.3,22.5-5.2,29.1c-2.3,5-14,4.1-14.9-1.7c-1.2-6.4,2.9-28.9,2.9-28.9L211.6,131.7z"/>
		<path class="st4" d="M202.3,145.8c-0.2,2,2,2.8-0.6,3.2"/>
		<g>
			<path class="st9" d="M204.7,144.5c0-0.4,0.3-0.8,0.6-0.6c0.3,0,0.6,0.3,0.6,0.8c0,0.4-0.3,0.8-0.6,0.6
				C205.1,145.2,204.7,144.9,204.7,144.5z"/>
			<path class="st9" d="M198.3,143.9c0-0.4,0.3-0.8,0.6-0.6c0.3,0,0.6,0.3,0.6,0.8c0,0.4-0.3,0.6-0.6,0.6
				C198.6,144.6,198.3,144.3,198.3,143.9z"/>
		</g>
		<path class="st0" d="M247.6,184.6l-3.3,27.9l-1,70.3l-13.4,6.7c0,0-31.5,0.6-43.7,1.2c-18.4,0.9-27.7-7.9-27.7-7.9l-10.1-93.3
			c-0.8-7.3,4.7-13.8,12-14.3l73.5-4.9C242,169.6,248.5,176.5,247.6,184.6z"/>
		<path class="st14" d="M208.9,208l1.8,81.6"/>
		<path class="st14" d="M202.4,233.7c0-1.3-1-2.5-2.3-2.5c-1.3,0-2.4,1.1-2.4,2.4s1,2.5,2.3,2.5c0.8,0,1.4-0.3,1.8-1
			C202.2,234.8,202.4,234.2,202.4,233.7z"/>
		<path class="st14" d="M203.1,259.2c0-1.3-1-2.5-2.3-2.5c-1.3,0-2.4,1.1-2.4,2.4c0,1.3,1,2.5,2.3,2.5c0.8,0,1.4-0.3,1.9-1
			C202.9,260.2,203.1,259.8,203.1,259.2z"/>
		<path class="st8" d="M196.8,152.4c-3.5,1.7-3.1-9.2-3.1-9.2s2.1-0.8,3.1-2.4c1.5-2.3,1.9-5.6,1.7-5.4c-0.4,0.2-6.4-1.9-6.6-1.2
			c0,0.3-1.6,13.4-1.6,13.4l-3,11.1l6.9,6.7l10.3,0.4l5.3-5.4c0,0-0.8-4.2-0.6-7.4C209.1,152.4,200.4,150.5,196.8,152.4z"/>
		<path class="st3" d="M193.9,144.8c-1-1.9-2.3-1-2.5-0.6c-1.9,2.1,0.3,5.6,2.5,4.1"/>
		<path class="st8" d="M191.9,135.9c4.4,2.9,9.5,1.3,14.4,0.6c3-0.4,6.4,0.4,9.3-0.6c4.2-1.4,9.5-9.8,4.1-12.6
			c-6.2-3.2-7.9,1.8-12.6,2.4c-1.5,0.2-2.4-0.9-3.8-1.2c-4.8-1.1-11.1-1.9-12.9,4.2c-0.3,1-0.4,1.9-0.4,3
			C190.1,133.4,190.5,135.1,191.9,135.9z"/>
		<path class="st8" d="M210.1,135.6c-0.8,1.1-0.5,2.7-0.5,4c0,0.1,0.3,2.3,0.9,1.8c1-0.8,2-8.1,1.5-9.1"/>
		<line class="st14" x1="241" y1="209.1" x2="244.5" y2="258"/>
		<line class="st14" x1="257" y1="232.1" x2="250" y2="236.1"/>
		<g>
			<path class="st0" d="M162,176c0,0-10.7-0.9-17,9c-7.1,11.1-1.6,40.8,1.7,52.6c1,3.8,1.7,7.8,2.2,11.7c0.7,6.1,3.6,15.1,15.1,9.4
				c24.3-3.5,13.2-38.8,13.2-38.8L162,176z"/>
			<g>
				<path class="st8" d="M239,241.7c5.1,9.6,10.2,19.9,15.2,29.4c0.6,1.7,1,2.8,1.4,4.1c0.2,0.5-0.6,0.9-1,0.5c-1.1-1-2.2-2-3.2-3
					L236,242.8c-0.3-0.6,0-1.4,0.7-1.7l0,0C237.6,240.7,238.6,240.9,239,241.7z"/>
				<path class="st3" d="M218.3,252c11-3,31,3.5,30.6,5.8c-0.2,1.6-2.4,0-4.8,0c6.3,5.2,13.7,10.8,13.2,12.1c-0.5,1.3-6.2-4.4-12-7
					c6.4,4.9,4.2,6.6,4.2,6.6s-0.2,0.1-6.4-4c4.4,3.8,3.9,4.2,3.3,4.7c-1.5,1.2-3-0.3-5.5-2.6c2.5,2.3,2.8,3.5,1.3,4.2
					c-1,0.5-1.8-0.4-8.3-6.5c-1.9-1.8-9.7-5.2-19.2-5.4C211.7,255.6,215.6,256,218.3,252z"/>
				<path class="st3" d="M217.2,250.3l7.6,0.9l-0.8,11.6L216,263L217.2,250.3z"/>
				<path class="st0" d="M167.5,264.4l54.6,3.5l0.3-20.5l-53.1-14.5c0,0-18.2,12.3-19.1,18.5C147.1,262.2,167.5,264.4,167.5,264.4z"
					/>
				<path class="st14" d="M216.7,267.9l1.5-20.2L180,235.4"/>
			</g>
			<line class="st14" x1="163.9" y1="197.8" x2="180" y2="235.7"/>
			<line class="st14" x1="180" y1="235.4" x2="172.6" y2="239.5"/>
		</g>
		<path class="st3" d="M274.5,360c0,0,0.2,9,6.6,26.3c6.3,17.3,18.7,43,18.7,43l17.8-0.9l-18.2-74.1L274.5,360z"/>
		<path class="st8" d="M161.7,288c0,0-0.1,3.4,0.1,4.8c0.4,3.3,2.1,6.8,4,9.6c2,3.1,5,6.8,8.4,9.7c5.7,4.9,12.6,7.8,17.3,2.7
			c0.1-0.1,17.2,0.4,17.2,0.4s22.1-8.9,28.4-11.9c0.8-0.4,1-11.6,1-11.6L161.7,288z"/>
		<path class="st14" d="M249.4,322.9c-0.4,3.5,2,20.2,2.5,27.6"/>
		<path class="st8" d="M254.8,321.5c1.7,7,19.1,49.1,19.3,54.6c14.1,2.4,33.8-5,33.8-5s-11.4-48-28.4-72.5
			c-10.1-14.6-42.3-23.2-65.6-17.4c-23.3,5.8-23,26.3-23,26.3S251.5,308.4,254.8,321.5z"/>
		<g>
			<path class="st8" d="M295.2,422.5l4.6,14.4l40-13.6c0,0,1.9-3.8-2.5-4.8c-4.5-1.2-20.4-3.4-20.4-3.4L295.2,422.5z"/>
			<path class="st14" d="M338.8,419.8L299,433.3"/>
			<path class="st14" d="M328.1,416.9l-2.9,4"/>
			<path class="st14" d="M324.2,415.9l-2.9,4"/>
			<path class="st14" d="M320.2,415.1l-2.9,4"/>
		</g>
		<path class="st3" d="M227.8,360.1c0,0-1.4,6.3,4.8,24.6c6.2,18.3,19.9,48.6,19.9,48.6l19-0.8l-18.4-72.3L227.8,360.1z"/>
		<g>
			<path class="st8" d="M248.9,427.3l-0.4,15.1l42.2,0.5c0,0,3.1-2.8-0.8-5.4c-3.9-2.6-18-10.1-18-10.1L248.9,427.3z"/>
			<path class="st14" d="M291,439.4l-42-0.6"/>
			<path class="st14" d="M281.8,433.1l-4.1,2.8"/>
			<path class="st14" d="M278.5,430.7l-4.1,2.8"/>
			<path class="st14" d="M275.1,428.7l-4.1,2.8"/>
		</g>
		<path class="st8" d="M210.1,328.3c1.7,7,17.6,48.3,17.5,50.2l34.3-2.3c0,0-2.3-20.1-13.6-53.4c-15.8-46.2-30.4-42.1-42.1-42.3
			c-19.3-0.4-37.7-1.8-46,4.9c-6.8,5.6-4.3,22.1,8.2,32.9C180.9,329.1,206.9,315.2,210.1,328.3z"/>
		<path class="st14" d="M214.9,280.6c11.1,6.8,23.1,10.1,29.8,22.3"/>
		<path class="st14" d="M161,290.6c0,3.7,2.3,7,4,10.2c1.7,3.2,7.1,4,10.2,4.5c6.9,1,13.3,1,19.9,3.4c2.4,0.9,13.1,16.1,15.9,22.8"
			/>
		<path class="st8" d="M223.3,383.6l-0.5-12l40.5-2l3.5,12L223.3,383.6z"/>
		<path class="st8" d="M272.7,379.6l-2.1-11.2l37.2-3.2l3.2,12.7L272.7,379.6z"/>
	</g>
	<g>
		<g>
			<path class="st8" d="M505.5,150.6c-0.8,0.4-2,2-2,8c0,2.9,1.6,5.4,2,6c1.5,2,5.8,1.8,8-2c1.8-3,0.1-7-2-9
				C510.1,152.2,507.3,149.6,505.5,150.6z"/>
			<path class="st3" d="M505.6,207L488,219.1l-10,28c0,0-7.1,11.1-12.2,19.2c-6.8,10.8-13.5,16.1-23.2,20.3
				c-0.4,0.2-0.6,0.3-0.7,0.6c-0.6,1.7,4,0.6,4,0.6s-12.8,8.2-11.7,9.7c0.6,1,6.8-4.5,8.5-4.3c0.5,0.1-7.8,5.5-6.9,6.8
				c0.4,0.5,7-4.4,8.5-4.3c0.9,0-7.2,6-6.8,6.8c0.5,1,8.2-4.9,8.6-4.4c0.4,0.4-7,6.2-6.6,6.8c0.6,0.8,10.9-6,17.6-10.6
				c3.7-2.5,7.2-5.4,10.5-8.4l26.4-24.6l6.2-29.2l27.8,13.5L505.6,207z"/>
			<path class="st11" d="M485.5,204.6l8,85l69.7-3.4l-0.6-85.3c-0.1-7.8-6.6-13.9-14.4-13.4c-9.6,0.6-22.1,1.4-31.9,2
				C498.1,190.8,485.5,204.6,485.5,204.6z"/>
			<path class="st11" d="M485.5,204.6l-6,28l32.5,2l-4.2-27.7L485.5,204.6z"/>
			<path class="st4" d="M501,282.1l61.7-3.9"/>
			<path class="st4" d="M489,220.1l-1,16"/>
			<path class="st3" d="M514.3,164.9c-2.1,4.8,1.7,7.1,2.6,19.8c-0.8,3.9-10.2,15.3-10.2,15.3L521,221l20-25c0,0-10.2-7.9-15.4-14.7
				c-1.7-4.2-2.7-25.2-2.7-25.2S516.4,160.1,514.3,164.9z"/>
			<path class="st3" d="M506.2,151.6c-1.1,11.7-1.1,23.7-0.5,27.2c0.7,5,5.1,6.7,8.4,6.7c3.4,0,7.6-2.1,8-7.3
				c0.5-6,0.6-19.2,0.1-21.6c-0.6-2.3-2.1-6-5.5-6.9C513.1,148.9,506.4,148.1,506.2,151.6z"/>
			<path class="st22" d="M511.5,166.6c-0.8,0.9-3.2,4.6,0,3.7"/>
			<g>
				<path class="st9" d="M514.1,165.5c0-0.4,0.3-0.7,0.7-0.6c0.3,0,0.6,0.3,0.6,0.7c0,0.4-0.3,0.7-0.7,0.6
					C514.4,166.1,514.1,165.8,514.1,165.5z"/>
				<path class="st9" d="M508,165.1c0-0.4,0.3-0.7,0.7-0.6c0.3,0.1,0.6,0.3,0.5,0.7c-0.1,0.3-0.3,0.7-0.7,0.6
					C508.3,165.8,508,165.5,508,165.1z"/>
			</g>
			<path class="st3" d="M521.7,172.2c2.5,0.8,3.4-2.9,1.3-3.8c-0.6-0.2-1.1-0.1-1.5,0.2"/>
			<path class="st8" d="M520.3,165l-2.6-5.9c-1.2-2.7-3.9-4.4-6.8-4.5l-3.7,0c-2.5,0-3.7-3.1-1.9-4.9c1.5-1.4,3.3-2.7,5.3-3
				c1.2-0.2,3.3,0.2,5,0.6c1.5,0.4,3.1,0.6,4.7,0.7c1.6,0.1,4,0.8,5.2,4.2c1.6,5.2-0.9,16.2-0.9,16.2l-0.3-0.1
				C522.5,167.9,521.1,166.7,520.3,165z"/>
			<path class="st11" d="M551.2,199.2l-12.6-6.2l-18.6,18.6l-15.4-14.4l-2.4,15.1l13,20.2L551.2,199.2z"/>
			<path class="st3" d="M452.5,350.5c0,0-4,21.6-10,39S424,430.2,424,430.2l-17.8-0.5l16.6-74.5L452.5,350.5z"/>
			<path class="st8" d="M559.1,286.1c0,0,0.2,3.4,0,4.8c-0.4,3.3-2,6.8-3.8,9.6c-2,3.2-4.9,6.9-8.2,9.8c-5.6,5.1-12.4,8.1-17.2,3
				c-0.1-0.1-17.2,0.8-17.2,0.8s-22.3-8.5-28.6-11.3c-0.8-0.4-1.2-11.6-1.2-11.6L559.1,286.1z"/>
			<path class="st14" d="M472.2,322.9c0.5,3.5-1.6,20.2-1.9,27.7"/>
			<path class="st8" d="M470,323c-1.6,7-15,35-15,35c-14,2.7-37-1-37-1s7.1-33.1,23.5-57.9c9.8-14.8,41.8-24.1,65.3-18.8
				c23.4,5.3,23.5,25.8,23.5,25.8S473,309.8,470,323z"/>
			<path class="st3" d="M498.5,353.5c0,0-2.4,12.4-8.3,30.8c-5.9,18.4-18.9,49-18.9,49l-19-0.4l18.2-82.4L498.5,353.5z"/>
			<path class="st8" d="M511.6,327.4c-1.6,7-7.8,34.8-7.6,36.6l-42-7c0,0,0.7-0.7,11.4-34.3c14.8-46.5,29.5-42.7,41.2-43.2
				c19.3-0.8,37.7-2.6,46.1,4c6.9,5.4,4.8,22-7.5,33C540.9,327.6,514.6,314.3,511.6,327.4z"/>
			<path class="st14" d="M505.8,279.8c-10.9,7-22.9,10.6-29.3,23"/>
			<path class="st14" d="M559.9,288.7c0.1,3.7-2.1,7-3.8,10.3c-1.7,3.3-7,4.1-10.1,4.7c-6.9,1.1-13.3,1.2-19.8,3.8
				c-2.3,0.9-12.8,16.4-15.4,23.1"/>
			<path class="st8" d="M474,427.2l-0.3,19.4l-42.1,0.9c0,0-4.1-3.7-2.6-8.3c1.6-4.5,13.2-5.5,19.6-7.1c5.7-1.5,5.7-5.2,5.7-5.2
				L474,427.2z"/>
			<path class="st14" d="M474.9,441.9c0.5-0.1,1.7,0.1-0.3,0.1c-6.2-0.2-12.4-0.5-18.6-0.8c-9.8-0.3-19.7,1.3-29.4,1.2"/>
			<path class="st14" d="M435,434.8c1.4,2.5,2.1,4.4,2.6,7"/>
			<path class="st14" d="M473.7,431.6c-5.6,0.5-15,0.6-19.7-3.1"/>
			<path class="st8" d="M426,425.2l-0.3,19.4l-42.1,0.9c0,0-4.1-3.7-2.6-8.3c1.6-4.5,13.2-5.5,19.6-7.1c5.7-1.5,5.7-5.2,5.7-5.2
				L426,425.2z"/>
			<path class="st14" d="M426.9,439.9c0.5-0.1,1.7,0.1-0.3,0.1c-6.2-0.2-12.4-0.5-18.6-0.8c-9.8-0.3-19.7,1.3-29.4,1.2"/>
			<path class="st14" d="M387,432.8c1.4,2.5,2.1,4.4,2.6,7"/>
			<path class="st14" d="M425.7,429.6c-5.6,0.5-15,0.6-19.7-3.1"/>
		</g>
		<path class="st14" d="M548.8,294.9c0.2,3.7,2.2,7.3,5.3,9.5s7,2.9,10.7,2"/>
		<path class="st14" d="M545.5,300.6c1,3.9,4,7.2,7.5,9.1c3.6,1.9,7.7,2.7,11.7,2.7"/>
	</g>
	<g>
		<g>
			<polygon class="st8" points="352,193.6 362,186.6 379,192.6 364,220.6 			"/>
			<path class="st3" d="M297.1,264.4c-0.3,1.4-6.4,3.2-12.1,9.5c-1.2,1.4-8.5,9.8-7.2,10.4c0.9,0.4,8.8-6.9,9.3-7
				c0.2-0.1-1.7,6.6,0.8,6.4c0.1-0.1,1-0.7,1.4-1c0.5-0.3,1.1,0.5,1.8,0.1c0.7-0.4,0.4-1.9,1.4-1.7c1.4,0.3,2.2-1.4,2.2-1.4
				s1.5,0.1,1.7-0.1c0.5-0.3,8.3-5.7,9.4-6.4c3.6-2.4,56.5-53,55.7-59.1c-1.7-14.6-16.9-9-18.3-11.2
				C341.1,199.9,299.2,264.3,297.1,264.4z"/>
			<path class="st3" d="M453,262.4c0.3,1.4,6.4,3.2,12.1,9.5c1.2,1.4,8.5,9.8,7.2,10.4c-0.9,0.4-8.8-6.9-9.3-7
				c-0.2-0.1,1.7,6.6-0.8,6.4c-0.1-0.1-1-0.7-1.4-1c-0.5-0.3-1.1,0.5-1.8,0.1c-0.7-0.4-0.4-1.9-1.4-1.7c-1.4,0.3-2.2-1.4-2.2-1.4
				s-1.5,0.1-1.7-0.1c-0.5-0.3-8.3-5.7-9.4-6.4c-3.6-2.4-56.5-53-55.7-59.1c1.7-14.6,16.9-9,18.3-11.2
				C409,197.9,450.9,262.3,453,262.4z"/>
			<path class="st20" d="M335.1,196.4c0.2-0.9-11.6,21.8-11.5,22.2c3.2,11.9,19,23.6,19,23.6s11.7-12.3,11.9-19.9"/>
			<path class="st8" d="M366.3,165.9c0-0.8-1.3,1.2-2.2,1.5c-2.2,0.8-5.4,0.3-7.5-0.7c-5.3-2.3-8.2-9.4-8.4-14.6
				c-0.5-11.9,8.6-20.2,20.4-18c5.7,1.1,9.3,7.6,10.9,10.7c0.4,0.7,1.4,2,1.6,4.3c0.9,7.5-4,14.7-11.8,17
				C367.6,166.7,366.4,166.8,366.3,165.9z"/>
			<path class="st3" d="M361.3,162.4c-2.8,4,1.6,10.9-1.5,18c-0.4,0.9-1.3,1.9-2.4,3c-3.1,2.9-7.8,6.3-9.2,8.6
				c-4,6.3-2.9,9.2-3.4,11.5c0,0,5.2-4,6.1-4c2.1,0,2.4,9,4.3,8.5c2.4-0.8-0.1-12.3,2.4-12.9c2.9-0.7,12.5-0.7,15.4-1.7
				c1.2-0.4,12.2,1.9,12.1,0.5c-0.2-5.3-6.4-8.7-9.8-13.9c-3.5-5.3-8.8-19.6-8.8-19.6S364,158.5,361.3,162.4z"/>
			<path class="st3" d="M373.5,144.1c1.7,10.5,2.2,21.4,1.9,24.6c-0.4,4.5-4.2,6.3-7.1,6.6c-3,0.2-6.9-1.5-7.6-6.2
				c-0.7-5.5-1.6-17.4-1.3-19.5c0.3-2.1,1.5-5.6,4.5-6.5C367,142.1,373,140.9,373.5,144.1z"/>
			<path class="st4" d="M368.9,157.1c-0.1,0.7,2.1,4.2,2.1,4.2s-2,1.3-1.7,0.6"/>
			<g>
				<path class="st8" d="M366.1,157.1c0-0.3-0.3-0.6-0.6-0.6c-0.3,0-0.5,0.4-0.5,0.7c0,0.3,0.3,0.6,0.6,0.6
					C365.9,157.8,366.1,157.4,366.1,157.1z"/>
				<path class="st8" d="M371.5,156.5c0-0.3-0.3-0.6-0.6-0.6c-0.3,0-0.5,0.4-0.5,0.7c0,0.3,0.3,0.6,0.6,0.5
					C371.3,157,371.5,156.8,371.5,156.5z"/>
			</g>
			<path class="st9" d="M358.8,166.8l-0.1,0"/>
			<path class="st3" d="M360.7,163.6c-2.1,0.9-3.2-2.5-1.4-3.3c0.5-0.3,1-0.2,1.4,0.1"/>
			<path class="st9" d="M358.8,166.8l-0.1,0"/>
			<path class="st20" d="M405.6,340.5c6.7,0.1,12.1-5.5,11.8-12.2c-0.9-17.4-2.7-47.8-4.6-54.6c-3.1-11.1-7.2-39.7-11.8-50
				c-3.4-7.4-14.6-36-24-40c-0.9-0.4-12,28-12,28s-7.3-27.2-8.2-27c-9.6,2-20.1,5.9-22.7,11.7c-2.4,5.2-1.7,30.8-1.7,30.8l10.6,15.5
				l-13,83.7c-1.1,7,4.3,13.3,11.4,13.4L405.6,340.5z"/>
			<path class="st8" d="M354.6,150.2c-0.1,0.2,3.7,1.9,9.5,1.4c6.7-0.5,15.4-3.4,14.3-6.5c-2.5-7.1-16.6-6.2-17.8-1.3"/>
			<path class="st8" d="M356.8,143.2c-0.6,2.8-6.7,2-8.2,0c-3.8-4.9-2.6-10,2-12.2c6.5-3.1,12.5,5.7,8.2,11"/>
			<path class="st8" d="M369.9,142.1c-2.7,0.8-4.9-4.9-3.9-7.3c2.5-5.7,7.6-7.1,11.7-4c5.8,4.3,0.9,13.7-5.8,12.5"/>
			<path class="st20" d="M381,188.6c-3,13.5-12.3,11.9-15.5,25.5c24.9,12.5,20.7,11.7,45.6,24.2c6.5-7.8,14.1-21.6,14.1-21.6
				s-19.4-41.8-48.1-33.1L381,188.6z"/>
			<path class="st4" d="M342.4,203.1c-1.8,4.6-6.4,11.4-5.2,14.8c1.1,3.2,7.1,12.6,7,13.2c-1.9,8.1-0.8,10.3-3.1,18.6"/>
			<path class="st3" d="M342,414.3l-1.9,16.9l-14.7-5l0.9-17.3L342,414.3z"/>
			<path class="st8" d="M419.7,299.8c0,0,0.1,3-0.1,4.2c-0.4,2.9-1.9,6-3.5,8.4c-1.8,2.7-4.5,6-7.4,8.5c-5,4.4-11.1,6.9-15.3,2.4
				c-0.1-0.1-15.2,0.4-15.2,0.4s-19.5-7.9-25-10.5c-0.7-0.4-0.9-10.2-0.9-10.2L419.7,299.8z"/>
			<path class="st14" d="M342.4,330.6c0.3,3.1-1.8,17.8-2.2,24.4"/>
			<path class="st12" d="M341.6,332.3c-1.5,6.1,12.7,74.8,12.4,79.7c-12.4,2.1-14.4,1.3-26.7,3.3c-2.6-16.8-18.7-55.3-16.7-86.3
				c2.5-38.9,42.5-40.4,62.9-35.3c20.6,5.1,20.3,23.2,20.3,23.2S344.5,320.8,341.6,332.3z"/>
			<path class="st12" d="M377.1,335.4c-1.5,6.1-29,78.7-28.9,80.3c0,0-9.7-2.6-22.2-0.6c-2-12,7.3-55.1,17.3-84.5
				c13.9-40.8,26.8-37.1,37.1-37.3c17.2-0.5,33.4-1.6,40.6,4.4c6,4.9,3.8,19.5-7.2,29C402.8,336,379.9,323.8,377.1,335.4z"/>
			<path class="st14" d="M341.7,332.8c-1.5,10.1,6.2,48.6,9.8,63.7"/>
			<path class="st14" d="M372.8,293.3c-9.8,6-20.4,8.9-26.3,19.7"/>
			<path class="st3" d="M353.3,410.8l4.5,16.4l-15.4,0.8l-5.6-16.4L353.3,410.8z"/>
		</g>
		<line class="st4" x1="399.5" y1="210.1" x2="404.5" y2="234.7"/>
		<g>
			<path class="st4" d="M384.1,238.9c-0.1,6.6,3.3,12.8,7.3,18c4,5.2,8.8,10,12.1,15.6c3.3,5.7,5.1,12.8,2.6,18.9"/>
			<path class="st4" d="M401.8,278.2c-2.2,0.6-4.5,0.7-6.7,0.1c-0.5-0.1-1-0.3-1.4-0.6c-0.4-0.3-0.5-0.9-0.3-1.4
				c0.4-0.8,1.6-0.5,2.4,0c1.7,0.9,4.7,1.3,6.4,2.3"/>
			<path class="st4" d="M398.6,258.7c-0.1-0.7-0.1-1.5,0.2-2.2c0.3-0.7,0.9-1.3,1.6-1.3c1.2-0.1,2,1.1,2.3,2.2
				c0.9,2.6,1.1,6.5-0.6,8.8C399.9,265.2,398.9,261,398.6,258.7z"/>
			<path class="st4" d="M405,269.3c-0.5-0.4-0.8-1.2-0.6-1.8c0.2-0.6,0.8-1.1,1.5-1.2c1.2-0.1,2.1,1.1,2.1,2.3c0,1.2-0.8,2.2-1.6,3"
				/>
			<path class="st4" d="M399,272.7c-1-1.2-2-2.3-3.1-3.5c-1.1,0.1-1.3,1.7-0.6,2.5c0.7,0.8,1.9,0.9,2.9,1"/>
			<path class="st4" d="M376.4,257.1c-1.1-0.4-2.3-0.8-3.1-1.7c-0.8-0.9-1-2.4-0.1-3.2c0.9-0.9,2.5-0.5,3.7,0.1
				c1.7,0.9,5.3,3.3,5.6,5.5C382.9,260.6,377.9,257.6,376.4,257.1z"/>
			<path class="st4" d="M387.6,263.7c-1.8-0.1-3.5-0.9-4.7-2.2c1.5-0.4,3.3,0.4,3.9,1.9"/>
			<path class="st4" d="M345,245.7c-0.3,3.9,0.6,7.8,2.3,11.3c1.2,2.4,2.9,4.6,4.2,6.9c1.3,2.3,2.3,5,2,7.7
				c-0.3,2.7-2.2,5.3-4.8,5.8"/>
			<path class="st4" d="M349.4,272.9c-1-0.7-2-1.4-3.2-1.4c-1.2,0-2.4,1.1-2.1,2.2c0.3,0.9,1.4,1.4,2.3,1.2c0.9-0.2,1.7-0.8,2.5-1.4
				"/>
			<path class="st4" d="M356.9,274.5c0.9-1.1,1.3-2.6,1.1-4c-0.1-0.5-0.2-1-0.5-1.4c-0.3-0.4-0.8-0.6-1.3-0.4
				c-0.7,0.2-0.9,1.1-0.9,1.9c0,1.5,0.5,3.1,1.3,4.4"/>
			<path class="st4" d="M345.4,261.2c-1,2.2,3.5,6.6,5.6,4.8C353.2,263.9,345.6,260.7,345.4,261.2z"/>
			<path class="st4" d="M357,253.3c0.1,0,0.2,0.1,0.3,0.2c2.5,1.7,0.4,4.6-2.1,3.4C352.3,255.4,354.4,252.1,357,253.3z"/>
			<path class="st4" d="M364.2,209c2.7,5.6,5.5,11.2,8.2,16.7"/>
		</g>
	</g>
	<g>
		<polyline class="st15" points="378.5,301.5 369.7,444 362.4,444 352.5,302.6 		"/>
		<rect x="331.5" y="441.5" class="st15" width="67" height="6"/>
		<ellipse class="st6" cx="364" cy="290" rx="149" ry="22"/>
	</g>
	
		<image style="overflow:visible;" width="502" height="48" xlink:href="6C75BC3D.jpg"  transform="matrix(1.4183 0 0 1.4183 0 533.9203)">
	</image>
	<g>
		<path class="st8" d="M433.3,242.9c0,0,4.4,30.2,4.4,30.3c0,1.6,4.1,2.9,9.2,2.9c5.1,0,9.2-1.3,9.2-3l4.2-30.4L433.3,242.9z"/>
		
			<ellipse transform="matrix(1 -2.695923e-03 2.695923e-03 1 -0.6644 1.2054)" class="st0" cx="446.8" cy="247.1" rx="15.1" ry="2.9"/>
		<polygon class="st0" points="460.4,242.9 433.3,242.9 431.7,247.1 461.8,247 		"/>
		
			<ellipse transform="matrix(1 -2.695923e-03 2.695923e-03 1 -0.6532 1.2056)" class="st0" cx="446.9" cy="242.9" rx="13.5" ry="2.9"/>
		<path class="st32" d="M446.9,245.8c-7.5,0-13.5-1.3-13.5-2.9"/>
		<path class="st32" d="M460.4,242.9c0,1.6-6,3-13.5,3"/>
		
			<ellipse transform="matrix(1 -2.695923e-03 2.695923e-03 1 -0.6474 1.1939)" class="st32" cx="442.5" cy="240.8" rx="1.9" ry="0.5"/>
		<path class="st32" d="M449.2,240.7c0-0.3,0.9-0.5,1.9-0.5c1.1,0,1.9,0.2,1.9,0.5s-0.9,0.5-1.9,0.5"/>
		<path class="st32" d="M442.2,244.1c-1.2,0-2.1-0.3-2.1-0.6s0.9-0.6,2.1-0.6s2.1,0.3,2.1,0.6"/>
		
			<ellipse transform="matrix(1 -2.695923e-03 2.695923e-03 1 -0.6547 1.2182)" class="st32" cx="451.5" cy="243.5" rx="2.1" ry="0.6"/>
	</g>
	<path class="st19" d="M326,422c-1,0-6.6,10.4-20,18c0,0,0,0,0,0c-1.5,0.8-1.2,3,0.5,3.4c3.4,0.8,8.3,1.2,13.6-0.4
		c4.2-1.3,4.4-4,9-5c5.1-1.2,8.9,0.7,12-2c1.1-1,1.7-2.2,2-3c-0.7-1.3-1.3-2.7-2-4c-2.1,0.1-5.2-0.2-8-2
		C329.6,424.8,328.1,422,326,422z"/>
	<path class="st19" d="M340.3,420.8c-1,0.2-3.9,11.7-15,22.3c0,0,0,0,0,0c-1.2,1.2-0.4,3.2,1.3,3.2c3.5-0.1,8.3-0.8,13.1-3.7
		c3.8-2.3,3.3-4.9,7.5-7c4.7-2.4,8.8-1.5,11.2-4.8c0.9-1.2,1.1-2.6,1.2-3.4c-1-1.1-1.9-2.3-2.9-3.4c-2,0.6-5.1,1.1-8.2,0
		C344.4,422.7,342.3,420.3,340.3,420.8z"/>
	<rect x="304.5" y="269.5" class="st3" width="72" height="5"/>
	<path class="st3" d="M323.5,270.5c12.3-2,24.7-4,37-6c13.2,7.8,23.7,9.3,31,9c6.2-0.2,14.2-1.8,21,3c3.1,2.2,4.9,5,6,7
		c-13.3,1.7-26.7,3.3-40,5c-8.8-6.6-16.5-9.1-22-10c-6.9-1.2-12-0.4-21-3C330.3,274,326.2,272,323.5,270.5z"/>
	<path class="st3" d="M472.2,281.9c-8.8-4.2-17.5-8.3-26.3-12.5c-11.7,4.2-35.5-2.7-41.6,0.1c-2.8,1.3-4.8,3.3-6.1,4.9
		c9.6,4.1,19.2,8.2,28.8,12.2c8.1-4,27.8-2.3,35.1-2.8C466.3,283.6,469.8,282.7,472.2,281.9z"/>
	<line class="st4" x1="340.5" y1="271.5" x2="359.5" y2="268.5"/>
	<line class="st4" x1="359.5" y1="275.5" x2="370.5" y2="273.5"/>
	<line class="st4" x1="373.6" y1="280" x2="397.5" y2="275.5"/>
	<path class="st3" d="M231.5,272.5c10.3,5.3,19.7-0.3,30,5c4.7-4.7,17.3,0.7,22-4c0.7,0.7,1.3,1.3,2,2c-5,5-18,0-23,5
		c-9.3-4.3-21.7-0.7-31-5C230.2,278.8,231.5,277.8,231.5,272.5z"/>
	<g>
		<path class="st8" d="M489.3,295.5l-27.3-1.7l-3.2-16.2l22.6-3.7L489.3,295.5z"/>
		<path class="st133" d="M496.3,281.4l-18.7,18.9l-20.3-12.8l19.1-14.4L496.3,281.4z"/>
		<path class="st134" d="M493.4,279.8L476.7,297l-20.2-11.9l17.9-13.1L493.4,279.8z"/>
		<path class="st0" d="M489.3,295.5l-8.7-18.5l-22.1,0.8l14.4-11.9l33.8,12L489.3,295.5z"/>
		<path class="st4" d="M506.8,278l-23.9,3.6"/>
		<path class="st4" d="M473.8,277.1l-0.8-11.1"/>
		<line class="st4" x1="475.5" y1="289.4" x2="464.1" y2="283.5"/>
		<line class="st4" x1="479.2" y1="285.4" x2="468.3" y2="280.3"/>
	</g>
	<g>
		<path class="st8" d="M287.6,261.5c0,0,4.4,30.2,4.4,30.3c0,1.6,4.1,2.9,9.2,2.9c5.1,0,9.2-1.3,9.2-3l4.2-30.4L287.6,261.5z"/>
		
			<ellipse transform="matrix(1 -2.695923e-03 2.695923e-03 1 -0.7151 0.8127)" class="st11" cx="301.1" cy="265.6" rx="15.1" ry="2.9"/>
		<polygon class="st11" points="314.7,261.4 287.6,261.5 286,265.7 316.1,265.6 		"/>
		
			<ellipse transform="matrix(1 -2.695923e-03 2.695923e-03 1 -0.7038 0.8129)" class="st11" cx="301.2" cy="261.5" rx="13.5" ry="2.9"/>
		<path class="st32" d="M301.2,264.4c-7.5,0-13.5-1.3-13.5-2.9"/>
		<path class="st32" d="M314.7,261.4c0,1.6-6,3-13.5,3"/>
		
			<ellipse transform="matrix(1 -2.695923e-03 2.695923e-03 1 -0.6981 0.8012)" class="st32" cx="296.8" cy="259.3" rx="1.9" ry="0.5"/>
		<path class="st32" d="M303.5,259.3c0-0.3,0.9-0.5,1.9-0.5c1.1,0,1.9,0.2,1.9,0.5s-0.9,0.5-1.9,0.5"/>
		<path class="st32" d="M296.5,262.7c-1.2,0-2.1-0.3-2.1-0.6c0-0.4,0.9-0.6,2.1-0.6c1.2,0,2.1,0.3,2.1,0.6"/>
		
			<ellipse transform="matrix(1 -2.695923e-03 2.695923e-03 1 -0.7054 0.8255)" class="st32" cx="305.8" cy="262.1" rx="2.1" ry="0.6"/>
	</g>
	<g>
		<path class="st3" d="M569.6,219.4l-27.4,3.1c0,0-0.9,28.8-3.1,29.1c-9.6,1.4-50.1,1.2-50.7,1.2c-11.7-0.7-20.9,7.2-20.9,9.1
			c0,1.8,3.9-0.7,3.9-0.7s-9.5,11.8-8.1,12.9c0.9,0.8,5-6.5,6.6-6.8c0.5-0.1-5.7,7.8-4.4,8.6c0.6,0.5,5.2-6.4,6.6-6.8
			c0.9-0.3-4.8,8-4.3,8.6c0.8,0.7,6.1-7.2,6.7-7c0.6,0.3-4.6,8.1-4.1,8.4c1.3,0.8,16.9-16,16.9-16s55.2,16,66,9.1
			C563,265.9,569.6,219.4,569.6,219.4z"/>
		<path class="st11" d="M561.8,189.3c12.5,7.9,11,52.6,11,52.6l-31.4-2l-1.8-39.8C539.6,200,551.9,183,561.8,189.3z"/>
		<path class="st4" d="M540.5,218.4c0,0,0.3,23.6-0.2,23.8"/>
	</g>
</g>
</svg>
