<?xml version="1.0" encoding="utf-8"?>
<!-- Generator: Adobe Illustrator 24.1.2, SVG Export Plug-In . SVG Version: 6.00 Build 0)  -->
<svg version="1.1" xmlns="http://www.w3.org/2000/svg" xmlns:xlink="http://www.w3.org/1999/xlink" x="0px" y="0px"
	 viewBox="0 0 423 376" style="enable-background:new 0 0 423 376;" xml:space="preserve">
<style type="text/css">
	.st0{fill-rule:evenodd;clip-rule:evenodd;fill:#17B1B1;}
	.st1{fill-rule:evenodd;clip-rule:evenodd;fill:#F6BE22;}
	.st2{fill-rule:evenodd;clip-rule:evenodd;fill:#FFFFFF;}
	
		.st3{fill-rule:evenodd;clip-rule:evenodd;fill:#FFFFFF;stroke:#000000;stroke-width:1.33;stroke-linecap:round;stroke-linejoin:round;}
	.st4{fill:none;stroke:#000000;stroke-width:1.33;stroke-linecap:round;stroke-linejoin:round;}
	.st5{fill:#030100;}
	.st6{fill-rule:evenodd;clip-rule:evenodd;fill:#FDD2E1;}
	.st7{fill-rule:evenodd;clip-rule:evenodd;fill:#0A0704;}
	.st8{fill-rule:evenodd;clip-rule:evenodd;fill:#030100;}
	.st9{fill-rule:evenodd;clip-rule:evenodd;fill:#230E04;}
	.st10{fill-rule:evenodd;clip-rule:evenodd;fill:#000047;}
	.st11{fill-rule:evenodd;clip-rule:evenodd;fill:#F51618;}
	.st12{fill-rule:evenodd;clip-rule:evenodd;fill:#919191;}
	
		.st13{fill-rule:evenodd;clip-rule:evenodd;fill:none;stroke:#FFFFFF;stroke-width:1.33;stroke-linecap:round;stroke-linejoin:round;}
	.st14{fill:none;stroke:#FFFFFF;stroke-width:1.33;stroke-linecap:round;stroke-linejoin:round;}
	.st15{fill:#FFFFFF;stroke:#000000;stroke-width:1.33;stroke-linecap:round;stroke-linejoin:round;}
	.st16{fill-rule:evenodd;clip-rule:evenodd;fill:#24160C;}
	.st17{fill:#0A0704;stroke:#0A0704;stroke-miterlimit:10;}
	.st18{fill:#F6BE22;}
	.st19{fill:#17B1B1;}
	.st20{fill-rule:evenodd;clip-rule:evenodd;fill:#FFBE00;}
	.st21{fill-rule:evenodd;clip-rule:evenodd;fill:none;stroke:#000000;stroke-linecap:round;stroke-linejoin:round;}
	.st22{fill:none;stroke:#1A1A1A;stroke-width:1.33;stroke-linecap:round;stroke-linejoin:round;}
	.st23{fill:#0A0704;}
	.st24{fill-rule:evenodd;clip-rule:evenodd;fill:#12847E;}
	.st25{fill:#F51618;}
	.st26{fill:none;stroke:#000000;stroke-miterlimit:10;}
	.st27{fill:#0092FF;}
	.st28{fill:#007994;}
	.st29{fill:none;stroke:#F6BE22;stroke-width:1.33;stroke-linecap:round;stroke-linejoin:round;}
	.st30{fill:#FDD2E1;}
	.st31{fill:#0C9390;}
	
		.st32{fill-rule:evenodd;clip-rule:evenodd;fill:none;stroke:#000000;stroke-width:1.33;stroke-linecap:round;stroke-linejoin:round;}
	.st33{fill:#A9D18F;}
	.st34{stroke:#000000;stroke-linejoin:round;}
	.st35{fill:#C5DFB5;}
	.st36{fill:#FFFA94;}
	.st37{fill-rule:evenodd;clip-rule:evenodd;fill:#0092FF;}
	
		.st38{fill-rule:evenodd;clip-rule:evenodd;fill:#A8A8A8;stroke:#000000;stroke-width:1.33;stroke-linecap:round;stroke-linejoin:round;}
	.st39{fill-rule:evenodd;clip-rule:evenodd;fill:#C5DFB5;}
	.st40{fill-rule:evenodd;clip-rule:evenodd;fill:#A9D18F;}
	.st41{fill:none;stroke:#0066CC;stroke-width:1.33;stroke-linecap:round;stroke-linejoin:round;stroke-miterlimit:10;}
	.st42{fill-rule:evenodd;clip-rule:evenodd;fill:#FFFA94;}
	.st43{fill:#5D5D5D;}
	.st44{clip-path:url(#SVGID_6_);fill:#FFFFFF;}
	.st45{fill-rule:evenodd;clip-rule:evenodd;fill:#00CB99;}
	.st46{fill:none;stroke:#00EDB3;stroke-width:7.42;stroke-linecap:round;stroke-linejoin:round;}
	.st47{fill-rule:evenodd;clip-rule:evenodd;fill:#4971AF;}
	.st48{fill-rule:evenodd;clip-rule:evenodd;fill:#282828;}
	.st49{fill:#FFFBF2;}
	.st50{fill-rule:evenodd;clip-rule:evenodd;fill:#3AE5BB;}
	.st51{fill-rule:evenodd;clip-rule:evenodd;fill:#514A45;}
	.st52{fill-rule:evenodd;clip-rule:evenodd;fill:#F9CB00;}
	.st53{fill-rule:evenodd;clip-rule:evenodd;fill:#05DBED;}
	.st54{fill-rule:evenodd;clip-rule:evenodd;fill:#E9B200;}
	.st55{clip-path:url(#SVGID_8_);}
	.st56{fill:none;stroke:#FFFFFF;stroke-width:3;stroke-linecap:round;stroke-linejoin:round;}
	.st57{fill:none;stroke:#E9B200;stroke-width:5;stroke-miterlimit:10;}
	.st58{fill-rule:evenodd;clip-rule:evenodd;fill:#00DB00;}
	.st59{fill:#00BC00;}
	.st60{fill:#00DB00;}
	.st61{fill:none;}
	.st62{fill:#F4BC23;}
	.st63{fill-rule:evenodd;clip-rule:evenodd;}
	.st64{fill-rule:evenodd;clip-rule:evenodd;fill:#0068AB;}
	.st65{fill:#BEC7C9;}
	.st66{fill:#0068AB;}
	.st67{fill:#005C89;}
	.st68{clip-path:url(#SVGID_10_);fill:none;stroke:#000000;stroke-width:1.33;stroke-linecap:round;stroke-linejoin:round;}
	.st69{fill:#E1A916;}
	.st70{opacity:0.55;}
	.st71{fill:#FDBE43;}
	.st72{fill:#FFFFFF;}
	.st73{fill:#0067A6;}
	.st74{fill:#54D900;}
	.st75{fill:#0068A7;}
	.st76{fill:#0068A5;}
	.st77{fill:#B8B8B8;}
	.st78{fill:#5C5C5C;}
	.st79{fill:#666464;}
	.st80{fill:#5A5959;}
	.st81{fill:#7C7B7B;}
	.st82{fill:#BCBCBC;}
	.st83{fill:#757575;}
	.st84{fill:#D3D0D0;}
	.st85{fill:#0068A4;}
	.st86{fill:#0067A4;}
	.st87{fill:#4AB000;}
	.st88{fill:#7DDF45;}
	.st89{fill:#7FDF47;}
	.st90{fill:#39BB49;}
	.st91{fill:#D5EADA;}
	.st92{fill:#CDE6D3;}
	.st93{fill:#84DA60;}
	.st94{fill:#D3EAD7;}
	.st95{fill:#4AC04D;}
	.st96{fill:#6FD150;}
	.st97{fill-rule:evenodd;clip-rule:evenodd;fill:#BEC7C9;}
	.st98{fill:#D0D1D6;}
	.st99{fill-rule:evenodd;clip-rule:evenodd;fill:#7394E3;}
	
		.st100{fill-rule:evenodd;clip-rule:evenodd;fill:#17B1B1;stroke:#000000;stroke-width:1.33;stroke-linecap:round;stroke-linejoin:round;}
	.st101{fill-rule:evenodd;clip-rule:evenodd;fill:#408E96;}
	.st102{clip-path:url(#SVGID_12_);}
	.st103{fill:#408E96;}
	.st104{clip-path:url(#SVGID_14_);}
	.st105{fill-rule:evenodd;clip-rule:evenodd;fill:#9AF4F1;}
	
		.st106{fill-rule:evenodd;clip-rule:evenodd;fill:#0A0704;stroke:#FFFFFF;stroke-width:1.33;stroke-linecap:round;stroke-linejoin:round;}
	
		.st107{fill-rule:evenodd;clip-rule:evenodd;fill:#F6BE22;stroke:#000000;stroke-width:1.33;stroke-linecap:round;stroke-linejoin:round;}
	.st108{fill-rule:evenodd;clip-rule:evenodd;fill:#FDFDFD;}
	.st109{fill-rule:evenodd;clip-rule:evenodd;stroke:#000000;stroke-width:1.33;stroke-linecap:round;stroke-linejoin:round;}
	.st110{fill-rule:evenodd;clip-rule:evenodd;fill:#F5F5F5;}
	.st111{fill:none;stroke:#F51618;stroke-width:1.33;stroke-linecap:round;stroke-linejoin:round;}
	.st112{clip-path:url(#SVGID_16_);}
	.st113{fill:none;stroke:#F6F6F6;stroke-width:1.33;stroke-linecap:round;stroke-linejoin:round;}
	.st114{fill-rule:evenodd;clip-rule:evenodd;fill:#373737;}
	.st115{fill-rule:evenodd;clip-rule:evenodd;fill:#118484;}
	.st116{fill-rule:evenodd;clip-rule:evenodd;fill:#DCB6C3;}
	.st117{fill-rule:evenodd;clip-rule:evenodd;fill:#262626;}
	.st118{fill-rule:evenodd;clip-rule:evenodd;fill:#D19F14;}
	
		.st119{fill-rule:evenodd;clip-rule:evenodd;fill:#0A0704;stroke:#000000;stroke-width:1.33;stroke-linecap:round;stroke-linejoin:round;}
	.st120{fill-rule:evenodd;clip-rule:evenodd;fill:#D2A21D;}
	.st121{fill:none;stroke:#000000;stroke-width:6.34;stroke-linecap:round;stroke-linejoin:round;}
	.st122{clip-path:url(#SVGID_18_);}
	.st123{fill-rule:evenodd;clip-rule:evenodd;fill:#F6C949;}
	.st124{fill-rule:evenodd;clip-rule:evenodd;fill:#F6F6F6;}
	.st125{fill-rule:evenodd;clip-rule:evenodd;fill:#FDD2E1;stroke:#000000;stroke-width:1.33;stroke-miterlimit:10;}
	.st126{fill-rule:evenodd;clip-rule:evenodd;stroke:#FFFFFF;stroke-width:1.33;stroke-linecap:round;stroke-linejoin:round;}
	
		.st127{fill-rule:evenodd;clip-rule:evenodd;fill:#FFFFFF;stroke:#0A0704;stroke-width:1.33;stroke-linecap:round;stroke-linejoin:round;}
	
		.st128{fill-rule:evenodd;clip-rule:evenodd;fill:#31B767;stroke:#000000;stroke-width:0.75;stroke-linecap:round;stroke-linejoin:round;}
	
		.st129{fill-rule:evenodd;clip-rule:evenodd;fill:#ECB82B;stroke:#000000;stroke-width:0.75;stroke-linecap:round;stroke-linejoin:round;}
	
		.st130{fill-rule:evenodd;clip-rule:evenodd;fill:#E9EBEF;stroke:#000000;stroke-width:0.75;stroke-linecap:round;stroke-linejoin:round;}
	.st131{fill:none;stroke:#000000;stroke-width:0.75;stroke-linecap:round;stroke-linejoin:round;}
	
		.st132{fill-rule:evenodd;clip-rule:evenodd;fill:#E9EBEF;stroke:#000000;stroke-width:1.33;stroke-linecap:round;stroke-linejoin:round;}
	.st133{fill-rule:evenodd;clip-rule:evenodd;fill:#D5CECE;}
	.st134{fill-rule:evenodd;clip-rule:evenodd;fill:#FBF7F7;}
	.st135{fill-rule:evenodd;clip-rule:evenodd;stroke:#000000;stroke-miterlimit:10;}
	.st136{fill-rule:evenodd;clip-rule:evenodd;fill:#FFFFFF;stroke:#000000;stroke-linecap:round;stroke-linejoin:round;}
	.st137{fill:none;stroke:#000000;stroke-linecap:round;stroke-linejoin:round;}
	.st138{fill:#D6AE03;}
	.st139{fill:#F9CB00;}
	.st140{fill-rule:evenodd;clip-rule:evenodd;fill:none;stroke:#000000;stroke-width:7;stroke-linecap:round;stroke-linejoin:round;}
	.st141{fill-rule:evenodd;clip-rule:evenodd;fill:#F7F7F7;}
	.st142{fill:#919191;}
	.st143{clip-path:url(#SVGID_20_);fill:none;stroke:#000000;stroke-width:1.33;stroke-linecap:round;stroke-linejoin:round;}
	.st144{fill:#F6E5DC;}
	.st145{fill:#F4AA1C;}
	.st146{fill:#FBBB1F;}
	.st147{fill:#007CFF;}
	.st148{fill:none;stroke:#000000;stroke-width:1.33;stroke-linecap:round;stroke-linejoin:round;stroke-dasharray:12,15;}
	.st149{fill:#FFBE00;}
	.st150{fill-rule:evenodd;clip-rule:evenodd;fill:#0A0704;stroke:#0A0704;stroke-miterlimit:10;}
	.st151{fill:#F51618;stroke:#000000;stroke-width:1.33;stroke-linecap:round;stroke-linejoin:round;}
	.st152{fill:#5CEAE6;}
	.st153{fill:none;stroke:#000000;stroke-linejoin:round;}
	.st154{fill-rule:evenodd;clip-rule:evenodd;fill:none;}
	.st155{clip-path:url(#SVGID_24_);fill:#FFFFFF;}
	.st156{clip-path:url(#SVGID_26_);fill:none;stroke:#000000;stroke-width:1.33;stroke-linecap:round;stroke-linejoin:round;}
	.st157{clip-path:url(#SVGID_28_);}
</style>
<g id="Guides_For_Artboard">
</g>
<g id="Layer_1">
	<image style="overflow:visible;" width="632" height="57" xlink:href="5087EAC8.jpg"  transform="matrix(0.5 0 0 0.5 97 336)">
	</image>
	<g>
		<g>
			<path class="st32" d="M75.9,214.8h97.6l-19.7-77.1c-3.1-12.1-14-20.6-26.5-20.6H86.2c-17.8,0-30.9,16.8-26.5,34.1L75.9,214.8z"/>
			<g>
				<polygon class="st0" points="76,218.1 188.5,218.1 187.4,212.7 75,212.7 				"/>
				<line class="st4" x1="218.3" y1="305.1" x2="188" y2="218.6"/>
				<line class="st4" x1="152.7" y1="218.6" x2="152.7" y2="305.1"/>
				<line class="st4" x1="123.9" y1="218.6" x2="139.5" y2="307.5"/>
				<line class="st4" x1="76.6" y1="218.6" x2="60.5" y2="307.5"/>
			</g>
		</g>
		<g>
			<path class="st3" d="M209.9,235.9l-25.4,45.2l24.6,24.2c1.9,1.7-3.7,2-6.1,1.2l-20.2-5l-31.6-11.7l28.6-52.6L209.9,235.9z"/>
			<path class="st3" d="M259.3,231.3l8,45.6l26,20l13.1,8.7l-50.3,0.7c-8.6,0.1-13.2-7-14.5-15.4l-11.4-54.6L259.3,231.3z"/>
			<path class="st63" d="M191.3,135c0,0-14.7-41.9-16.2-45.5c-2.9-6.8-0.4-13.1-8.3-19.4l-0.8-1.6c-13.5-15.8-27.7-3.2-34.1,4.8
				c-3.4,3.2-5.5,8.8-8.5,16.8c-1.2,3.2-6.9,12.3-13.7,18.1c-15.8,13.5-8.3,28.9-8.3,28.9C122.4,141,191.3,135,191.3,135z"/>
			<path class="st3" d="M180.6,106.9l-19.2,64.3c0,0-43.1-37.9-45.7-50.1c2.1-21.2,26.7-13,28.5-17.4c0.8-2.1,3.6-12,5.5-24.6
				c3.2,1.1,2.7,2.5,2.7,2.5s5.1,3.2,6.8,11c0,0-3,7.3-0.8,11.9C160.7,109.1,180.6,106.9,180.6,106.9z"/>
			<path class="st1" d="M132.9,169.4l29.5,0.1c2,0,3.7-1.2,4.4-3.1c0.8-2.2,2-5.3,3.7-8.4c3-5.7,6.1-12.1,6.1-12.1l6-12.6
				c0.5-1.1,1.4-1.9,2.5-2.3c0,0,5.1-3.1,5.4-3.3c4.3-3,6.3-4.8,6.3-4.8c-1.1-3.8-7.5-17.4-16.6-19.1c-10.8-2-19.1,1.7-19.1,1.7
				s-11.9,15.1-11.9,14.3l-5.5-11.9c-4-1.6-15.7-4.3-19.8-3.2c-7.4,2.1-17.5,9.3-22.2,14.3c0,0,2,4.8,4,6.3c0,0,15.4,17.5,13.8,19.5
				l-8.8,11.3c-2,2.6-0.8,6.4,2.3,7.3l18.5,5.7C132,169.3,132.5,169.4,132.9,169.4z"/>
			<path class="st11" d="M134.2,165.5c15,0.9,16.7-7,34.5-4.9c26.9,3.2,58.3,10.2,66.1,12.9c18.5,6.4,45.8,77,45.8,77l-51.2,7.1
				l-6.3-13.5l-7.7,16.1l-50.5-11.4l19.2-36c0,0-70.3,1.5-78-5.8c-13.6-12.9,2.7-49.8,2.7-49.8S119.2,164.7,134.2,165.5z"/>
			<line class="st32" x1="222.9" y1="178.5" x2="193.9" y2="172.3"/>
			<path class="st32" d="M238.1,205.1l-15,39.4"/>
			<path class="st6" d="M149,288.6l34,20.3l35.5,0.1v-5c0,0-0.8-6-4.5-8c-5.5-3.1-14.9-9.2-14.9-9.2l-9.3-14.4c0,0,1.5-0.5-11.3-0.5
				s-15-9.8-15-9.8L149,288.6z"/>
			<path class="st6" d="M237.5,308.3l38.5-0.1l35-4.9c0,0,0.3-7.2-4.9-9.9c-8.7-4.5-27.7-11.7-27.7-11.7l-9.7-9.5c0,0-4.3,1-15,7.4
				c-10.6,6.4-15.5-1.9-15.5-1.9L237.5,308.3z"/>
			<path class="st8" d="M179.5,309.6l40,0.4l-0.4-7l-31.1-0.7c0,0-3.7-1.2-9.1-8.9c-5.4-7.6-25.4-14.5-25.4-14.5l-5.7,10
				L179.5,309.6z"/>
			<path class="st8" d="M311.8,308.5l-0.8-7.4l-34.1-0.9c0,0-3.7,0.8-12-2.8c-8.3-3.7-28.4,0.7-28.4,0.7l0.3,11.1L311.8,308.5z"/>
			<line class="st3" x1="128.6" y1="140.5" x2="122.6" y2="148.5"/>
			<line class="st3" x1="171.9" y1="131.8" x2="174.2" y2="138.2"/>
			<line class="st3" x1="157.7" y1="151.5" x2="166.6" y2="151.5"/>
			<g>
				<path class="st3" d="M165.6,86.9c0.5-0.1,1.2-0.1,1.6,0.3c1.9,1.6-0.4,5-2.6,3.4"/>
				<path class="st3" d="M157.1,65.8c-3.5,1.5-5.9,4.1-6.9,6.5s-2.7,16.6-3.1,23.1c-0.3,5.6,3.9,8.5,7.5,8.9
					c3.4,0.5,8.4-0.7,9.9-5.9c1.1-3.6,2.7-14.5,3.3-27.1C168.1,67.5,161.8,63.8,157.1,65.8z"/>
				<path class="st4" d="M159.4,93.1c4.4,1.7,1.2-4.1,1.2-4.1"/>
				<path class="st63" d="M157.2,88.6c-0.4-0.1-0.6-0.4-0.5-0.8c0.1-0.4,0.4-0.7,0.7-0.6c0.4,0,0.6,0.4,0.5,0.8
					C157.8,88.3,157.5,88.6,157.2,88.6z"/>
				<path class="st63" d="M163.7,89.2c-0.4-0.1-0.6-0.4-0.5-0.8c0.1-0.4,0.4-0.7,0.7-0.6c0.4,0,0.6,0.4,0.5,0.8
					C164.4,89,164.1,89.2,163.7,89.2z"/>
				<path class="st3" d="M149.1,85.7c-0.5-0.3-1.1-0.3-1.7,0c-2.2,1.1-0.8,5,1.8,3.9"/>
				<path class="st63" d="M160.7,81c-4.1,0.5-8.1,1.5-11.7,3.5c-2,1.1-3.5,1.5-3.7-0.9c-1.5-17.7,8.9-20.1,17.4-19
					C174.4,66,176.6,79.2,160.7,81z"/>
			</g>
			<path class="st32" d="M168.6,160.6c0,0-8.6-1.7-16.6,1.2c-8,2.8-11.9,3.6-18.3,3.6"/>
			<line class="st3" x1="215.4" y1="260.5" x2="164.7" y2="248.6"/>
			<polyline class="st32" points="185.3,252.5 208.3,205.8 183.7,212.9 			"/>
			<path class="st32" d="M147.1,173.2c0,7.3-5,14.3-12,16.7"/>
			<line class="st32" x1="258.7" y1="253.6" x2="229.7" y2="257.3"/>
			<path class="st32" d="M198.9,286.7c-0.2,0-0.4,0-0.6,0l-4.5,2.1"/>
			<line class="st32" x1="279.9" y1="282.1" x2="272.7" y2="285.4"/>
			<path class="st32" d="M271.7,275.5c0,0-7.1,7.1-23.5,12"/>
			<path class="st32" d="M191.7,275.1c0,0-11.9,2.4-18.8,0.8"/>
			<polyline class="st32" points="140.6,110.5 148.6,130.5 157.5,118.1 			"/>
		</g>
		<g>
			<polyline class="st15" points="235.1,193.8 242,313.2 248.5,313.2 254.5,193.8 			"/>
			<path class="st6" d="M348.1,178.5c0,9.7-39.1,19.5-100.1,18.5c-71-1.2-89.9-8.8-89.9-18.5s42.5-17.5,95-17.5
				S348.1,168.8,348.1,178.5z"/>
			<path class="st4" d="M237.6,189.5c0,0,100,2,100-13.8"/>
		</g>
		<g>
			<path class="st0" d="M290.6,108.7c0.8-17.4-18.2-50.3-2.6-60.3c3.7-2.3,7.7-1.2,11.6,2.3c0.5,0.1,4.4,16.8,4.4,16.8l2.4-8.7
				c1.8,3.8,7.1,15.8,7.6,19.1c0.4-0.1-3,7.3-3,7.3l5.7,0.5c1.3,13.3-8,43.7-17.9,49.3C291.5,139.2,292.1,115.8,290.6,108.7z"/>
			<path class="st0" d="M322.8,102.1c1.4-1.9,5.5-2.2,5.5-2.2s1-5.5,2-6.6c3.2-3.2,6.2-5.5,8.7-6.2c1.4-0.4,5-0.8,5.8,1.1
				c4.8,12-30.2,54.5-35.8,46.8C284.2,121.4,313.6,114.4,322.8,102.1z"/>
			<path class="st0" d="M265.5,72.8c17,2.2,59.3,72.8,12.5,81.8C278.2,139.2,242.1,69.8,265.5,72.8z"/>
			<path class="st4" d="M294.5,154.6c5.6-15.7,17.3-54.9,0.9-89.3"/>
			<path class="st4" d="M295.3,155c11.4-21.6,29.5-44.4,45.6-62.5"/>
			<path class="st4" d="M267.2,83.8c20.6,26.9,31.5,45.5,27.6,69.6"/>
			<path class="st4" d="M303.4,96.5c2.9-4.8,4.9-12.9,5.4-18.5"/>
			<path class="st4" d="M333,111.5c-6.3,4.8-6.3,3.2-15.1,9.5c0,0,7.2,1.7,10.4-0.9"/>
		</g>
		<g>
			<path class="st8" d="M308.9,145.8c0,0,4.4,30.2,4.4,30.3c0,1.6,4.1,2.9,9.2,2.9c5.1,0,9.2-1.3,9.2-3l4.2-30.4L308.9,145.8z"/>
			
				<ellipse transform="matrix(1 -2.695923e-03 2.695923e-03 1 -0.403 0.8696)" class="st11" cx="322.4" cy="149.9" rx="15.1" ry="2.9"/>
			<polygon class="st11" points="336,145.7 308.9,145.8 307.3,149.9 337.4,149.9 			"/>
			
				<ellipse transform="matrix(1 -2.695923e-03 2.695923e-03 1 -0.3917 0.8698)" class="st11" cx="322.4" cy="145.7" rx="13.5" ry="2.9"/>
			<path class="st32" d="M322.5,148.7c-7.5,0-13.5-1.3-13.5-2.9"/>
			<path class="st32" d="M336,145.7c0,1.6-6,3-13.5,3"/>
			
				<ellipse transform="matrix(1 -2.695923e-03 2.695923e-03 1 -0.386 0.8581)" class="st32" cx="318.1" cy="143.6" rx="1.9" ry="0.5"/>
			<path class="st32" d="M324.8,143.6c0-0.3,0.9-0.5,1.9-0.5c1.1,0,1.9,0.2,1.9,0.5c0,0.3-0.9,0.5-1.9,0.5"/>
			<path class="st32" d="M317.8,147c-1.2,0-2.1-0.3-2.1-0.6s0.9-0.6,2.1-0.6c1.2,0,2.1,0.3,2.1,0.6"/>
			
				<ellipse transform="matrix(1 -2.695923e-03 2.695923e-03 1 -0.3933 0.8824)" class="st32" cx="327.1" cy="146.3" rx="2.1" ry="0.6"/>
		</g>
		<g>
			<polygon class="st8" points="302.7,169.2 212.9,169.2 225.5,119.3 315.3,119.3 			"/>
			<polygon class="st3" points="298.4,162.8 219.5,162.8 229.7,124.1 308.6,124.1 			"/>
			
				<rect x="193.5" y="163.2" transform="matrix(-1 -4.498192e-11 4.498192e-11 -1 460.1634 332.3255)" class="st8" width="73.2" height="6"/>
			<line class="st13" x1="193.3" y1="162.5" x2="302.6" y2="162.5"/>
		</g>
		<g>
			<path class="st3" d="M200.6,138.5c-1.7,3.4-3.2,6-4.1,6.6c-3.2,2.4-6.5,1.9-6.5,1.9l-6.1,0.5c0,0-0.7,1,1,2.9
				c0.9,1,4.7,2.7,7.9,2.1c3.2-0.6,8.7,1.4,8.7,1.4l4,11c0,0-2.2,1.1-3.6,3.5c-1.3,2.4-0.6,4.6-0.6,4.6s6.5-2.8,8.7-7
				c2.3-4.3-0.8-13-0.8-13s2.6-3.1,5.8-7.1C210,143.7,205.4,140.9,200.6,138.5z"/>
			<path class="st3" d="M225.9,106.4c-2.2-1.9-6.6-1.5-8.4-0.7c-22.2,9-34.2,20.8-43,29c-21.1,19.6-25.6,31.4-37.3,58.1
				c-4,9.1-11.2,30.8-18,36.9c-6.8,6.1-13.4,2.2-13.4,2.2c-1.6,11.9,37.9,18.8,51.5,22c1.4-5.3,7.9-13.5,10.8-20.7
				c5.2-13.1,8.5-28.9,17-44.1c19.7-35.4,41.2-43.1,55.6-52.4c2.1,0.7,12.3,6.8,12.8,5.8c2.1-4.1,2.5-10.4-1.7-15.1
				C242.9,120.8,234.3,113.8,225.9,106.4z"/>
			<g>
				<path class="st32" d="M194.6,125.4c2.5-0.1,4.6,1.8,6.3,3.7c1.7,1.8,3.5,3.9,6,4.3c1.6,0.2,3.3-0.3,4.7,0.4
					c0.7,0.3,1.2,0.8,1.7,1.4c1.2,1.2,2.5,2.5,3.7,3.7"/>
				<path class="st32" d="M185.1,134.7c2.7,0.5,5.2,2,7.1,4.1c0.9,1,1.7,2.2,2.7,3.2c1.8,1.8,4.2,3,6.8,3.2c0.8,0.1,1.5,0,2.3,0.3
					c1.5,0.5,2.4,2.1,3.8,3"/>
				<path class="st32" d="M174.5,145.4c1.1,1,2.8,1.2,4.3,1.6c2,0.6,3.9,1.8,5.3,3.4c0.8,1,3.9,3.9,5.1,4.3c5.9,2.1,6.2-0.9,8.7,3.9
					"/>
				<path class="st32" d="M164.2,158c3.4,2.4,26.1,10.7,26,10.7"/>
				<line class="st4" x1="151.2" y1="178.8" x2="176.4" y2="187.7"/>
				<line class="st4" x1="128.3" y1="230.9" x2="155.6" y2="237.6"/>
				<line class="st4" x1="136.9" y1="219" x2="160.3" y2="225.1"/>
				<line class="st4" x1="140.7" y1="205.4" x2="165.9" y2="212.7"/>
				<line class="st4" x1="146.3" y1="191.7" x2="170.9" y2="199"/>
			</g>
			<line class="st32" x1="239.9" y1="137.1" x2="250.3" y2="131.3"/>
			<g>
				<path d="M219.3,110.8l0.9,0.9l-3.9,2.8l0,0c0.5-0.1,1-0.1,1.5,0.1c0.5,0.1,0.9,0.3,1.3,0.7c0.7,0.7,1.3,2.1-0.8,3.6l-3.7,2.6
					l-0.9-0.9l3.5-2.6c1-0.7,1.5-1.6,0.6-2.5c-0.6-0.6-1.6-0.7-2.4-0.4c-0.2,0.1-0.4,0.2-0.6,0.3l-3.7,2.7l-1-0.9L219.3,110.8z"/>
				<path d="M225.2,118.3l-1.8,1.3l1.3,1.3l-0.9,0.6l-1.3-1.3l-3.3,2.4c-0.8,0.5-1,1-0.5,1.5c0.2,0.2,0.5,0.4,0.6,0.4l-0.8,0.6
					c-0.3-0.1-0.6-0.3-1-0.7c-0.4-0.4-0.6-0.8-0.5-1.3c0.1-0.5,0.5-1,1.2-1.5l3.4-2.4l-0.8-0.8l0.9-0.6l0.8,0.8l1.5-1.1L225.2,118.3
					z"/>
				<path d="M224.1,123c0.6-0.5,1.1-0.8,1.6-1.2l0.8,0.8l-1,0.7l0,0c0.9-0.2,1.9-0.1,2.7,0.7c0.7,0.6,0.7,1.5,0.2,2.2l0,0
					c0.5-0.1,1-0.1,1.4,0c0.6,0.1,1.1,0.3,1.5,0.7c0.7,0.6,1.1,1.9-1,3.4l-3.6,2.5l-0.9-0.8l3.4-2.4c1.2-0.8,1.5-1.7,0.8-2.3
					c-0.5-0.5-1.4-0.5-2.1-0.3c-0.2,0.1-0.4,0.2-0.6,0.3l-3.8,2.7l-0.9-0.8l3.7-2.6c1-0.7,1.3-1.5,0.6-2.2c-0.6-0.5-1.5-0.5-2.3-0.3
					c-0.2,0.1-0.4,0.2-0.6,0.3l-3.7,2.6l-0.9-0.8L224.1,123z"/>
				<path d="M237.3,128l0.9,0.9l-9,6.2l-0.9-0.8L237.3,128z"/>
			</g>
		</g>
		<circle class="st1" cx="261.7" cy="137.7" r="4.4"/>
		<rect x="252.5" y="146.8" class="st11" width="16.6" height="4.8"/>
		<line class="st4" x1="17.5" y1="307.5" x2="387.5" y2="307.5"/>
	</g>
	<g>
		<path class="st3" d="M103.6,121.5l-12.3,47.9l14.5,47.6c0,0-0.8,7.6,0.2,15c1.1,7.3,3.6,7.5,3.6,7.5l5.9,8.6c0,0,1.1,0.1,1.8-0.4
			c0.7-0.4,0.7-2,0.7-2l4.2,3.2c0,0,0.8-0.6,1.4-1.9c0.6-1.3-0.4-2.5-0.4-2.5l2.2,0.8c0,0,1-2.2,0.3-3.2c-1.2-1.7-5.1-6.7-5.1-6.7
			l-0.2-9.1c0,0,3.8,3.6,6.7,5.1c0.7,1,4.1,0.9,4.1,0.9s-3.9-4.4-5.6-11.2c-1.7-6.8-3.6-10.1-3.6-10.1l-6.9-42.6l7.3-19.8l-0.4-1.3
			c-2.4-7.8-6.8-14.8-12.7-20.5L103.6,121.5z"/>
		<path class="st3" d="M123.7,244.9l-5.5-5.3l-1.8-5.4"/>
		<path class="st3" d="M112.5,233.3l1.8,7.6l3.8,4.9"/>
	</g>
</g>
</svg>
