<?xml version="1.0" encoding="utf-8"?>
<!-- Generator: Adobe Illustrator 24.1.2, SVG Export Plug-In . SVG Version: 6.00 Build 0)  -->
<svg version="1.1" xmlns="http://www.w3.org/2000/svg" xmlns:xlink="http://www.w3.org/1999/xlink" x="0px" y="0px"
	 viewBox="0 0 889 585" style="enable-background:new 0 0 889 585;" xml:space="preserve">
<style type="text/css">
	.st0{fill-rule:evenodd;clip-rule:evenodd;fill:#17B1B1;}
	.st1{fill-rule:evenodd;clip-rule:evenodd;fill:#F6BE22;}
	.st2{fill-rule:evenodd;clip-rule:evenodd;fill:#FFFFFF;}
	
		.st3{fill-rule:evenodd;clip-rule:evenodd;fill:#FFFFFF;stroke:#000000;stroke-width:1.33;stroke-linecap:round;stroke-linejoin:round;}
	.st4{fill:none;stroke:#000000;stroke-width:1.33;stroke-linecap:round;stroke-linejoin:round;}
	.st5{fill:#030100;}
	.st6{fill-rule:evenodd;clip-rule:evenodd;fill:#FDD2E1;}
	.st7{fill-rule:evenodd;clip-rule:evenodd;fill:#0A0704;}
	.st8{fill-rule:evenodd;clip-rule:evenodd;fill:#030100;}
	.st9{fill-rule:evenodd;clip-rule:evenodd;fill:#230E04;}
	.st10{fill-rule:evenodd;clip-rule:evenodd;fill:#000047;}
	.st11{fill-rule:evenodd;clip-rule:evenodd;fill:#F51618;}
	.st12{fill-rule:evenodd;clip-rule:evenodd;fill:#919191;}
	
		.st13{fill-rule:evenodd;clip-rule:evenodd;fill:none;stroke:#FFFFFF;stroke-width:1.33;stroke-linecap:round;stroke-linejoin:round;}
	.st14{fill:none;stroke:#FFFFFF;stroke-width:1.33;stroke-linecap:round;stroke-linejoin:round;}
	.st15{fill:#FFFFFF;stroke:#000000;stroke-width:1.33;stroke-linecap:round;stroke-linejoin:round;}
	.st16{fill-rule:evenodd;clip-rule:evenodd;fill:#24160C;}
	.st17{fill:#0A0704;stroke:#0A0704;stroke-miterlimit:10;}
	.st18{fill:#F6BE22;}
	.st19{fill:#17B1B1;}
	.st20{fill-rule:evenodd;clip-rule:evenodd;fill:#FFBE00;}
	.st21{fill-rule:evenodd;clip-rule:evenodd;fill:none;stroke:#000000;stroke-linecap:round;stroke-linejoin:round;}
	.st22{fill:none;stroke:#1A1A1A;stroke-width:1.33;stroke-linecap:round;stroke-linejoin:round;}
	.st23{fill:#0A0704;}
	.st24{fill-rule:evenodd;clip-rule:evenodd;fill:#12847E;}
	.st25{fill:#F51618;}
	.st26{fill:none;stroke:#000000;stroke-miterlimit:10;}
	.st27{fill:#0092FF;}
	.st28{fill:#007994;}
	.st29{fill:none;stroke:#F6BE22;stroke-width:1.33;stroke-linecap:round;stroke-linejoin:round;}
	.st30{fill:#FDD2E1;}
	.st31{fill:#0C9390;}
	
		.st32{fill-rule:evenodd;clip-rule:evenodd;fill:none;stroke:#000000;stroke-width:1.33;stroke-linecap:round;stroke-linejoin:round;}
	.st33{fill:#A9D18F;}
	.st34{stroke:#000000;stroke-linejoin:round;}
	.st35{fill:#C5DFB5;}
	.st36{fill:#FFFA94;}
	.st37{fill-rule:evenodd;clip-rule:evenodd;fill:#0092FF;}
	
		.st38{fill-rule:evenodd;clip-rule:evenodd;fill:#A8A8A8;stroke:#000000;stroke-width:1.33;stroke-linecap:round;stroke-linejoin:round;}
	.st39{fill-rule:evenodd;clip-rule:evenodd;fill:#C5DFB5;}
	.st40{fill-rule:evenodd;clip-rule:evenodd;fill:#A9D18F;}
	.st41{fill:none;stroke:#0066CC;stroke-width:1.33;stroke-linecap:round;stroke-linejoin:round;stroke-miterlimit:10;}
	.st42{fill-rule:evenodd;clip-rule:evenodd;fill:#FFFA94;}
	.st43{fill:#5D5D5D;}
	.st44{clip-path:url(#SVGID_6_);fill:#FFFFFF;}
	.st45{fill-rule:evenodd;clip-rule:evenodd;fill:#00CB99;}
	.st46{fill:none;stroke:#00EDB3;stroke-width:7.42;stroke-linecap:round;stroke-linejoin:round;}
	.st47{fill-rule:evenodd;clip-rule:evenodd;fill:#4971AF;}
	.st48{fill-rule:evenodd;clip-rule:evenodd;fill:#282828;}
	.st49{fill:#FFFBF2;}
	.st50{fill-rule:evenodd;clip-rule:evenodd;fill:#3AE5BB;}
	.st51{fill-rule:evenodd;clip-rule:evenodd;fill:#514A45;}
	.st52{fill-rule:evenodd;clip-rule:evenodd;fill:#F9CB00;}
	.st53{fill-rule:evenodd;clip-rule:evenodd;fill:#05DBED;}
	.st54{fill-rule:evenodd;clip-rule:evenodd;fill:#E9B200;}
	.st55{clip-path:url(#SVGID_8_);}
	.st56{fill:none;stroke:#FFFFFF;stroke-width:3;stroke-linecap:round;stroke-linejoin:round;}
	.st57{fill:none;stroke:#E9B200;stroke-width:5;stroke-miterlimit:10;}
	.st58{fill-rule:evenodd;clip-rule:evenodd;fill:#00DB00;}
	.st59{fill:#00BC00;}
	.st60{fill:#00DB00;}
	.st61{fill:none;}
	.st62{fill:#F4BC23;}
	.st63{fill-rule:evenodd;clip-rule:evenodd;}
	.st64{fill-rule:evenodd;clip-rule:evenodd;fill:#0068AB;}
	.st65{fill:#BEC7C9;}
	.st66{fill:#0068AB;}
	.st67{fill:#005C89;}
	.st68{clip-path:url(#SVGID_10_);fill:none;stroke:#000000;stroke-width:1.33;stroke-linecap:round;stroke-linejoin:round;}
	.st69{fill:#E1A916;}
	.st70{opacity:0.55;}
	.st71{fill:#FDBE43;}
	.st72{fill:#FFFFFF;}
	.st73{fill:#0067A6;}
	.st74{fill:#54D900;}
	.st75{fill:#0068A7;}
	.st76{fill:#0068A5;}
	.st77{fill:#B8B8B8;}
	.st78{fill:#5C5C5C;}
	.st79{fill:#666464;}
	.st80{fill:#5A5959;}
	.st81{fill:#7C7B7B;}
	.st82{fill:#BCBCBC;}
	.st83{fill:#757575;}
	.st84{fill:#D3D0D0;}
	.st85{fill:#0068A4;}
	.st86{fill:#0067A4;}
	.st87{fill:#4AB000;}
	.st88{fill:#7DDF45;}
	.st89{fill:#7FDF47;}
	.st90{fill:#39BB49;}
	.st91{fill:#D5EADA;}
	.st92{fill:#CDE6D3;}
	.st93{fill:#84DA60;}
	.st94{fill:#D3EAD7;}
	.st95{fill:#4AC04D;}
	.st96{fill:#6FD150;}
	.st97{fill-rule:evenodd;clip-rule:evenodd;fill:#BEC7C9;}
	.st98{fill:#D0D1D6;}
	.st99{fill-rule:evenodd;clip-rule:evenodd;fill:#7394E3;}
	
		.st100{fill-rule:evenodd;clip-rule:evenodd;fill:#17B1B1;stroke:#000000;stroke-width:1.33;stroke-linecap:round;stroke-linejoin:round;}
	.st101{fill-rule:evenodd;clip-rule:evenodd;fill:#408E96;}
	.st102{clip-path:url(#SVGID_12_);}
	.st103{fill:#408E96;}
	.st104{clip-path:url(#SVGID_14_);}
	.st105{fill-rule:evenodd;clip-rule:evenodd;fill:#9AF4F1;}
	
		.st106{fill-rule:evenodd;clip-rule:evenodd;fill:#0A0704;stroke:#FFFFFF;stroke-width:1.33;stroke-linecap:round;stroke-linejoin:round;}
	
		.st107{fill-rule:evenodd;clip-rule:evenodd;fill:#F6BE22;stroke:#000000;stroke-width:1.33;stroke-linecap:round;stroke-linejoin:round;}
	.st108{fill-rule:evenodd;clip-rule:evenodd;fill:#FDFDFD;}
	.st109{fill-rule:evenodd;clip-rule:evenodd;stroke:#000000;stroke-width:1.33;stroke-linecap:round;stroke-linejoin:round;}
	.st110{fill-rule:evenodd;clip-rule:evenodd;fill:#F5F5F5;}
	.st111{fill:none;stroke:#F51618;stroke-width:1.33;stroke-linecap:round;stroke-linejoin:round;}
	.st112{clip-path:url(#SVGID_16_);}
	.st113{fill:none;stroke:#F6F6F6;stroke-width:1.33;stroke-linecap:round;stroke-linejoin:round;}
	.st114{fill-rule:evenodd;clip-rule:evenodd;fill:#373737;}
	.st115{fill-rule:evenodd;clip-rule:evenodd;fill:#118484;}
	.st116{fill-rule:evenodd;clip-rule:evenodd;fill:#DCB6C3;}
	.st117{fill-rule:evenodd;clip-rule:evenodd;fill:#262626;}
	.st118{fill-rule:evenodd;clip-rule:evenodd;fill:#D19F14;}
	
		.st119{fill-rule:evenodd;clip-rule:evenodd;fill:#0A0704;stroke:#000000;stroke-width:1.33;stroke-linecap:round;stroke-linejoin:round;}
	.st120{fill-rule:evenodd;clip-rule:evenodd;fill:#D2A21D;}
	.st121{fill:none;stroke:#000000;stroke-width:6.34;stroke-linecap:round;stroke-linejoin:round;}
	.st122{clip-path:url(#SVGID_18_);}
	.st123{fill-rule:evenodd;clip-rule:evenodd;fill:#F6C949;}
	.st124{fill-rule:evenodd;clip-rule:evenodd;fill:#F6F6F6;}
	.st125{fill-rule:evenodd;clip-rule:evenodd;fill:#FDD2E1;stroke:#000000;stroke-width:1.33;stroke-miterlimit:10;}
	.st126{fill-rule:evenodd;clip-rule:evenodd;stroke:#FFFFFF;stroke-width:1.33;stroke-linecap:round;stroke-linejoin:round;}
	
		.st127{fill-rule:evenodd;clip-rule:evenodd;fill:#FFFFFF;stroke:#0A0704;stroke-width:1.33;stroke-linecap:round;stroke-linejoin:round;}
	
		.st128{fill-rule:evenodd;clip-rule:evenodd;fill:#31B767;stroke:#000000;stroke-width:0.75;stroke-linecap:round;stroke-linejoin:round;}
	
		.st129{fill-rule:evenodd;clip-rule:evenodd;fill:#ECB82B;stroke:#000000;stroke-width:0.75;stroke-linecap:round;stroke-linejoin:round;}
	
		.st130{fill-rule:evenodd;clip-rule:evenodd;fill:#E9EBEF;stroke:#000000;stroke-width:0.75;stroke-linecap:round;stroke-linejoin:round;}
	.st131{fill:none;stroke:#000000;stroke-width:0.75;stroke-linecap:round;stroke-linejoin:round;}
	
		.st132{fill-rule:evenodd;clip-rule:evenodd;fill:#E9EBEF;stroke:#000000;stroke-width:1.33;stroke-linecap:round;stroke-linejoin:round;}
	.st133{fill-rule:evenodd;clip-rule:evenodd;fill:#D5CECE;}
	.st134{fill-rule:evenodd;clip-rule:evenodd;fill:#FBF7F7;}
	.st135{fill-rule:evenodd;clip-rule:evenodd;stroke:#000000;stroke-miterlimit:10;}
	.st136{fill-rule:evenodd;clip-rule:evenodd;fill:#FFFFFF;stroke:#000000;stroke-linecap:round;stroke-linejoin:round;}
	.st137{fill:none;stroke:#000000;stroke-linecap:round;stroke-linejoin:round;}
	.st138{fill:#D6AE03;}
	.st139{fill:#F9CB00;}
	.st140{fill-rule:evenodd;clip-rule:evenodd;fill:none;stroke:#000000;stroke-width:7;stroke-linecap:round;stroke-linejoin:round;}
	.st141{fill-rule:evenodd;clip-rule:evenodd;fill:#F7F7F7;}
	.st142{fill:#919191;}
	.st143{clip-path:url(#SVGID_20_);fill:none;stroke:#000000;stroke-width:1.33;stroke-linecap:round;stroke-linejoin:round;}
	.st144{fill:#F6E5DC;}
	.st145{fill:#F4AA1C;}
	.st146{fill:#FBBB1F;}
	.st147{fill:#007CFF;}
	.st148{fill:none;stroke:#000000;stroke-width:1.33;stroke-linecap:round;stroke-linejoin:round;stroke-dasharray:12,15;}
	.st149{fill:#FFBE00;}
	.st150{fill-rule:evenodd;clip-rule:evenodd;fill:#0A0704;stroke:#0A0704;stroke-miterlimit:10;}
	.st151{fill:#F51618;stroke:#000000;stroke-width:1.33;stroke-linecap:round;stroke-linejoin:round;}
	.st152{fill:#5CEAE6;}
	.st153{fill:none;stroke:#000000;stroke-linejoin:round;}
	.st154{fill-rule:evenodd;clip-rule:evenodd;fill:none;}
	.st155{clip-path:url(#SVGID_24_);fill:#FFFFFF;}
	.st156{clip-path:url(#SVGID_26_);fill:none;stroke:#000000;stroke-width:1.33;stroke-linecap:round;stroke-linejoin:round;}
	.st157{clip-path:url(#SVGID_28_);}
</style>
<g id="Guides_For_Artboard">
</g>
<g id="Layer_1">
	<line class="st4" x1="842.5" y1="456.5" x2="33.5" y2="456.5"/>
	<g>
		<path class="st32" d="M709.7,342.4H586.5l24.8-97.3c3.9-15.3,17.6-25.9,33.4-25.9h52.1c22.5,0,39,21.2,33.4,43L709.7,342.4z"/>
		<g>
			<polygon class="st11" points="709.6,346.6 567.6,346.6 569,339.7 711,339.7 			"/>
			<line class="st4" x1="530.1" y1="456.4" x2="568.3" y2="347.3"/>
			<line class="st4" x1="612.8" y1="347.3" x2="612.8" y2="456.4"/>
			<line class="st4" x1="649.2" y1="347.3" x2="629.7" y2="456.4"/>
			<line class="st4" x1="708.9" y1="347.3" x2="728" y2="456.4"/>
		</g>
	</g>
	<g>
		<path class="st63" d="M672.1,167c16.1-12.7,21,9,26.9,15.3c5.6,5.8,10.5,10.3,12.7,13.8c-8-0.7-21.1,7.6-34.5,7.3
			c-13.3-0.3-24.4-3.1-24.4-3.1s2.7-14.9,21.1-21.1"/>
		<path class="st4" d="M690,170.1c5.7,0,9.1,16.1,18.2,17.8"/>
		<path class="st3" d="M678.5,295.4c0,0-25.5,21.3-29,37c-2.3,10.1-70.6-12.4-71.3-6.5c-0.1,1.1,6.5,38,8.4,50
			c0.4,2.5,4.3,19.3,4.3,19.3s-37.8,37.6-39.7,33.3c-1.5-6.7,12.1-18.2,16.1-34.4c0,0-1.6-14.5-3.2-23.6
			c-4.5-27.3-22.9-52.4-14.6-66.3c4.4-7.4,72.6-7.8,72.6-7.8l14-29l47.2,9.7L678.5,295.4z"/>
		<path class="st6" d="M611.7,293.9c0,0-64.3-6.2-68.9,13.8c-3.5,15,18.4,76.5,18.4,76.5l28.3-8.1c0,0,1.4-13.5-0.5-26.8
			c-1.9-13.3-8.2-21.7-8.2-21.7L634,341l35.7-50.5L611.7,293.9z"/>
		<path class="st4" d="M579.2,379.5l-20.1-64.3l74,4.4"/>
		<g>
			<path class="st1" d="M566,393l7.8,1l15.8-7.8l6.5,11.8l-11.8,7.1L574,416.6l-16.5,8l-5-8.9c0,0,3.4-2.4,6.8-8.1
				C562.7,402,566,393,566,393z"/>
			<path class="st3" d="M596.1,397.7l-11.5,5.9l4,7.7l11.5-5.9L596.1,397.7z"/>
			<path class="st3" d="M574,416.6l-22.6,11.6l0.9,1.8l23-11.4l10.4-12.5l-1.1-2.5L574,416.6z"/>
			<path class="st125" d="M584.4,403.9l-10-9.6l-8-1.3l-2.8,6.4l5.9,1.2l0.2,4.4l8,7L584.4,403.9z"/>
		</g>
		<path class="st3" d="M685.7,338c-9.2,9.9-116.6,124.6-117.2,125.4c-0.2,0.3-9.6,7.6-23.6,8.6c-7.6,0.5-23.2,1.3-24.4-0.4
			c-2.3-3.5,2.2-11.2,26.9-10.3c0.3-6,78.2-111.5,102.1-149c23.9-37.6,43-17.3,43-17.3S706.7,315.2,685.7,338z"/>
		<path class="st6" d="M698.7,291.3l-36.2-11.5l-21.1,36.1l0.6,0.4l-92.3,117.5l49.9,10.7c0,0,56-65.2,83.5-99.4
			c7.1-8.8,12.3-15.5,14.2-18.5C706.5,311.8,698.7,291.3,698.7,291.3z"/>
		<path class="st4" d="M692.7,317.5c-6.9-1.5-10.3-11.2-10.2-17.3"/>
		<path class="st4" d="M685.7,312.8L581.6,436.5"/>
		<path class="st4" d="M642.4,296.4c1.1,12.9-3.4,20-7.6,32.8"/>
		<path class="st3" d="M682.4,212.9c-1.1-4.3-0.9-6.6-0.9-9.7c0-6.8-0.2-14.1-0.2-14.1s-5-3-7.5-4.4c-7.3,4.9-2.2,11-10.4,23.6
			c-2.2,3.4-19.1,7.2-19.1,7.2s-5.8,5.9-6.1,7c-7.5,25.1,34.5,43.4,34.5,43.4l23.4-38.6C696.1,227.1,683.4,217.1,682.4,212.9z"/>
		<path class="st11" d="M655.1,210.8c0,0-16.4,1.7-25.8,10.3c-6.8,9.2-21.8,27.6-21.8,27.6l25.3,5.7l-12.6,39.1l43.7,4.6
			c31-2.3,34.5-2.3,34.5-2.3l-2.1-25.3h22.8c0,0,2.3-32.9-5.7-43.7c-8.7-11.6-25.4-12.4-28.2-13.8c-0.1-0.1-10.1,15.2-19.8,11.1
			C655.4,219.9,655.1,210.8,655.1,210.8z"/>
		<path class="st3" d="M667.5,189.1c-2.5,1-3.7-2.7-1.6-3.7c0.6-0.3,1.2-0.2,1.6,0.1"/>
		<path class="st3" d="M669.2,170.6c-2.6,11.7-3.7,22.1-3.6,25.7c0.1,5.2,4.4,7.5,7.7,7.9c3.4,0.4,8.1-1.2,9.1-6.4
			c1.2-6.1,3.1-19.5,2.8-22c-0.3-2.5-1.9-5.4-4.7-7.7C676.7,165.2,670,167.1,669.2,170.6z"/>
		<path class="st4" d="M672.3,186.3c0,0-5,3.8-0.6,4"/>
		<path class="st16" d="M675.2,185.9c0-0.4,0.4-0.7,0.7-0.6c0.3,0,0.6,0.4,0.5,0.8c0,0.4-0.4,0.7-0.7,0.6
			C675.4,186.6,675.2,186.3,675.2,185.9z"/>
		<path class="st16" d="M668.7,184.1c0-0.4,0.4-0.7,0.7-0.6c0.3,0,0.6,0.4,0.5,0.8c0,0.4-0.4,0.7-0.7,0.6
			C668.9,184.8,668.7,184.5,668.7,184.1z"/>
		<path class="st3" d="M681.9,191.9c2.1,1.7,4.3-1.6,2.6-3.1c-0.4-0.4-1.1-0.5-1.6-0.4"/>
		<path class="st4" d="M641.4,234.3c0,0-6.1,15.6-8,20.7"/>
		<path class="st99" d="M668.7,190.4c0-0.1,0-0.2,0-0.3"/>
		<path class="st4" d="M698.4,244.4l-0.8,47.3"/>
		<path class="st63" d="M688.1,276.2l10.9-31.2l-2,36.9L688.1,276.2z"/>
		<g>
			<path class="st1" d="M550.3,448.5l6.4,4.7L577,455l-2.9,12.5l-13.8,0.5l-14.6,5l-18.3-1l0-10.1c0,0,4.2-0.4,9.9-3.8
				C543,454.7,550.3,448.5,550.3,448.5z"/>
			<path class="st3" d="M574.2,467.3l-12.9-0.4l-0.3,8.7l12.9,0.4L574.2,467.3z"/>
			<path class="st3" d="M545.7,473l-25.4-0.9l-0.1,2.1l25.7,1.2l15.2-5.8l0.3-2.8L545.7,473z"/>
			<path class="st125" d="M561,467l-4.1-13.2l-6.3-5l-5.6,4.3l4.6,3.9l-1.9,3.9l3.6,10L561,467z"/>
		</g>
		<path class="st63" d="M686.4,181.9c-1,4.3-5.1-0.5-9.5-1.8C639.9,168.6,694.1,148.4,686.4,181.9z"/>
	</g>
	<g>
		<path class="st32" d="M253.1,346.9h123.2l-24.8-97.3c-3.9-15.3-17.6-25.9-33.4-25.9H266c-22.5,0-39,21.2-33.4,43L253.1,346.9z"/>
		<g>
			<polygon class="st11" points="253.3,351.2 395.2,351.2 393.9,344.3 251.9,344.3 			"/>
			<line class="st4" x1="432.8" y1="461" x2="394.6" y2="351.8"/>
			<line class="st4" x1="350" y1="351.8" x2="350" y2="461"/>
			<line class="st4" x1="313.6" y1="351.8" x2="333.1" y2="461"/>
			<line class="st4" x1="253.9" y1="351.8" x2="234.8" y2="461"/>
		</g>
		<path class="st3" d="M373.4,439.7l2.1,19.1l16.7-5.7l-1-19.7L373.4,439.7z"/>
		<path class="st8" d="M306.6,277c0-0.4,0-0.2,0.1-0.5"/>
		<path class="st3" d="M355.4,171c-0.2-0.9,1.6-1.5,2.5-0.3c0.9,1.1,0.2,3.4-0.8,4.1c-0.8,0.5-1.6,0.4-2.5,0.2"/>
		<path class="st3" d="M331.7,194.5c2.8-6.9,8.4-20.5,8.4-20.5s6.1-0.5,9.2-0.8c-1.7,12.4-1.3,18.6-3,30.8
			C339.2,202.4,338.8,196.2,331.7,194.5z"/>
		<path class="st8" d="M285.3,309.9c0,0-0.1,3.4,0.1,4.7c0.4,3.3,2.1,6.8,4,9.6c2,3.1,5,6.8,8.4,9.7c5.7,4.9,12.6,7.8,17.3,2.7
			c0.1-0.1,17.2,0.4,17.2,0.4s22.1-8.9,28.4-11.9c0.8-0.4,1-11.6,1-11.6L285.3,309.9z"/>
		<path class="st3" d="M360.9,154.9c0,0-5.7,22.8-9.7,29.2c-3,4.8-14.9,2.1-15.1-4c-0.2-6.9,7.3-29.3,7.3-29.3L360.9,154.9z"/>
		<path class="st4" d="M350.9,167.5c-0.4,2,1.6,3.2-1.2,3.1"/>
		<g>
			<path class="st9" d="M353.3,167.1c0.1-0.4,0.4-0.6,0.8-0.6c0.3,0.1,0.5,0.4,0.5,0.9c-0.1,0.4-0.4,0.6-0.8,0.6
				C353.5,167.8,353.2,167.5,353.3,167.1z"/>
			<path class="st9" d="M346.8,165.4c0.1-0.4,0.4-0.6,0.9-0.6c0.3,0.1,0.5,0.4,0.5,0.9c-0.1,0.4-0.4,0.6-0.8,0.6
				C347,166.3,346.7,165.9,346.8,165.4z"/>
		</g>
		<path class="st0" d="M391.9,207.7c3.5,11.7,6,46.1-0.5,61.8c-4.5,10.9-18.5,6-18.5,6l-12.1,46.3l-59.2-0.3l-17.1-7.1
			c0,0-7.4-120.9,3.2-123.3C296.4,189,386.8,190.8,391.9,207.7z"/>
		<path class="st14" d="M346.7,233l-10.6,87.7"/>
		<path class="st14" d="M336.2,258.6c0.2-1.4-0.6-2.7-1.9-2.9c-1.3-0.2-2.6,0.8-2.8,2c-0.2,1.4,0.6,2.7,2,2.9c0.8,0.1,1.5-0.1,2-0.6
			C335.9,259.7,336.1,259.1,336.2,258.6z"/>
		<path class="st14" d="M333.2,285c0.2-1.4-0.6-2.7-1.9-2.9c-1.3-0.2-2.6,0.8-2.8,2c-0.2,1.4,0.6,2.7,2,2.9c0.8,0.1,1.5-0.1,2-0.6
			C332.9,286,333.2,285.6,333.2,285z"/>
		<path class="st8" d="M342.5,173.9c-7.4,2.4,1.3-17.6,0.2-17.3c-0.4,0.1-2.3-3-2.5-2.3c-0.1,0.3-2,6.9-3.5,13.5
			c-1.2,5.4-2,10.9-1.4,13.4c0.5,2.1,1.5,4.1,3.5,5.2c7,4,10.7,2,12.7-0.8c1.9-2.7,3.2-6.2,3.8-9.5
			C355.3,175.9,346.5,172.6,342.5,173.9z"/>
		<path class="st3" d="M340.7,165.8c-0.6-2.1-2.1-1.3-2.5-1.1c-2.3,1.9-0.8,5.7,1.6,4.4"/>
		<path class="st3" d="M327.5,194l2.7-5.4l10.2,3.1l9.6-2.3l1.1,5.3l-10.7-0.3L327.5,194z"/>
		<g>
			<path class="st3" d="M355.7,280.5l-5.8-7l-11.3-7.5l-16.4-2.6l-13.2-5c-5.2,4.7-4.5,7.1-7.5,13.7c13.2,3,24.5,8.8,24.5,8.8
				l12.5,6c0,0,2.7-0.4,4-1.1c1.4-0.7,1.4-1.6,1.4-1.6s2.5-0.5,3-1.7c0.3-0.9-5.5-7.6-5.5-7.6l5.6,2c0,0,3.6,3.9,4.8,4.3
				C355.4,282.7,355.7,280.5,355.7,280.5z"/>
			<path class="st15" d="M337.6,277.2l6.5,7.1"/>
			<path class="st15" d="M333.9,279.7l7.8,6.6"/>
			<path class="st15" d="M320.4,276.3c0.5,1.1,4.3,4.2,5.4,4.7"/>
		</g>
		<path class="st3" d="M314.5,260.5l9,3l-9,16l-8-2L314.5,260.5z"/>
		<path class="st0" d="M293.1,246.6l15.4-25.7c0.1,0-8.5-36.7-21.3-28.1c-7.6,5.1-21.2,37-27.8,53.2c-2.2,5.3-0.1,11.5,4.9,14.3
			l43.6,25l11.6-24.1L293.1,246.6z"/>
		<path class="st5" d="M305.3,218.5c0,0-5.5,8.1-11.5,25.4c3.2,1.6,6.4,3.2,9.7,4.8C306.5,228.9,305.3,218.5,305.3,218.5z"/>
		<path class="st14" d="M315.5,256.5c0,0-8.5,16.3-11.2,21.9"/>
		<path class="st3" d="M421.5,275.9c10.2,0.5,23.5-4.9,24.4-2.7c0.5,1.5-2.3,1.2-4.4,2.4c8.4,1.6,17.8,3,18,4.5
			c0.1,1.5-7.8-0.9-14.4-0.4c7.4,2.5,8.9,4.1,8.9,4.1s-1.8,0.2-9.6-0.5c8.1,2.7,8.5,3.2,8.2,3.9c-0.8,1.8-0.3,0.3-9-1
			c4.9,1.7,8.1,3.4,7.2,4.9c-0.6,1-5.7-1.2-14.6-3.5c-2.7-0.8-8.8-0.6-11-1.6C420.1,283.3,421,280.8,421.5,275.9z"/>
		<path class="st3" d="M420.9,273.5l7.9,1.2l-1.3,11.9h-8.4L420.9,273.5z"/>
		<path class="st0" d="M426.2,270.8l-1.1,21.3c0,0-23.6-1.6-37.3-5.2c-3.5-0.9-6.3-1.9-8.6-3c-3.9-1.7-6.2-3.5-7.4-4.6
			c-0.9-0.8-1.2-1.3-1.2-1.3l0.8-0.9l-1.3-0.2l3-24.9l0-0.3l2.5-20.7l14.9-25c0,0,2.3-3.8,4.2,14.8c0.9,8.6,1.7,22,2.4,33.9
			L426.2,270.8z"/>
		<path class="st14" d="M373,344.9c-0.3,3.5,2,20.2,2.5,27.6"/>
		<path class="st8" d="M340.1,161.4c1.9-1.9,3.9-5.7,6.9-6.2c3.9-0.5,13.5,3.4,16-0.6c4.3-7.1-10.6-9.2-14.2-9
			c-7.6,0.4-8.4,7.5-9.7,13.6"/>
		<path class="st8" d="M350.2,153.3c0.4,0.6,0.3,0.3,0.4,1"/>
		<path class="st8" d="M347.6,152.9c-3.7,3,10.7,6,13.4,5.8c5.2-0.5,9.3-6.9,8.5-11.9c-1.3-7.3-12.2-8.8-17-4.1
			C349.9,145.1,350.3,150.6,347.6,152.9z"/>
		<path class="st8" d="M373.8,346.8c1.7,6.9-18.8,86.3-18.5,91.7c14.1,2.4,20.7,0,34.7,2.4c2.9-19,21.2-62.7,18.9-97.9
			c-2.8-44.2-48.1-45.8-71.3-40c-23.3,5.8-23,26.3-23,26.3S370.6,333.7,373.8,346.8z"/>
		<path class="st8" d="M333.6,350.2c1.7,6.9,32.9,89.2,32.8,91c0,0,18.4-3.2,32.4-1c2.9-19-15.6-62.2-27-95.5
			c-15.8-46.2-30.4-42.1-42-42.3c-19.4-0.5-37.8-1.8-46,4.9c-6.8,5.6-4.3,22.1,8.2,32.9C304.4,351,330.4,337.1,333.6,350.2z"/>
		<path class="st14" d="M373.7,347.3c1.7,11.5-10.1,52.6-14.2,69.7"/>
		<path class="st14" d="M338.5,302.5c11.1,6.8,23.1,10.1,29.8,22.3"/>
		<path class="st3" d="M360.6,435.7l-5,18.6l17.5,0.9l6.3-18.6L360.6,435.7z"/>
		<path class="st14" d="M284.5,312.5c0,3.7,2.3,7,4,10.2c1.7,3.2,7.1,4,10.2,4.5c6.9,1,13.3,1.1,19.9,3.4
			c2.4,0.9,13.1,16.1,15.9,22.8"/>
		<path class="st5" d="M371.9,279.4c0.1-9.5,1.8-17.3,1.3-27.3c0-0.2,0-0.3,0-0.5c0,0.1,0,0.1,0.1,0.2c2.5,10.8,3.7,21.3,6.1,32.2
			C375.4,282.3,373.1,280.5,371.9,279.4z"/>
		<path class="st14" d="M320.5,258.5l-36.1-19.2"/>
	</g>
	<g>
		<path class="st125" d="M396.8,446.2l-1.1-6.4c0,0-7.4,2.4-7.1,5.3c0.3,2.9,4.1,5.7,4.1,5.7L396.8,446.2z"/>
		<path class="st125" d="M397.1,446.4l-7.5,0.9c0,0-8.1,4.7-9.1,3.6c-1.1-1-3.8-3.2-3.8-3.2s-0.2,2.7-1,7.2
			c-0.8,4.4,0.4,9.9,0.4,9.9l9.4,1.3l25.7,3.4l17.9,1.8c0,0,4-6.1-0.8-8.8C421,458.7,397.1,446.4,397.1,446.4z"/>
		<path class="st0" d="M397.3,447l-7.5,1l0.8,3.9l6,1.9c0,0,13.1,6.9,19.3,8.2c6.2,1.2,5.5-1.9,5.5-1.9L397.3,447z"/>
		<path class="st32" d="M416,456.8l-1,2.4"/>
		<path class="st32" d="M412.3,455l-1,2.4"/>
		<path class="st32" d="M408.6,453.2l-1,2.4"/>
		<path class="st32" d="M404.7,451.2l-1,2.4"/>
		<path class="st4" d="M398.7,449.5c0-0.5-0.3-0.9-0.8-1c-0.5,0-1,0.3-1,0.8c0,0.5,0.3,0.9,0.8,1C398.2,450.3,398.6,450,398.7,449.5
			z"/>
		<path class="st4" d="M424.3,461.3l1.3,2.9c0,0-6.3,0-9.9,1.2c-3.7,1.2-4.8,1.9-4.8,1.9"/>
		<path class="st0" d="M411.2,467c0,0,0.9-4.5-3.1-6.4c-6.4-3-27.1-8-27.1-8l-1.5,3c0,0,12.4,2.4,15.2,4.6c2.7,2.2,1.6,4,1.6,4
			L411.2,467z"/>
		<path class="st4" d="M385.8,462.9c-1.7-6-6.2-6.9-6.2-6.9l1.7-4.3"/>
		<path class="st132" d="M375.4,462.4l19.4,1.5l34.3,7.2l-1.5,1.9l-51.1-5.2L375.4,462.4z"/>
		<path class="st4" d="M399.1,467.6c0-0.5-0.3-0.9-0.8-1c-0.5-0.1-1,0.3-1,0.8c0,0.5,0.3,0.9,0.8,1
			C398.6,468.5,399.1,468.1,399.1,467.6z"/>
		<path class="st4" d="M393.4,467.1c0-0.5-0.3-0.9-0.8-1c-0.5,0-1,0.3-1,0.8c0,0.5,0.3,0.9,0.8,1
			C392.9,467.9,393.4,467.6,393.4,467.1z"/>
		<path class="st4" d="M387.8,466.6c0-0.5-0.3-0.9-0.8-1c-0.5,0-1,0.3-1,0.8c0,0.5,0.3,0.9,0.8,1C387.3,467.4,387.7,467,387.8,466.6
			z"/>
		<path class="st4" d="M382.1,466c0-0.5-0.3-0.9-0.8-1c-0.5-0.1-1,0.3-1,0.8c0,0.5,0.3,0.9,0.8,1C381.6,466.9,382.1,466.5,382.1,466
			z"/>
	</g>
	<g>
		<path class="st125" d="M379.1,444l0.4-6.5c0,0-7.8,0.7-8.1,3.6c-0.3,2.9,2.7,6.5,2.7,6.5L379.1,444z"/>
		<path class="st125" d="M379.4,444.3l-7.5-0.8c0,0-8.9,2.7-9.7,1.5c-0.8-1.2-3-4-3-4s-0.8,2.6-2.6,6.8c-1.8,4.2-1.8,9.7-1.8,9.7
			l8.9,3.3l24.3,9.1l17.1,5.8c0,0,5.3-5.1,1.2-8.7C400,461.6,379.4,444.3,379.4,444.3z"/>
		<path class="st0" d="M379.5,444.9l-7.5-0.7l-0.1,4l5.4,3.2c0,0,11.2,9.7,17,12.3c5.8,2.6,5.7-0.6,5.7-0.6L379.5,444.9z"/>
		<path class="st32" d="M395.5,458.7l-1.5,2.2"/>
		<path class="st32" d="M392.3,456l-1.5,2.2"/>
		<path class="st32" d="M389.1,453.5l-1.5,2.2"/>
		<path class="st32" d="M385.7,450.7l-1.5,2.2"/>
		<path class="st4" d="M380.3,447.6c0.2-0.5-0.1-1-0.6-1.1c-0.5-0.2-1,0.1-1.2,0.6c-0.2,0.5,0.1,1,0.6,1.1
			C379.6,448.3,380.1,448.1,380.3,447.6z"/>
		<path class="st4" d="M402.6,464.8l0.7,3.1c0,0-6.1-1.4-10-1.1c-3.8,0.3-5.1,0.7-5.1,0.7"/>
		<path class="st0" d="M388.5,467.5c0,0,1.8-4.2-1.6-6.9c-5.6-4.4-24.7-13.8-24.7-13.8l-2.1,2.6c0,0,11.6,5.1,13.8,7.9
			c2.2,2.7,0.6,4.3,0.6,4.3L388.5,467.5z"/>
		<path class="st4" d="M364.7,457.9c-0.3-6.2-4.5-8.1-4.5-8.1l2.6-3.8"/>
		<path class="st132" d="M354.7,455l18.5,5.8l31.8,14.7l-1.9,1.5l-48.6-16.5L354.7,455z"/>
		<path class="st4" d="M376.6,465.4c0.2-0.5-0.1-1-0.6-1.1c-0.5-0.2-1,0.1-1.1,0.5c-0.2,0.5,0.1,1,0.6,1.1
			C375.9,466.1,376.4,465.9,376.6,465.4z"/>
		<path class="st4" d="M371.2,463.6c0.2-0.5-0.1-1-0.6-1.1c-0.5-0.2-1,0.1-1.2,0.6c-0.2,0.5,0.1,1,0.6,1.1
			C370.5,464.3,371,464.1,371.2,463.6z"/>
		<path class="st4" d="M365.8,461.8c0.2-0.5-0.1-1-0.6-1.1c-0.5-0.2-1,0.1-1.2,0.6c-0.2,0.5,0.1,1,0.6,1.1
			C365.1,462.5,365.6,462.3,365.8,461.8z"/>
		<path class="st4" d="M360.4,460c0.2-0.5-0.1-1-0.6-1.1c-0.5-0.2-1,0.1-1.1,0.5c-0.2,0.5,0.1,1,0.6,1.1
			C359.7,460.7,360.2,460.5,360.4,460z"/>
	</g>
	<g>
		<polygon class="st8" points="429.2,283.3 395.2,283.3 414.2,208.3 448.2,208.3 		"/>
		<polygon class="st8" points="483.2,267.3 348.2,267.3 367.2,192.3 502.2,192.3 		"/>
		<polyline class="st13" points="399.2,267.3 428.3,267.3 424.4,283.3 		"/>
		<polygon class="st8" points="446.7,285.3 368.7,285.3 369.7,281.3 447.7,281.3 		"/>
		<path class="st13" d="M395.7,281.3c0,0,16.8,0.2,16.8,0"/>
		<g>
			<line class="st13" x1="416" y1="203.2" x2="412.7" y2="213"/>
			<line class="st13" x1="423" y1="203.2" x2="419.7" y2="213"/>
			<line class="st13" x1="430" y1="203.2" x2="426.7" y2="213"/>
			<line class="st13" x1="437" y1="203.2" x2="433.7" y2="213"/>
			<line class="st13" x1="444" y1="203.2" x2="440.7" y2="213"/>
		</g>
	</g>
	<g>
		<polygon class="st8" points="618.2,283.3 584.2,283.3 603.2,208.3 637.2,208.3 		"/>
		<polygon class="st8" points="672.2,267.3 537.2,267.3 556.2,192.3 691.2,192.3 		"/>
		<g>
			<line class="st13" x1="605" y1="203.2" x2="601.7" y2="213"/>
			<line class="st13" x1="612" y1="203.2" x2="608.7" y2="213"/>
			<line class="st13" x1="619" y1="203.2" x2="615.7" y2="213"/>
			<line class="st13" x1="626" y1="203.2" x2="622.7" y2="213"/>
			<line class="st13" x1="633" y1="203.2" x2="629.7" y2="213"/>
		</g>
		<polyline class="st13" points="588.2,267.3 617.3,267.3 613.4,283.3 		"/>
		<polygon class="st8" points="635.7,285.3 557.7,285.3 558.7,281.3 636.7,281.3 		"/>
		<path class="st13" d="M584.7,281.3c0,0,16.8,0.2,16.8,0"/>
	</g>
	<g>
		<polyline class="st15" points="754.8,318.9 770.5,464.4 778.4,464.4 778.4,318.9 		"/>
		<polyline class="st15" points="157.6,319 120.2,464.5 130.1,464.5 183.2,319 		"/>
		<polygon class="st1" points="159.2,285.1 809,285 796.2,319.8 146.4,320 		"/>
		<polyline class="st4" points="403.2,318.4 412.5,293.8 805.8,293.8 		"/>
	</g>
	<g>
		<path class="st3" d="M696.5,270.5l-33.9,5.3l-12.3-2l-13.5,4.9c0,0-1.7,4.5,0.6,5c2.3,0.5,13.1-1.3,13.1-1.3l-7.2,4.2
			c0,0-0.3,3.2,2.8,1.9c3.1-1.4,8.3-3.4,8.3-3.4s4.3,3,7.9,2.4c3.6-0.6,5.8-1.6,9.7-1.1c3.1,0.4,30.7-1,41.9-1.6
			c2.6-0.1,4.7-2.3,4.7-4.9v-23.3h-21L696.5,270.5z"/>
		<path class="st15" d="M647,278.8c-2.7,0.8-6.9,1.6-9.8,1.7"/>
		<path class="st15" d="M647.4,276.2c-0.8,0.5-3.1,0.6-4.1,0.9c-2.3,0.5-4.6,1.1-6.8,1.7"/>
	</g>
	<g>
		<path class="st8" d="M417.6,113.5L438.8,96l22.7,15.1l-17.8,22.1L417.6,113.5z"/>
		<path class="st133" d="M424.3,133l-2.8-31.6l28.5-3l-0.4,32.5L424.3,133z"/>
		<path class="st134" d="M427.9,133.3l-3-29.4l29.1-3.5l-0.7,30.8L427.9,133.3z"/>
		<path class="st0" d="M417.6,113.5l23.4,15l20.6-17.9l1.7,28.6l-43.3,3.9L417.6,113.5z"/>
		<path class="st4" d="M419.8,143.1l14.5-18.7"/>
		<path class="st4" d="M447.2,123.6l15.9,15.5"/>
		<line class="st4" x1="432.5" y1="110.5" x2="448.5" y2="108.5"/>
		<line class="st4" x1="433.5" y1="117.5" x2="448.5" y2="115.5"/>
	</g>
	<path class="st4" d="M489.6,80.5c13.8,3.8,22.8,10.7,21.4,18.4c-1.4,7.8-12.8,7-13.7-0.8c-3.8-34.6,74.4-26,87.6,2.9
		c8.2,33.1,53.2,26.7,55.6,60.5"/>
	<path class="st4" d="M381.5,139.5c12-45.7,50.5-61.3,82.5-62"/>
	<g>
		<polygon class="st6" points="410.3,48.3 396,57.3 414.8,57.3 414.8,68 464,52.8 428.2,44.7 419.3,44.7 438.1,48.3 		"/>
		<polyline class="st32" points="419.7,45.2 464,52.8 414.8,57.3 		"/>
	</g>
	<g>
		<polygon class="st1" points="608.6,150.3 615.9,157.1 605.1,155.3 604,161.7 577.3,147.7 598.7,146.4 603.8,147.3 592.7,147.6 		
			"/>
		<polyline class="st32" points="603.5,147.5 577.3,147.7 605.1,155.3 		"/>
	</g>
	<g>
		<polygon class="st0" points="239.3,84 248.2,88.5 237.3,89.7 238,96.2 208.5,90.2 228.7,83 233.9,82.5 223.2,85.8 		"/>
		<polyline class="st32" points="233.6,82.8 208.5,90.2 237.3,89.7 		"/>
	</g>
	<g>
		<path class="st135" d="M802.2,148.6c0-3.6-2.9-6.6-6.6-6.6h-48.1c-3.6,0-6.6,2.9-6.6,6.6v1.3h61.2V148.6z"/>
		<path class="st136" d="M741,149.9v29.3c0,3.6,2.9,6.6,6.6,6.6h48.1c3.6,0,6.6-2.9,6.6-6.6v-29.3H741z"/>
		<line class="st137" x1="763.9" y1="153.1" x2="763.9" y2="180.7"/>
		<rect x="751.2" y="154.7" class="st11" width="5.6" height="5.6"/>
		<rect x="751.2" y="164.2" class="st11" width="5.6" height="5.6"/>
		<rect x="751.2" y="173.7" class="st11" width="5.6" height="5.6"/>
		<rect x="749.9" y="155.9" class="st21" width="5.6" height="5.6"/>
		<rect x="749.9" y="165.4" class="st21" width="5.6" height="5.6"/>
		<rect x="749.9" y="174.9" class="st21" width="5.6" height="5.6"/>
		<polygon class="st1" points="771.6,179.3 771.6,157.8 796.4,157.8 796.4,179.4 		"/>
	</g>
	<g>
		<path class="st0" d="M769.1,174.4h6.7c0.2,0,0.4,0.2,0.4,0.4v4.1c0,0.2-0.2,0.4-0.4,0.4h-6.7c-0.2,0-0.4-0.2-0.4-0.4v-4.1
			C768.7,174.6,768.9,174.4,769.1,174.4z"/>
		<path class="st131" d="M768,181l9,0"/>
		<path class="st11" d="M779.6,171.1h6.7c0.2,0,0.4,0.2,0.4,0.4v7.3c0,0.2-0.2,0.4-0.4,0.4h-6.7c-0.2,0-0.4-0.2-0.4-0.4v-7.3
			C779.2,171.3,779.4,171.1,779.6,171.1z"/>
		<path class="st131" d="M778.5,181l9,0"/>
		<path class="st11" d="M790.1,169.5h6.7c0.2,0,0.4,0.2,0.4,0.4v9c0,0.2-0.2,0.4-0.4,0.4h-6.7c-0.2,0-0.4-0.2-0.4-0.4v-9
			C789.7,169.7,789.9,169.5,790.1,169.5z"/>
		<path class="st131" d="M789,181l9,0"/>
	</g>
	<g>
		<path class="st15" d="M323,213.9H208.8L190,288.6h114.2L323,213.9z"/>
		<polygon class="st15" points="193.8,285.6 211.1,217 319.2,217 301.9,285.6 		"/>
		<polygon class="st5" points="319.2,217 211.1,217 209.6,222.9 317.7,222.9 		"/>
		<polygon class="st15" points="208.5,227.2 193.8,285.6 301.9,285.6 316.6,227.2 		"/>
		<rect x="191" y="282.3" class="st5" width="114" height="6.4"/>
		<path class="st62" d="M293.8,259.7h-73.7c-1.5,0-2.7-1.2-2.7-2.7v-9.3c0-1.5,1.2-2.7,2.7-2.7h73.7c1.5,0,2.7,1.2,2.7,2.7v9.3
			C296.5,258.5,295.3,259.7,293.8,259.7z"/>
		<path class="st15" d="M195.1,177.7c1.4-6.5,2.9-13.8,2.9-13.8c-0.1-4.3-4.8-1.9-7.5-3.8c-4.3-2.9-12.9-1.2-16.1,6.5
			c-2.8,6.8-5.6,15.8-5.6,15.8s-1.9,22.9-9.2,23.5c5.6,0.2,20.6,2.8,26.2,3c-2.1-1-5.9-3.6-5.9-4.2c0-1,0.6-5.8,1.2-9
			c0.3-1.4,1.2-2.5,2.5-2.7c3.8-0.4,7.9-0.6,9.5-6.4c0.3-1,0.8-3.2,1.4-5.9c0.2,0,0.4,0.1,0.6,0c0.5,0,1.1-0.3,1.3-0.8
			c0.3-0.6,0-1.3-0.4-1.7C195.7,178,195.4,177.8,195.1,177.7z"/>
		<polygon class="st15" points="175,401.4 175.9,448.9 198.5,447.3 202.3,396.3 		"/>
		<g>
			<path class="st63" d="M211,453.5l-13.3-0.2l1.4-11.2c0,0,1-0.9,4.8,2.7C207.9,448.5,211,453.5,211,453.5z"/>
			<path class="st125" d="M234.8,466.5L213,467l-41.6-0.6l2.8-21.2l1.2-0.8c2.1-1.4,4.9-1.6,7.3-0.6l1.7,0.7l19.5,0.3
				c0,0,8.9,6.6,19,9.8C236.9,458.9,234.8,466.5,234.8,466.5z"/>
			<path class="st63" d="M234.5,463.7l-47-0.2c-1.4,0-2.5,1-2.5,2.2l0,0.8c0,1.2,1.1,2.2,2.4,2.2l47,0.3c1.4,0,2.5-1,2.5-2.2l0-0.8
				C237,464.7,235.9,463.7,234.5,463.7z"/>
			<path class="st63" d="M191.5,468.7l-22.2-0.3l1.4-11.6c0,0,11.3-0.7,15.2,3C189.7,463.4,191.5,468.7,191.5,468.7z"/>
		</g>
		<polygon class="st25" points="173.1,341.3 172.7,432.4 205.5,433.6 212.8,335.1 		"/>
		<polygon class="st15" points="222,409.8 208.9,447.6 231.7,447.3 250.2,406.3 		"/>
		<path class="st25" d="M121.3,293.7c0,0-15,27.3-13.3,38.1c1.7,10.8,8.5,23.2,8.5,23.2l111.4,1.8l-20.1,76.7h43.1
			c0,0,23.4-85.3,21.5-92.1c-0.6-2.2-1.4-10.8-2.8-13.4c-3.7-6.4-9.4-10.7-15.9-11.8l-64.8-3.9l2.6-18.8H121.3z"/>
		<path class="st19" d="M204.8,254.2c0.2,8.9-7.3,15.4-9.2,23.2c0,11.2,0.1,29.3-15.6,29.1h-61.7c-6.1-2.5-7.8-30.8-3.2-57.1
			c3.5-20.5,10.9-39.7,22.9-44.3l24.1,0.4l14.9,0.3c1.8,0.9,6.5,2.7,8.2,3.5C202.2,213.7,203.8,239.1,204.8,254.2z"/>
		<path class="st8" d="M158,252c-5.5,1-9.3-3.4-16-1c-6.4,2.3-6.9,7.7-12,8c-3.4,0.2-6.1-2.3-12-7c-0.9-0.7-1.5-1.3-2.9-2.7
			c3.5-20.5,10.9-39.7,22.9-44.3l24.1,0.4c5.6,2.5,9.9,6,11.9,10.6C179.7,228.5,168.8,250.1,158,252z"/>
		<g>
			<path class="st125" d="M271.7,467.6l-22.9,0.5l-43.9-0.6l4.3-21.6l19.6-0.5c0,0-0.7-4.9,4.4-4.7c3.9,0.1,15.4,11.6,26.1,14.8
				C273.9,459.8,271.7,467.6,271.7,467.6z"/>
			<path class="st63" d="M271.4,464.8l-49.6-0.3c-1.4,0-2.6,1-2.6,2.2l0,0.8c0,1.2,1.1,2.2,2.6,2.2l49.6,0.3c1.4,0,2.6-1,2.6-2.2
				l0-0.8C274,465.8,272.9,464.8,271.4,464.8z"/>
			<path class="st63" d="M226,469.8l-23.4-0.3l1.4-11.8c0,0,11.9-0.7,16,3C224.1,464.4,226,469.8,226,469.8z"/>
			<path class="st63" d="M261.5,456.2L234,440c0,0-4.4,0.7-5.5,2.4c-1.2,1.7,0.9,4.4,0.9,4.4s15.7,10.1,22.4,12.1
				C256.5,460.3,261.5,456.2,261.5,456.2z"/>
			<path class="st4" d="M236.8,449.8l-9.5,17.1"/>
		</g>
		<line class="st4" x1="172.7" y1="357.4" x2="248.5" y2="357.4"/>
		<path class="st4" d="M172.8,312.7c14.2,0.2,28.2,1.5,44.6,1.5"/>
		<polygon class="st5" points="189.3,309.2 112.7,308.6 114.1,302.4 190.2,302.3 		"/>
		<path class="st15" d="M240.3,226.2c0,0-1.1-17.5-2.7-19.5c-1.7-2-2.8,0.8-2.8,0.8l-0.5,1.4l-2.5-13.3c-0.3-1.5-2-4.8-2.8-0.1
			l0.6,13.5c0,1-0.9,5-1.3,4.1c-1.6-3.5-4-11.1-4.7-8.3c-0.9,3.4,2.5,18.9,4.8,27.2h13.9C241,228.4,240.3,226.2,240.3,226.2z"/>
		<path class="st19" d="M225,230.9c0.2,0.5,7.8,30.4,7.8,30.4L197,217.1c-7.8-3-23.8,3.9-27.4,11.3c-2.1,4.5,2.7,5.9,3.4,10.6
			l-3.8,8.9c1.1,3,3.6,5,5.8,7.2c9.4,9.1,49.3,36.8,52.2,36.8c3.4,0,30.8-0.2,32.6-1.6c7.2-6-9.4-45.5-15.1-60.8L225,230.9z"/>
		<path class="st62" d="M293.7,219.9c0,1.2-0.9,2.2-2.1,2.2c-1.2,0-2.1-1-2.1-2.2c0-1.2,0.9-2.2,2.1-2.2
			C292.8,217.8,293.7,218.7,293.7,219.9z"/>
		<path class="st62" d="M302.3,219.9c0,1.2-0.9,2.2-2.1,2.2c-1.2,0-2.1-1-2.1-2.2c0-1.2,0.9-2.2,2.1-2.2
			C301.4,217.8,302.3,218.7,302.3,219.9z"/>
		<path class="st62" d="M310.9,219.9c0,1.2-0.9,2.2-2.1,2.2c-1.2,0-2.1-1-2.1-2.2c0-1.2,0.9-2.2,2.1-2.2
			C309.9,217.8,310.9,218.7,310.9,219.9z"/>
		<path class="st62" d="M203.7,155.3c-1.1-2.3-7.7-4-9.7-5.2c-7-4.3-13.1-5-20.3-1.6C151,159,147,192,130,204
			c-18,12.7-22.1,29.7-16.4,35.1c2-5.8,5.7-11.3,11.4-14.1c-1.3,6.1-3.1,12.1-4.5,18.2c16.5,6,46.5,0.6,46.5-0.2
			c0-1.1,14.9-12.1,16-25c3-36,11.7-52.4,12.9-52.4C207,165.6,205.9,159.8,203.7,155.3z"/>
	</g>
	<path class="st32" d="M93.5,354.9h123.2l-24.8-97.3c-3.9-15.3-17.6-25.9-33.4-25.9h-52.1c-22.5,0-39,21.2-33.4,43L93.5,354.9z"/>
	<g>
		<polygon class="st1" points="93.7,359.1 235.6,359.1 234.3,352.3 92.3,352.3 		"/>
		<line class="st4" x1="273.2" y1="469" x2="235" y2="359.8"/>
		<line class="st4" x1="190.4" y1="359.8" x2="190.4" y2="469"/>
		<line class="st4" x1="154" y1="359.8" x2="173.5" y2="469"/>
		<line class="st4" x1="94.3" y1="359.8" x2="75.2" y2="469"/>
	</g>
	<circle class="st62" cx="167" cy="138" r="11"/>
	<path class="st4" d="M199.5,127.1c10.8-26.4,76-27,75.8,0.6c-0.1,10.8-16.4,11.5-17.2,0.7c-0.1-1.6,0-3.1,0.5-4.6
		c5.3-29.6,59.6-36.3,64.2-3"/>
	<path class="st29" d="M160.5,129.5c15-11,22,7,16.5,13"/>
	<path class="st15" d="M191.6,175.5c-4.3-3.5-7.2,6.8-1.4,5"/>
	<path class="st29" d="M177.5,151.5c-10-3-27.2,12.1-31.5,17.8c-2.7,3.6-5.2,7.5-7.3,11.5c-2.5,4.8-4.7,9.9-8.6,13.8
		c-2.9,2.8-6.5,4.7-9.9,6.9c-3.4,2.2-6.7,4.7-8.5,8.3c-1.8,3.6-1.6,8.5,1.5,11.1"/>
	<g>
		<rect x="489" y="134.2" class="st6" width="16.7" height="16.7"/>
		<polygon class="st135" points="500.7,146.2 503,170.8 509.5,165.7 520.4,178 529.8,170.3 518.3,158.4 524.5,152.8 		"/>
		<line class="st32" x1="519.3" y1="134.2" x2="552.7" y2="134.2"/>
		<line class="st32" x1="519.3" y1="150.9" x2="552.7" y2="150.9"/>
	</g>
	<g>
		<g>
			<path class="st2" d="M452.7,225.3c0,1.8-1.5,3.3-3.3,3.3c-1.8,0-3.3-1.5-3.3-3.3c0-1.8,1.5-3.3,3.3-3.3
				C451.3,222,452.7,223.4,452.7,225.3z"/>
			<circle class="st2" cx="463.3" cy="225.3" r="3.3"/>
			<circle class="st2" cx="477.1" cy="225.3" r="3.3"/>
			<circle class="st2" cx="490.9" cy="225.3" r="3.3"/>
			<circle class="st2" cx="504.7" cy="225.3" r="3.3"/>
		</g>
		<g>
			<path class="st2" d="M452.7,238.8c0,1.8-1.5,3.3-3.3,3.3c-1.8,0-3.3-1.5-3.3-3.3c0-1.8,1.5-3.3,3.3-3.3
				C451.3,235.5,452.7,237,452.7,238.8z"/>
			<circle class="st2" cx="463.3" cy="238.8" r="3.3"/>
			<circle class="st2" cx="477.1" cy="238.8" r="3.3"/>
			<circle class="st2" cx="490.9" cy="238.8" r="3.3"/>
			<circle class="st2" cx="504.7" cy="238.8" r="3.3"/>
		</g>
		<g>
			<path class="st2" d="M452.7,252.3c0,1.8-1.5,3.3-3.3,3.3c-1.8,0-3.3-1.5-3.3-3.3c0-1.8,1.5-3.3,3.3-3.3
				C451.3,249,452.7,250.5,452.7,252.3z"/>
			<circle class="st2" cx="463.3" cy="252.3" r="3.3"/>
			<circle class="st2" cx="477.1" cy="252.3" r="3.3"/>
			<circle class="st2" cx="490.9" cy="252.3" r="3.3"/>
			<circle class="st2" cx="504.7" cy="252.3" r="3.3"/>
		</g>
	</g>
	
		<image style="overflow:visible;" width="633" height="121" xlink:href="26841084.jpg"  transform="matrix(0.6682 0 0 0.6682 14 494)">
	</image>
	<line class="st4" x1="189.5" y1="178.5" x2="189.5" y2="183.5"/>
	<path class="st4" d="M189.5,185.5L189.5,185.5c-0.6,0-1-0.4-1-1l0,0c0-0.6,0.4-1,1-1l0,0c0.6,0,1,0.4,1,1l0,0
		C190.5,185.1,190.1,185.5,189.5,185.5z"/>
	<g>
		<g>
			<path class="st19" d="M767.6,246.9c-1.6-4.8-5.7-18.7,0-34.3c2.8-7.7,7-13.1,10.2-16.5c0,7.1-0.6,15.8-2.5,25.4
				C773.3,231.5,770.4,240.1,767.6,246.9z"/>
			<path class="st19" d="M770.2,245.6c0.5-4.1,1.9-10.8,6.4-17.8c2.5-3.9,5.3-6.9,7.6-8.9c-2.5,3.7-5.1,7.9-7.6,12.7
				C773.9,236.6,771.8,241.3,770.2,245.6z"/>
			<path class="st19" d="M765.1,244.3c-1.5-10-4.7-16.6-7.6-16.5c-3.6,0.1-6.2,10.6-6.4,11.4c2.1-2.1,4.2-4.2,6.4-6.4
				C760,236.7,762.5,240.5,765.1,244.3z"/>
			<path class="st19" d="M766.3,244.3c0.6-4.7,1.1-12.5-1.3-21.6c-2.3-8.8-6.2-15.3-8.9-19.1c1.8,3.9,3.7,8.6,5.1,14
				c2.8,10.6,3,19.9,2.5,26.7C764.7,244.3,765.5,244.3,766.3,244.3z"/>
		</g>
		<path class="st6" d="M786.3,257.7c0-4.2-5.2-7.8-12.3-9.1v-6.8h-11v6.8c-7.1,1.2-12.3,4.8-12.3,9.1c0,3.1,2.8,5.9,7.2,7.6V285
			h21.2v-19.7C783.4,263.6,786.3,260.8,786.3,257.7z"/>
		<path class="st4" d="M759.2,249.5c-0.5,1-1,2-1.2,3.1c-0.1,1.1,0.2,2.3,1.1,2.9s2.4,0.4,2.8-0.6c0.3-0.8,0-1.7-0.6-2.2
			c-0.6-0.5-1.5-0.8-2.3-0.8"/>
		<path class="st4" d="M771.6,284.7c-1.5-2.5-2.5-5.2-3.9-7.7c-1.6-2.8-3.9-5.3-5.8-7.9c-0.3-0.4-0.6-0.8-1.1-0.9
			c-0.6-0.1-1.1,0.3-1.3,0.9c-0.2,0.6-0.1,1.2,0,1.7c0.7,3,3.1,5.5,6,6.5"/>
		<path class="st4" d="M768,273.7c-0.6-4,0.2-8.3,2.4-11.8c2.1-3.5,5.5-6.2,9.4-7.5"/>
		<path class="st4" d="M776.4,261.9c0.5-0.4,1.2-0.8,1.8-0.6c0.6,0.3,0.7,1.1,0.4,1.7c-0.3,0.6-0.9,0.9-1.5,1.3
			c-1.6,0.9-4.2,2.3-6,2.3C770.9,265.1,775.3,262.8,776.4,261.9z"/>
		<path class="st4" d="M778.1,255.7c1-1.2,2.7-1.7,4.1-1.1c1,0.4,1.8,1.4,1.4,2.4c-0.4,1-1.9,1-2.9,0.6c-1-0.4-1.9-1.2-3-1.3"/>
		<path class="st4" d="M769.6,252.2c-0.4-0.4-1-0.6-1.6-0.4c-2.6,0.8,0.2,4.4,1.8,4.7C772.8,257,770.8,253.2,769.6,252.2z"/>
		<polyline class="st4" points="756.8,232.2 758.1,229.7 764,240.9 		"/>
		<line class="st4" x1="764.7" y1="221.4" x2="765.9" y2="240.9"/>
	</g>
</g>
</svg>
