<?xml version="1.0" encoding="utf-8"?>
<!-- Generator: Adobe Illustrator 24.1.2, SVG Export Plug-In . SVG Version: 6.00 Build 0)  -->
<svg version="1.1" xmlns="http://www.w3.org/2000/svg" xmlns:xlink="http://www.w3.org/1999/xlink" x="0px" y="0px"
	 viewBox="0 0 533 391" style="enable-background:new 0 0 533 391;" xml:space="preserve">
<style type="text/css">
	.st0{fill-rule:evenodd;clip-rule:evenodd;fill:#17B1B1;}
	.st1{fill-rule:evenodd;clip-rule:evenodd;fill:#F6BE22;}
	.st2{fill-rule:evenodd;clip-rule:evenodd;fill:#FFFFFF;}
	
		.st3{fill-rule:evenodd;clip-rule:evenodd;fill:#FFFFFF;stroke:#000000;stroke-width:1.33;stroke-linecap:round;stroke-linejoin:round;}
	.st4{fill:none;stroke:#000000;stroke-width:1.33;stroke-linecap:round;stroke-linejoin:round;}
	.st5{fill:#030100;}
	.st6{fill-rule:evenodd;clip-rule:evenodd;fill:#FDD2E1;}
	.st7{fill-rule:evenodd;clip-rule:evenodd;fill:#0A0704;}
	.st8{fill-rule:evenodd;clip-rule:evenodd;fill:#030100;}
	.st9{fill-rule:evenodd;clip-rule:evenodd;fill:#230E04;}
	.st10{fill-rule:evenodd;clip-rule:evenodd;fill:#000047;}
	.st11{fill-rule:evenodd;clip-rule:evenodd;fill:#F51618;}
	.st12{fill-rule:evenodd;clip-rule:evenodd;fill:#919191;}
	
		.st13{fill-rule:evenodd;clip-rule:evenodd;fill:none;stroke:#FFFFFF;stroke-width:1.33;stroke-linecap:round;stroke-linejoin:round;}
	.st14{fill:none;stroke:#FFFFFF;stroke-width:1.33;stroke-linecap:round;stroke-linejoin:round;}
	.st15{fill:#FFFFFF;stroke:#000000;stroke-width:1.33;stroke-linecap:round;stroke-linejoin:round;}
	.st16{fill-rule:evenodd;clip-rule:evenodd;fill:#24160C;}
	.st17{fill:#0A0704;stroke:#0A0704;stroke-miterlimit:10;}
	.st18{fill:#F6BE22;}
	.st19{fill:#17B1B1;}
	.st20{fill-rule:evenodd;clip-rule:evenodd;fill:#FFBE00;}
	.st21{fill-rule:evenodd;clip-rule:evenodd;fill:none;stroke:#000000;stroke-linecap:round;stroke-linejoin:round;}
	.st22{fill:none;stroke:#1A1A1A;stroke-width:1.33;stroke-linecap:round;stroke-linejoin:round;}
	.st23{fill:#0A0704;}
	.st24{fill-rule:evenodd;clip-rule:evenodd;fill:#12847E;}
	.st25{fill:#F51618;}
	.st26{fill:none;stroke:#000000;stroke-miterlimit:10;}
	.st27{fill:#0092FF;}
	.st28{fill:#007994;}
	.st29{fill:none;stroke:#F6BE22;stroke-width:1.33;stroke-linecap:round;stroke-linejoin:round;}
	.st30{fill:#FDD2E1;}
	.st31{fill:#0C9390;}
	
		.st32{fill-rule:evenodd;clip-rule:evenodd;fill:none;stroke:#000000;stroke-width:1.33;stroke-linecap:round;stroke-linejoin:round;}
	.st33{fill:#A9D18F;}
	.st34{stroke:#000000;stroke-linejoin:round;}
	.st35{fill:#C5DFB5;}
	.st36{fill:#FFFA94;}
	.st37{fill-rule:evenodd;clip-rule:evenodd;fill:#0092FF;}
	
		.st38{fill-rule:evenodd;clip-rule:evenodd;fill:#A8A8A8;stroke:#000000;stroke-width:1.33;stroke-linecap:round;stroke-linejoin:round;}
	.st39{fill-rule:evenodd;clip-rule:evenodd;fill:#C5DFB5;}
	.st40{fill-rule:evenodd;clip-rule:evenodd;fill:#A9D18F;}
	.st41{fill:none;stroke:#0066CC;stroke-width:1.33;stroke-linecap:round;stroke-linejoin:round;stroke-miterlimit:10;}
	.st42{fill-rule:evenodd;clip-rule:evenodd;fill:#FFFA94;}
	.st43{fill:#5D5D5D;}
	.st44{clip-path:url(#SVGID_6_);fill:#FFFFFF;}
	.st45{fill-rule:evenodd;clip-rule:evenodd;fill:#00CB99;}
	.st46{fill:none;stroke:#00EDB3;stroke-width:7.42;stroke-linecap:round;stroke-linejoin:round;}
	.st47{fill-rule:evenodd;clip-rule:evenodd;fill:#4971AF;}
	.st48{fill-rule:evenodd;clip-rule:evenodd;fill:#282828;}
	.st49{fill:#FFFBF2;}
	.st50{fill-rule:evenodd;clip-rule:evenodd;fill:#3AE5BB;}
	.st51{fill-rule:evenodd;clip-rule:evenodd;fill:#514A45;}
	.st52{fill-rule:evenodd;clip-rule:evenodd;fill:#F9CB00;}
	.st53{fill-rule:evenodd;clip-rule:evenodd;fill:#05DBED;}
	.st54{fill-rule:evenodd;clip-rule:evenodd;fill:#E9B200;}
	.st55{clip-path:url(#SVGID_8_);}
	.st56{fill:none;stroke:#FFFFFF;stroke-width:3;stroke-linecap:round;stroke-linejoin:round;}
	.st57{fill:none;stroke:#E9B200;stroke-width:5;stroke-miterlimit:10;}
	.st58{fill-rule:evenodd;clip-rule:evenodd;fill:#00DB00;}
	.st59{fill:#00BC00;}
	.st60{fill:#00DB00;}
	.st61{fill:none;}
	.st62{fill:#F4BC23;}
	.st63{fill-rule:evenodd;clip-rule:evenodd;}
	.st64{fill-rule:evenodd;clip-rule:evenodd;fill:#0068AB;}
	.st65{fill:#BEC7C9;}
	.st66{fill:#0068AB;}
	.st67{fill:#005C89;}
	.st68{clip-path:url(#SVGID_10_);fill:none;stroke:#000000;stroke-width:1.33;stroke-linecap:round;stroke-linejoin:round;}
	.st69{fill:#E1A916;}
	.st70{opacity:0.55;}
	.st71{fill:#FDBE43;}
	.st72{fill:#FFFFFF;}
	.st73{fill:#0067A6;}
	.st74{fill:#54D900;}
	.st75{fill:#0068A7;}
	.st76{fill:#0068A5;}
	.st77{fill:#B8B8B8;}
	.st78{fill:#5C5C5C;}
	.st79{fill:#666464;}
	.st80{fill:#5A5959;}
	.st81{fill:#7C7B7B;}
	.st82{fill:#BCBCBC;}
	.st83{fill:#757575;}
	.st84{fill:#D3D0D0;}
	.st85{fill:#0068A4;}
	.st86{fill:#0067A4;}
	.st87{fill:#4AB000;}
	.st88{fill:#7DDF45;}
	.st89{fill:#7FDF47;}
	.st90{fill:#39BB49;}
	.st91{fill:#D5EADA;}
	.st92{fill:#CDE6D3;}
	.st93{fill:#84DA60;}
	.st94{fill:#D3EAD7;}
	.st95{fill:#4AC04D;}
	.st96{fill:#6FD150;}
	.st97{fill-rule:evenodd;clip-rule:evenodd;fill:#BEC7C9;}
	.st98{fill:#D0D1D6;}
	.st99{fill-rule:evenodd;clip-rule:evenodd;fill:#7394E3;}
	
		.st100{fill-rule:evenodd;clip-rule:evenodd;fill:#17B1B1;stroke:#000000;stroke-width:1.33;stroke-linecap:round;stroke-linejoin:round;}
	.st101{fill-rule:evenodd;clip-rule:evenodd;fill:#408E96;}
	.st102{clip-path:url(#SVGID_12_);}
	.st103{fill:#408E96;}
	.st104{clip-path:url(#SVGID_14_);}
	.st105{fill-rule:evenodd;clip-rule:evenodd;fill:#9AF4F1;}
	
		.st106{fill-rule:evenodd;clip-rule:evenodd;fill:#0A0704;stroke:#FFFFFF;stroke-width:1.33;stroke-linecap:round;stroke-linejoin:round;}
	
		.st107{fill-rule:evenodd;clip-rule:evenodd;fill:#F6BE22;stroke:#000000;stroke-width:1.33;stroke-linecap:round;stroke-linejoin:round;}
	.st108{fill-rule:evenodd;clip-rule:evenodd;fill:#FDFDFD;}
	.st109{fill-rule:evenodd;clip-rule:evenodd;stroke:#000000;stroke-width:1.33;stroke-linecap:round;stroke-linejoin:round;}
	.st110{fill-rule:evenodd;clip-rule:evenodd;fill:#F5F5F5;}
	.st111{fill:none;stroke:#F51618;stroke-width:1.33;stroke-linecap:round;stroke-linejoin:round;}
	.st112{clip-path:url(#SVGID_16_);}
	.st113{fill:none;stroke:#F6F6F6;stroke-width:1.33;stroke-linecap:round;stroke-linejoin:round;}
	.st114{fill-rule:evenodd;clip-rule:evenodd;fill:#373737;}
	.st115{fill-rule:evenodd;clip-rule:evenodd;fill:#118484;}
	.st116{fill-rule:evenodd;clip-rule:evenodd;fill:#DCB6C3;}
	.st117{fill-rule:evenodd;clip-rule:evenodd;fill:#262626;}
	.st118{fill-rule:evenodd;clip-rule:evenodd;fill:#D19F14;}
	
		.st119{fill-rule:evenodd;clip-rule:evenodd;fill:#0A0704;stroke:#000000;stroke-width:1.33;stroke-linecap:round;stroke-linejoin:round;}
	.st120{fill-rule:evenodd;clip-rule:evenodd;fill:#D2A21D;}
	.st121{fill:none;stroke:#000000;stroke-width:6.34;stroke-linecap:round;stroke-linejoin:round;}
	.st122{clip-path:url(#SVGID_18_);}
	.st123{fill-rule:evenodd;clip-rule:evenodd;fill:#F6C949;}
	.st124{fill-rule:evenodd;clip-rule:evenodd;fill:#F6F6F6;}
	.st125{fill-rule:evenodd;clip-rule:evenodd;fill:#FDD2E1;stroke:#000000;stroke-width:1.33;stroke-miterlimit:10;}
	.st126{fill-rule:evenodd;clip-rule:evenodd;stroke:#FFFFFF;stroke-width:1.33;stroke-linecap:round;stroke-linejoin:round;}
	
		.st127{fill-rule:evenodd;clip-rule:evenodd;fill:#FFFFFF;stroke:#0A0704;stroke-width:1.33;stroke-linecap:round;stroke-linejoin:round;}
	
		.st128{fill-rule:evenodd;clip-rule:evenodd;fill:#31B767;stroke:#000000;stroke-width:0.75;stroke-linecap:round;stroke-linejoin:round;}
	
		.st129{fill-rule:evenodd;clip-rule:evenodd;fill:#ECB82B;stroke:#000000;stroke-width:0.75;stroke-linecap:round;stroke-linejoin:round;}
	
		.st130{fill-rule:evenodd;clip-rule:evenodd;fill:#E9EBEF;stroke:#000000;stroke-width:0.75;stroke-linecap:round;stroke-linejoin:round;}
	.st131{fill:none;stroke:#000000;stroke-width:0.75;stroke-linecap:round;stroke-linejoin:round;}
	
		.st132{fill-rule:evenodd;clip-rule:evenodd;fill:#E9EBEF;stroke:#000000;stroke-width:1.33;stroke-linecap:round;stroke-linejoin:round;}
	.st133{fill-rule:evenodd;clip-rule:evenodd;fill:#D5CECE;}
	.st134{fill-rule:evenodd;clip-rule:evenodd;fill:#FBF7F7;}
	.st135{fill-rule:evenodd;clip-rule:evenodd;stroke:#000000;stroke-miterlimit:10;}
	.st136{fill-rule:evenodd;clip-rule:evenodd;fill:#FFFFFF;stroke:#000000;stroke-linecap:round;stroke-linejoin:round;}
	.st137{fill:none;stroke:#000000;stroke-linecap:round;stroke-linejoin:round;}
	.st138{fill:#D6AE03;}
	.st139{fill:#F9CB00;}
	.st140{fill-rule:evenodd;clip-rule:evenodd;fill:none;stroke:#000000;stroke-width:7;stroke-linecap:round;stroke-linejoin:round;}
	.st141{fill-rule:evenodd;clip-rule:evenodd;fill:#F7F7F7;}
	.st142{fill:#919191;}
	.st143{clip-path:url(#SVGID_20_);fill:none;stroke:#000000;stroke-width:1.33;stroke-linecap:round;stroke-linejoin:round;}
	.st144{fill:#F6E5DC;}
	.st145{fill:#F4AA1C;}
	.st146{fill:#FBBB1F;}
	.st147{fill:#007CFF;}
	.st148{fill:none;stroke:#000000;stroke-width:1.33;stroke-linecap:round;stroke-linejoin:round;stroke-dasharray:12,15;}
	.st149{fill:#FFBE00;}
	.st150{fill-rule:evenodd;clip-rule:evenodd;fill:#0A0704;stroke:#0A0704;stroke-miterlimit:10;}
	.st151{fill:#F51618;stroke:#000000;stroke-width:1.33;stroke-linecap:round;stroke-linejoin:round;}
	.st152{fill:#5CEAE6;}
	.st153{fill:none;stroke:#000000;stroke-linejoin:round;}
	.st154{fill-rule:evenodd;clip-rule:evenodd;fill:none;}
	.st155{clip-path:url(#SVGID_24_);fill:#FFFFFF;}
	.st156{clip-path:url(#SVGID_26_);fill:none;stroke:#000000;stroke-width:1.33;stroke-linecap:round;stroke-linejoin:round;}
	.st157{clip-path:url(#SVGID_28_);}
</style>
<g id="Guides_For_Artboard">
</g>
<g id="Layer_1">
	<g>
		<path class="st19" d="M429.2,122c1.1-4.8,0.1-10.4-3.8-12c-4.6-1.9-10,2.6-13.5,6.1c3.6-6,9.7-21.6,1.6-26.2
			c-5.8-3.3-12.9,4.9-17.2,9.2c4.3-8.4,11.1-25.4,3.3-34c-6.7-7.4-16-0.4-21,6.7c-3.1-13.1-15.8-17.9-24.8-15.4
			c-10.8,3-15.1,17.5-16.1,30.8c-0.6,8.1-0.2,16.4,0.7,24.4c-7.5-1.6-11.3,8.3-11.6,17c-2.4-10-3.5-32-15.5-27.6
			c-8.7,4.4-7.6,17.6-8.1,27.6c-1.3-4.8-4.6-13.4-9.3-9.9c-3.2,2.4-3.3,8.3-2.9,13.1l75.6,36.4l67.4-25.1
			C450.1,131.6,436.6,109.7,429.2,122z"/>
		<path class="st4" d="M362.3,78.5c4.7,14.2,6.3,29.3,4.8,44.2"/>
		<path class="st4" d="M382.4,125.9c2.2-6.9,7.3-12.7,13.7-15.9c1.7-0.9,3.7-1.5,5.6-1.3c1.9,0.3,3.8,1.7,4,3.6
			c0.2,2.3-1.9,4.2-3.8,5.5c-5.7,4.1-11.5,8.2-17.2,12.4"/>
		<g>
			<rect x="420.3" y="150.5" class="st7" width="21.4" height="55.4"/>
			<polygon class="st1" points="420.3,204.3 398.8,204.3 398.8,150.5 409.5,139.8 420.3,150.5 			"/>
			<polygon class="st141" points="409.5,139.8 431,139.8 441.7,150.5 420.3,150.5 			"/>
			
				<rect x="245.4" y="156.4" transform="matrix(-1 -4.487622e-11 4.487622e-11 -1 654.1669 430.0083)" class="st6" width="163.3" height="117.1"/>
			
				<rect x="395.5" y="215.8" transform="matrix(-1 -4.515511e-11 4.515511e-11 -1 824.0749 489.3936)" class="st7" width="33" height="57.7"/>
			<polygon class="st0" points="428.5,273.6 461.5,273.6 461.5,215.8 445,199.3 428.5,215.8 			"/>
			<polygon class="st141" points="445,199.3 412,199.3 395.5,215.9 428.5,215.9 			"/>
			<polygon class="st7" points="245.4,156.4 215.7,123.5 186,156.4 186,273.6 245.4,273.6 			"/>
			<path class="st7" d="M357.8,201h17.7v-19.4c0-3-2.4-5.4-5.4-5.4h-7c-3,0-5.4,2.4-5.4,5.4V201z"/>
			<path class="st7" d="M336.2,273.6h24.7v-37c0-4.1-3.4-7.5-7.5-7.5h-9.7c-4.1,0-7.5,3.4-7.5,7.5V273.6z"/>
			<path class="st7" d="M440.1,271.9h11.5v-22.4c0-1.8-1.5-3.3-3.3-3.3h-4.9c-1.8,0-3.3,1.5-3.3,3.3V271.9z"/>
			<path class="st7" d="M286.7,273.6h24.7v-37c0-4.1-3.4-7.5-7.5-7.5h-9.7c-4.1,0-7.5,3.4-7.5,7.5V273.6z"/>
			<path class="st141" d="M200.9,273.6h24.7v-37c0-4.1-3.4-7.5-7.5-7.5h-9.7c-4.1,0-7.5,3.4-7.5,7.5V273.6z"/>
			<path class="st7" d="M318.2,201h17.7v-19.4c0-3-2.4-5.4-5.4-5.4h-7c-3,0-5.4,2.4-5.4,5.4V201z"/>
			<path class="st7" d="M277,201h17.7v-19.4c0-3-2.4-5.4-5.4-5.4h-7c-3,0-5.4,2.4-5.4,5.4V201z"/>
			<path class="st141" d="M204.4,201h17.7v-19.4c0-3-2.4-5.4-5.4-5.4h-7c-3,0-5.4,2.4-5.4,5.4V201z"/>
			<path class="st141" d="M404.3,253.8h13.8v-20.6c0-2.3-1.9-4.2-4.2-4.2h-5.4c-2.3,0-4.2,1.9-4.2,4.2V253.8z"/>
			<path class="st141" d="M425.4,166.6h11.2v-5.4c0-1.9-1.5-3.4-3.4-3.4h-4.4c-1.9,0-3.4,1.5-3.4,3.4V166.6z"/>
			<polygon class="st141" points="380.7,123.5 215.7,123.5 245.4,156.4 408.7,156.4 			"/>
			<circle class="st7" cx="445.9" cy="216.7" r="4.1"/>
			
				<rect x="436.8" y="270.3" transform="matrix(-1 -4.470925e-11 4.470925e-11 -1 891.7082 543.8302)" class="st7" width="18.1" height="3.3"/>
		</g>
		<line class="st4" x1="242.6" y1="156.2" x2="346.2" y2="156.4"/>
		<line class="st4" x1="242.6" y1="162.6" x2="294.1" y2="162.8"/>
		<path class="st0" d="M155.2,274.5h81.2c0,0,2.3-17.1-9.1-17.1s-12.6,4.6-12.6,4.6s-8-21.7-20.6-19.4c-12.6,2.3-12.6,16-12.6,16
			s-9.1-8-16-2.3S155.2,274.5,155.2,274.5z"/>
		<line class="st4" x1="359.2" y1="214.5" x2="375.2" y2="214.5"/>
		<polyline class="st4" points="362.6,214.5 362.6,217.9 369.5,217.9 		"/>
		<polyline class="st4" points="257.5,241.9 273.5,241.9 273.5,246.5 267.8,246.5 		"/>
		<line class="st4" x1="200.5" y1="274" x2="480.1" y2="272.5"/>
	</g>
	<g>
		<g>
			<path class="st7" d="M187.3,93.2c1.8,2.7,16.7,22.3,14.4,23.4c-35,16.6-19.1-16.8-22.4-17.5c-3.2-0.7-6.8,4.7-7.2,1.4
				c-1.3-12.5,2.9-9.3,6.1-10C180.6,90,185.5,90.6,187.3,93.2z"/>
			<path class="st3" d="M174.7,111.2c1.1-2.2,1.2-3.5,1.6-5.2c0.8-3.7,1.7-7.7,1.7-7.7s3.1-1,4.6-1.6c0.7,6.5,0,6.2,3.1,14
				c0.9,2.1,11.1,4.1,11.1,4.1s1.1,5.9,1.1,6.5c1.3,14.5-24,19.7-24,19.7l-5.7-18.9C168.3,122.2,173.6,113.4,174.7,111.2z"/>
			<path class="st3" d="M174.3,90.6c-1.5,6.5-2.1,12.3-2.1,14.3c0.1,2.9,2.5,4.2,4.3,4.4c1.9,0.3,4.5-0.6,5.1-3.5
				c0.7-3.4,1.7-10.8,1.6-12.2c-0.1-1.4-1.1-3-2.6-4.3C178.5,87.6,174.8,88.7,174.3,90.6z"/>
			<path class="st4" d="M175.9,98.9c-0.8,2-1.9,2.8,0.6,2.6"/>
			<path class="st7" d="M177.8,99.2c0-0.2,0.2-0.4,0.4-0.3c0.2,0,0.3,0.2,0.3,0.4c0,0.2-0.2,0.4-0.4,0.3
				C177.9,99.6,177.7,99.4,177.8,99.2z"/>
			<path class="st7" d="M173.6,98.6c0-0.2,0.2-0.4,0.4-0.3c0.2,0,0.3,0.2,0.3,0.4c0,0.2-0.2,0.4-0.4,0.3
				C173.7,99,173.6,98.8,173.6,98.6z"/>
			<path class="st3" d="M181.5,102.6c1.2,0.9,2.4-0.9,1.4-1.7c-0.3-0.2-0.6-0.3-0.9-0.2"/>
			<path class="st7" d="M170.3,93.4c0.1,0.9,3.2,2.4,9.1,2.4c3.3,0,2.2,4.6,2.9,4.7c1.7,0.2,5.5-3.3,4.8-7.6
				C185.9,86,169.2,86.6,170.3,93.4z"/>
			<path class="st4" d="M177.9,103.2c-0.1,0.6-0.6,1.1-1.2,1.2"/>
			<g>
				<path class="st3" d="M184,276.6c0,0.1,0,0.1,0,0.2l0,0.3c0.1,1.7-1.2,3.1-2.8,3.2l-9.7,0.6c-3.2,0.2-4.4-4-1.7-5.6h0
					c1-0.6,1.6-1.7,1.5-2.9l-2.6-60.1c0.2-2.4,2.9-3.6,4.8-2.1l10.2,10.2C190.4,233.9,184,276.6,184,276.6z"/>
				<path class="st3" d="M211.9,218.3l7.6,58.4l-10,4.8c0,0-17-56.5-15.3-65.5C194.9,211.8,211.9,218.3,211.9,218.3z"/>
				<path class="st7" d="M174.6,111.7l4.4,2.9c1.7,1.1,4,0.8,5.4-0.8l2.7-3.1c4.1,0.7,13.6,1.8,13.6,2.5l-19.3,51l-12.4-49.9
					L174.6,111.7z"/>
				<g>
					<path class="st142" d="M164.2,144.6l-7.7,76.4c0,0,0,0,8.4,1.1c5,0.7,11.1,3.7,17.7,3.7c5.9,0,30.2,0.3,32.2-3.6
						c3.3-6.6-9.9-57.5-9.8-57.4c5.8,3.9,11.9-13.8,7.3-33.5l0,0c0,0-1.9-11.9-4.2-14.6c-3.7-4.5-15.8-5.5-15.8-5.5l-6.8,9.6
						c-2,2.4-3.1,5.4-3.2,8.5l-0.2,6.6c0-1.3-0.1-2.5-0.1-3.6c-0.2-5.2-2-10.1-5.2-14.2l-4.7-5.8l-4.8,1.6c-3.3,1.1-5.9,3.6-7.1,6.7
						l-3.1,21.1L164.2,144.6l1.6-8L164.2,144.6L164.2,144.6z"/>
					<g>
						<defs>
							<path id="SVGID_19_" d="M164.2,144.6l-7.7,76.4c0,0,0,0,8.4,1.1c5,0.7,11.1,3.7,17.7,3.7c5.9,0,30.2,0.3,32.2-3.6
								c3.3-6.6-9.9-57.5-9.8-57.4c5.8,3.9,11.9-13.8,7.3-33.5l0,0c0,0-1.9-11.9-4.2-14.6c-3.7-4.5-15.8-5.5-15.8-5.5l-6.8,9.6
								c-2,2.4-3.1,5.4-3.2,8.5l-0.2,6.6c0-1.3-0.1-2.5-0.1-3.6c-0.2-5.2-2-10.1-5.2-14.2l-4.7-5.8l-4.8,1.6
								c-3.3,1.1-5.9,3.6-7.1,6.7l-3.1,21.1L164.2,144.6l1.6-8L164.2,144.6L164.2,144.6z"/>
						</defs>
						<clipPath id="SVGID_2_">
							<use xlink:href="#SVGID_19_"  style="overflow:visible;"/>
						</clipPath>
						
							<path style="clip-path:url(#SVGID_2_);fill:none;stroke:#000000;stroke-width:1.33;stroke-linecap:round;stroke-linejoin:round;" d="
							M141,150.1c6.6-21.2,27.9-37.2,50.7-38.3c1.5,11.1-2.9,22.6-10.2,31.2c-7.4,8.7-17.6,14.7-28.4,18.8
							c-1.4-8.3,3.3-16.7,10-22.1c6.7-5.4,15.1-8.2,23.4-10.7c10.5-3.2,21.3-5.9,32.3-6.2c1.1,18.4-10.2,35.5-24.3,47.9
							c-11.1,9.8-24.2,17.4-38.3,22.4c-1.3-7.9,2-16,7.3-22.2c5.3-6.2,12.4-10.6,19.6-14.4c11-5.7,22.9-10.2,35.3-11.8
							c1.2,5.8,1.9,11.6,2.1,17.5c0.2,4.9,0,10-2,14.5c-1.6,3.7-4.3,6.8-7.2,9.6c-15.1,14.9-36.1,23.2-57.3,27.1
							c-3.1-4-1.6-10.1,2-13.8c3.6-3.6,8.8-5.3,13.8-6.5c10.8-2.6,22.1-3.6,33.2-3c5.4,10.6,4.6,23.9-2,33.9s-18.8,16.1-31,15.8
							c2.1-6.3,7.1-11.4,12.8-15.1s12.2-6.1,18.6-8.4c8.6-3.2,17.4-6.4,26.6-6.3c2,6.9,3.2,14,3.5,21.2"/>
					</g>
				</g>
				<g>
					<g>
						<path class="st1" d="M154.3,279c6.9-1.8,13.3-5.3,13.3-5.3l9.4,5.4l8.5-0.2l0.2,2.1c0.2,1.8-1.3,3.5-3.1,3.5l-1,0l-1.4-0.4
							c-1.6-0.5-3.3-0.4-4.8,0.4l0,0l-20.8,0.5C152.4,285.1,149.2,280.3,154.3,279z"/>
					</g>
					<polygon class="st1" points="173.5,281.6 186.1,276.4 186.1,273.7 171.9,280.1 					"/>
				</g>
				<path class="st32" d="M185.7,281.1c0,0-26.8,0.5-29.2,0.5c-2.4,0-4.7,0-4.7,0"/>
				<line class="st32" x1="164.3" y1="276.4" x2="172" y2="281.3"/>
				<g>
					<path class="st1" d="M212.7,283.9c0,0-2.2-5.7,8-5.9c7-0.1,6.1,6,6.1,6L212.7,283.9z"/>
					<g>
						<path class="st1" d="M210,281.4c-0.3-1.5-1.7-2.7-2.5-3.8c-0.1-1.9-0.9-4.4-0.9-5.5c0.3,0.2,4.5,6.4,6,7.4l1.2-2.8l6.9-0.6
							c1.8,2.8,2.8,3.2,5.1,6.4l1.2,1.7c0.1,0.3-0.8,0.5-1.7,0.5h-12.7c0,0-1.2-0.5-1.6-0.5l-0.7,0.5h-1.9c0,0-0.1-1.6-0.1-3.6
							C208.9,281,209.5,281.2,210,281.4z"/>
						<path class="st10" d="M208,272.8C208,272.8,208,272.8,208,272.8C207.9,272.8,207.9,272.8,208,272.8z"/>
					</g>
					<path class="st4" d="M217.7,278.9c0,0,1.8-0.8,3-1c1.3-0.2,1.8,0.1,1.8,0.1"/>
				</g>
				<path class="st4" d="M199.9,114.4c0,0-1.9,5-1.9,10.1c0,5.1,0.1,12.2,0.1,12.2"/>
				<path class="st4" d="M168.9,114.2c0,0,0.8,5.9-0.4,9.6c-1.2,3.7-2.6,12.8-2.6,12.8"/>
				<path class="st4" d="M201.8,149.1l-1.9-2.8l-4.8-1.4l-4,9.6c0,0,6.3,6.3,12.6,10.1"/>
				<polyline class="st4" points="226.8,282.3 211.8,282.3 207.9,282.3 				"/>
			</g>
			<polyline class="st4" points="163,152.8 160,152.7 157.3,155.8 			"/>
			<path class="st15" d="M172.1,139.3c-0.3-0.4-0.1-1,0.4-1.1c0.2-0.1,1,0.3,1.1,0.3c-0.1-0.4,0.2-1,0.4-1.1
				c0.5-0.5,3.5,1.8,3.5,1.8c2.6,1,5.6,1.5,5.7,1.5c0-0.5-2.4-4.8,0.1-5c0,0,2.1,3,4,4.3c1.7,1.6,2.9,3,3.2,3.1
				c0.4,0.3,2.2,1.5,4.1,2.7c-1.2,2.8-2.5,5.6-3.6,8.5c-1.9-1.5-3.5-2.7-4.3-3.3c-4.3-1.9-9-4.3-13.3-6.2c-0.6-0.3-0.9-1-0.9-1.6
				c0-0.5,0.5-2.1,0.6-2.2C173,140.6,172.5,139.9,172.1,139.3z"/>
			<line class="st4" x1="180" y1="144.7" x2="173.3" y2="141.2"/>
			<polyline class="st4" points="181.5,143.2 176.1,140.8 173.6,138.5 			"/>
			<line class="st4" x1="185.8" y1="141.7" x2="183.2" y2="140.7"/>
			<line class="st4" x1="179.3" y1="146.2" x2="172.9" y2="143.1"/>
		</g>
		<g>
			<path class="st3" d="M140.2,279c-4-0.7-6-3-6-6c-0.1-4.5-0.4-14.6,1.7-22c-4.7,0.4-9.5-0.8-14.2,0c-0.4,15.1,2.5,32,2.5,32
				s18.6,1.4,22.6,0.2C150.7,282,144.2,279.6,140.2,279z"/>
			<path class="st3" d="M120.7,157.5c0,0-20.7,3.7-26.3,4.4l2,59c0,0-2.1,12.9-2.6,20c-0.8,11.4,1.9,26.5,2.3,32.6
				c0.4,5.7,0.8,9.7,0.8,9.7s18.6,1.4,22.6,0.2c4-1.3-2.6-3.6-6.6-4.3c-4-0.7-6-3-6-6c-0.3-10.3,4.6-33.3,7.4-43.6
				c0.8-2.7,2-14.7,2-17.6C116.2,192.4,120.7,157.5,120.7,157.5z"/>
			<path class="st7" d="M136.2,167.6c0,0,8,51.3,7.3,58.7c-0.7,7.4-5.4,35.8-5.4,35.8h-20.3l0.7-41.2l-2-7.4l-0.7,10.8l-5.4,37.8
				l-20.2,0.7l2-101.9l39.2-0.7"/>
			<path class="st1" d="M112.9,89.1c-1.9,2.7-1.2,6.2,0.2,8.3c1.6,2.3,4.6,4.2,8,3.4c3.3-0.8,5.7-3.8,5.7-7.2c0-3.8-3-6.7-6.3-7.4
				C118,85.8,114.7,86.5,112.9,89.1z"/>
			<path class="st3" d="M166.8,122.2c-1.1,1.7-5,7.2-5.8,7.7c-6,3.9-14.4,12-15.9,11.3c-6.4-2.9-6.1-12.5-7.1-18.7
				c-1.3-7.9-11.4-15.1-15.4-8.4c-3.9,6.4,6.3,40.4,18.2,41.1c12.8,0.7,21.6-18.3,26.8-22.8C169.3,130.8,170.9,116.3,166.8,122.2z"
				/>
			<path class="st3" d="M124.1,107.5c-1.1-2.2-1.3-3.6-1.6-5.3c-0.8-3.8-1.8-7.9-1.8-7.9s-3.2-1.1-4.7-1.6c-0.8,6.6,0,6.4-3.2,14.3
				c-0.9,2.2-11.4,4.2-11.4,4.2s-1.1,6-1.2,6.7c-1.4,14.9,24.5,20.2,24.5,20.2l5.9-19.3C130.6,118.8,125.2,109.8,124.1,107.5z"/>
			<path class="st3" d="M124.4,86.5c1.5,6.7,2.2,12.6,2.1,14.6c-0.1,2.9-2.5,4.3-4.4,4.5c-2,0.3-4.6-0.6-5.3-3.6
				c-0.7-3.5-1.8-11.1-1.6-12.5c0.1-1.4,1.1-3.1,2.7-4.4C120.1,83.4,124,84.5,124.4,86.5z"/>
			<path class="st4" d="M123.4,95c0.8,2,2.2,3-0.4,2.8"/>
			<path class="st16" d="M121.6,95.2c0-0.2-0.2-0.4-0.4-0.3c-0.2,0-0.3,0.2-0.3,0.4c0,0.2,0.2,0.4,0.4,0.4
				C121.5,95.6,121.6,95.4,121.6,95.2z"/>
			<path class="st16" d="M125.1,94.6c0-0.2-0.2-0.4-0.4-0.3c-0.2,0-0.3,0.2-0.3,0.4c0,0.2,0.2,0.4,0.4,0.3
				C125,95,125.2,94.8,125.1,94.6z"/>
			<path class="st16" d="M125.1,94.6c0-0.2-0.2-0.4-0.4-0.3c-0.2,0-0.3,0.2-0.3,0.4c0,0.2,0.2,0.4,0.4,0.3
				C125,95,125.2,94.8,125.1,94.6z"/>
			<path class="st3" d="M117.1,98.7c-1.2,1-2.5-0.9-1.5-1.8c0.3-0.2,0.6-0.3,0.9-0.2"/>
			<path class="st1" d="M128.6,89.3c-0.2,1-3.8,3.9-9.2,1.1C114,87.6,119,97,116,97c-1.7,0-5.4-3.8-4.6-8.2
				C113,80,129.6,82.3,128.6,89.3z"/>
			<path class="st11" d="M103.8,164.9c-20.3,5.6-15.1-1.6-12.9-17.6c0.5-3.8-1.1-14.3-0.7-17.6c0,0-0.9-7.6,6.1-16.9
				c4.1-5.4,14.2-2.2,18.2-1.3c2.9,0.6,7,2,10.3,0.4c1.4-0.7,1.7-1.8,2.2-2.1c0,0,1.8,0.2,4.1,1.7c11.2,8.7,11.2,19.5,11.2,19.5
				l-7.4,11.5c0,0,3.2,16.8,2.7,25.8c-2,0.7-6.1-2.2-8.1-2.9C123.4,165.6,104.6,164.7,103.8,164.9z"/>
			<g>
				<path class="st1" d="M138.8,110.9l34.4,2.1l-6.7,48l-34.7-2L138.8,110.9z"/>
				<path class="st4" d="M142,120.7c0.3-2.3,2.6-3.9,5-3.6c2.4,0.4,4.1,2.5,3.8,4.9c-0.3,2.3-2.6,3.9-5,3.6
					C143.4,125.2,141.7,123,142,120.7z"/>
				<path class="st4" d="M154.1,120.2l11.2,0.7"/>
				<path class="st4" d="M153.5,124.3l11.2,0.7"/>
				<path class="st4" d="M140.8,130.9l23.4,1.1"/>
				<path class="st4" d="M140.4,136l23.4,1.1"/>
				<path class="st4" d="M140,141.1l23.4,1.1"/>
				<path class="st4" d="M139.6,146.2l23.4,1.1"/>
				<path class="st4" d="M139.2,151.3l23.4,1.1"/>
			</g>
			<path class="st3" d="M104.8,125.8c-0.4,1.3-0.8,2.5-1.3,3.8c3.4-2.5,7.3-6.1,11.5-6.9c3.4-0.7,8.2-0.9,13.5,4.7
				c3,3,3.8,4.8,6.8,7.8c-0.7,0.2-2.1,1-3.5,0.3c-1.2-0.6-4.6-5.2-5.4-6.1c1.3,2.1,2.9,5.3,4.1,7.4c-0.4,0.1-0.9,0.4-2,0
				c-1.8-0.6-1.9-1.8-2-2c0,0-2.5-3-3.4-4.7c0,0,2,6.8,2,8.1c-0.6-0.2-1.7-0.6-2.7-1.4c-0.6-0.4-0.7-2.7-0.7-2.7s-1.1-1.1-2.2-2.2
				c-1.3-1.3-3.4-1.1-4.5,0.3c-5.4,7.1-12.6,13.9-14.8,15.4c-4.1,2.7-9.9,2.3-11.6,0.7c-2-2-0.7-14.2,2.7-23
				C95.5,125.9,100.5,125.4,104.8,125.8z"/>
			<line class="st4" x1="103.5" y1="129.5" x2="98.1" y2="133.5"/>
			<polyline class="st4" points="108.9,117.3 106.2,125.4 104.9,126.1 			"/>
			<polyline class="st4" points="120.4,118.7 120.4,114 115.7,115.3 110.3,110.6 			"/>
			<line class="st4" x1="120.4" y1="136.9" x2="121.7" y2="163.2"/>
			<circle class="st4" cx="117.3" cy="145.4" r="1"/>
			<circle class="st4" cx="117.3" cy="157.5" r="1"/>
			<polyline class="st4" points="128.5,111.7 127.8,114 123.8,114 			"/>
			<path class="st4" d="M120.7,98.4c0.1,0.6,0.6,1.1,1.2,1.2"/>
		</g>
		<g>
			<path class="st3" d="M173,125.7c-0.2,1.5-0.4,2.2-1,4c-0.5,1.8-3.2,3.7-3.7,2.8c-0.6-1,2.3-4.6,3.2-6.9c0.3-0.7,0.3-2.3,0.6-2.8
				C172.1,122.6,173,125.1,173,125.7z"/>
			<path class="st3" d="M172.8,125c0.2-1.1,1.4,2,1.5,2.7c0.3,1.8-1.3,4.1-2.6,5.6c-1.3,1.6-1.9,2.1-2.4,1.2c-0.5-0.9,1.8-4.1,2-4.4
				C172.3,127.8,172.3,127.7,172.8,125z"/>
		</g>
		<path class="st14" d="M118.3,195.6c0.6-6.1,0.9-14.8,0.9-14.8l7.2,31l-1.4,45.9"/>
		<g>
			<path class="st0" d="M150.7,283.8l-10.4,0.2l-19.9-0.3l1.9-9.8l8.9-0.2c0,0-0.3-2.2,2-2.2c1.8,0.1,7,5.3,11.8,6.7
				C151.7,280.2,150.7,283.8,150.7,283.8z"/>
			<path class="st63" d="M150.6,282.5l-22.5-0.1c-0.6,0-1.2,0.4-1.2,1l0,0.4c0,0.6,0.5,1,1.2,1l22.5,0.1c0.6,0,1.2-0.4,1.2-1l0-0.4
				C151.8,283,151.2,282.5,150.6,282.5z"/>
			<path class="st63" d="M130,284.8l-10.6-0.1l0.6-5.3c0,0,5.4-0.3,7.2,1.4C129.1,282.3,130,284.8,130,284.8z"/>
			<path class="st63" d="M146.1,278.6l-12.5-7.3c0,0-2,0.3-2.5,1.1c-0.5,0.8,0.4,2,0.4,2s7.1,4.6,10.1,5.5
				C143.8,280.5,146.1,278.6,146.1,278.6z"/>
			<path class="st4" d="M134.9,275.7l-4.3,7.7"/>
		</g>
		<g>
			<path class="st0" d="M123.7,283.8l-10.4,0.2l-19.9-0.3l1.9-9.8l8.9-0.2c0,0-0.3-2.2,2-2.2c1.8,0.1,7,5.3,11.8,6.7
				C124.7,280.2,123.7,283.8,123.7,283.8z"/>
			<path class="st63" d="M123.6,282.5l-22.5-0.1c-0.6,0-1.2,0.4-1.2,1l0,0.4c0,0.6,0.5,1,1.2,1l22.5,0.1c0.6,0,1.2-0.4,1.2-1l0-0.4
				C124.7,283,124.2,282.5,123.6,282.5z"/>
			<path class="st63" d="M103,284.8l-10.6-0.1l0.6-5.3c0,0,5.4-0.3,7.2,1.4C102.1,282.3,103,284.8,103,284.8z"/>
			<path class="st63" d="M119.1,278.6l-12.5-7.3c0,0-2,0.3-2.5,1.1c-0.5,0.8,0.4,2,0.4,2s7.1,4.6,10.1,5.5
				C116.8,280.5,119.1,278.6,119.1,278.6z"/>
			<path class="st4" d="M103.6,283.5l4.3-7.7l11.2,3c0,0,2,0,3.4,2c1.3,1.9,0.7,2.7,0.7,2.7"/>
		</g>
	</g>
	
		<image style="overflow:visible;" width="492" height="56" xlink:href="82DA0A3A.jpg"  transform="matrix(0.6972 0 0 0.6972 0 342)">
	</image>
</g>
</svg>
