<svg xmlns="http://www.w3.org/2000/svg" xmlns:xlink="http://www.w3.org/1999/xlink" id="Layer_3" x="0px" y="0px" width="841.89px" height="595.28px" viewBox="0 0 841.89 595.28" xml:space="preserve">
<g id="logo">
	<path d="M84.363,455.828c-0.616,0-0.909-0.303-0.909-0.908v-0.909c0-2.2-0.767-3.976-2.281-5.39   c-1.514-1.393-3.3-2.079-5.359-2.079H28.706c-5.339,0-9.528,1.797-12.556,5.35c-3.028,3.594-4.542,7.934-4.542,13.021v30.926   c0,5.088,1.514,9.468,4.542,13.102c3.028,3.635,7.217,5.45,12.556,5.45h47.107c2.06,0,3.846-0.746,5.359-2.28   c1.514-1.515,2.281-3.311,2.281-5.351v-0.907c0-0.606,0.293-0.908,0.909-0.908h8.004c0.606,0,0.908,0.302,0.908,0.908v0.907   c0,2.424-0.454,4.664-1.362,6.824c-0.918,2.119-2.19,3.916-3.826,5.45c-1.635,1.514-3.482,2.726-5.542,3.634   c-2.069,0.909-4.31,1.353-6.732,1.353H28.706c-4.017,0-7.651-0.727-10.921-2.261c-3.271-1.514-6.087-3.554-8.448-6.097   c-2.372-2.543-4.229-5.552-5.552-9.003c-1.333-3.452-1.999-7.066-1.999-10.821v-30.926c0-3.876,0.667-7.551,1.999-11.002   c1.322-3.473,3.18-6.461,5.552-9.004c2.361-2.544,5.208-4.543,8.539-6.017c3.341-1.452,6.945-2.159,10.83-2.159h47.107   c2.422,0,4.693,0.443,6.823,1.352c2.109,0.909,3.957,2.16,5.542,3.735c1.584,1.595,2.816,3.411,3.734,5.451   c0.909,2.078,1.362,4.319,1.362,6.741v0.909c0,0.605-0.302,0.908-0.908,0.908H84.363z M121.285,466.366v52.749   c0,1.453-0.454,2.645-1.363,3.553c-0.908,0.909-2.089,1.353-3.553,1.353c-1.453,0-2.624-0.443-3.533-1.353   c-0.918-0.908-1.383-2.1-1.383-3.553V401.443c0-1.453,0.464-2.645,1.383-3.552c0.909-0.909,2.08-1.354,3.533-1.354   c1.463,0,2.645,0.444,3.553,1.354c0.909,0.907,1.363,2.099,1.363,3.552v42.011c2.423-2.04,5.057-3.676,7.914-4.905   c2.846-1.212,5.905-1.817,9.185-1.817h37.649c3.998,0,7.671,0.626,11.002,1.896c3.341,1.272,6.188,3.09,8.559,5.45   c2.362,2.362,4.18,5.189,5.452,8.479c1.271,3.271,1.907,6.845,1.907,10.719v55.839c0,1.453-0.444,2.645-1.362,3.553   c-0.909,0.909-2.09,1.353-3.543,1.353s-2.645-0.443-3.554-1.353c-0.908-0.908-1.362-2.1-1.362-3.553v-55.839   c0-5.208-1.544-9.307-4.644-12.293c-3.088-2.948-7.246-4.441-12.455-4.441h-37.649c-2.665,0-5.067,0.586-7.187,1.716   c-2.129,1.171-3.916,2.685-5.359,4.563c-1.464,1.877-2.584,3.996-3.371,6.359C121.669,461.541,121.285,463.943,121.285,466.366z    M307.724,436.731c1.454,0,2.636,0.443,3.544,1.352c0.907,0.909,1.372,2.101,1.372,3.554v77.479c0,1.453-0.465,2.645-1.372,3.553   c-0.908,0.909-2.09,1.353-3.544,1.353h-1.453c-2.302,0-3.452-1.15-3.452-3.452v-3.452c-2.664,2.182-5.552,3.876-8.64,5.087   c-3.099,1.212-6.399,1.817-9.922,1.817h-36.186c-4.007,0-7.651-0.727-10.921-2.261c-3.28-1.514-6.097-3.554-8.459-6.097   s-4.208-5.552-5.552-9.003c-1.332-3.452-1.998-7.066-1.998-10.821v-30.926c0-3.876,0.667-7.551,1.998-11.002   c1.343-3.473,3.189-6.461,5.552-9.004c2.362-2.544,5.219-4.543,8.55-6.017c3.331-1.452,6.934-2.159,10.83-2.159h37.649   c6.54,0,12.233,2.059,17.099,6.178v-3.09c0-2.079,1.029-3.088,3.09-3.088H307.724z M230.962,464.913v30.926   c0,5.088,1.544,9.468,4.644,13.102c3.088,3.635,7.246,5.45,12.465,5.45h36.186c2.543,0,4.976-0.484,7.277-1.453   s4.279-2.302,5.904-3.997c1.646-1.696,2.948-3.694,3.917-5.915c0.979-2.261,1.463-4.622,1.463-7.187v-30.926   c0-5.088-1.544-9.428-4.643-13.021c-3.1-3.553-7.247-5.35-12.456-5.35h-37.649c-5.219,0-9.377,1.797-12.465,5.35   C232.507,455.485,230.962,459.825,230.962,464.913z M335.734,396.538h0.183c1.333,0,2.453,0.444,3.361,1.354   c0.907,0.907,1.361,2.038,1.361,3.37c0,1.454-0.454,2.625-1.361,3.553c-0.908,0.889-2.028,1.353-3.361,1.353h-0.183   c-1.453,0-2.634-0.464-3.542-1.353c-0.909-0.928-1.363-2.099-1.363-3.553c0-1.332,0.454-2.463,1.363-3.37   C333.1,396.982,334.281,396.538,335.734,396.538z M335.734,436.731c1.455,0,2.636,0.443,3.544,1.352   c0.907,0.909,1.361,2.101,1.361,3.554v77.479c0,1.453-0.454,2.645-1.361,3.553c-0.908,0.909-2.089,1.353-3.544,1.353   c-1.453,0-2.634-0.443-3.542-1.353c-0.909-0.908-1.363-2.1-1.363-3.553v-77.479c0-1.453,0.454-2.645,1.363-3.554   C333.1,437.175,334.281,436.731,335.734,436.731z M423.409,446.542h-37.65c-5.228,0-9.377,1.493-12.455,4.441   c-3.099,2.986-4.644,7.085-4.644,12.293v55.839c0,1.453-0.464,2.645-1.372,3.553c-0.908,0.909-2.089,1.353-3.544,1.353   c-1.453,0-2.634-0.443-3.542-1.353c-0.909-0.908-1.373-2.1-1.373-3.553v-55.839c0-3.996,0.707-7.61,2.09-10.82   c1.402-3.209,3.291-6.016,5.642-8.378c2.362-2.36,5.209-4.178,8.561-5.45c3.331-1.271,6.873-1.896,10.638-1.896h37.65   c4.006,0,7.671,0.626,11.012,1.896c3.321,1.272,6.176,3.09,8.549,5.45c2.362,2.362,4.18,5.189,5.45,8.479   c1.272,3.271,1.898,6.845,1.898,10.719v55.839c0,1.453-0.444,2.645-1.363,3.553c-0.897,0.909-2.089,1.353-3.542,1.353   c-1.455,0-2.636-0.443-3.544-1.353c-0.907-0.908-1.361-2.1-1.361-3.553v-55.839c0-5.208-1.546-9.307-4.644-12.293   C432.775,448.035,428.616,446.542,423.409,446.542z M468.506,401.443c0-1.453,0.454-2.645,1.372-3.552   c0.908-0.909,2.09-1.354,3.534-1.354c1.473,0,2.644,0.444,3.572,1.354c0.909,0.907,1.343,2.099,1.343,3.552v117.672   c0,1.453-0.434,2.645-1.343,3.553c-0.929,0.909-2.1,1.353-3.572,1.353c-1.444,0-2.626-0.443-3.534-1.353   c-0.918-0.908-1.372-2.1-1.372-3.553V401.443z M496.527,497.474v-34.197c0-3.996,0.685-7.61,2.099-10.82   c1.372-3.209,3.271-6.016,5.623-8.378c2.371-2.36,5.218-4.178,8.549-5.45c3.331-1.271,6.885-1.896,10.639-1.896h37.648   c4.018,0,7.672,0.626,11.022,1.896c3.331,1.272,6.178,3.09,8.54,5.45c2.361,2.362,4.179,5.189,5.451,8.479   c1.271,3.271,1.917,6.845,1.917,10.719v34.197c0,4.019-0.667,7.651-1.998,10.922c-1.333,3.27-3.21,6.056-5.633,8.357   c-2.443,2.302-5.289,4.099-8.559,5.369c-3.271,1.272-6.845,1.898-10.741,1.898h-37.648c-3.876,0-7.48-0.646-10.811-1.998   c-3.342-1.333-6.187-3.17-8.549-5.531c-2.362-2.362-4.219-5.188-5.552-8.459C497.181,504.762,496.527,501.229,496.527,497.474z    M511.081,509.667c3.029,3.149,7.146,4.724,12.355,4.724h37.648c5.209,0,9.377-1.554,12.466-4.643   c3.1-3.088,4.634-7.166,4.634-12.274v-34.197c0-5.086-1.534-9.145-4.634-12.192c-3.089-3.008-7.257-4.542-12.466-4.542h-37.648   c-5.209,0-9.367,1.534-12.456,4.542c-3.088,3.048-4.643,7.106-4.643,12.192v34.197C506.337,502.582,507.932,506.64,511.081,509.667   z M687.88,534.76V518.57c-2.441,1.817-5.106,3.189-8.014,4.098c-2.907,0.909-5.944,1.353-9.095,1.353h-37.659   c-3.876,0-7.488-0.646-10.81-1.998c-3.331-1.333-6.188-3.17-8.55-5.531c-2.361-2.362-4.219-5.188-5.542-8.459   c-1.342-3.271-2.008-6.804-2.008-10.559v-34.197c0-3.996,0.707-7.61,2.1-10.82c1.373-3.209,3.27-6.016,5.632-8.378   c2.362-2.36,5.218-4.178,8.549-5.45c3.331-1.271,6.875-1.896,10.629-1.896h37.659c3.15,0,6.188,0.443,9.095,1.352   c2.907,0.909,5.572,2.281,8.014,4.099v-2.726c0-1.837,0.91-2.725,2.726-2.725h2.181c1.454,0,2.635,0.443,3.543,1.352   c0.918,0.909,1.362,2.101,1.362,3.554v93.123c0,3.997-0.665,7.631-1.998,10.902c-1.332,3.29-3.21,6.075-5.633,8.377   c-2.422,2.321-5.289,4.078-8.559,5.351c-3.271,1.271-6.854,1.937-10.73,1.937h-44.018c-1.454,0-2.635-0.483-3.543-1.353   c-0.908-0.948-1.362-2.12-1.362-3.572c0-1.453,0.454-2.645,1.362-3.554c0.908-0.908,2.089-1.352,3.543-1.352h44.018   c5.219,0,9.367-1.494,12.467-4.462C686.327,544.066,687.88,539.989,687.88,534.76z M683.32,451.084   c-3.15-3.008-7.329-4.542-12.548-4.542h-37.659c-5.209,0-9.356,1.534-12.444,4.542c-3.09,3.048-4.644,7.106-4.644,12.192v34.197   c0,5.108,1.554,9.187,4.644,12.274c3.088,3.089,7.235,4.643,12.444,4.643h37.659c5.219,0,9.367-1.554,12.467-4.643   c3.088-3.088,4.642-7.166,4.642-12.274v-34.197C687.88,458.19,686.347,454.132,683.32,451.084z M720.786,396.538h0.183   c1.343,0,2.463,0.444,3.371,1.354c0.908,0.907,1.362,2.038,1.362,3.37c0,1.454-0.454,2.625-1.362,3.553   c-0.908,0.889-2.028,1.353-3.371,1.353h-0.183c-1.442,0-2.634-0.464-3.531-1.353c-0.919-0.928-1.374-2.099-1.374-3.553   c0-1.332,0.455-2.463,1.374-3.37C718.152,396.982,719.343,396.538,720.786,396.538z M720.786,436.731   c1.465,0,2.646,0.443,3.554,1.352c0.908,0.909,1.362,2.101,1.362,3.554v77.479c0,1.453-0.454,2.645-1.362,3.553   c-0.908,0.909-2.089,1.353-3.554,1.353c-1.442,0-2.634-0.443-3.531-1.353c-0.919-0.908-1.374-2.1-1.374-3.553v-77.479   c0-1.453,0.455-2.645,1.374-3.554C718.152,437.175,719.343,436.731,720.786,436.731z M835.571,519.298   c2.907,3.148,2.24,4.723-1.998,4.723h-0.728c-1.695,0-3.451-0.362-5.288-1.09c-1.817-0.728-3.311-1.757-4.543-3.088l-30.916-32.542   L761,519.843c-1.222,1.331-2.726,2.36-4.563,3.088c-1.815,0.728-3.572,1.09-5.268,1.09h-0.728c-4.239,0-4.915-1.574-1.998-4.723   l37.105-38.942l-37.105-38.901c-2.917-3.128-2.241-4.723,1.998-4.723h0.728c1.695,0,3.452,0.343,5.268,1.069   c1.838,0.748,3.342,1.757,4.563,3.108l31.099,32.563l30.916-32.563c1.232-1.352,2.726-2.36,4.543-3.108   c1.837-0.727,3.593-1.069,5.288-1.069h0.728c4.238,0,4.905,1.595,1.998,4.723l-36.922,38.901L835.571,519.298z"></path>
	<path fill-rule="evenodd" clip-rule="evenodd" fill="#C2C2C2" d="M116.662,65.153c-3.987,0-7.711,1.03-11.173,3.109   s-6.228,4.845-8.317,8.316L38.447,179.475c-2.251,3.118-3.372,6.581-3.372,10.386c0,4.17,1.121,7.894,3.372,11.185l58.725,102.37   c2.09,3.644,4.855,6.419,8.317,8.315c3.462,1.919,7.187,2.867,11.173,2.867h117.712c3.987,0,7.621-0.948,10.911-2.867   c3.643-1.896,6.409-4.672,8.317-8.315l26.768-46.513l17.928-31.169l14.029-24.688c2.241-3.291,3.371-7.015,3.371-11.185   c0-3.805-1.13-7.268-3.371-10.386l-14.029-24.689l17.936-31.442l30.401,53.285c2.766,3.967,4.159,8.398,4.159,13.232   c0,5.199-1.394,9.801-4.159,13.788l-30.401,53.254l-17.936,31.189l-25.205,43.646c-2.422,4.502-5.895,7.973-10.396,10.396   c-4.158,2.442-8.66,3.653-13.505,3.653H101.855c-5.027,0-9.619-1.211-13.768-3.653c-4.511-2.424-7.974-5.895-10.396-10.396   L4.159,203.648C1.383,199.661,0,195.06,0,189.86c0-4.834,1.383-9.266,4.159-13.232L77.691,47.994   c2.422-4.168,5.885-7.529,10.396-10.134c4.149-2.604,8.741-3.906,13.768-3.906h147.337c4.845,0,9.347,1.302,13.505,3.906   c4.502,2.604,7.975,5.966,10.396,10.134l25.205,43.908l-17.928,31.44l-26.768-46.764c-1.909-3.472-4.674-6.237-8.317-8.316   c-3.291-2.079-6.924-3.109-10.911-3.109H116.662z"></path>
	<path fill-rule="evenodd" clip-rule="evenodd" fill="#34D3CE" d="M518.651,47.994l25.214,43.908l-17.937,31.44l-26.768-46.764   c-1.908-3.472-4.674-6.237-8.327-8.316c-3.28-2.079-6.924-3.109-10.901-3.109H362.22c-3.987,0-7.712,1.03-11.174,3.109   s-6.228,4.845-8.316,8.316l-26.496,46.764l-17.936,31.442l-14.293,24.689c-2.261,3.118-3.382,6.581-3.382,10.386   c0,4.17,1.121,7.894,3.382,11.185l14.293,24.688l-17.928,31.169l-30.664-53.254c-2.776-3.987-4.158-8.589-4.158-13.788   c0-4.834,1.382-9.266,4.158-13.232l30.664-53.285l17.928-31.44l24.95-43.908c2.413-4.168,5.885-7.529,10.396-10.134   c4.149-2.604,8.73-3.906,13.768-3.906H494.73c4.864,0,9.356,1.302,13.524,3.906C512.756,40.465,516.209,43.826,518.651,47.994z    M543.865,154.785l17.927-31.442l30.383,53.285c2.784,3.967,4.158,8.398,4.158,13.232c0,5.199-1.374,9.801-4.158,13.788   l-30.383,53.254l-17.927,31.189l-25.214,43.646c-2.441,4.502-5.895,7.973-10.396,10.396c-4.168,2.442-8.66,3.653-13.524,3.653   H347.413c-5.037,0-9.618-1.211-13.768-3.653c-4.512-2.424-7.983-5.895-10.396-10.396l-24.95-43.646l17.936-31.189l26.496,46.513   c2.089,3.644,4.854,6.419,8.316,8.315c3.462,1.919,7.187,2.867,11.174,2.867h117.712c3.978,0,7.621-0.948,10.901-2.867   c3.653-1.896,6.419-4.672,8.327-8.315l26.768-46.513l17.937-31.169l14.021-24.688c2.251-3.291,3.382-7.015,3.382-11.185   c0-3.805-1.131-7.268-3.382-10.386L543.865,154.785z"></path>
	<path fill-rule="evenodd" clip-rule="evenodd" fill="#2E0F94" d="M543.865,91.902l24.932-43.908   c2.423-4.168,5.874-7.529,10.396-10.134c4.159-2.604,8.741-3.906,13.768-3.906h147.337c4.845,0,9.357,1.302,13.515,3.906   c4.503,2.604,7.965,5.966,10.377,10.134l73.543,128.634c2.774,3.967,4.158,8.398,4.158,13.232c0,5.199-1.384,9.801-4.158,13.788   l-73.543,128.089c-2.412,4.502-5.874,7.973-10.377,10.396c-4.157,2.442-8.67,3.653-13.515,3.653H592.96   c-5.026,0-9.608-1.211-13.768-3.653c-4.522-2.424-7.974-5.895-10.396-10.396l-24.932-43.646l17.927-31.189l26.486,46.513   c2.1,3.644,4.865,6.419,8.317,8.315c3.481,1.919,7.205,2.867,11.183,2.867h117.713c3.977,0,7.63-0.948,10.9-2.867   c3.653-1.896,6.419-4.672,8.327-8.315l58.715-102.37c2.261-3.291,3.392-7.015,3.392-11.185c0-3.805-1.131-7.268-3.392-10.386   L744.718,76.579c-1.908-3.472-4.674-6.237-8.327-8.316c-3.271-2.079-6.924-3.109-10.9-3.109H607.778   c-3.978,0-7.701,1.03-11.183,3.109c-3.452,2.079-6.218,4.845-8.317,8.316l-26.486,46.764l-17.927,31.442l-14.303,24.689   c-2.239,3.118-3.37,6.581-3.37,10.386c0,4.17,1.131,7.894,3.37,11.185l14.303,24.688l-17.937,31.169l-30.674-53.254   c-2.766-3.987-4.158-8.589-4.158-13.788c0-4.834,1.393-9.266,4.158-13.232l30.674-53.285L543.865,91.902z"></path>
</g>
</svg>