<svg width="28" height="29" viewBox="0 0 28 29" fill="none" xmlns="http://www.w3.org/2000/svg">
<path d="M27.2939 3.84375V25.1562C27.2939 26.7613 26.0183 28.0625 24.4446 28.0625H3.54953C1.97586 28.0625 0.700195 26.7613 0.700195 25.1562V3.84375C0.700195 2.23865 1.97586 0.9375 3.54953 0.9375H24.4446C26.0183 0.9375 27.2939 2.23865 27.2939 3.84375ZM22.0702 4.8125H15.4235C14.1583 4.8125 13.5192 6.3783 14.416 7.29317L16.3146 9.22988L4.70796 21.0684C4.42979 21.3521 4.42979 21.8122 4.70796 22.096L6.54987 23.9747C6.8281 24.2584 7.27912 24.2584 7.55729 23.9747L19.1639 12.1362L21.0628 14.0731C21.9549 14.983 23.4948 14.3441 23.4948 13.0456V6.26562C23.4948 5.46308 22.857 4.8125 22.0702 4.8125Z" fill="white"/>
</svg>
