<?xml version="1.0" encoding="utf-8"?>
<!-- Generator: Adobe Illustrator 16.0.0, SVG Export Plug-In . SVG Version: 6.00 Build 0)  -->
<!DOCTYPE svg PUBLIC "-//W3C//DTD SVG 1.1//EN" "http://www.w3.org/Graphics/SVG/1.1/DTD/svg11.dtd">
<svg version="1.1" id="Layer_1" xmlns="http://www.w3.org/2000/svg" xmlns:xlink="http://www.w3.org/1999/xlink" x="0px" y="0px"
	 width="653px" height="180px" viewBox="0 0 653 180" enable-background="new 0 0 653 180" xml:space="preserve">
<path fill-rule="evenodd" clip-rule="evenodd" fill="#4EC1C2" d="M503.248,16.201h20.358v20.353h-20.358V16.201z M402.083,135.061
	c0,24.818,20.186,44.939,45.082,44.939c24.899,0,45.082-20.121,45.082-44.939l-19.825,0.02c0,13.818-11.355,25.02-25.362,25.02
	s-25.362-11.201-25.362-25.02L402.083,135.061z"/>
<path fill-rule="evenodd" clip-rule="evenodd" fill="#2E0F94" d="M503.107,46.414h21.275v86.147h-21.275V46.414z M447.165,134.387
	c-24.896,0-45.082-20.12-45.082-44.94c0-24.797,20.139-44.9,44.997-44.941v-0.012h44.944v19.649h-7.594
	c4.931,7.206,7.816,15.917,7.816,25.304C492.247,114.267,472.064,134.387,447.165,134.387z M447.06,64.443
	c-14.007,0-25.362,11.203-25.362,25.025c0,13.815,11.355,25.018,25.362,25.018s25.362-11.203,25.362-25.018
	C472.422,75.646,461.066,64.443,447.06,64.443z M348.414,134.387c-24.902,0-45.085-20.12-45.085-44.94
	c0-24.825,20.183-44.944,45.085-44.944c24.899,0,45.082,20.12,45.082,44.944C393.496,114.267,373.313,134.387,348.414,134.387z
	 M348.414,64.425c-14.01,0-25.362,11.199-25.362,25.021c0,13.815,11.353,25.02,25.362,25.02c14.004,0,25.359-11.204,25.359-25.02
	C373.773,75.624,362.418,64.425,348.414,64.425z M250.979,89.446V7.015L270.698,0v89.446c0,13.815,11.361,25.02,25.365,25.02v19.921
	C271.161,134.387,250.979,114.267,250.979,89.446z M592.413,89.427l28.778-43.046h-25.266L579.78,70.528l-16.148-24.146h-25.263
	l28.778,43.046l-29.874,44.676h25.269l17.238-25.781l48.012,71.617h25.166L592.413,89.427z M268.255,179.939h-25.16l-48.012-71.617
	l-17.238,25.781h-25.269l29.871-44.676l-28.772-43.046h25.26l16.148,24.146l16.146-24.146h25.26l-28.772,43.046L268.255,179.939z
	 M119.978,129.489c-6.144,3.129-13.096,4.897-20.467,4.897c-24.902,0-45.085-20.12-45.085-44.94
	c0-24.825,20.183-44.944,45.085-44.944c7.371,0,14.326,1.762,20.467,4.89v-3.01h19.661v87.013h-19.661V129.489z M119.978,74.67
	c-4.614-6.212-12.062-10.245-20.467-10.245c-14.01,0-25.365,11.199-25.365,25.021c0,13.815,11.355,25.02,25.365,25.02
	c8.405,0,15.853-4.038,20.467-10.249V74.67z M45.13,114.466v19.921c-24.899,0-45.088-20.12-45.088-44.94V7.015L19.765,0v44.272
	h18.454v19.649H19.765v25.525C19.765,103.262,31.12,114.466,45.13,114.466z"/>
</svg>
